<svg width="654" height="674" viewBox="0 0 654 674" fill="none" xmlns="http://www.w3.org/2000/svg">
<path d="M428.198 156.731C465.742 200.805 506.143 217.128 552.258 246.919C598.78 276.71 651.016 319.967 653.873 364.857C656.729 410.156 611.023 456.678 566.949 490.958C523.283 525.238 481.658 546.866 441.257 581.146C400.856 615.018 361.271 661.54 316.381 671.334C271.083 680.721 220.479 653.378 168.652 625.628C116.416 598.286 62.9557 570.944 33.9812 527.278C5.41479 483.612 1.33387 423.215 0.925781 363.225C0.925781 302.828 4.5986 242.43 25.8194 185.705C47.0401 128.98 85.8089 75.5205 138.045 40.0165C190.28 4.51249 255.983 -13.0355 306.178 13.8986C355.966 41.2407 390.653 112.657 428.198 156.731Z" fill="#B3E5F6"/>
</svg>
