<svg width="638" height="341" viewBox="0 0 638 341" fill="none" xmlns="http://www.w3.org/2000/svg">
<path d="M636.218 340H1.4713C0.849165 340 0.344727 339.328 0.344727 338.5C0.344727 337.672 0.849165 337 1.4713 337H636.218C636.84 337 637.345 337.672 637.345 338.5C637.345 339.328 636.84 340 636.218 340Z" fill="black"/>
<path d="M568.298 316.677C584.811 316.677 598.198 303.29 598.198 286.777V246.016H538.398V286.777C538.398 303.29 551.785 316.677 568.298 316.677Z" fill="#6BB2E3"/>
<path d="M598.197 340.088H601.511V276.82H598.197V340.088Z" fill="#425899"/>
<path d="M535.084 340.088H538.398V276.82H535.084V340.088Z" fill="#425899"/>
<path d="M560.444 340.088H563.758V276.82H560.444V340.088Z" fill="#425899"/>
<path d="M601.511 319.991V316.677H538.244V319.991H601.511Z" fill="#425899"/>
<path d="M558.35 169.018C563.936 171.991 559.523 179.296 561.81 186.22C564.098 193.145 573.29 192.978 569.818 205.369C567.68 213.001 560.105 208.217 560.278 218.139C560.452 228.061 564.209 227.818 561.293 232.919C556.21 241.812 538.884 236.837 538.747 226.907C538.611 216.978 546.922 213.6 539.9 208.982C532.878 204.363 530.068 202.262 534.69 195.659C540.411 187.485 549.281 187.732 546.8 181.352C544.319 174.972 550.961 165.086 558.35 169.018Z" fill="#A3CFFF"/>
<path d="M555.399 245.791L553.943 246.209C544.056 211.753 553.313 179.309 553.408 178.985L554.861 179.41C554.768 179.73 545.636 211.771 555.399 245.791Z" fill="#425899"/>
<path d="M632.488 161.787C636.61 169.186 626.344 174.195 623.889 183.643C621.434 193.09 632.437 195.807 619.536 207.22C611.59 214.249 609.639 210.216 607.363 225.131C605.359 238.262 594.843 226.417 587.86 234.427C578.851 244.762 562.841 223.949 569.897 212.684C576.953 201.42 585.997 203.764 581.453 193.472C576.91 183.18 581.26 175.019 591.252 170.949C603.619 165.911 608.703 176.246 610.545 167.27C612.387 158.294 627.035 152.001 632.488 161.787Z" fill="#A1D3FF"/>
<path d="M573.427 245.974C587.158 200.605 620.683 171.231 621.02 170.94L619.694 169.406C619.353 169.702 585.387 199.462 571.487 245.387L573.427 245.974Z" fill="#425899"/>
<path d="M64.2811 49.1153C64.8951 52.8387 66.9647 56.2153 69.8068 58.6514C72.6488 61.0877 76.2732 62.6029 79.9964 62.6029H114.932C119.854 62.6029 123.726 59.9586 125.429 56.0175C126.301 53.9972 126.608 51.6405 126.192 49.1155C125.578 45.3921 123.508 42.0155 120.676 39.5794C117.824 37.1433 114.21 35.6279 110.487 35.6279H75.5502C73.8271 35.6279 72.2328 35.9548 70.8169 36.5392C66.1033 38.4997 63.3403 43.3915 64.2811 49.1153Z" fill="#61B8FF"/>
<path d="M113.164 76.1607C114.503 76.1607 115.452 74.8567 115.042 73.5831L110.35 59.0235C110.087 58.2085 109.329 57.656 108.472 57.656C107.134 57.656 106.185 58.9601 106.595 60.2336L111.287 74.7933C111.55 75.6082 112.308 76.1607 113.164 76.1607Z" fill="#123E80"/>
<path d="M90.0292 76.1607C91.3675 76.1607 92.3171 74.8567 91.9067 73.5831L87.2147 59.0235C86.952 58.2085 86.1935 57.656 85.3373 57.656C83.999 57.656 83.0494 58.9601 83.4598 60.2336L88.1518 74.7933C88.4143 75.6082 89.173 76.1607 90.0292 76.1607Z" fill="#123E80"/>
<path d="M70.0635 43.4213C70.6775 47.1447 72.7471 50.5213 75.5892 52.9674C78.4312 55.4035 82.0556 56.9184 85.779 56.9184H120.715C122.428 56.9184 124.013 56.6016 125.429 56.0175C126.3 53.9972 126.607 51.6405 126.191 49.1155C125.577 45.3921 123.508 42.0155 120.676 39.5794C117.824 37.1433 114.209 35.6279 110.486 35.6279H75.5496C73.8265 35.6279 72.2322 35.9548 70.8163 36.5392C69.9547 38.5592 69.6477 40.9058 70.0635 43.4213Z" fill="#9EDDFF"/>
<path d="M219.128 318.332H212.545V330.585H219.128V318.332Z" fill="#0D192B"/>
<path d="M169.754 318.332H163.17V330.585H169.754V318.332Z" fill="#0D192B"/>
<path d="M114.568 318.332H107.984V330.585H114.568V318.332Z" fill="#0D192B"/>
<path d="M112.911 338.485C115.684 338.485 117.932 334.931 117.932 330.546C117.932 326.162 115.684 322.607 112.911 322.607C110.138 322.607 107.89 326.162 107.89 330.546C107.89 334.931 110.138 338.485 112.911 338.485Z" fill="#0D192B"/>
<path d="M117.776 338.485C120.549 338.485 122.797 334.931 122.797 330.546C122.797 326.162 120.549 322.607 117.776 322.607C115.003 322.607 112.755 326.162 112.755 330.546C112.755 334.931 115.003 338.485 117.776 338.485Z" fill="#0D192B"/>
<path d="M119.712 337.843C117.623 339.473 111.785 338.735 110.968 337.892L110.931 323.247C112.498 321.874 118.026 321.923 119.71 323.171L119.712 337.843Z" fill="#0D192B"/>
<path d="M118.25 335.771C120.15 335.771 121.691 333.336 121.691 330.331C121.691 327.327 120.15 324.891 118.25 324.891C116.35 324.891 114.809 327.327 114.809 330.331C114.809 333.336 116.35 335.771 118.25 335.771Z" fill="#1E62CC"/>
<path d="M117.886 333.802C119.044 333.802 119.982 332.318 119.982 330.487C119.982 328.656 119.044 327.172 117.886 327.172C116.728 327.172 115.789 328.656 115.789 330.487C115.789 332.318 116.728 333.802 117.886 333.802Z" fill="#0D192B"/>
<path d="M165.47 338.485C168.243 338.485 170.491 334.931 170.491 330.546C170.491 326.162 168.243 322.607 165.47 322.607C162.697 322.607 160.449 326.162 160.449 330.546C160.449 334.931 162.697 338.485 165.47 338.485Z" fill="#0D192B"/>
<path d="M160.604 338.485C163.377 338.485 165.625 334.931 165.625 330.546C165.625 326.162 163.377 322.607 160.604 322.607C157.831 322.607 155.583 326.162 155.583 330.546C155.583 334.931 157.831 338.485 160.604 338.485Z" fill="#0D192B"/>
<path d="M158.667 337.843C160.756 339.473 166.595 338.735 167.411 337.892L167.448 323.247C165.881 321.874 160.353 321.923 158.669 323.171L158.667 337.843Z" fill="#0D192B"/>
<path d="M160.129 335.771C162.03 335.771 163.57 333.336 163.57 330.331C163.57 327.327 162.03 324.891 160.129 324.891C158.229 324.891 156.688 327.327 156.688 330.331C156.688 333.336 158.229 335.771 160.129 335.771Z" fill="#1E62CC"/>
<path d="M160.494 333.802C161.652 333.802 162.591 332.318 162.591 330.487C162.591 328.656 161.652 327.172 160.494 327.172C159.336 327.172 158.397 328.656 158.397 330.487C158.397 332.318 159.336 333.802 160.494 333.802Z" fill="#0D192B"/>
<path d="M215.62 338.485C218.393 338.485 220.641 334.931 220.641 330.546C220.641 326.162 218.393 322.607 215.62 322.607C212.847 322.607 210.599 326.162 210.599 330.546C210.599 334.931 212.847 338.485 215.62 338.485Z" fill="#0D192B"/>
<path d="M210.754 338.485C213.527 338.485 215.775 334.931 215.775 330.546C215.775 326.162 213.527 322.607 210.754 322.607C207.98 322.607 205.732 326.162 205.732 330.546C205.732 334.931 207.98 338.485 210.754 338.485Z" fill="#0D192B"/>
<path d="M208.817 337.843C210.906 339.473 216.745 338.735 217.561 337.892L217.598 323.247C216.031 321.874 210.503 321.923 208.82 323.171L208.817 337.843Z" fill="#0D192B"/>
<path d="M210.279 335.771C212.179 335.771 213.72 333.336 213.72 330.331C213.72 327.327 212.179 324.891 210.279 324.891C208.379 324.891 206.838 327.327 206.838 330.331C206.838 333.336 208.379 335.771 210.279 335.771Z" fill="#1E62CC"/>
<path d="M210.644 333.802C211.801 333.802 212.74 332.318 212.74 330.487C212.74 328.656 211.801 327.172 210.644 327.172C209.486 327.172 208.547 328.656 208.547 330.487C208.547 332.318 209.486 333.802 210.644 333.802Z" fill="#0D192B"/>
<path d="M172.227 216.337H162.637V316.217H172.227V216.337Z" fill="#0D192B"/>
<path d="M223.696 319.538C223.709 319.456 223.771 319.375 223.771 319.292C223.771 314.005 197.629 309.719 165.38 309.719C133.132 309.719 106.989 314.005 106.989 319.292C106.989 319.375 107.052 319.456 107.065 319.538H223.696Z" fill="#1A56B3"/>
<path d="M159.464 245.985H175.054V226.974H159.464V245.985Z" fill="#1A56B3"/>
<path d="M159.464 312.903H175.054V293.891H159.464V312.903Z" fill="#1A56B3"/>
<path d="M138.14 67.1707V67.1913C137.933 67.1707 137.727 67.1707 137.521 67.1707H138.14Z" fill="#4A82DB"/>
<path d="M64.1743 76.6093C64.1743 77.557 64.2876 78.5357 64.5245 79.5453L96.8383 204.443C96.9825 205.051 97.1575 205.648 97.3844 206.235C99.7745 215.755 108.449 222.369 118.288 222.101L152.07 221.225H218.645C222.673 221.225 226.299 219.649 228.927 217.104C231.564 214.559 233.202 211.046 233.202 207.162C233.202 205.782 232.986 204.463 232.574 203.227C230.709 197.529 224.857 193.635 218.253 193.635C218.253 193.635 188.314 194.449 179.588 186.063C170.851 177.666 151.169 80.1118 151.169 80.1118C149.5 73.1782 142.484 67.5119 135.303 67.1924C135.086 67.1718 134.87 67.1718 134.664 67.1718C134.664 67.1718 89.4669 66.7702 75.61 66.8319C74.559 66.8319 73.6834 66.842 73.024 66.8525C72.4162 66.8626 72.035 66.8732 71.901 66.8832C71.8701 66.8938 71.8598 66.8938 71.8598 66.8938C67.1828 67.9243 64.1743 71.736 64.1743 76.6093ZM106.677 193.11H107.522L107.903 194.769L107.368 194.048L106.677 193.11Z" fill="#9EDDFF"/>
<path d="M109.854 221.271C109.842 221.332 109.782 221.393 109.782 221.455C109.782 225.429 134.707 228.651 165.455 228.651C196.202 228.651 221.128 225.429 221.128 221.455C221.128 221.393 221.067 221.332 221.056 221.271H109.854Z" fill="#1A56B3"/>
<path d="M64.1743 76.6095C64.1743 77.5572 64.2876 78.5358 64.5245 79.5454L96.8383 204.443C96.9825 205.051 97.1575 205.648 97.3844 206.235C99.7745 215.755 108.449 222.369 118.288 222.101L152.07 221.225H218.645C222.673 221.225 226.299 219.649 228.927 217.104C231.564 214.56 233.202 211.046 233.202 207.162C233.202 205.782 232.986 204.463 232.574 203.227C228.763 213.145 117.488 213.841 109.75 201.001C102.188 194.438 86.0053 82.6669 75.6102 66.8323C74.5593 66.8323 73.6836 66.8423 73.0242 66.8529C72.4164 66.863 72.0352 66.8736 71.9013 66.8836C71.8703 66.8942 71.86 66.8942 71.86 66.8942C67.1828 67.9245 64.1743 71.7361 64.1743 76.6095Z" fill="#61B8FF"/>
<path d="M120.35 82.8335C130.629 75.1746 165.901 69.2287 188.475 79.8103C192.061 83.2061 197.221 95.5368 200.445 107.125L209.365 203.854H133.048L120.35 82.8335Z" fill="#AAE0FF"/>
<path d="M161.27 87.3203C149.137 89.0859 141.591 80.6182 139.817 77.0779L144.701 46.7629L154.574 51.1696C158.609 51.5038 162.642 52.4707 166.111 53.8404L169.241 70.0083L169.932 73.5142C171.506 76.9651 173.404 85.5547 161.27 87.3203Z" fill="#F7A594"/>
<path d="M147.859 54.4617C148.254 58.2124 153.189 73.4122 169.573 71.8332L166.532 56.0203L147.859 54.4617Z" fill="#E6836F"/>
<path d="M185.997 35.5203C185.436 40.4475 184.07 51.2161 182.171 55.7208C179.28 62.5788 170.337 68.1293 164.498 67.1855C157.91 65.5828 150.008 60.535 146.769 54.6926C145.252 50.5958 142.785 41.2821 142.707 33.8754C142.543 18.4261 155.91 9.72045 168.636 11.1643C181.363 12.6082 187.747 20.1597 185.997 35.5203Z" fill="#F7A594"/>
<path d="M143.676 44.3673C142.685 38.9636 146.727 38.3224 149.24 43.125C149.788 39.4989 149.381 28.1736 153.97 26.0639C159.189 23.5792 175.692 31.2002 188.204 24.8277C188.204 24.8277 186.588 7.4454 161.048 8.48156C131.004 13.0944 143.676 44.3673 143.676 44.3673Z" fill="#73382A"/>
<path d="M145.725 48.4013C148.154 47.6438 149.328 44.4784 148.347 41.3313C147.365 38.1842 144.601 36.2471 142.171 37.0046C139.742 37.7621 138.568 40.9275 139.549 44.0746C140.531 47.2217 143.296 49.1589 145.725 48.4013Z" fill="#F7A594"/>
<path d="M176.376 56.1023C175.397 56.2825 173.674 57.0974 171.972 57.9989C169.501 59.3094 167.08 60.8026 167.08 60.8026C167.08 60.8026 159.768 56.3825 159.969 49.2854C160.067 49.3945 160.168 49.4997 160.27 49.6049C165.95 55.4601 176.376 56.1023 176.376 56.1023Z" fill="#A65B4A"/>
<path d="M176.377 56.1024C175.398 56.2825 173.676 57.0975 171.973 57.999C164.56 56.3019 161.513 52.3161 160.271 49.605C165.951 55.4602 176.377 56.1024 176.377 56.1024Z" fill="white"/>
<path d="M175.985 52.6623C174.5 52.5709 173.341 51.709 173.323 51.6957C173.19 51.5947 173.164 51.4055 173.265 51.2723C173.366 51.1393 173.556 51.1128 173.689 51.2135C173.786 51.2878 176.107 53.0022 178.211 51.3784C179.366 50.4868 179.065 49.8901 178.261 48.295C177.498 46.7828 176.345 44.4976 175.945 40.6123C175.928 40.4461 176.049 40.2974 176.215 40.2807C176.381 40.2633 176.53 40.3844 176.547 40.5506C176.935 44.3249 178.058 46.5501 178.801 48.023C179.631 49.6676 180.132 50.6608 178.581 51.8579C177.707 52.5321 176.797 52.7122 175.985 52.6623Z" fill="#A65B4A"/>
<path d="M167.923 37.7517C167.853 38.8888 167.288 39.7792 166.661 39.7407C166.035 39.7021 165.584 38.749 165.654 37.6118C165.724 36.4746 166.288 35.5842 166.915 35.6228C167.541 35.6616 167.993 36.6147 167.923 37.7517Z" fill="#1E1E1E"/>
<path d="M183.82 38.4966C183.756 39.5325 183.242 40.3436 182.671 40.3084C182.1 40.2733 181.689 39.405 181.753 38.3693C181.817 37.3336 182.331 36.5224 182.902 36.5575C183.473 36.5926 183.884 37.4607 183.82 38.4966Z" fill="#1E1E1E"/>
<path d="M184.971 25.6409C184.971 25.6409 197.499 24.4191 193.585 12.1946C189.704 16.1424 185.756 14.2121 185.756 14.2121C185.756 14.2121 190.358 8.4434 182.749 0C181.535 5.26634 171.083 7.58346 165.099 6.03216C155.623 3.5757 146.035 6.96486 145.018 16.1094C145.018 16.1094 138.817 17.6209 140.977 29.9433C150.551 29.6069 154.787 20.8786 161.848 19.6141C168.909 18.3499 174.916 27.0629 184.971 25.6409Z" fill="#73382A"/>
<path d="M172.871 65.281C172.871 65.281 168.4 66.33 165.942 66.2717C162.698 66.1948 157.568 64.3999 157.568 64.3999L166.083 68.9545L172.871 65.281Z" fill="#A65B4A"/>
<path d="M164.55 87.5813L163.344 91.924L171.942 145.793L167.401 154.544L159.308 145.859L160.646 91.9899L158.694 89.1166L160.975 85.8486L164.55 87.5813Z" fill="#1951A6"/>
<path d="M169.701 71.9227C169.535 78.3191 164.54 81.9513 160.958 85.596C150.338 82.8235 142.284 76.318 139.93 70.2917L134.92 75.2649C135.813 83.0425 142.044 91.0831 151.523 99.2839C152.968 95.1118 155.186 91.2741 161.501 87.8227L175.71 91.8676C176.514 86.3415 177.14 81.1897 173.911 74.6945L169.701 71.9227Z" fill="#61B8FF"/>
<path d="M248.4 337.872C253.473 337.872 253.473 329.623 248.4 329.623C248.4 329.623 228.216 323.99 227.629 323.99C227.041 323.99 205.485 324.593 205.485 324.593C202.64 328.542 203.588 334.118 203.888 338.408L248.4 337.872Z" fill="#73382A"/>
<path d="M133.533 338.031C133.16 333.76 132.554 329.207 135.501 325.325C140.526 323.476 150.031 319.206 159.82 324.728C159.82 324.728 160.009 327.489 167.601 330.627C169.489 332.771 170.249 334.929 169.388 338.031L133.533 338.031Z" fill="#73382A"/>
<path d="M204.673 323.987L225.964 214.543L163.114 203.889L163.115 173.881C163.115 173.881 212.163 173.915 211.481 173.915C209.327 173.915 257.594 170.58 264.355 196.783C271.115 222.987 230.133 323.665 230.133 323.665C224.279 322.86 210.796 326.922 205.766 328.5C201.468 329.848 200.288 327.404 204.673 323.987Z" fill="#0D192B"/>
<path d="M200.797 173.915L153.425 212.591L157.334 324.508C144.837 317.614 131.145 330.759 130.092 329.245C130.092 329.245 128.579 328.521 131.093 322.531C126.3 298.439 108.832 208.132 114.271 198.09C120.555 186.488 131.096 173.234 131.096 173.234L200.797 173.915Z" fill="#0D192B"/>
<path d="M136.215 74.0076C136.94 76.9079 145.503 162.9 144.778 175.952C144.053 189.004 112.256 191.872 112.874 218.732C113.53 247.262 114.393 259.621 114.393 259.621C102.608 257.897 96.2846 244.1 94.5601 234.615C91.8529 218.146 93.7901 199.424 106.057 175.692C106.057 175.692 109.333 85.904 113.417 82.9988C120.702 77.8158 136.215 74.0076 136.215 74.0076Z" fill="white"/>
<path d="M129.829 112.629C129.829 112.629 125.75 124.539 125.75 129.474C125.75 134.409 149.635 144.78 149.635 144.78H110.616V126.316L129.829 112.629Z" fill="#D9F1FF"/>
<path d="M151.496 148.476C151.496 148.476 156.178 144.247 163.601 143.658C171.023 143.068 177.533 157.194 177.533 157.194H151.849L151.496 148.476Z" fill="#F7B28A"/>
<path d="M165.573 143.834C165.573 143.834 177.255 147.137 178.885 147.571C179.646 150.652 171.608 149.322 167.889 147.953C163.791 146.443 165.573 143.834 165.573 143.834Z" fill="#F7B28A"/>
<path d="M114.332 82.102C107.198 86.5261 87.538 132.883 87.3507 145.359C87.2682 150.861 89.5747 156.312 100.025 156.983C105.797 157.353 154.781 157.775 154.781 157.775L154.157 144.78L117.235 134.241L128.513 115.525C142.002 108.582 130.45 73.4927 114.332 82.102Z" fill="white"/>
<path d="M241.141 81.8981C241.141 81.8981 236.619 70.8333 237.175 67.8189C237.73 64.8046 248.852 60.9077 249.402 62.2459C249.951 63.5841 251.108 66.885 243.828 68.8718C248.706 73.3662 254.181 82.3242 241.141 81.8981Z" fill="#F7A594"/>
<path d="M240.553 82.3997C240.553 82.3997 239.63 72.4213 241.248 68.4059C243.403 63.0587 249.771 59.6189 249.771 59.6189C249.771 59.6189 261.032 68.4568 261.377 70.0548C261.722 71.6525 252.34 81.4385 252.34 81.4385C252.34 81.4385 245.351 88.0778 240.553 82.3997Z" fill="#F7A594"/>
<path d="M241.887 69.3099C241.887 69.3099 244.64 44.4142 248.564 45.1368C250.372 45.4698 247.825 69.2433 247.825 69.2433L241.887 69.3099Z" fill="#F7A594"/>
<path d="M239.877 78.7595C239.903 78.7669 239.931 78.7666 239.959 78.7571C240.028 78.7325 240.064 78.656 240.039 78.5865C238.879 75.331 236.981 69.6061 237.306 67.8427C237.734 65.5177 245.018 62.4608 248.16 62.1342C249.096 62.0369 249.253 62.2337 249.278 62.2962C249.641 63.1795 249.937 64.2353 249.378 65.3702C248.681 66.7868 246.801 67.9218 243.793 68.7429L243.56 68.8063L243.737 68.9698C245.763 70.8362 248.184 73.7721 248.903 76.4146C248.923 76.4864 248.997 76.5282 249.067 76.5087C249.138 76.4891 249.18 76.4161 249.161 76.3448C248.448 73.7237 246.109 70.8334 244.093 68.9363C247.045 68.0988 248.904 66.9395 249.617 65.4882C250.304 64.0922 249.758 62.7626 249.525 62.1949C249.4 61.8911 248.945 61.7842 248.132 61.8688C244.948 62.2003 237.507 65.2813 237.043 67.7948C236.707 69.6191 238.618 75.3954 239.788 78.6762C239.802 78.718 239.837 78.7479 239.877 78.7595Z" fill="#E6836F"/>
<path d="M253.414 74.0324C253.451 74.0433 253.489 74.0531 253.526 74.0619L253.618 74.0828L253.668 74.0029C255.267 71.4801 259.081 70.4629 259.119 70.453C259.19 70.4346 259.233 70.3616 259.214 70.2901C259.196 70.2191 259.122 70.1756 259.052 70.1945C258.892 70.236 255.178 71.2262 253.496 73.7785C253.492 73.7773 253.489 73.7763 253.485 73.7751C251.092 73.0862 247.728 67.4269 247.694 67.3689C247.657 67.3062 247.576 67.2843 247.512 67.3219C247.448 67.3595 247.427 67.4411 247.464 67.5048C247.606 67.7449 250.916 73.3136 253.414 74.0324Z" fill="#E6836F"/>
<path d="M240.987 79.1992L236.911 94.7404L249.479 98.7738L251.019 81.0282L240.987 79.1992Z" fill="#F7A594"/>
<path d="M202.461 86.8113L228.162 112.629L239.594 82.9424L254.552 87.6521C254.552 87.6521 254.369 131.036 241.39 140.379C221.515 152.521 187.459 115.473 187.459 115.473C174.14 96.8456 194.493 76.0073 202.461 86.8113Z" fill="white"/>
<path d="M174.069 75.0807C174.069 75.0807 180.935 169.401 193.261 177.377C205.588 185.353 249.148 179.921 249.148 179.921C249.148 179.921 205.687 164.35 204.962 152.748C204.237 141.147 201.431 85.8484 201.431 85.8484C197.396 80.8949 184.587 75.0252 174.069 75.0807Z" fill="white"/>
<mask id="mask0_768_56" style="mask-type:luminance" maskUnits="userSpaceOnUse" x="115" y="57" width="72" height="83">
<path d="M169.703 72.1096L172.485 97.0544C172.485 97.0544 159.862 120.713 168.184 126.884C176.507 133.056 184.175 126.417 186.419 110.988C188.663 95.5582 180.341 67.1308 172.953 61.6138C165.566 56.0965 138.728 56.5642 136.109 59.7435C133.491 62.9227 107.296 121.518 117.617 133.532C127.937 145.546 161.207 134.61 161.207 134.61L155.816 99.7994L141.183 89.4793C141.183 89.4793 140.323 70.546 140.423 70.8456C140.523 71.1452 142.463 61.5678 142.463 61.5678C151.655 58.9103 158.613 58.5802 167.682 62.2427L169.703 72.1096Z" fill="white"/>
</mask>
<g mask="url(#mask0_768_56)">
<path d="M180.03 120.085C180.77 116.075 179.538 112.486 177.277 112.069C175.017 111.651 172.585 114.564 171.844 118.574C171.104 122.584 172.337 126.173 174.597 126.59C176.858 127.007 179.29 124.095 180.03 120.085Z" fill="#1B658F"/>
<path d="M176.108 119.091C175.626 121.703 176.429 124.041 177.902 124.313C179.374 124.585 180.959 122.687 181.441 120.075C181.923 117.463 181.12 115.125 179.648 114.853C178.175 114.581 176.59 116.479 176.108 119.091Z" fill="#2997D6"/>
<path d="M177.677 113.924C178.019 113.924 178.301 113.652 178.31 113.307C178.314 113.163 178.669 98.6719 176.518 83.5005C174.526 69.4536 162.827 62.6539 152.801 62.2803C143.081 61.9156 135.585 67.2291 133.708 75.8109C132.019 83.5347 134.206 96.7116 134.3 97.2685C134.358 97.6138 134.684 97.8476 135.031 97.7881C135.376 97.7299 135.608 97.403 135.55 97.0579C135.528 96.9237 133.31 83.5652 134.947 76.0818C136.686 68.1289 143.684 63.2103 152.754 63.547C162.27 63.9017 173.373 70.3529 175.263 83.6787C177.399 98.7412 177.047 113.131 177.044 113.274C177.034 113.624 177.311 113.915 177.66 113.925C177.666 113.924 177.672 113.924 177.677 113.924Z" fill="#0D192B"/>
<path d="M128.831 133.544L132.855 133.027C133.202 132.982 133.448 132.665 133.403 132.317C133.358 131.97 133.04 131.725 132.693 131.769L129.648 132.161C125.513 121.458 125.276 109.961 129.1 104.063C130.985 101.155 133.767 99.6034 137.369 99.4518C140.747 99.3075 143.719 100.425 146.216 102.766C153.816 109.894 155.039 126.334 155.216 129.864L152.911 129.776C152.569 129.752 152.267 130.035 152.253 130.385C152.24 130.735 152.513 131.029 152.862 131.042L156.525 131.182L156.511 130.509C156.492 129.683 155.969 110.178 147.084 101.843C144.33 99.2589 141.043 98.0275 137.316 98.1853C133.28 98.3554 130.158 100.101 128.036 103.374C125.91 106.653 124.907 111.376 125.134 117.032C125.342 122.205 126.59 127.907 128.65 133.087L128.831 133.544Z" fill="#0D192B"/>
<path d="M139.848 97.3487L139.812 100.476C139.812 100.476 136.263 99.0706 132.719 101.366C131.812 100.111 131.172 99.1677 131.172 99.1677C131.172 99.1677 134.007 96.0985 139.848 97.3487Z" fill="#1B658F"/>
<path d="M137.189 98.4507L136.506 94.8932C135.515 94.3535 133.392 94.9266 133.068 95.7L133.854 99.1622L137.189 98.4507Z" fill="#1B658F"/>
</g>
<path d="M188.067 144.86C192.197 144.439 200.877 139.045 202.948 137.261L228.162 157.65H189.096L188.067 144.86Z" fill="#2B7EAB"/>
<path d="M224.475 157.713C223.416 157.713 191.844 138.452 191.844 138.452C184.904 144.191 177.643 146.983 170.303 149.045C172.448 153.306 175.589 156.178 179.092 157.776L224.475 157.713Z" fill="#69BFF0"/>
<path d="M67.4499 157.637H106.404V151.584H67.4499V157.637Z" fill="#BAE7FF"/>
<path d="M34.2861 157.637H67.4497V151.584H34.2861V157.637Z" fill="#69BFF0"/>
<path d="M101.14 153.557H69.9507L84.4267 156.453L101.14 153.557Z" fill="#69BFF0"/>
<path d="M86.0207 165.065H79.4751V336.716H86.0207V165.065Z" fill="#1951A6"/>
<path d="M86.0207 165.134H79.4751V179.869H86.0207V165.134Z" fill="#1951A6"/>
<path d="M375.885 337.432H382.432V307.631H375.885V337.432Z" fill="#1951A6"/>
<path d="M336.487 337.432H343.034V307.631H336.487V337.432Z" fill="#1951A6"/>
<path d="M24.1245 163.23V337.676L17.8994 336.689V163.23H24.1245Z" fill="#1951A6"/>
<path d="M254.424 337.432H260.971V307.631H254.424V337.432Z" fill="#1951A6"/>
<path d="M288.793 337.432H295.339V307.631H288.793V337.432Z" fill="#1951A6"/>
<path d="M-3.05176e-05 165.052L316.028 165.052V157.677L-3.05176e-05 157.677V165.052Z" fill="#1951A6"/>
<path d="M292.486 164.42H252.035V308.102H292.486V164.42Z" fill="#1951A6"/>
<path d="M386.38 164.42H286.87V308.102H386.38V164.42Z" fill="#1951A6"/>
<path d="M383.675 169.406H291.821V308.102H383.675V169.406Z" fill="#66A1FF"/>
<path d="M70.4941 165.052L386.522 165.052V157.677L70.4941 157.677V165.052Z" fill="#66A1FF"/>
<path d="M330.838 157.677H348.274L344.837 127.863H327.401L330.838 157.677Z" fill="#ADADAD"/>
<path d="M325.765 127.864L325.778 127.985L327.636 144.088L329.202 157.676H346.64L343.445 129.959L343.434 129.874L343.203 127.864H325.765Z" fill="#474747"/>
<path d="M305.495 157.621H360.878V154.567H305.495V157.621Z" fill="#ADADAD"/>
<path d="M345.95 154.567H301.627V157.62H345.95V154.567Z" fill="#474747"/>
<path d="M325.779 127.985L327.637 144.088L343.445 129.959L343.527 129.885L343.435 129.874L325.779 127.985Z" fill="#2B2B2B"/>
<path d="M281.359 129.779H375.972C378.032 129.779 379.84 128.109 380.01 126.048L385.414 60.3314C385.584 58.2706 384.05 56.5999 381.99 56.5999H287.377C285.317 56.5999 283.508 58.2706 283.339 60.3314L277.935 126.048C277.765 128.109 279.298 129.779 281.359 129.779Z" fill="#ADADAD"/>
<path d="M279.607 129.698H374.219C376.28 129.698 378.088 128.027 378.258 125.966L383.662 60.2496C383.831 58.1888 382.298 56.5181 380.237 56.5181H285.625C283.564 56.5181 281.756 58.1888 281.586 60.2496L276.182 125.966C276.013 128.027 277.546 129.698 279.607 129.698Z" fill="#474747"/>
<path d="M281.685 124.321H373.548L378.553 61.6426H286.69L281.685 124.321Z" fill="#D9F3FF"/>
<path d="M289.178 154.566H260.219V157.62H289.178V154.566Z" fill="#ADADAD"/>
<path d="M229.925 156.445V157.62H260.219V154.566L229.925 156.445Z" fill="#474747"/>
<path d="M297.929 113.466L360.918 112.705C363.565 112.673 365.872 110.431 366.071 107.698L368.418 75.4632C368.617 72.73 366.632 70.5402 363.985 70.5721L300.997 71.3338C298.349 71.3657 296.042 73.6074 295.843 76.3406L293.496 108.576C293.297 111.309 295.282 113.498 297.929 113.466Z" fill="#80B2FF"/>
<path d="M303.379 84.7238L321.877 84.5001C322.46 84.493 322.968 83.9997 323.011 83.3981C323.055 82.7964 322.618 82.3145 322.036 82.3216L303.538 82.5453C302.955 82.5524 302.447 83.0457 302.403 83.6473C302.36 84.2487 302.796 84.7307 303.379 84.7238Z" fill="#D9F3FF"/>
<path d="M302.945 90.6742L327.591 90.3763C328.174 90.3692 328.681 89.8759 328.725 89.2743C328.769 88.6727 328.332 88.1907 327.75 88.1978L303.104 88.4957C302.521 88.5028 302.013 88.9961 301.969 89.5977C301.926 90.1991 302.363 90.6813 302.945 90.6742Z" fill="#D9F3FF"/>
<path d="M302.435 97.6822L327.081 97.3844C327.663 97.3773 328.171 96.884 328.215 96.2824C328.259 95.6807 327.822 95.1988 327.239 95.2059L302.593 95.5037C302.011 95.5109 301.503 96.0041 301.459 96.6058C301.415 97.2074 301.852 97.6894 302.435 97.6822Z" fill="#D9F3FF"/>
<path d="M301.925 104.691L326.571 104.393C327.154 104.386 327.661 103.892 327.705 103.291C327.749 102.689 327.312 102.207 326.729 102.214L302.084 102.512C301.501 102.519 300.993 103.012 300.949 103.614C300.906 104.216 301.343 104.698 301.925 104.691Z" fill="#D9F3FF"/>
<path d="M350.028 85.164C348.115 86.8104 346.772 98.7113 349.255 102.051C350.392 103.581 352.354 103.596 354.058 104.027C356.075 104.537 357.697 106.791 358.536 105.72C360.082 103.744 360.456 95.8021 357.884 90.6677C356.989 88.88 351.942 83.5176 350.028 85.164Z" fill="#D9F3FF"/>
<path d="M342.061 85.164C343.974 86.8104 345.317 98.7113 342.835 102.051C341.697 103.581 339.736 103.596 338.032 104.027C336.015 104.537 334.392 106.791 333.554 105.72C332.008 103.744 331.633 95.8021 334.205 90.6677C335.101 88.88 340.148 83.5176 342.061 85.164Z" fill="#D9F3FF"/>
<path d="M345.011 89.7204V77.1204H346.798V89.5352H346.799C346.8 89.6384 346.853 92.0683 349.314 92.6112L349.017 93.9605C347.381 93.5997 346.437 92.6078 345.93 91.5913C345.434 92.6402 344.483 93.6827 342.797 94.0546L342.499 92.7053C344.724 92.2148 344.981 90.1832 345.011 89.7204Z" fill="#D9F3FF"/>
<path d="M390.12 328.237H396.704V315.984H390.12V328.237Z" fill="#0D192B"/>
<path d="M439.495 328.237H446.079V315.984H439.495V328.237Z" fill="#0D192B"/>
<path d="M494.681 328.237H501.264V315.984H494.681V328.237Z" fill="#0D192B"/>
<path d="M496.338 336.137C499.111 336.137 501.359 332.583 501.359 328.198C501.359 323.814 499.111 320.259 496.338 320.259C493.565 320.259 491.317 323.814 491.317 328.198C491.317 332.583 493.565 336.137 496.338 336.137Z" fill="#0D192B"/>
<path d="M491.473 336.137C494.246 336.137 496.494 332.583 496.494 328.198C496.494 323.814 494.246 320.259 491.473 320.259C488.7 320.259 486.452 323.814 486.452 328.198C486.452 332.583 488.7 336.137 491.473 336.137Z" fill="#0D192B"/>
<path d="M489.537 335.495C491.626 337.125 497.464 336.387 498.281 335.544L498.318 320.899C496.751 319.526 491.223 319.575 489.539 320.823L489.537 335.495Z" fill="#0D192B"/>
<path d="M490.998 333.424C492.899 333.424 494.439 330.988 494.439 327.983C494.439 324.979 492.899 322.543 490.998 322.543C489.098 322.543 487.558 324.979 487.558 327.983C487.558 330.988 489.098 333.424 490.998 333.424Z" fill="#1E62CC"/>
<path d="M491.363 331.454C492.521 331.454 493.459 329.97 493.459 328.139C493.459 326.308 492.521 324.824 491.363 324.824C490.205 324.824 489.266 326.308 489.266 328.139C489.266 329.97 490.205 331.454 491.363 331.454Z" fill="#0D192B"/>
<path d="M443.778 336.137C446.551 336.137 448.799 332.583 448.799 328.198C448.799 323.814 446.551 320.259 443.778 320.259C441.005 320.259 438.757 323.814 438.757 328.198C438.757 332.583 441.005 336.137 443.778 336.137Z" fill="#0D192B"/>
<path d="M448.645 336.137C451.418 336.137 453.666 332.583 453.666 328.198C453.666 323.814 451.418 320.259 448.645 320.259C445.872 320.259 443.624 323.814 443.624 328.198C443.624 332.583 445.872 336.137 448.645 336.137Z" fill="#0D192B"/>
<path d="M450.581 335.495C448.492 337.125 442.653 336.387 441.837 335.544L441.8 320.899C443.367 319.526 448.895 319.575 450.578 320.823L450.581 335.495Z" fill="#0D192B"/>
<path d="M449.119 333.424C451.019 333.424 452.56 330.988 452.56 327.983C452.56 324.979 451.019 322.543 449.119 322.543C447.219 322.543 445.678 324.979 445.678 327.983C445.678 330.988 447.219 333.424 449.119 333.424Z" fill="#1E62CC"/>
<path d="M448.754 331.454C449.912 331.454 450.851 329.97 450.851 328.139C450.851 326.308 449.912 324.824 448.754 324.824C447.596 324.824 446.658 326.308 446.658 328.139C446.658 329.97 447.596 331.454 448.754 331.454Z" fill="#0D192B"/>
<path d="M393.629 336.137C396.402 336.137 398.65 332.583 398.65 328.198C398.65 323.814 396.402 320.259 393.629 320.259C390.856 320.259 388.608 323.814 388.608 328.198C388.608 332.583 390.856 336.137 393.629 336.137Z" fill="#0D192B"/>
<path d="M398.495 336.137C401.268 336.137 403.516 332.583 403.516 328.198C403.516 323.814 401.268 320.259 398.495 320.259C395.722 320.259 393.474 323.814 393.474 328.198C393.474 332.583 395.722 336.137 398.495 336.137Z" fill="#0D192B"/>
<path d="M400.431 335.495C398.342 337.125 392.503 336.387 391.687 335.544L391.65 320.899C393.217 319.526 398.745 319.575 400.429 320.823L400.431 335.495Z" fill="#0D192B"/>
<path d="M398.969 333.424C400.869 333.424 402.41 330.988 402.41 327.983C402.41 324.979 400.869 322.543 398.969 322.543C397.069 322.543 395.528 324.979 395.528 327.983C395.528 330.988 397.069 333.424 398.969 333.424Z" fill="#1E62CC"/>
<path d="M398.604 331.454C399.762 331.454 400.701 329.97 400.701 328.139C400.701 326.308 399.762 324.824 398.604 324.824C397.447 324.824 396.508 326.308 396.508 328.139C396.508 329.97 397.447 331.454 398.604 331.454Z" fill="#0D192B"/>
<path d="M437.022 313.869H446.612V213.989H437.022V313.869Z" fill="#0D192B"/>
<path d="M385.553 317.19C385.54 317.108 385.478 317.027 385.478 316.944C385.478 311.658 411.62 307.371 443.869 307.371C476.117 307.371 502.26 311.658 502.26 316.944C502.26 317.027 502.197 317.108 502.184 317.19H385.553Z" fill="#1A56B3"/>
<path d="M449.784 224.626H434.195V243.637H449.784V224.626Z" fill="#1A56B3"/>
<path d="M449.784 291.543H434.195V310.555H449.784V291.543Z" fill="#1A56B3"/>
<path d="M471.109 64.8228V64.8434C471.315 64.8228 471.522 64.8228 471.728 64.8228H471.109Z" fill="#4A82DB"/>
<path d="M537.389 64.5462C537.389 64.5462 537.379 64.5462 537.348 64.5356C537.214 64.5256 536.833 64.515 536.225 64.5049C535.566 64.4943 534.69 64.4843 533.639 64.4843C519.782 64.4223 474.585 64.8242 474.585 64.8242C474.379 64.8242 474.163 64.8242 473.946 64.8448C466.765 65.1643 459.75 70.8305 458.081 77.7642C458.081 77.7642 438.398 175.319 429.661 183.715C420.935 192.101 390.996 191.288 390.996 191.288C384.392 191.288 378.54 195.182 376.675 200.879C376.263 202.115 376.047 203.434 376.047 204.815C376.047 208.699 377.685 212.212 380.323 214.757C382.95 217.301 386.576 218.878 390.604 218.878H457.179L500.396 219.754C510.234 220.022 518.909 213.407 521.299 203.888C521.526 203.3 521.701 202.703 521.845 202.095L544.725 77.1977C544.961 76.1881 545.075 75.2094 545.075 74.2617C545.075 69.3881 542.067 65.5765 537.389 64.5462ZM511.316 191.7L510.781 192.421L511.162 190.762H512.006L511.316 191.7Z" fill="#9EDDFF"/>
<path d="M508.829 218.922C508.842 218.984 508.901 219.044 508.901 219.107C508.901 223.081 474.542 226.303 443.794 226.303C413.047 226.303 388.122 223.081 388.122 219.107C388.122 219.045 388.182 218.984 388.194 218.922H508.829Z" fill="#1A56B3"/>
<path d="M545.075 74.2611C545.075 75.2088 544.962 76.1877 544.725 77.1971C543.862 79.6956 522.496 201.564 521.3 203.883C518.909 213.407 510.235 220.021 500.396 219.753C474.811 218.926 416.687 218.721 390.604 218.877C381.307 219.068 373.729 209.815 376.676 200.878C373.465 216.029 498.318 217.886 511.393 198.029C520.694 191.069 515.552 58.827 537.387 64.5444C542.066 65.5764 545.075 69.388 545.075 74.2611Z" fill="#61B8FF"/>
<path d="M477.033 62.3037C489.279 148.53 407.469 136.063 409.836 101.357C411.875 71.4571 429.97 67.9598 425.255 48.3531C420.079 26.8328 427.74 8.00537 448.14 8.00537C468.117 8.00537 480.074 22.5623 475.808 47.8775C474.961 52.8993 476.514 58.1428 477.033 62.3037Z" fill="#0E0E0E"/>
<path d="M400.363 303.699C400.513 304.554 403.341 321.085 403.341 321.085L414.712 320.11L416.361 299.853L400.363 303.699Z" fill="#FFA599"/>
<path d="M472.713 166.439C472.713 166.439 482.227 193.171 466.501 197.753C450.776 202.334 424.466 204.07 424.466 204.07L415.969 309.82C412.82 311.074 409.444 312.19 401.587 310.588C401.587 310.588 382.231 204.136 387.814 191.374C393.397 178.612 437.072 165.636 437.072 165.636L472.713 166.439Z" fill="#0D192B"/>
<path d="M418.146 322.871C417.3 325.044 410.748 328.131 403.414 330.382C398.403 331.923 393.026 333.071 388.858 333.27C386.255 333.395 384.124 333.152 382.849 332.4C382.849 332.4 379.612 324.029 386.803 319.416C393.992 314.8 402.107 313.879 402.107 313.879C403.144 315.361 404.828 316.334 406.907 316.577C408.298 316.739 409.868 316.575 411.542 316.017C412.886 315.57 414.297 314.869 415.735 313.879C415.735 313.879 416.391 314.569 417.067 315.7C417.136 315.81 417.202 315.923 417.268 316.041C418.21 317.737 419.077 320.239 418.146 322.871Z" fill="white"/>
<path d="M417.608 315.69L417.269 316.042L403.415 330.382C398.403 331.923 393.026 333.071 388.858 333.27C388.573 330.633 388.691 325.044 393.78 321.085C396.916 318.647 402.144 317.31 406.907 316.577C408.541 316.327 410.122 316.145 411.542 316.017C414.098 315.786 416.141 315.717 417.067 315.7C417.416 315.69 417.608 315.69 417.608 315.69Z" fill="#DBF2FF"/>
<path d="M411.031 306.307C411.181 307.162 412.396 323.682 412.396 323.682L422.158 323.558L424.957 305.966L411.031 306.307Z" fill="#FFA599"/>
<path d="M424.065 312.928C424.065 312.928 427.491 319.558 428.25 321.243C424.429 332.399 398.32 341.084 395.62 337.735C395.62 337.735 390.752 330.197 396.856 324.219C402.961 318.242 411.782 315.473 411.782 315.473C414.689 318.212 422.292 317.465 424.065 312.928Z" fill="white"/>
<path d="M498.6 170.219C498.6 170.219 503.749 193.509 484.14 199.821C468.549 204.84 441.749 215.08 441.749 215.08L424.735 309.848C424.018 311.864 412.683 312.612 411.245 310.995C411.245 310.995 407.294 206.671 415.135 195.157C427.172 177.48 443.492 166.676 443.492 166.676C460.004 164.781 484.084 163.01 498.6 170.219Z" fill="#0D192B"/>
<path d="M410.859 311.012C410.673 306.817 406.405 208.116 414.809 194.949C416.993 191.527 419.622 188.077 422.623 184.695L423.202 185.208C420.227 188.56 417.623 191.977 415.461 195.365C407.188 208.327 411.586 309.952 411.632 310.977L410.859 311.012Z" fill="#2A518C"/>
<path d="M434.41 83.6401C442.474 73.7486 448.482 79.6331 448.125 90.749C447.768 101.865 440.256 150.301 431.263 146.972C422.27 143.644 424.289 96.0556 434.41 83.6401Z" fill="#FFA599"/>
<path d="M440.408 126.625L435 164.354C435.528 166.294 438.454 167.937 442.834 169.227C443.525 169.432 444.254 169.626 445.014 169.813C445.014 169.813 445.017 169.816 445.017 169.813C459.94 173.473 487.399 173.693 499.324 168.937C499.324 168.937 498.399 162.548 494.597 152.298C491.706 144.509 487.156 134.489 480.087 123.346C479.638 120.039 482.429 114.204 485.221 107.513C489.666 96.8593 494.115 84.0365 485.487 75.7966C471.44 62.3779 434.692 66.1848 432.278 92.7301C431.908 109.902 440.408 126.625 440.408 126.625Z" fill="#FD5655"/>
<path d="M440.871 171.863C441.125 171.821 442.635 171.04 445.014 169.814C445.014 169.814 445.017 169.816 445.017 169.814C455.185 164.579 481.255 151.195 493.382 152.277C493.812 152.314 494.216 152.322 494.597 152.298C491.706 144.509 487.156 134.489 480.087 123.346C479.639 120.039 482.429 114.204 485.221 107.513L469.349 89.4956C469.349 89.4956 469.405 89.9068 469.503 90.6478C470.352 97.1398 474.383 129.1 472.207 134.26C470.214 138.98 449.443 161.471 442.834 169.227C441.399 170.914 440.63 171.903 440.871 171.863Z" fill="#E64847"/>
<path d="M444.762 78.0055C445.227 81.2002 449.34 89.6898 449.34 89.6898C449.34 89.6898 466.362 79.1139 465.756 74.9495L462.994 63.7813L461.192 56.5183L443.847 59.0431L444.446 71.4503L444.762 78.0055Z" fill="#FFA599"/>
<path d="M444.446 71.4501L456.564 63.3383L443.847 59.043L444.446 71.4501Z" fill="#E87C5D"/>
<path d="M428.58 36.3904C427.6 51.9252 436.393 64.7376 448.22 65.0085C460.047 65.2793 469.418 52.8832 469.151 37.3196C468.899 22.6578 460.088 11.1835 449.459 10.94C438.83 10.6967 429.503 21.7553 428.58 36.3904Z" fill="#FFA599"/>
<path d="M443.102 25.4787C457.87 44.4091 479.145 36.8834 474.243 25.5611C474.243 25.5611 468.542 9.96431 451.31 9.71092C429.761 9.39388 443.102 25.4787 443.102 25.4787Z" fill="#0E0E0E"/>
<path d="M447.237 47.7553C446.685 47.7425 446.151 47.612 445.847 47.2293C445.098 46.2878 447.111 41.685 447.523 40.7718C447.574 40.6575 447.709 40.6068 447.823 40.6577C447.938 40.7093 447.989 40.8438 447.937 40.9583C446.962 43.124 445.779 46.4136 446.202 46.9465C446.696 47.569 448.398 47.2178 449.012 47.0298C449.132 46.9929 449.259 47.0602 449.296 47.1804C449.333 47.3004 449.265 47.4274 449.145 47.4643C448.99 47.5122 448.092 47.7747 447.237 47.7553Z" fill="#BD4A31"/>
<path d="M444.041 53.0944C444.041 53.0944 450.634 55.1089 459.332 50.6077C454.549 57.5059 448.289 61.813 444.041 53.0944Z" fill="#BD4A31"/>
<path d="M458.024 39.1923C457.998 40.3368 457.517 41.254 456.95 41.2412C456.383 41.2282 455.944 40.2899 455.97 39.1453C455.997 38.0008 456.478 37.0835 457.045 37.0966C457.612 37.1094 458.05 38.0477 458.024 39.1923Z" fill="#0E0E0E"/>
<path d="M438.237 38.2862C438.211 39.4308 437.73 40.348 437.163 40.335C436.596 40.3219 436.158 39.3836 436.184 38.239C436.21 37.0945 436.691 36.1773 437.258 36.1901C437.825 36.2033 438.263 37.1417 438.237 38.2862Z" fill="#0E0E0E"/>
<path d="M443.008 21.9001C443.008 21.9001 440.385 36.3012 428.195 37.2565C420.041 37.8955 431.903 13.4107 439.664 13.8872C444.243 14.1686 443.008 21.9001 443.008 21.9001Z" fill="#0E0E0E"/>
<path d="M488.267 81.4851C488.267 81.4851 481.928 74.5891 471.727 82.2578C463.376 88.536 477.491 128.542 477.491 128.542L435.858 168.066L439.048 172.087C439.048 172.087 488.872 151.197 495.216 134.686C497.392 124.233 493.163 88.782 488.267 81.4851Z" fill="#FFA599"/>
<path d="M439.952 132.562L442.214 171.637L436.84 172.536C436.84 172.536 425.211 145.718 425.74 130.571C426.203 117.297 441.568 120.47 439.952 132.562Z" fill="#FFA599"/>
<path d="M442.754 169.207C442.754 169.207 448.648 172.732 445.811 175.122C442.975 177.511 432.756 177.371 435.675 171.01C438.595 164.649 442.754 169.207 442.754 169.207Z" fill="#FFA599"/>
<path d="M435.83 167.402C435.37 167.311 425.129 174.576 428.215 177.73C431.301 180.883 446.735 171.423 443.684 167.569C440.632 163.714 435.83 167.402 435.83 167.402Z" fill="#FFA599"/>
</svg>
