<svg width="717" height="725" viewBox="0 0 717 725" fill="none" xmlns="http://www.w3.org/2000/svg">
<path d="M488.685 124.627C541.675 161.587 604.461 175.391 628.507 212.795C652.998 250.2 639.194 311.65 641.42 373.991C643.647 436.332 661.904 500.009 636.522 536.077C611.585 571.701 542.565 579.716 487.349 607.324C432.133 634.487 390.72 681.688 335.059 706.179C279.397 731.116 209.486 733.342 178.316 692.375C146.7 650.963 154.27 565.912 122.654 505.352C91.0386 444.792 20.6825 408.724 4.20664 362.859C-12.7145 317.439 24.6901 261.777 58.087 204.78C91.4839 147.337 121.319 88.1133 168.965 48.4823C217.056 8.40596 283.405 -12.0775 337.731 7.51539C392.502 27.1083 435.695 87.668 488.685 124.627Z" fill="#529CC7"/>
<path d="M439.837 156.945C510.394 143.901 605.261 141.529 662.181 181.254C719.101 220.387 737.481 301.616 689.455 354.979C641.429 408.341 526.403 433.837 484.899 499.651C442.802 565.464 474.226 671.003 452.288 697.092C430.351 723.773 354.457 671.003 302.874 629.499C250.697 587.402 223.423 557.164 171.839 547.677C120.848 537.597 46.7336 548.863 31.3178 524.553C16.4949 500.836 60.9636 441.545 82.9015 395.297C104.247 349.05 103.654 315.254 88.8307 238.767C73.4149 162.874 44.362 44.2907 73.4149 33.6182C102.468 23.5386 190.812 120.777 257.219 157.538C324.219 194.299 369.873 169.989 439.837 156.945Z" fill="#4793C1"/>
</svg>
