<svg width="251" height="275" viewBox="0 0 251 275" fill="none" xmlns="http://www.w3.org/2000/svg">
<path d="M150.101 15.7727C176.016 13.1611 209.765 14.7682 229.854 30.8394C250.144 46.7096 256.974 76.642 245.322 99.9451C233.671 123.248 203.337 139.721 182.444 154.788C161.753 169.854 150.503 183.314 136.24 205.814C121.776 228.313 104.499 259.652 81.1963 270.299C57.6923 280.946 28.1616 270.5 18.9207 245.188C9.67981 219.876 20.7287 179.296 26.9563 153.783C33.1838 128.07 34.3891 117.422 27.1571 102.557C19.9251 87.8918 4.45669 68.8074 0.840695 47.714C-2.77531 26.6207 5.46114 3.31757 21.934 0.304236C38.4069 -2.50821 62.7145 14.9691 84.2096 20.1922C105.504 25.4154 123.986 18.3842 150.101 15.7727Z" fill="white"/>
</svg>
