<svg width="275" height="268" viewBox="0 0 275 268" fill="none" xmlns="http://www.w3.org/2000/svg">
<path d="M164.243 49.5164C192.406 44.3099 230.272 43.3632 252.991 59.2196C275.711 74.8393 283.048 107.262 263.878 128.562C244.708 149.861 198.796 160.038 182.23 186.307C165.427 212.577 177.97 254.702 169.213 265.115C160.457 275.765 130.164 254.702 109.574 238.136C88.7481 221.333 77.8617 209.263 57.2721 205.477C36.9191 201.453 7.3364 205.95 1.18319 196.247C-4.73336 186.78 13.0163 163.114 21.7728 144.655C30.2926 126.195 30.0559 112.705 24.1394 82.1758C17.9862 51.8831 6.38975 4.55067 17.9862 0.290755C29.5826 -3.7325 64.8453 35.0801 91.3514 49.7531C118.094 64.4261 136.317 54.723 164.243 49.5164Z" fill="white"/>
</svg>
