<svg width="245" height="206" viewBox="0 0 245 206" fill="none" xmlns="http://www.w3.org/2000/svg">
<path d="M187.341 7.47189C199.458 17.963 202.856 39.9796 210.097 58.0066C217.189 75.8859 228.124 89.9233 236.251 108.541C244.525 127.307 250.288 150.801 237.581 159.076C224.873 167.351 193.695 160.406 173.304 158.928C152.913 157.599 143.456 161.884 126.907 173.852C110.357 185.969 86.863 206.065 69.5748 205.621C52.2866 205.178 41.2044 184.491 29.5312 164.1C17.7102 143.709 5.15036 123.761 1.30854 101.597C-2.68105 79.2844 2.04734 54.9036 21.1087 47.0722C40.0223 39.2408 73.4166 48.1066 94.6944 42.7871C115.824 37.6154 124.838 18.2585 139.762 8.06293C154.538 -2.13268 175.373 -3.01924 187.341 7.47189Z" fill="white"/>
</svg>
