<svg width="258" height="268" viewBox="0 0 258 268" fill="none" xmlns="http://www.w3.org/2000/svg">
<path d="M81.0054 227.964C56.6716 229.458 22.0587 234.19 14.9264 219.746C7.58429 205.552 28.1422 172.182 26.0445 137.319C23.7369 102.455 -1.01646 66.0975 0.0324092 39.2027C1.08128 12.5569 28.1422 -4.62583 54.5738 1.10176C81.2152 6.58033 107.227 35.2183 128.414 45.1793C149.392 55.3894 165.754 46.9225 190.718 42.44C215.681 37.7085 249.664 36.7124 256.587 53.3972C263.509 70.0819 243.581 104.447 227.638 127.856C211.485 151.015 199.318 163.467 197.011 189.863C194.703 216.26 202.465 256.602 193.445 265.816C184.634 275.03 158.832 252.867 139.113 240.665C119.394 228.711 105.339 226.719 81.0054 227.964Z" fill="white"/>
</svg>
