<svg width="266" height="291" viewBox="0 0 266 291" fill="none" xmlns="http://www.w3.org/2000/svg">
<path d="M158.777 16.6843C186.189 13.9218 221.889 15.6218 243.139 32.6218C264.602 49.4093 271.827 81.0718 259.502 105.722C247.177 130.372 215.089 147.797 192.989 163.734C171.102 179.672 159.202 193.909 144.114 217.709C128.814 241.509 110.539 274.659 85.8893 285.922C61.0268 297.184 29.7893 286.134 20.0143 259.359C10.2393 232.584 21.9268 189.659 28.5143 162.672C35.1018 135.472 36.3768 124.209 28.7268 108.484C21.0768 92.9718 4.71429 72.7843 0.889286 50.4718C-2.93571 28.1593 5.77679 3.50932 23.2018 0.32182C40.6268 -2.65318 66.3393 15.8343 89.0768 21.3593C111.602 26.8843 131.152 19.4468 158.777 16.6843Z" fill="white"/>
</svg>
