<svg width="372" height="349" viewBox="0 0 372 349" fill="none" xmlns="http://www.w3.org/2000/svg">
<path d="M358.802 285.619C342.653 317.86 309.674 341.75 275.329 347.085C240.985 352.42 205.048 339.199 170.704 330.617C136.132 322.035 103.38 318.324 72.2198 303.247C40.8322 288.171 11.4916 261.729 2.84862 229.489C-5.79434 197.48 6.26031 159.441 25.1384 130.216C44.0164 100.991 69.4904 80.5794 94.0546 60.864C118.846 41.1486 142.956 22.361 172.524 10.7637C202.092 -0.833542 237.346 -5.24051 263.275 8.67623C289.204 22.361 305.807 54.6015 322.866 84.9864C339.697 115.371 357.21 144.133 365.853 178.692C374.723 213.252 375.178 253.611 358.802 285.619Z" fill="#B3E5F6"/>
</svg>
