<svg width="347" height="353" viewBox="0 0 347 353" fill="none" xmlns="http://www.w3.org/2000/svg">
<path d="M284.037 12.462C316.098 27.7579 339.856 58.9959 345.161 91.5266C350.467 124.057 337.319 158.096 328.785 190.627C320.25 223.373 316.56 254.395 301.567 283.91C286.574 313.64 260.279 341.431 228.217 349.617C196.386 357.804 158.557 346.386 129.494 328.505C100.431 310.624 80.1328 286.495 60.5267 263.228C40.9206 239.746 22.2371 216.91 10.7041 188.903C-0.828922 160.897 -5.21147 127.504 8.62815 102.945C22.2371 78.3851 54.2989 62.6583 84.5154 46.5007C114.732 30.5586 143.334 13.9701 177.702 5.78356C212.071 -2.6184 252.205 -3.04927 284.037 12.462Z" fill="#B3E5F6"/>
</svg>
