<svg width="374" height="350" viewBox="0 0 374 350" fill="none" xmlns="http://www.w3.org/2000/svg">
<path d="M13.2079 62.9395C29.4193 30.574 62.527 6.59084 97.0047 1.23538C131.482 -4.12007 167.558 9.15216 202.036 17.7675C236.742 26.3828 269.622 30.1083 300.903 45.2433C332.412 60.3783 361.866 86.9227 370.543 119.288C379.219 151.421 367.118 189.608 348.167 218.946C329.215 248.285 303.643 268.775 278.983 288.567C254.095 308.359 229.892 327.22 200.209 338.862C170.527 350.504 135.136 354.928 109.106 340.958C83.0766 327.22 66.4086 294.854 49.2839 264.351C32.3876 233.848 14.8062 204.976 6.12972 170.282C-2.77512 135.587 -3.23178 95.0723 13.2079 62.9395Z" fill="#B3E5F6"/>
</svg>
