<svg width="630" height="596" viewBox="0 0 630 596" fill="none" xmlns="http://www.w3.org/2000/svg">
<g clip-path="url(#clip0_788_54)">
<path d="M321.6 374.3L331.9 552L348.5 553.2L386.5 369.1L402.5 555.6L419.2 555.6L448.6 377.1L386.5 342L321.6 374.3Z" fill="#25233A"/>
<path d="M539.2 144.4C539.2 144.4 542.4 137.4 540.3 124.7C538.2 112 552 94.2 552 94.2C552.533 94.4667 553 94.8334 553.4 95.3C553.8 95.7667 554.167 96.2667 554.5 96.8C554.767 97.3334 554.933 97.9 555 98.5C555.133 99.1 555.133 99.7 555 100.3L564.9 74.7C564.9 74.7 569.8 72.3 574.6 86C579.4 99.6 575.7 111.6 574.3 118.1C572 129.2 562.1 137.3 561.5 142.5C561.367 143.567 561.2 144.6 561 145.6C560.8 146.6 560.6 147.633 560.4 148.7C560.2 149.7 559.967 150.7 559.7 151.7C559.433 152.7 559.167 153.7 558.9 154.7L539.2 144.4Z" fill="#FCBFA4"/>
<path d="M386.2 104.1C386.2 104.1 342.2 104 338.4 106.5C334.7 109 325 115.1 318.7 130.8C312.4 146.5 280 233 280 233C280 233 277.4 242 286.1 250.9C294.7 259.9 322.1 292.3 322.1 292.3L311.4 373.9C311.4 373.9 379.4 379 387.4 358.5C387.4 358.5 412.2 372.6 448.6 377.1L460.6 381.7L461.6 227.5C464.1 230.4 466.9 233.1 470 235.3C473.2 237.6 476.6 239.4 480.2 240.7C483.8 242.1 487.6 242.9 491.4 243.3C495.2 243.7 499.1 243.5 502.9 242.9C529.8 238.7 555.4 204.4 566.9 161.1L529.8 141.5C529.8 141.5 515.7 197.2 492 187.6C475.4 180.8 475.4 155.4 473.6 137.6C473.3 135.2 472.7 132.9 471.8 130.8C470.8 128.6 469.6 126.6 468 124.8C466.5 123.1 464.6 121.6 462.6 120.3C460.6 119.1 458.4 118.2 456.1 117.7L424.6 110.2L386.2 104.1Z" fill="white"/>
<path d="M353.6 267.6L348.7 373.7C348.7 373.7 318.3 375 311.4 373.9L322.1 292.3L353.6 267.6Z" fill="#65AED8"/>
<path d="M353.6 267.6L348.7 373.7C348.7 373.7 318.3 375 311.4 373.9L322.1 292.3L353.6 267.6Z" fill="url(#paint0_linear_788_54)"/>
<path d="M461.6 227.5L451.6 205.1L438.6 375.6L460.6 381.7L461.6 227.5Z" fill="#65AED8"/>
<path d="M461.6 227.5L451.6 205.1L438.6 375.6L460.6 381.7L461.6 227.5Z" fill="url(#paint1_linear_788_54)"/>
<path d="M384.1 120.9C384.1 120.9 408.3 137.4 421.8 125.7L386.1 276.9L384.1 120.9Z" fill="#25233A"/>
<path d="M390.2 80.7C390.2 80.7 378.9 123.7 386.9 133.1C395 142.4 419.9 143.2 421.9 125.7C423.8 108.3 432 84.9 432 84.9L390.2 80.7Z" fill="#FCBFA4"/>
<path opacity="0.2" d="M389 91.3C389 91.3 398.6 115.3 406.8 119.1C415.1 122.9 422.2 120.1 423.3 116.7C424.3 113.4 428.6 95.4 428.6 95.4L389 91.3Z" fill="url(#paint2_linear_788_54)"/>
<path d="M447.9 57.0999C447.9 84.3999 432.5 106.5 413.5 106.5C394.5 106.5 379.1 84.3999 379.1 57.0999C379.1 29.7999 396 19.7 415 19.7C434 19.7 447.9 29.7999 447.9 57.0999Z" fill="#FCBFA4"/>
<path d="M461.2 41.4001C459.9 48.9001 455.7 55.5001 450.8 61.3001C450.8 60.8001 450.7 60.3001 450.7 59.8001C450.2 54.3001 449.3 48.8001 447 43.9001C444.4 38.5001 439.7 33.8001 433.8 32.5001C429.9 31.7001 425.8 32.4001 421.7 32.6001C418.4 32.8001 415.2 32.6001 412.4 31.0001C412.067 30.7334 411.733 30.5001 411.4 30.3001C411.067 30.1001 410.733 29.9001 410.4 29.7001C410.067 29.5001 409.7 29.3001 409.3 29.1001C408.967 28.9001 408.633 28.7001 408.3 28.5001C400 25.5001 394.5 40.3001 394.2 45.9001C393.8 52.5001 394.9 59.3001 392.6 65.4001C390.6 64.6001 389.8 62.2001 389.1 60.2001C388.3 58.2001 386.8 55.9001 384.6 56.3001C384.333 56.3667 384.1 56.4334 383.9 56.5001C383.633 56.6334 383.4 56.7667 383.2 56.9001C383 57.1001 382.8 57.3001 382.6 57.5001C382.4 57.7001 382.233 57.9334 382.1 58.2001C380.5 60.9001 380.9 64.4001 382.1 67.4001C383.2 70.3001 385.1 73.0001 386.2 76.0001C386.667 77.2001 387 78.4667 387.2 79.8001C387.4 81.0667 387.467 82.3667 387.4 83.7001C387.333 85.0334 387.167 86.3334 386.9 87.6001C386.567 88.8667 386.1 90.1001 385.5 91.3001C384.367 89.7001 383.3 88.0334 382.3 86.3001C381.3 84.6334 380.367 82.9001 379.5 81.1001C378.7 79.3001 377.967 77.5001 377.3 75.7001C376.7 73.8334 376.167 71.9334 375.7 70.0001L370.7 74.3001C370.833 68.0334 370.967 61.7667 371.1 55.5001C371.3 40.8001 372.1 24.9001 381.6 13.8001C388.9 5.30006 400.3 1.30006 411.4 0.300058C423.8 -0.899942 436.9 1.60006 446.9 8.90006C456.9 16.3001 463.3 29.1001 461.2 41.4001Z" fill="#3F3D56"/>
<path d="M456.2 41.5001C452.5 53.9001 450.7 59.8001 450.7 59.8001C450.2 54.3001 449.3 48.8001 446.9 43.9001C444.4 38.5001 439.7 33.8001 433.8 32.5001C429.9 31.7001 425.8 32.4001 421.7 32.6001C421.7 32.6001 436.7 24.7001 443.4 22.7001C450.1 20.7001 459.9 29.1001 456.2 41.5001Z" fill="#25233A"/>
<path opacity="0.2" d="M389 69C389 69 385.6 67.6 386.6 65C387.7 62.3 386.7 60.9 385.6 60.5C384.5 60.2 381.3 62.9 384.6 69C388 75.1 389 69 389 69Z" fill="url(#paint3_linear_788_54)"/>
<path fill-rule="evenodd" clip-rule="evenodd" d="M382.5 98.4C382.9 98.4667 383.267 98.6334 383.6 98.9C383.933 99.1 384.2 99.4 384.4 99.8C384.6 100.133 384.7 100.5 384.7 100.9L386.1 267.6L367.3 167L376.3 154.7L359.1 151.9L368 105.9C368.067 105.433 368.2 105 368.4 104.6C368.6 104.2 368.833 103.833 369.1 103.5C369.433 103.167 369.8 102.867 370.2 102.6C370.533 102.333 370.933 102.133 371.4 102L381.4 98.5C381.733 98.4334 382.1 98.4 382.5 98.4ZM424.7 110.2L435.4 114.1L438.6 161.1L423.3 161.1L429.8 174.3L386.1 276.9C386.1 276.9 419.5 145.6 424.7 110.2Z" fill="#65AED8"/>
<path d="M381.4 98.5L371.4 102C370.933 102.133 370.533 102.333 370.2 102.6C369.8 102.867 369.433 103.167 369.1 103.5C368.833 103.833 368.6 104.2 368.4 104.6C368.2 105 368.067 105.433 368 105.9L359.1 151.9L376.3 154.7L367.3 167L386.1 267.6L384.7 100.9C384.7 100.5 384.6 100.133 384.4 99.8C384.2 99.4 383.933 99.1 383.6 98.9C383.267 98.6334 382.9 98.4667 382.5 98.4C382.1 98.4 381.733 98.4334 381.4 98.5Z" fill="url(#paint4_linear_788_54)"/>
<path d="M424.7 110.2L435.4 114.1L438.6 161.1L423.3 161.1L429.8 174.3L386.1 276.9C386.1 276.9 419.5 145.6 424.7 110.2Z" fill="url(#paint5_linear_788_54)"/>
<path d="M337.6 156.7L322.2 236.5L353.6 267.6L337.6 156.7Z" fill="#65AED8"/>
<path d="M337.6 156.7L322.2 236.5L353.6 267.6L347.7 226.9L337.6 156.7Z" fill="url(#paint6_linear_788_54)"/>
<path d="M353.6 267.6L330.8 296L322.1 292.3L350.9 264.9L353.6 267.6Z" fill="#25233A"/>
<path d="M351.1 270.8C351.1 270.8 358 285.8 359.1 294.4L330.8 296L351.1 270.8Z" fill="#FCBFA4"/>
<path fill-rule="evenodd" clip-rule="evenodd" d="M327.8 296L372.6 294.4C372.6 294.4 369.4 340.4 369.1 345.5C368.8 350.6 320.4 354.1 320.4 354.1L327.8 296ZM454.3 357.1C454.3 357.1 409.4 350.6 409.1 345.5C408.8 340.3 413.6 294.7 413.6 294.7L457.8 297.7L454.3 357.1Z" fill="white"/>
<path d="M327.8 296L372.6 294.4C372.6 294.4 369.4 340.4 369.1 345.5C368.8 350.6 320.4 354.1 320.4 354.1L327.8 296Z" fill="#65AED8"/>
<path d="M327.8 296L372.6 294.4C372.6 294.4 369.4 340.4 369.1 345.5C368.8 350.6 320.4 354.1 320.4 354.1L327.8 296Z" fill="url(#paint7_linear_788_54)"/>
<path d="M457.7 297.7L413.5 294.7C413.5 294.7 408.7 340.4 409 345.5C409.3 350.6 454.2 357.2 454.2 357.2L457.7 297.7Z" fill="#65AED8"/>
<path d="M457.7 297.7L413.5 294.7C413.5 294.7 408.7 340.4 409 345.5C409.3 350.6 454.2 357.2 454.2 357.2L457.7 297.7Z" fill="url(#paint8_linear_788_54)"/>
<path d="M533.1 143.2L535.3 139.6L565.8 156.7L566.9 161.1L533.1 143.2Z" fill="#25233A"/>
<path d="M365.2 130.8C364.8 102.7 387.4 95.4 387.4 95.4" stroke="#222A72" stroke-width="3" stroke-miterlimit="10" stroke-linecap="round"/>
<path d="M344.9 168.3C342.8 120.6 386.2 118.1 382.3 168.3" stroke="#222A72" stroke-width="3" stroke-miterlimit="10" stroke-linecap="round"/>
<path d="M349.6 170C349.6 171.8 348.5 173.5 346.9 174.2C345.2 174.9 343.2 174.5 342 173.2C340.7 171.9 340.3 170 341 168.3C341.7 166.6 343.3 165.5 345.1 165.5C345.7 165.5 346.267 165.633 346.8 165.9C347.4 166.1 347.9 166.4 348.3 166.8C348.7 167.267 349.033 167.767 349.3 168.3C349.5 168.833 349.6 169.4 349.6 170Z" fill="url(#paint9_linear_788_54)"/>
<path d="M386.2 170.5C386.2 172.4 385.1 174 383.4 174.7C381.7 175.4 379.8 175 378.5 173.7C377.2 172.4 376.8 170.5 377.5 168.8C378.2 167.2 379.9 166.1 381.7 166.1C382.3 166.1 382.867 166.2 383.4 166.4C383.933 166.6 384.433 166.933 384.9 167.4C385.3 167.8 385.6 168.267 385.8 168.8C386.067 169.4 386.2 169.967 386.2 170.5Z" fill="url(#paint10_linear_788_54)"/>
<path d="M426.5 104.1C426.5 104.1 460.3 120.3 440.6 181L432 198.9" stroke="#222A72" stroke-width="3" stroke-miterlimit="10" stroke-linecap="round"/>
<path d="M436 209.5C432.6 212.9 427 212.9 423.6 209.5C420.2 206.1 420.2 200.5 423.6 197.1C427 193.7 432.6 193.7 436 197.1C439.4 200.5 439.4 206.1 436 209.5Z" fill="url(#paint11_linear_788_54)"/>
<path d="M434.6 206.9C432.2 209.3 428.3 209.3 425.9 206.9C423.4 204.5 423.4 200.6 425.9 198.2C428.3 195.8 432.2 195.8 434.6 198.2C437 200.6 437 204.5 434.6 206.9Z" fill="url(#paint12_linear_788_54)"/>
<path d="M436.5 203.3C434.1 205.7 430.2 205.7 427.8 203.3C425.4 200.8 425.4 196.9 427.8 194.5C430.2 192.1 434.1 192.1 436.5 194.5C439 196.9 439 200.8 436.5 203.3Z" fill="url(#paint13_linear_788_54)"/>
<path d="M267.6 341L141.7 341C140.967 341 140.233 340.833 139.5 340.5C138.767 340.233 138.133 339.8 137.6 339.2C137.067 338.667 136.667 338.033 136.4 337.3C136.067 336.633 135.9 335.9 135.9 335.1C135.9 334.3 136.067 333.567 136.4 332.9C136.667 332.167 137.067 331.533 137.6 331C138.133 330.467 138.767 330.033 139.5 329.7C140.233 329.433 140.967 329.3 141.7 329.3L267.6 329.3C268.4 329.3 269.167 329.433 269.9 329.7C270.567 330.033 271.167 330.467 271.7 331C272.3 331.533 272.733 332.167 273 332.9C273.267 333.567 273.4 334.3 273.4 335.1C273.467 335.9 273.333 336.633 273 337.3C272.733 338.033 272.333 338.667 271.8 339.2C271.2 339.8 270.567 340.233 269.9 340.5C269.167 340.833 268.4 341 267.6 341Z" fill="#65AED8"/>
<path d="M205.6 335.1C205.6 335.9 205.467 336.633 205.2 337.3C204.867 338.033 204.433 338.667 203.9 339.2C203.367 339.733 202.733 340.167 202 340.5C201.267 340.767 200.533 340.9 199.8 340.9L0.600098 340.9L0.600098 329.3L199.8 329.3C200.6 329.3 201.333 329.433 202 329.7C202.733 330.033 203.367 330.467 203.9 331C204.433 331.533 204.867 332.167 205.2 332.9C205.467 333.567 205.6 334.3 205.6 335.1Z" fill="#65AED8"/>
<path d="M273.4 335.1C273.4 335.9 273.267 336.633 273 337.3C272.667 338.033 272.233 338.667 271.7 339.2C271.167 339.733 270.533 340.167 269.8 340.5C269.133 340.767 268.4 340.9 267.6 340.9L199.8 340.9C201.4 340.9 202.8 340.3 203.9 339.2C205 338.1 205.6 336.6 205.6 335.1C205.6 333.6 205 332.1 203.9 331C202.8 329.9 201.4 329.3 199.8 329.3L267.6 329.3C268.4 329.3 269.133 329.433 269.8 329.7C270.533 330.033 271.167 330.467 271.7 331C272.233 331.533 272.667 332.167 273 332.9C273.267 333.567 273.4 334.3 273.4 335.1Z" fill="url(#paint14_linear_788_54)"/>
<path d="M205.6 335.1C205.6 335.9 205.467 336.633 205.2 337.3C204.867 338.033 204.433 338.667 203.9 339.2C203.367 339.733 202.733 340.167 202 340.5C201.267 340.767 200.533 340.9 199.8 340.9L0.600098 340.9L0.600098 329.3L199.8 329.3C200.6 329.3 201.333 329.433 202 329.7C202.733 330.033 203.367 330.467 203.9 331C204.433 331.533 204.867 332.167 205.2 332.9C205.467 333.567 205.6 334.3 205.6 335.1Z" fill="url(#paint15_linear_788_54)"/>
<path d="M141.8 341L265.5 341L265.5 479.5L141.7 479.5L141.8 341Z" fill="#65AED8"/>
<path d="M141.8 341L265.5 341L265.5 479.5L141.7 479.5L141.8 341Z" fill="url(#paint16_linear_788_54)"/>
<path d="M0 341L205 341L205 479.5L-1.91221e-07 479.5L0 341Z" fill="#65AED8"/>
<path d="M333.8 559.6L334.2 552L348.5 553.2L346.6 564.8C346.6 564.8 339.6 575.7 333.8 559.6Z" fill="#FCBFA4"/>
<path d="M417.7 565.9L417.2 555.6L402.5 555.4L402.5 568.4C402.5 568.4 412 581.9 417.7 565.9Z" fill="#FCBFA4"/>
<path fill-rule="evenodd" clip-rule="evenodd" d="M336.7 564.6C339.3 566.1 342.3 563.9 345.3 561.6C348.3 559.2 348.5 561.3 348.5 561.3L348.5 578.9C348.5 578.9 336.1 582.6 325.8 586C315.6 589.5 298.8 590.2 299.1 589.2C299.3 588.2 299.567 587.2 299.9 586.2C300.167 585.2 300.5 584.233 300.9 583.3C301.3 582.367 301.7 581.433 302.1 580.5C302.567 579.567 303.067 578.667 303.6 577.8C306.8 573 333.8 559.6 333.8 559.6C335.4 559.5 334 563 336.7 564.6ZM418.4 563.7C418.4 563.7 442.1 578.4 444.8 583.4C445.267 584.333 445.7 585.267 446.1 586.2C446.5 587.133 446.833 588.1 447.1 589.1C447.433 590.1 447.733 591.1 448 592.1C448.2 593.1 448.4 594.1 448.6 595.1C448.7 596.1 432.1 594.2 422.1 590C412.1 585.9 400 581.3 400 581.3L401.3 563.7C401.3 563.7 401.6 561.7 404.4 564.2C407.2 566.7 412.4 569.7 415.2 568.4C418 567.1 416.9 563.4 418.4 563.7Z" fill="#65AED8"/>
<path d="M333.8 559.6C333.8 559.6 306.8 573 303.6 577.8C303.067 578.667 302.567 579.567 302.1 580.5C301.7 581.433 301.3 582.367 300.9 583.3C300.5 584.233 300.167 585.2 299.9 586.2C299.567 587.2 299.3 588.2 299.1 589.2C298.8 590.2 315.6 589.5 325.8 586C336.1 582.6 348.5 578.9 348.5 578.9L348.5 561.3C348.5 561.3 348.3 559.2 345.3 561.6C342.3 563.9 339.3 566.1 336.7 564.6C334 563 335.4 559.5 333.8 559.6Z" fill="url(#paint17_linear_788_54)"/>
<path d="M418.4 563.7C418.4 563.7 442.1 578.4 444.8 583.4C445.267 584.333 445.7 585.267 446.1 586.2C446.5 587.133 446.833 588.1 447.1 589.1C447.433 590.1 447.733 591.1 448 592.1C448.2 593.1 448.4 594.1 448.6 595.1C448.7 596.1 432.1 594.2 422.1 590C412.1 585.9 400 581.3 400 581.3L401.3 563.7C401.3 563.7 401.6 561.7 404.4 564.2C407.2 566.7 412.4 569.7 415.2 568.4C418 567.1 416.9 563.4 418.4 563.7Z" fill="url(#paint18_linear_788_54)"/>
<path d="M206.4 329.1L206.4 329.3L96.8999 329.3C96.8999 329.3 112.9 276.7 161.6 278.3C162.5 278.3 163.4 278.4 164.3 278.4C209.4 281.7 207.1 324.7 206.4 329.1Z" fill="#65AED8"/>
<path d="M206.4 329.1L178.4 329.1L178.7 326.3C178.7 326.3 187.2 285.3 164.4 278.5C209.4 281.7 207.1 324.7 206.4 329.1Z" fill="#65AED8"/>
<path d="M206.4 329.1L206.4 329.3L96.8999 329.3C96.8999 329.3 112.9 276.7 161.6 278.3C162.5 278.3 163.5 278.4 164.4 278.4C209.4 281.7 207.1 324.7 206.4 329.1Z" fill="url(#paint19_linear_788_54)"/>
<path d="M206.4 329.1L178.4 329.1L178.7 326.3C178.7 326.3 187.2 285.3 164.4 278.5C209.4 281.7 207.1 324.7 206.4 329.1Z" fill="url(#paint20_linear_788_54)"/>
</g>
<defs>
<linearGradient id="paint0_linear_788_54" x1="13461.8" y1="28888.1" x2="15243.9" y2="28888.1" gradientUnits="userSpaceOnUse">
<stop offset="0.01" stop-color="white" stop-opacity="0"/>
<stop offset="0.13" stop-color="white" stop-opacity="0.17"/>
<stop offset="0.37" stop-color="white" stop-opacity="0.46"/>
<stop offset="0.59" stop-color="white" stop-opacity="0.68"/>
<stop offset="0.77" stop-color="white" stop-opacity="0.85"/>
<stop offset="0.91" stop-color="white" stop-opacity="0.95"/>
<stop offset="1" stop-color="white" stop-opacity="0.99"/>
</linearGradient>
<linearGradient id="paint1_linear_788_54" x1="-15593" y1="-67385.8" x2="-16542.2" y2="-67414.6" gradientUnits="userSpaceOnUse">
<stop offset="0.01" stop-color="white" stop-opacity="0"/>
<stop offset="0.13" stop-color="white" stop-opacity="0.17"/>
<stop offset="0.37" stop-color="white" stop-opacity="0.46"/>
<stop offset="0.59" stop-color="white" stop-opacity="0.68"/>
<stop offset="0.77" stop-color="white" stop-opacity="0.85"/>
<stop offset="0.91" stop-color="white" stop-opacity="0.95"/>
<stop offset="1" stop-color="white" stop-opacity="0.99"/>
</linearGradient>
<linearGradient id="paint2_linear_788_54" x1="-31450.3" y1="3197.77" x2="-34445.6" y2="4239.62" gradientUnits="userSpaceOnUse">
<stop stop-color="#183866"/>
<stop offset="1" stop-color="#1A7FC1"/>
</linearGradient>
<linearGradient id="paint3_linear_788_54" x1="-3863.96" y1="-39.7676" x2="-3921.44" y2="-19.7501" gradientUnits="userSpaceOnUse">
<stop stop-color="#183866"/>
<stop offset="1" stop-color="#1A7FC1"/>
</linearGradient>
<linearGradient id="paint4_linear_788_54" x1="32480.9" y1="28717.8" x2="34406.8" y2="28342.8" gradientUnits="userSpaceOnUse">
<stop offset="0.01" stop-color="white" stop-opacity="0"/>
<stop offset="0.13" stop-color="white" stop-opacity="0.17"/>
<stop offset="0.37" stop-color="white" stop-opacity="0.46"/>
<stop offset="0.59" stop-color="white" stop-opacity="0.68"/>
<stop offset="0.77" stop-color="white" stop-opacity="0.85"/>
<stop offset="0.91" stop-color="white" stop-opacity="0.95"/>
<stop offset="1" stop-color="white" stop-opacity="0.99"/>
</linearGradient>
<linearGradient id="paint5_linear_788_54" x1="-10111.2" y1="-38446.8" x2="-13422.4" y2="-40240.1" gradientUnits="userSpaceOnUse">
<stop offset="0.01" stop-color="white" stop-opacity="0"/>
<stop offset="0.13" stop-color="white" stop-opacity="0.17"/>
<stop offset="0.37" stop-color="white" stop-opacity="0.46"/>
<stop offset="0.59" stop-color="white" stop-opacity="0.68"/>
<stop offset="0.77" stop-color="white" stop-opacity="0.85"/>
<stop offset="0.91" stop-color="white" stop-opacity="0.95"/>
<stop offset="1" stop-color="white" stop-opacity="0.99"/>
</linearGradient>
<linearGradient id="paint6_linear_788_54" x1="10051.2" y1="15337.3" x2="10864.1" y2="15266.1" gradientUnits="userSpaceOnUse">
<stop offset="0.01" stop-color="white" stop-opacity="0"/>
<stop offset="0.13" stop-color="white" stop-opacity="0.17"/>
<stop offset="0.37" stop-color="white" stop-opacity="0.46"/>
<stop offset="0.59" stop-color="white" stop-opacity="0.68"/>
<stop offset="0.77" stop-color="white" stop-opacity="0.85"/>
<stop offset="0.91" stop-color="white" stop-opacity="0.95"/>
<stop offset="1" stop-color="white" stop-opacity="0.99"/>
</linearGradient>
<linearGradient id="paint7_linear_788_54" x1="-19176.9" y1="24532" x2="-19305.8" y2="28582.8" gradientUnits="userSpaceOnUse">
<stop offset="0.01" stop-color="white" stop-opacity="0"/>
<stop offset="0.13" stop-color="white" stop-opacity="0.17"/>
<stop offset="0.37" stop-color="white" stop-opacity="0.46"/>
<stop offset="0.59" stop-color="white" stop-opacity="0.68"/>
<stop offset="0.77" stop-color="white" stop-opacity="0.85"/>
<stop offset="0.91" stop-color="white" stop-opacity="0.95"/>
<stop offset="1" stop-color="white" stop-opacity="0.99"/>
</linearGradient>
<linearGradient id="paint8_linear_788_54" x1="-25779.2" y1="42164" x2="-26060.8" y2="47311.6" gradientUnits="userSpaceOnUse">
<stop offset="0.01" stop-color="white" stop-opacity="0"/>
<stop offset="0.13" stop-color="white" stop-opacity="0.17"/>
<stop offset="0.37" stop-color="white" stop-opacity="0.46"/>
<stop offset="0.59" stop-color="white" stop-opacity="0.68"/>
<stop offset="0.77" stop-color="white" stop-opacity="0.85"/>
<stop offset="0.91" stop-color="white" stop-opacity="0.95"/>
<stop offset="1" stop-color="white" stop-opacity="0.99"/>
</linearGradient>
<linearGradient id="paint9_linear_788_54" x1="3396.33" y1="1654.54" x2="3476.53" y2="1654.54" gradientUnits="userSpaceOnUse">
<stop stop-color="#68E1FD"/>
<stop offset="0.2" stop-color="#5DB4CF"/>
<stop offset="0.46" stop-color="#50819B"/>
<stop offset="0.69" stop-color="#475C76"/>
<stop offset="0.87" stop-color="#41455E"/>
<stop offset="0.99" stop-color="#3F3D56"/>
</linearGradient>
<linearGradient id="paint10_linear_788_54" x1="3760.32" y1="1660.47" x2="3841.42" y2="1660.47" gradientUnits="userSpaceOnUse">
<stop stop-color="#68E1FD"/>
<stop offset="0.2" stop-color="#5DB4CF"/>
<stop offset="0.46" stop-color="#50819B"/>
<stop offset="0.69" stop-color="#475C76"/>
<stop offset="0.87" stop-color="#41455E"/>
<stop offset="0.99" stop-color="#3F3D56"/>
</linearGradient>
<linearGradient id="paint11_linear_788_54" x1="7793.65" y1="3609.88" x2="8100.07" y2="3609.88" gradientUnits="userSpaceOnUse">
<stop stop-color="#68E1FD"/>
<stop offset="0.2" stop-color="#5DB4CF"/>
<stop offset="0.46" stop-color="#50819B"/>
<stop offset="0.69" stop-color="#475C76"/>
<stop offset="0.87" stop-color="#41455E"/>
<stop offset="0.99" stop-color="#3F3D56"/>
</linearGradient>
<linearGradient id="paint12_linear_788_54" x1="5656.03" y1="2624.14" x2="5808.62" y2="2624.14" gradientUnits="userSpaceOnUse">
<stop stop-color="#68E1FD"/>
<stop offset="0.2" stop-color="#5DB4CF"/>
<stop offset="0.46" stop-color="#50819B"/>
<stop offset="0.69" stop-color="#475C76"/>
<stop offset="0.87" stop-color="#41455E"/>
<stop offset="0.99" stop-color="#3F3D56"/>
</linearGradient>
<linearGradient id="paint13_linear_788_54" x1="-12087.7" y1="9637.1" x2="-12286.7" y2="10001.7" gradientUnits="userSpaceOnUse">
<stop stop-color="#68E1FD"/>
<stop offset="0.2" stop-color="#5DB4CF"/>
<stop offset="0.46" stop-color="#50819B"/>
<stop offset="0.69" stop-color="#475C76"/>
<stop offset="0.87" stop-color="#41455E"/>
<stop offset="0.99" stop-color="#3F3D56"/>
</linearGradient>
<linearGradient id="paint14_linear_788_54" x1="-105598" y1="25917.5" x2="-105065" y2="31709.8" gradientUnits="userSpaceOnUse">
<stop stop-opacity="0"/>
<stop offset="0.99"/>
</linearGradient>
<linearGradient id="paint15_linear_788_54" x1="-758198" y1="-23940.3" x2="-759531" y2="17541.4" gradientUnits="userSpaceOnUse">
<stop stop-opacity="0"/>
<stop offset="0.99"/>
</linearGradient>
<linearGradient id="paint16_linear_788_54" x1="55322.6" y1="142407" x2="101771" y2="141757" gradientUnits="userSpaceOnUse">
<stop stop-opacity="0"/>
<stop offset="0.99"/>
</linearGradient>
<linearGradient id="paint17_linear_788_54" x1="15092.3" y1="17332.7" x2="17535.9" y2="17332.7" gradientUnits="userSpaceOnUse">
<stop stop-opacity="0"/>
<stop offset="0.99"/>
</linearGradient>
<linearGradient id="paint18_linear_788_54" x1="19836" y1="18835.8" x2="22197.5" y2="18835.8" gradientUnits="userSpaceOnUse">
<stop stop-opacity="0"/>
<stop offset="0.99"/>
</linearGradient>
<linearGradient id="paint19_linear_788_54" x1="-70684" y1="18395" x2="-69572.1" y2="32500.1" gradientUnits="userSpaceOnUse">
<stop stop-opacity="0"/>
<stop offset="0.99"/>
</linearGradient>
<linearGradient id="paint20_linear_788_54" x1="-148028" y1="-66844.5" x2="-157525" y2="-56865.9" gradientUnits="userSpaceOnUse">
<stop stop-opacity="0"/>
<stop offset="0.99"/>
</linearGradient>
<clipPath id="clip0_788_54">
<rect width="630" height="596" fill="white"/>
</clipPath>
</defs>
</svg>
