<svg width="599" height="695" viewBox="0 0 599 695" fill="none" xmlns="http://www.w3.org/2000/svg">
<path d="M487.853 4.73757C533.807 15.7266 575.765 49.1931 591.25 92.6496C606.734 136.106 596.245 189.553 575.266 230.512C553.787 271.471 522.319 299.942 517.324 361.88C512.828 423.818 534.307 519.223 509.332 586.156C484.357 653.588 412.928 693.049 341 694.048C268.573 695.047 196.145 657.584 128.213 615.127C60.7809 572.669 -2.15606 524.717 0.840941 461.78C3.83794 398.843 71.7699 320.422 84.2574 249.493C96.2454 178.564 52.7889 114.628 63.7779 75.1671C74.7669 35.7066 139.702 21.2211 195.146 15.7266C250.591 10.2321 296.045 13.7286 343.997 9.73257C391.45 5.73657 441.899 -6.25143 487.853 4.73757Z" fill="#B3E5F6"/>
</svg>
