<svg width="466" height="483" viewBox="0 0 466 483" fill="none" xmlns="http://www.w3.org/2000/svg">
<path d="M406.079 54.3959C438.818 86.9941 452.396 138.662 459.774 188.784C466.804 238.839 467.635 287.349 462.824 342.718C458.014 398.088 447.148 460.599 408.923 477.468C370.765 493.989 304.9 464.801 254.43 447.576C203.892 430.7 168.749 425.787 144.125 407.368C119.501 388.95 104.982 357.309 91.1743 327.608C77.0188 297.84 63.1602 270.294 41.8016 227.242C20.5094 183.842 -8.41586 125.632 3.54653 85.7019C15.9236 45.4901 68.7071 24.1874 119.761 11.9356C171.096 0.0984505 220.353 -2.75443 271.212 2.99803C321.79 8.33584 373.689 21.8643 406.079 54.3959Z" fill="#529CC7"/>
</svg>
