<svg width="183" height="219" viewBox="0 0 183 219" fill="none" xmlns="http://www.w3.org/2000/svg">
<path d="M127.999 56.2055C100.608 56.2055 41.3606 49.0823 41.3606 49.0823C41.3606 49.0823 29.5138 62.1163 22.666 68.9654C9.90848 81.7254 11.0178 97.8757 9.32642 118.019C11.4287 174.004 47.2634 218.613 91.3018 218.613C135.087 218.613 170.778 174.504 173.236 118.951C170.826 94.0881 154.09 56.2055 127.999 56.2055Z" fill="#F7DECE"/>
<path d="M91.3053 191.208C75.2335 191.208 66.8243 183.263 65.9204 182.352C64.6273 181.077 63.8936 179.34 63.8808 177.524C63.8679 175.707 64.577 173.96 65.8519 172.667C67.1269 171.374 68.8633 170.64 70.6792 170.627C72.4951 170.614 74.2417 171.323 75.5348 172.599C75.884 172.921 81.0541 177.509 91.3053 177.509C101.707 177.509 106.87 172.784 107.09 172.585C108.405 171.353 110.149 170.684 111.951 170.721C113.752 170.758 115.468 171.498 116.731 172.784C117.984 174.063 118.682 175.785 118.675 177.576C118.667 179.367 117.954 181.083 116.69 182.352C115.786 183.263 107.377 191.208 91.3053 191.208ZM98.1532 156.962H84.4575C82.6413 156.962 80.8996 156.24 79.6153 154.956C78.3311 153.672 77.6097 151.929 77.6097 150.113C77.6097 148.296 78.3311 146.554 79.6153 145.27C80.8996 143.985 82.6413 143.264 84.4575 143.264H98.1532C99.9693 143.264 101.711 143.985 102.995 145.27C104.28 146.554 105.001 148.296 105.001 150.113C105.001 151.929 104.28 153.672 102.995 154.956C101.711 156.24 99.9693 156.962 98.1532 156.962Z" fill="#C1694F"/>
<path d="M57.0651 129.563C55.249 129.563 53.5072 128.842 52.223 127.557C50.9388 126.273 50.2173 124.53 50.2173 122.714V109.016C50.2173 107.199 50.9388 105.457 52.223 104.173C53.5072 102.888 55.249 102.167 57.0651 102.167C58.8813 102.167 60.623 102.888 61.9073 104.173C63.1915 105.457 63.9129 107.199 63.9129 109.016V122.714C63.9129 124.53 63.1915 126.273 61.9073 127.557C60.623 128.842 58.8813 129.563 57.0651 129.563ZM125.543 129.563C123.727 129.563 121.985 128.842 120.701 127.557C119.417 126.273 118.696 124.53 118.696 122.714V109.016C118.696 107.199 119.417 105.457 120.701 104.173C121.985 102.888 123.727 102.167 125.543 102.167C127.36 102.167 129.101 102.888 130.386 104.173C131.67 105.457 132.391 107.199 132.391 109.016V122.714C132.391 124.53 131.67 126.273 130.386 127.557C129.101 128.842 127.36 129.563 125.543 129.563Z" fill="#662113"/>
<path d="M91.2884 0C147.475 0 182.577 41.4648 182.577 76.0187C182.577 110.566 175.551 124.401 168.532 110.566C161.506 96.7511 154.487 76.0804 154.487 76.0804C154.487 76.0804 130.67 91.5115 112.01 69.1011C112.01 69.1011 119.385 110.566 77.2435 69.1011C77.2435 69.1011 84.2694 96.7511 42.1347 62.1971C42.1347 62.1971 21.0639 76.0187 14.0449 110.566C12.1001 120.162 1.25172e-06 110.566 1.25172e-06 76.0187C-0.00684658 41.4648 28.0829 0 91.2884 0Z" fill="#577CFF"/>
</svg>
