<svg width="388" height="388" viewBox="0 0 388 388" fill="none" xmlns="http://www.w3.org/2000/svg">
<path d="M387.234 193.617C387.234 230.855 376.713 265.672 358.491 295.209C353.409 303.348 347.812 311.129 341.658 318.394C338.085 322.642 334.314 326.731 330.423 330.622C328.001 333.043 325.5 335.425 322.92 337.688C322.046 338.522 321.133 339.316 320.22 340.11C316.965 342.929 313.59 345.628 310.136 348.209C307.476 350.233 304.777 352.179 301.998 354.005C301.125 354.64 300.251 355.196 299.338 355.791C298.941 356.109 298.504 356.347 298.068 356.585C293.423 359.603 288.659 362.382 283.736 364.962C283.101 365.319 282.426 365.677 281.791 365.994C280.48 366.63 279.21 367.304 277.9 367.94C271.866 370.838 265.672 373.458 259.36 375.721C250.983 378.778 242.329 381.279 233.436 383.105C220.573 385.805 207.274 387.194 193.617 387.194C187.781 387.194 181.945 386.956 176.228 386.4C170.234 385.884 164.358 385.09 158.522 383.978C155.306 383.383 152.091 382.708 148.954 381.954C142.086 380.366 135.417 378.381 128.866 376.078C126.603 375.244 124.38 374.411 122.157 373.498C120.529 372.862 118.902 372.188 117.274 371.513C111.319 368.932 105.483 366.074 99.8455 362.937C99.0118 362.501 98.2178 362.024 97.4238 361.548C92.501 358.809 87.7767 355.831 83.2112 352.615C79.2809 349.916 75.3903 347.018 71.6585 343.921C71.2218 343.603 70.7851 343.246 70.3484 342.889C65.0683 338.482 59.9867 333.837 55.183 328.954C53.7935 327.565 52.4834 326.175 51.213 324.746C47.4812 320.776 43.9876 316.607 40.6528 312.32C39.5809 310.97 38.5487 309.581 37.5959 308.191C35.3727 305.293 33.3083 302.276 31.363 299.259C11.5527 268.848 0 232.602 0 193.617C0 86.6651 86.7048 0 193.617 0C300.569 0 387.234 86.6651 387.234 193.617Z" fill="#E8E1EF"/>
<path d="M186.005 71.9644C186.005 71.9644 148.326 66.323 121.326 83.2471C94.3259 100.171 106.549 145.219 106.549 145.219C106.549 145.219 63.2963 179.091 60.9461 216.266C58.5958 253.441 92.448 267.078 92.448 267.078L181.642 253.445L186.005 71.9644Z" fill="black"/>
<path d="M358.488 295.21C353.407 303.348 347.809 311.129 341.655 318.394C338.082 322.642 334.311 326.731 330.42 330.622C324.108 336.934 317.319 342.85 310.134 348.209C307.474 350.234 304.774 352.179 301.995 354.005C301.122 354.641 300.248 355.196 299.335 355.792C298.938 356.109 298.501 356.348 298.065 356.586C293.42 359.603 288.656 362.382 283.733 364.963L267.456 225.655C267.456 225.655 283.018 228.911 319.066 260.194C346.737 284.213 355.669 292.431 358.488 295.21Z" fill="#92B4EA"/>
<path d="M301.998 354.005C301.124 354.64 300.251 355.196 299.338 355.791C298.941 356.109 298.504 356.347 298.067 356.585C292.827 359.999 287.388 363.136 281.79 365.994C280.48 366.629 279.21 367.304 277.9 367.939C271.865 370.837 265.672 373.458 259.36 375.721C250.983 378.777 242.328 381.279 233.436 383.105C220.573 385.804 207.273 387.194 193.616 387.194C187.781 387.194 181.945 386.956 176.228 386.4C170.233 385.884 164.358 385.09 158.522 383.978C155.306 383.383 152.09 382.708 148.954 381.953C139.744 379.81 130.811 376.991 122.156 373.497C120.529 372.862 118.901 372.187 117.273 371.512C115.884 306.126 115.646 242.646 119.497 237.128C127.675 225.456 160.904 213.546 193.378 212.871C225.893 212.157 267.458 225.655 267.458 225.655L301.998 354.005Z" fill="#92B4EA"/>
<path d="M322.919 337.688C322.045 338.522 321.132 339.316 320.219 340.11C320.18 339.792 320.14 339.475 320.06 339.157C313.828 309.223 293.978 277.741 293.779 277.424C293.342 276.709 293.541 275.756 294.255 275.28C294.97 274.803 295.963 275.042 296.399 275.756C296.638 276.074 316.408 307.437 322.919 337.688Z" fill="white"/>
<path d="M181.629 288.223L160.112 380.168L128.868 376.079C126.605 375.245 124.382 374.411 122.159 373.498C120.531 372.863 118.903 372.188 117.276 371.513C111.321 368.933 105.485 366.074 99.8472 362.938C99.0135 362.501 98.2196 362.025 97.4256 361.548C92.5028 358.809 87.7784 355.832 83.2129 352.616C79.2826 349.916 75.392 347.018 71.6602 343.922C71.2235 343.604 70.7869 343.247 70.3502 342.889C65.0701 338.483 59.9884 333.838 55.1847 328.955C53.7952 327.565 52.4851 326.176 51.2147 324.747C47.4829 320.777 43.9893 316.608 40.6545 312.32C39.5826 310.971 38.5505 309.581 37.5977 308.192C92.8204 215.373 173.173 212.832 173.173 212.832L181.629 288.223Z" fill="#92B4EA"/>
<path d="M172.981 218.009C172.981 218.009 188.548 240.864 206.726 254.616C224.905 268.368 233.21 269.992 233.21 269.992L232.051 225.643L172.981 218.009Z" fill="#6876AA"/>
<path d="M173.88 172.326L173.122 216.266C173.122 216.266 180.828 229.033 206.498 231.566C225.621 233.452 232.422 229.24 232.422 229.24L230.135 206.94L227.876 185.192L181.638 174.184L173.88 172.326Z" fill="#F48462"/>
<path d="M181.637 174.184C181.728 175.387 182.161 176.808 182.84 178.448C192.292 200.564 219.094 205.761 230.134 206.944L227.875 185.197L181.637 174.184Z" fill="black"/>
<path d="M239.4 85.2039C239.4 85.2039 261.513 140.693 251.894 171.146C242.274 201.6 214.433 195.844 197.874 189.353C181.315 182.862 173.875 172.333 173.875 172.333C173.875 172.333 158.051 177.125 148.058 162.23C138.066 147.334 145.061 130.831 154.12 127.294C163.184 123.757 173.597 130.557 173.597 130.557L165.788 114.387C165.788 114.387 203.475 34.7412 239.4 85.2039Z" fill="#F48462"/>
<path d="M171.596 154.063C171.271 154.063 170.945 153.964 170.667 153.754L151.115 139.176C150.424 138.664 150.281 137.687 150.797 136.996C151.314 136.302 152.29 136.171 152.977 136.679L172.529 151.257C173.22 151.769 173.363 152.745 172.847 153.436C172.537 153.849 172.069 154.063 171.596 154.063Z" fill="black"/>
<path d="M153.559 153.508C152.852 153.508 152.213 153.028 152.042 152.313C151.844 151.475 152.36 150.638 153.198 150.435L166.291 147.303C167.117 147.104 167.966 147.617 168.169 148.454C168.367 149.292 167.851 150.13 167.013 150.332L153.92 153.464C153.801 153.492 153.678 153.508 153.559 153.508Z" fill="black"/>
<path d="M205.888 108.31C205.614 108.31 205.336 108.238 205.086 108.088C204.348 107.643 204.109 106.686 204.554 105.952C208.365 99.5918 214.717 99.2662 217.548 99.9768C218.382 100.191 218.886 101.037 218.671 101.871C218.461 102.7 217.643 103.212 216.786 102.998C216.543 102.934 210.779 101.628 207.222 107.552C206.932 108.04 206.416 108.31 205.888 108.31Z" fill="black"/>
<path d="M244.88 106.222C244.519 106.222 244.162 106.099 243.868 105.848C239.374 102.006 237.075 103.081 237.052 103.093C236.309 103.463 235.368 103.204 234.963 102.478C234.558 101.751 234.761 100.854 235.467 100.414C235.872 100.163 239.612 98.1149 245.893 103.482C246.548 104.042 246.623 105.027 246.063 105.678C245.758 106.039 245.317 106.222 244.88 106.222Z" fill="black"/>
<path d="M236.765 147.898C236.535 147.898 236.308 147.851 236.09 147.743C235.316 147.37 234.99 146.437 235.359 145.663C239.909 136.215 231.179 121.732 231.092 121.589C230.647 120.855 230.873 119.898 231.608 119.449C232.342 118.997 233.303 119.227 233.748 119.961C234.148 120.612 243.454 136.032 238.166 147.017C237.9 147.573 237.344 147.898 236.765 147.898Z" fill="black"/>
<path d="M244.315 127.334C243.616 127.334 242.985 126.865 242.806 126.159L240.234 116.031C240.134 115.642 240.186 115.233 240.385 114.888L243.521 109.282C243.938 108.528 244.894 108.27 245.637 108.683C246.391 109.104 246.657 110.052 246.232 110.803L243.402 115.865L245.819 125.389C246.034 126.222 245.53 127.068 244.696 127.282C244.573 127.318 244.442 127.334 244.315 127.334Z" fill="black"/>
<path d="M216.502 127.393C215.803 127.393 215.172 126.925 214.993 126.222L212.42 116.098C212.301 115.63 212.404 115.13 212.706 114.749L217.184 109.079C217.716 108.405 218.697 108.289 219.372 108.825C220.047 109.357 220.162 110.338 219.626 111.013L215.624 116.079L218.01 125.456C218.225 126.289 217.72 127.135 216.887 127.349C216.756 127.381 216.625 127.393 216.502 127.393Z" fill="black"/>
<path d="M173.595 131.856L181.635 142.484C181.635 142.484 198.789 118.699 198.741 105.448C198.694 92.1918 198.741 87.5826 198.741 87.5826C198.741 87.5826 215.967 93.8672 230.132 93.4503C244.297 93.0335 253.229 85.4865 252.289 78.7812C251.348 72.0758 242.979 51.539 198.737 58.2443C154.5 64.9497 153.67 116.615 173.595 131.856Z" fill="black"/>
<path d="M254.319 276.717C253.767 276.686 208.192 273.271 171.814 217.108C171.346 216.385 171.552 215.42 172.275 214.956C172.994 214.491 173.958 214.694 174.427 215.417C209.895 270.175 253.974 273.573 254.414 273.601C255.272 273.656 255.923 274.395 255.871 275.252C255.82 276.082 255.137 276.717 254.319 276.717Z" fill="white"/>
<path d="M233.165 269.782C232.324 269.782 231.629 269.111 231.605 268.261L230.494 225.679C230.474 224.821 231.153 224.107 232.014 224.083C232.876 223.992 233.586 224.742 233.61 225.603L234.722 268.186C234.741 269.043 234.063 269.758 233.201 269.782C233.193 269.782 233.177 269.782 233.165 269.782Z" fill="white"/>
<path d="M229.172 167.276C228.834 167.276 228.489 167.237 228.14 167.161C223.864 166.212 220.005 159.388 219.58 158.61C219.318 158.125 219.326 157.538 219.604 157.065C219.886 156.593 220.394 156.303 220.946 156.303H237.882C238.458 156.303 238.982 156.617 239.256 157.121C239.526 157.629 239.498 158.241 239.18 158.717C239.065 158.896 236.219 163.163 231.808 166.395C231.01 166.979 230.113 167.276 229.172 167.276ZM223.757 159.416C225.246 161.548 227.231 163.771 228.815 164.12C229.255 164.215 229.601 164.148 229.966 163.882C231.915 162.453 233.547 160.761 234.702 159.412H223.757V159.416Z" fill="black"/>
<path d="M158.605 266.443C157.703 266.443 156.886 265.828 156.675 264.914C152.007 245.176 152.963 230.213 159.522 220.439C165.052 212.193 172.547 210.918 172.865 210.867C173.925 210.696 174.961 211.435 175.136 212.518C175.306 213.598 174.564 214.615 173.484 214.789C173.242 214.829 167.271 215.917 162.741 222.757C156.977 231.463 156.211 245.723 160.534 264.001C160.784 265.069 160.125 266.137 159.061 266.391C158.906 266.427 158.756 266.443 158.605 266.443Z" fill="#40507F"/>
<path d="M259.124 313.836C258.009 313.824 257.127 312.927 257.139 311.831C257.147 311.065 257.576 234.948 230.806 215.471C229.917 214.828 229.726 213.582 230.369 212.7C231.017 211.807 232.259 211.621 233.141 212.264C261.558 232.939 261.141 308.659 261.109 311.875C261.097 312.959 260.212 313.836 259.124 313.836Z" fill="#40507F"/>
<path d="M162.587 334.524C161.825 334.524 161.094 334.084 160.768 333.333C159.891 331.336 139.513 284.177 156.084 266.248C158.799 263.314 162.17 261.965 166.092 262.342C184.279 263.934 209.425 302.76 210.489 304.412C211.08 305.333 210.814 306.564 209.893 307.155C208.972 307.743 207.745 307.477 207.15 306.56C206.9 306.171 182.008 267.721 165.751 266.296C163.071 266.054 160.868 266.927 159.002 268.944C144.186 284.979 164.202 331.277 164.405 331.745C164.842 332.75 164.385 333.921 163.381 334.358C163.123 334.469 162.853 334.524 162.587 334.524Z" fill="#40507F"/>
<path d="M215.536 309.549H199.585C198.489 309.549 197.6 308.659 197.6 307.564C197.6 306.468 198.489 305.579 199.585 305.579H215.536C216.632 305.579 217.521 306.468 217.521 307.564C217.521 308.659 216.632 309.549 215.536 309.549Z" fill="#40507F"/>
<path d="M160.235 341.324C159.878 341.324 159.52 341.233 159.195 341.031C158.262 340.459 157.968 339.236 158.544 338.299L166.893 324.702C167.46 323.769 168.683 323.467 169.624 324.051C170.557 324.627 170.851 325.845 170.275 326.782L161.926 340.38C161.553 340.987 160.902 341.324 160.235 341.324Z" fill="#40507F"/>
<path d="M259.127 328.212C265.939 328.212 271.462 322.689 271.462 315.877C271.462 309.065 265.939 303.542 259.127 303.542C252.314 303.542 246.792 309.065 246.792 315.877C246.792 322.689 252.314 328.212 259.127 328.212Z" fill="#40507F"/>
<path d="M254.32 315.877C254.32 318.529 256.468 320.677 259.12 320.677C261.772 320.677 263.92 318.529 263.92 315.877C263.92 313.225 261.772 311.077 259.12 311.077C256.468 311.077 254.32 313.225 254.32 315.877Z" fill="#A37B90"/>
</svg>
