<svg width="388" height="388" viewBox="0 0 388 388" fill="none" xmlns="http://www.w3.org/2000/svg">
<path d="M387.234 193.577C387.234 219.581 382.113 244.393 372.823 267.022C368.456 277.582 363.176 287.706 357.101 297.274C353.687 302.673 349.956 307.913 346.025 312.915C336.18 325.5 324.825 336.815 312.201 346.581C307.119 350.551 301.799 354.243 296.321 357.657C280.798 367.463 263.767 375.046 245.703 380.088C230.578 384.336 214.737 386.757 198.381 387.115C196.793 387.194 195.245 387.194 193.657 387.194C186.788 387.194 180.04 386.837 173.33 386.122C168.963 385.686 164.676 385.05 160.388 384.296C158.919 384.058 157.45 383.78 155.981 383.502C152.766 382.827 149.55 382.113 146.374 381.319C145.5 381.12 144.587 380.922 143.714 380.644C136.33 378.698 129.065 376.316 122.038 373.458C120.569 372.862 119.1 372.267 117.671 371.671C108.58 367.821 99.8456 363.215 91.5086 358.054C89.9603 357.102 88.412 356.109 86.9034 355.117C83.5289 352.893 80.1543 350.511 76.8989 348.05C70.4278 343.167 64.2743 337.887 58.4781 332.21C51.9673 325.897 45.9329 319.109 40.4146 311.923C34.142 303.864 28.5046 295.249 23.5818 286.237C8.57521 258.685 0 227.124 0 193.577C0 86.6651 86.7048 0 193.657 0C300.569 0 387.234 86.6651 387.234 193.577Z" fill="#E8E1EF"/>
<path d="M247.155 99.0679C247.155 99.0679 291.015 104.57 306.967 146.684C322.918 188.798 313.486 243.29 313.486 243.29L232.533 224.683L236.051 149.892L247.155 99.0679Z" fill="black"/>
<path d="M209.748 178.602C209.748 178.602 234.747 179.718 249.146 144.825C263.546 109.933 245.53 82.6353 245.53 82.6353L214.143 99.0671L197.088 161.396L209.748 178.602Z" fill="black"/>
<path d="M296.324 357.657C280.801 367.463 263.77 375.046 245.707 380.088C230.581 384.336 214.74 386.757 198.384 387.114C196.796 387.194 195.248 387.194 193.66 387.194C186.792 387.194 180.043 386.837 173.333 386.122C168.966 385.685 164.679 385.05 160.391 384.296C158.922 384.058 157.453 383.78 155.984 383.502C152.769 382.827 149.553 382.112 146.377 381.318C145.504 381.12 144.591 380.921 143.717 380.643C136.333 378.698 129.068 376.316 122.041 373.458C111.401 369.249 101.159 364.049 91.5117 358.054C95.045 300.886 100.603 236.651 108.146 223.431C122.359 198.659 197.63 193.974 197.63 193.974C197.63 193.974 252.575 192.148 280.92 217.834C295.53 231.054 297.674 296.916 296.324 357.657Z" fill="#FFBF69"/>
<path d="M208.865 163.52L212.347 204.606C212.347 204.606 205.94 217.044 182.068 221.034C164.286 224.007 157.652 220.494 157.652 220.494L158.387 199.473L159.129 178.971L201.719 165.747L208.865 163.52Z" fill="#DD857A"/>
<path d="M201.715 165.748C201.707 166.879 201.394 168.237 200.858 169.813C193.402 191.116 168.645 197.67 158.383 199.473L159.125 178.972L201.715 165.748Z" fill="black"/>
<path d="M142.03 86.1015C142.03 86.1015 124.832 139.442 135.761 167.34C146.687 195.241 172.389 188.095 187.478 180.977C202.568 173.858 208.869 163.528 208.869 163.528C208.869 163.528 223.983 167.018 232.395 152.444C240.808 137.87 233.221 122.864 224.515 120.124C215.808 117.385 206.487 124.408 206.487 124.408L212.775 108.778C212.783 108.778 172.476 36.5956 142.03 86.1015Z" fill="#DD857A"/>
<path d="M209.749 146.382C209.313 146.382 208.872 146.2 208.566 145.838C208.007 145.187 208.082 144.203 208.737 143.643L226.118 128.763C226.765 128.204 227.753 128.275 228.313 128.934C228.873 129.589 228.797 130.57 228.142 131.13L210.762 146.009C210.472 146.259 210.111 146.382 209.749 146.382Z" fill="black"/>
<path d="M226.596 144.722C226.513 144.722 226.426 144.718 226.338 144.702L213.884 142.598C213.035 142.455 212.467 141.653 212.61 140.804C212.753 139.958 213.547 139.382 214.404 139.529L226.858 141.633C227.708 141.776 228.276 142.578 228.133 143.428C228.006 144.182 227.347 144.722 226.596 144.722Z" fill="black"/>
<path d="M178.136 104.776C177.715 104.776 177.294 104.61 176.988 104.272C171.129 97.8805 164.852 101.795 164.59 101.97C163.868 102.434 162.911 102.232 162.438 101.509C161.974 100.79 162.172 99.8337 162.887 99.3613C165.876 97.4041 173.141 95.4746 179.283 102.168C179.867 102.803 179.823 103.788 179.188 104.367C178.89 104.641 178.513 104.776 178.136 104.776Z" fill="black"/>
<path d="M138.123 106.221C137.718 106.221 137.317 106.066 137.012 105.753C136.412 105.137 136.424 104.153 137.035 103.549C142.526 98.1739 146.663 99.5079 147.119 99.6786C147.921 99.9803 148.334 100.878 148.032 101.683C147.739 102.477 146.865 102.878 146.063 102.608C145.888 102.561 143.233 101.842 139.215 105.773C138.909 106.074 138.516 106.221 138.123 106.221Z" fill="black"/>
<path d="M312.205 346.581C292.672 361.786 270.162 373.259 245.707 380.088C230.582 384.335 214.741 386.757 198.385 387.114C205.412 280.679 211.367 193.18 211.367 193.18C263.532 200.683 290.29 214.499 290.29 214.499L312.205 346.581Z" fill="#F6F5F7"/>
<path d="M268.434 332.201H219.861C215.708 332.201 212.342 328.835 212.342 324.686V316.314C212.342 312.161 215.708 308.798 219.861 308.798H268.434C272.587 308.798 275.949 312.165 275.949 316.314V324.686C275.949 328.835 272.587 332.201 268.434 332.201Z" fill="#92B4EA"/>
<path d="M147.511 148.236C146.804 148.236 146.165 147.756 145.995 147.037C141.85 129.55 152.049 121.101 152.485 120.752C153.156 120.216 154.133 120.323 154.669 120.986C155.213 121.653 155.106 122.634 154.443 123.174C154.07 123.479 145.351 130.82 149.028 146.319C149.226 147.153 148.706 147.994 147.872 148.193C147.749 148.224 147.63 148.236 147.511 148.236Z" fill="black"/>
<path d="M139.985 125.948C139.894 125.948 139.799 125.94 139.704 125.924C138.858 125.77 138.298 124.956 138.457 124.11L140.105 115.17L137.397 111.791C136.861 111.12 136.972 110.14 137.643 109.604C138.314 109.064 139.291 109.179 139.835 109.846L142.983 113.776C143.261 114.13 143.38 114.586 143.296 115.031L141.522 124.674C141.375 125.424 140.72 125.948 139.985 125.948Z" fill="black"/>
<path d="M164.201 161.055C161.549 161.055 159.433 160.142 159.298 160.082C158.778 159.852 158.424 159.363 158.373 158.8C158.321 158.236 158.579 157.688 159.048 157.37L171.93 148.597C172.438 148.251 173.109 148.239 173.626 148.561C174.15 148.887 174.431 149.486 174.352 150.097C173.689 154.945 171.847 158.244 168.873 159.907C167.321 160.773 165.678 161.055 164.201 161.055ZM163.76 157.93C164.88 157.982 166.198 157.835 167.369 157.176C168.651 156.453 169.64 155.207 170.334 153.452L163.76 157.93Z" fill="black"/>
<path d="M166.027 124.249C165.935 124.249 165.84 124.241 165.745 124.225C164.899 124.07 164.343 123.257 164.498 122.411L166.13 113.538L162.6 109.727C162.021 109.096 162.053 108.111 162.688 107.527C163.323 106.948 164.304 106.98 164.891 107.615L168.945 111.998C169.278 112.355 169.421 112.851 169.334 113.336L167.563 122.975C167.42 123.725 166.769 124.249 166.027 124.249Z" fill="black"/>
<path d="M206.489 124.408L201.717 129.946L204.103 121.966C204.103 121.966 192.856 121.895 178.139 112.589C163.418 103.284 159.925 80.6903 159.925 80.6903C159.925 80.6903 153.545 83.6757 146.573 89.1067C139.602 94.5377 138.125 100.35 138.125 100.35C138.125 100.35 119.677 49.232 158.384 42.5862C197.092 35.9404 224.56 68.7525 224.56 68.7525C224.56 68.7525 246.713 71.8292 248.928 93.5372C251.143 115.245 235.974 132.082 235.974 132.082C235.974 132.082 226.077 114.074 206.489 124.408Z" fill="black"/>
<path d="M158.441 197.746C158.441 197.746 135.296 296.162 117.669 371.672C108.578 367.821 99.8441 363.216 91.5071 358.055C89.9588 357.102 88.4105 356.109 86.9019 355.117C83.5274 352.894 80.1528 350.512 76.8974 348.05C70.4263 343.167 64.2729 337.887 58.4767 332.21C51.9659 325.898 45.9314 319.109 40.4131 311.923C53.7126 269.682 76.8181 220.772 114.454 207.393C144.983 196.555 158.441 197.746 158.441 197.746Z" fill="#F6F5F7"/>
<path d="M157.652 220.494L155.334 238.966C155.334 238.966 206.348 217.603 209.751 208.016C213.153 198.428 159.927 213.379 159.927 213.379L157.652 220.494Z" fill="#DD857A"/>
<path d="M155.334 240.523C155.017 240.523 154.699 240.427 154.429 240.233C153.993 239.919 153.746 239.407 153.778 238.871L155.751 205.642C155.803 204.785 156.513 204.078 157.399 204.181C158.256 204.233 158.911 204.971 158.86 205.829L157.033 236.557C166.43 232.559 201.763 217.044 208.457 207.139C208.945 206.424 209.914 206.242 210.621 206.722C211.335 207.202 211.522 208.171 211.037 208.886C202.811 221.05 157.831 239.617 155.922 240.403C155.735 240.483 155.537 240.523 155.334 240.523Z" fill="white"/>
<path d="M357.098 297.274C353.684 302.673 349.952 307.913 346.022 312.916C336.176 325.5 324.822 336.815 312.198 346.581C292.665 361.786 293.499 353.211 293.499 353.211L290.283 214.499C290.283 214.499 328.713 239.272 357.098 297.274Z" fill="#F6F5F7"/>
<path d="M227.089 245.624C226.938 245.624 226.787 245.608 226.632 245.572C225.564 245.318 224.905 244.25 225.16 243.182C229.348 225.48 228.657 211.533 223.163 202.855C218.903 196.126 213.317 194.871 213.079 194.82C212.011 194.593 211.324 193.545 211.542 192.477C211.765 191.406 212.813 190.703 213.869 190.929C214.167 190.989 221.221 192.481 226.422 200.588C232.671 210.323 233.544 224.96 229.018 244.095C228.808 245.008 227.99 245.624 227.089 245.624Z" fill="#40507F"/>
<path d="M130.1 291.351C129.013 291.351 128.127 290.473 128.115 289.385C128.084 286.285 127.679 213.185 155.131 193.212C156.016 192.569 157.259 192.76 157.902 193.649C158.545 194.534 158.351 195.777 157.465 196.42C131.653 215.198 132.077 288.603 132.085 289.342C132.097 290.437 131.216 291.335 130.12 291.347C130.108 291.351 130.1 291.351 130.1 291.351Z" fill="#40507F"/>
<path d="M223.243 311.312C222.977 311.312 222.703 311.256 222.449 311.145C221.445 310.704 220.988 309.533 221.425 308.529C221.624 308.08 240.918 263.446 226.65 248.006C224.867 246.077 222.755 245.239 220.194 245.473C207.208 246.613 186.997 273.879 180.304 284.288C179.712 285.209 178.486 285.475 177.561 284.884C176.64 284.292 176.37 283.061 176.965 282.14C177.993 280.548 202.27 243.06 219.853 241.519C223.66 241.182 226.935 242.464 229.568 245.315C245.591 262.652 225.907 308.191 225.062 310.125C224.736 310.867 224.01 311.312 223.243 311.312Z" fill="#40507F"/>
<path d="M130.095 305.15C136.668 305.15 141.997 299.821 141.997 293.248C141.997 286.674 136.668 281.346 130.095 281.346C123.521 281.346 118.192 286.674 118.192 293.248C118.192 299.821 123.521 305.15 130.095 305.15Z" fill="#40507F"/>
<path d="M130.091 297.881C132.65 297.881 134.724 295.807 134.724 293.248C134.724 290.689 132.65 288.615 130.091 288.615C127.532 288.615 125.458 290.689 125.458 293.248C125.458 295.807 127.532 297.881 130.091 297.881Z" fill="#FFBF69"/>
<path d="M187.544 287.213H172.152C171.056 287.213 170.167 286.324 170.167 285.228C170.167 284.133 171.056 283.243 172.152 283.243H187.544C188.639 283.243 189.529 284.133 189.529 285.228C189.529 286.324 188.643 287.213 187.544 287.213Z" fill="#40507F"/>
<path d="M225.516 317.87C224.849 317.87 224.198 317.533 223.824 316.921L215.777 303.801C215.202 302.868 215.495 301.645 216.428 301.069C217.365 300.506 218.588 300.787 219.16 301.724L227.207 314.845C227.783 315.778 227.489 317.001 226.556 317.577C226.226 317.775 225.873 317.87 225.516 317.87Z" fill="#40507F"/>
</svg>
