<svg width="388" height="388" viewBox="0 0 388 388" fill="none" xmlns="http://www.w3.org/2000/svg">
<path d="M0 193.617C0 228.95 9.48831 262.099 26.0432 290.604C26.6784 291.676 27.3533 292.787 27.9885 293.859C29.5368 296.44 31.1645 298.981 32.8716 301.482C33.5862 302.514 34.2611 303.546 35.0551 304.618C37.9929 308.826 41.0895 312.915 44.3449 316.885C69.078 346.859 102.744 369.21 141.213 380.008C142.126 380.247 143.079 380.525 143.992 380.763C159.793 384.971 176.467 387.194 193.617 387.194C254.04 387.194 307.993 359.523 343.405 316.131C347.216 311.486 350.789 306.643 354.164 301.641C357.459 296.877 360.476 291.914 363.295 286.833C378.5 259.162 387.194 227.402 387.194 193.617C387.194 86.6651 300.529 0 193.617 0C86.6691 0 0 86.6651 0 193.617Z" fill="#E8E1EF"/>
<path d="M134.473 130.859C134.473 130.859 112.685 154.576 131.412 191.58C150.138 228.584 201.145 216.432 201.391 200.012C201.637 183.592 146.605 119.957 146.605 119.957L134.473 130.859Z" fill="black"/>
<path d="M238.803 131.697C238.803 131.697 263.977 118.91 256.561 87.1576C249.149 55.4095 229.331 63.814 229.331 63.814C229.331 63.814 225.003 44.6626 202.096 48.2158C179.19 51.7689 169.924 70.9878 169.924 70.9878C169.924 70.9878 157.096 61.9599 146.6 74.0049C136.103 86.0499 135.639 99.9489 135.639 99.9489C135.639 99.9489 116.642 104.419 118.032 126.508C119.421 148.593 138.644 160.245 138.644 160.245L238.803 131.697Z" fill="#68B6D8"/>
<path d="M44.3516 316.885C69.0847 346.859 102.75 369.21 141.22 380.008C142.133 380.247 143.085 380.525 143.999 380.763C159.799 384.971 176.473 387.194 193.624 387.194C254.047 387.194 307.999 359.523 343.412 316.131C318.758 281.473 272.507 229.942 212.997 225.615C136.456 220.017 74.9603 242.964 44.3516 316.885Z" fill="#92B4EA"/>
<path d="M233.995 130.859C233.995 130.859 251.515 98.845 238.807 83.9813C226.099 69.1216 219.223 78.5464 219.223 78.5464C219.223 78.5464 221.696 69.4115 202.104 71.2298C182.513 73.0441 167.149 85.4741 167.149 85.4741C167.149 85.4741 158.411 80.6306 146.608 97.8763C134.805 115.122 134.479 130.859 134.479 130.859C134.479 130.859 130.168 130.978 133.797 146.961C137.429 162.949 149.542 177.292 149.542 177.292L233.995 130.859Z" fill="black"/>
<path d="M167.716 189.826L167.145 232.059C167.145 232.059 174.596 244.302 199.278 246.644C217.663 248.387 223.34 236.346 223.34 236.346L221.911 222.888L219.664 201.994L175.18 191.576L167.716 189.826Z" fill="#DD857A"/>
<path d="M175.178 191.58C175.269 192.735 175.69 194.101 176.349 195.673C185.516 216.897 211.289 221.796 221.909 222.892L219.662 201.997L175.178 191.58Z" fill="black"/>
<path d="M230.377 105.852C230.377 105.852 251.831 159.106 242.692 188.408C233.557 217.711 206.775 212.28 190.836 206.102C174.896 199.925 167.707 189.829 167.707 189.829C167.707 189.829 152.513 194.494 142.858 180.214C133.203 165.934 139.861 150.046 148.559 146.616C157.258 143.182 167.29 149.681 167.29 149.681L159.727 134.166C159.727 134.166 195.663 57.4814 230.377 105.852Z" fill="#DD857A"/>
<path d="M165.439 172.342C165.117 172.342 164.792 172.242 164.514 172.036L145.668 158.093C144.977 157.581 144.831 156.605 145.343 155.914C145.855 155.227 146.831 155.08 147.522 155.588L166.364 169.531C167.055 170.043 167.202 171.02 166.689 171.71C166.388 172.119 165.915 172.342 165.439 172.342Z" fill="black"/>
<path d="M148.106 171.873C147.403 171.873 146.768 171.397 146.593 170.682C146.391 169.844 146.903 169.003 147.74 168.8L160.313 165.743C161.155 165.541 161.989 166.049 162.195 166.887C162.398 167.724 161.885 168.566 161.048 168.769L148.475 171.826C148.352 171.857 148.225 171.873 148.106 171.873Z" fill="black"/>
<path d="M195.81 129.764C195.635 129.764 195.461 129.732 195.286 129.672C194.476 129.386 194.051 128.493 194.341 127.683C197.462 118.941 205.072 117.857 208.661 118.528C209.503 118.683 210.062 119.489 209.907 120.331C209.757 121.176 208.971 121.752 208.105 121.589C207.784 121.542 200.268 120.331 197.275 128.727C197.049 129.366 196.449 129.764 195.81 129.764Z" fill="black"/>
<path d="M235.711 126.095C235.354 126.095 234.996 125.972 234.703 125.722C231.602 123.094 230.256 122.614 229.879 122.526C229.351 122.725 228.744 122.625 228.299 122.236C227.652 121.669 227.592 120.68 228.164 120.037C230.161 117.766 235.096 121.97 236.719 123.348C237.374 123.904 237.458 124.888 236.902 125.543C236.592 125.905 236.152 126.095 235.711 126.095Z" fill="black"/>
<path d="M228.059 166.18C227.734 166.18 227.4 166.077 227.118 165.859C226.435 165.339 226.304 164.362 226.824 163.675C231.029 158.165 223.446 147.887 220.167 144.397C219.579 143.77 219.611 142.785 220.238 142.194C220.865 141.602 221.85 141.638 222.438 142.265C222.993 142.853 235.959 156.839 229.302 165.569C228.992 165.966 228.528 166.18 228.059 166.18Z" fill="black"/>
<path d="M234.654 117.845C234.654 117.845 230.184 109.294 219.648 109.08C209.111 108.865 202.858 116.202 202.858 116.202C202.858 116.202 207.241 134.007 192.786 143.238C178.332 152.468 167.283 149.685 167.283 149.685L156.941 145.842L149.525 130.554L180.023 98.5592L219.211 78.5465L238.795 96.8164L234.654 117.845Z" fill="black"/>
<path d="M223.336 230.53L225.468 281.965C225.468 281.965 195.562 266.994 182.433 253.393C167.14 237.553 165.445 226.242 165.445 226.242C165.445 226.242 195.439 240.646 223.336 230.53Z" fill="#F6F5F7"/>
<path d="M254.679 298.413C254.488 298.413 254.29 298.377 254.103 298.302C250.919 297.035 175.958 266.784 163.952 226.695C163.706 225.873 164.175 225.004 165 224.758C165.822 224.512 166.692 224.98 166.938 225.806C178.51 264.454 254.492 295.106 255.258 295.412C256.056 295.729 256.445 296.634 256.128 297.436C255.882 298.04 255.298 298.413 254.679 298.413Z" fill="#40507F"/>
<path d="M225.467 283.526C224.637 283.526 223.946 282.871 223.911 282.033L221.779 230.598C221.743 229.736 222.41 229.01 223.271 228.978C224.026 228.787 224.855 229.605 224.891 230.467L227.023 281.902C227.059 282.763 226.392 283.486 225.53 283.522C225.514 283.526 225.491 283.526 225.467 283.526Z" fill="#40507F"/>
<path d="M238.803 131.697C238.803 131.697 237.843 102.426 214.495 101.501C191.148 100.576 167.292 149.685 167.292 149.685L162.695 149.05C155.291 148.025 147.847 150.622 142.686 156.025L138.648 160.253C138.648 160.253 126.838 147.958 125.913 136.929C124.988 125.901 132.336 113.002 132.336 113.002L146.604 83.9853L163.441 75.4022L194.169 67.0612L214.404 64.2822C214.404 64.2822 249.614 79.3841 251.003 78.5504C252.393 77.7167 256.561 104.018 256.561 104.018L238.803 131.697Z" fill="#68B6D8"/>
<path d="M211.436 185.534C210.344 185.534 209.204 185.264 208.057 184.593C202.749 181.485 199.994 171.456 199.879 171.036C199.72 170.44 199.927 169.801 200.407 169.416C200.887 169.031 201.55 168.963 202.098 169.245L219.451 178.221C219.864 178.436 220.158 178.821 220.257 179.277C220.356 179.73 220.245 180.202 219.959 180.567C219.765 180.81 215.997 185.534 211.436 185.534ZM204.111 173.791C205.33 176.828 207.267 180.516 209.633 181.901C211.983 183.283 214.635 181.461 216.184 180.032L204.111 173.791Z" fill="black"/>
<path d="M208.514 146.548C207.823 146.548 207.192 146.084 207.009 145.381L204.496 135.663C204.353 135.099 204.528 134.507 204.957 134.118L209.872 129.648C210.503 129.069 211.495 129.116 212.071 129.751C212.651 130.387 212.603 131.371 211.968 131.951L207.748 135.79L210.026 144.599C210.241 145.433 209.741 146.283 208.907 146.497C208.776 146.533 208.645 146.548 208.514 146.548Z" fill="black"/>
<path d="M235.242 146.39C234.551 146.39 233.92 145.925 233.737 145.222L231.224 135.5C231.045 134.813 231.355 134.095 231.97 133.753L238.037 130.347C238.783 129.926 239.736 130.188 240.157 130.938C240.577 131.693 240.311 132.642 239.561 133.058L234.539 135.881L236.754 144.44C236.969 145.274 236.468 146.124 235.635 146.338C235.504 146.374 235.373 146.39 235.242 146.39Z" fill="black"/>
</svg>
