<svg width="388" height="388" viewBox="0 0 388 388" fill="none" xmlns="http://www.w3.org/2000/svg">
<path d="M387.194 193.577C387.194 221.407 381.319 247.927 370.758 271.826C368.416 277.027 365.955 282.069 363.215 287.031C361.826 289.572 360.357 292.033 358.888 294.495C356.228 298.862 353.409 303.07 350.432 307.119C349.956 307.794 349.479 308.469 349.042 309.065C349.003 309.144 348.963 309.184 348.884 309.303C347.971 310.494 347.057 311.724 346.144 312.876C337.291 324.151 327.247 334.353 316.211 343.445C311.685 347.137 306.96 350.67 302.117 353.965C298.544 356.387 294.892 358.69 291.16 360.873C288.579 362.342 285.959 363.811 283.299 365.2C264.243 375.165 243.361 382.073 221.169 385.249C213.427 386.36 205.527 386.996 197.468 387.115C196.197 387.194 194.887 387.194 193.617 387.194C178.015 387.194 162.77 385.328 148.24 381.835C127 376.713 107.111 368.138 89.2456 356.665C82.7745 352.536 76.5813 348.01 70.7057 343.087C62.329 336.259 54.5876 328.716 47.4813 320.538C45.3772 318.116 43.3525 315.655 41.4072 313.154C40.2956 311.764 39.2237 310.335 38.1518 308.906C37.4769 308.032 36.8416 307.199 36.2461 306.325C33.4671 302.435 30.8072 298.425 28.3061 294.336C24.4155 287.984 20.8822 281.394 17.7459 274.565C6.3123 249.912 0 222.439 0 193.577C0 86.6651 86.6652 0 193.617 0C300.529 0 387.194 86.6651 387.194 193.577Z" fill="#E8E1EF"/>
<path d="M346.142 312.876C337.289 324.151 327.245 334.353 316.209 343.445C311.683 347.137 306.959 350.67 302.115 353.965C298.542 356.387 294.89 358.689 291.158 360.873C288.577 362.342 285.957 363.811 283.297 365.2C264.241 375.165 243.359 382.073 221.167 385.249C213.425 386.36 205.525 386.996 197.466 387.115C196.196 387.194 194.885 387.194 193.615 387.194C178.013 387.194 162.768 385.328 148.238 381.835C126.998 376.713 107.109 368.138 89.2437 356.665C82.7726 352.536 76.5794 348.01 70.7038 343.087C62.3271 336.259 54.5857 328.716 47.4794 320.538C45.3753 318.116 43.3506 315.655 41.4053 313.154C78.8424 231.054 145.737 209.14 174.321 206.321C177.139 206.043 179.918 205.805 182.737 205.606C198.617 204.495 214.378 204.653 229.027 205.884C229.583 205.884 230.139 205.964 230.655 206.003C263.09 208.862 287.228 227.124 299.336 237.565C313.311 249.594 332.803 277.066 346.142 312.876Z" fill="#6876AA"/>
<path d="M240.341 109.103C240.341 109.103 270.263 72.0949 257.706 57.4099C245.149 42.7248 225.74 57.4099 225.74 57.4099C225.74 57.4099 224.668 40.0332 205.31 41.8276C185.948 43.6221 174.281 64.2502 174.281 64.2502C174.281 64.2502 157.249 47.207 145.585 64.2502C133.921 81.2934 141.997 109.099 141.997 109.099C141.997 109.099 128.542 107.106 132.131 122.903C135.72 138.7 156.88 154.985 156.88 154.985L240.341 109.103Z" fill="black"/>
<path d="M174.847 167.371L174.283 209.108C174.283 209.108 181.648 221.208 206.039 223.519C224.206 225.242 229.815 213.344 229.815 213.344L228.402 200.044L226.179 179.396L182.223 169.102L174.847 167.371Z" fill="#B26756"/>
<path d="M182.217 169.106C182.308 170.245 182.721 171.599 183.376 173.151C192.436 194.125 217.903 198.964 228.396 200.048L226.173 179.4L182.217 169.106Z" fill="black"/>
<path d="M236.768 84.394C236.768 84.394 257.968 137.016 248.94 165.974C239.913 194.931 213.448 189.563 197.695 183.457C181.946 177.352 174.84 167.379 174.84 167.379C174.84 167.379 159.83 171.988 150.286 157.875C140.742 143.761 147.324 128.064 155.919 124.674C164.514 121.283 174.431 127.703 174.431 127.703L166.96 112.371C166.96 112.371 202.467 36.5913 236.768 84.394Z" fill="#B26756"/>
<path d="M172.61 150.114C172.288 150.114 171.963 150.015 171.685 149.808L153.066 136.032C152.375 135.52 152.228 134.544 152.74 133.853C153.252 133.166 154.225 133.015 154.92 133.527L173.539 147.303C174.23 147.815 174.377 148.792 173.864 149.483C173.555 149.896 173.086 150.114 172.61 150.114Z" fill="black"/>
<path d="M155.472 149.65C154.769 149.65 154.13 149.173 153.96 148.462C153.753 147.625 154.269 146.783 155.103 146.581L167.529 143.56C168.379 143.353 169.208 143.873 169.411 144.707C169.617 145.541 169.101 146.386 168.267 146.589L155.841 149.61C155.718 149.634 155.595 149.65 155.472 149.65Z" fill="black"/>
<path d="M202.617 108.04C202.442 108.04 202.267 108.008 202.093 107.949C201.283 107.659 200.858 106.77 201.152 105.96C204.236 97.305 211.779 96.249 215.317 96.9041C216.162 97.0589 216.718 97.8648 216.567 98.7104C216.42 99.556 215.63 100.12 214.765 99.9689C214.451 99.9093 207.043 98.7144 204.086 107.008C203.859 107.643 203.256 108.04 202.617 108.04Z" fill="black"/>
<path d="M242.042 104.415C241.685 104.415 241.328 104.296 241.034 104.046C237.985 101.457 236.655 100.981 236.282 100.889C235.766 101.084 235.15 100.993 234.702 100.6C234.059 100.032 233.995 99.0474 234.567 98.4042C236.54 96.1453 241.443 100.306 243.051 101.668C243.706 102.227 243.789 103.208 243.229 103.863C242.924 104.228 242.483 104.415 242.042 104.415Z" fill="black"/>
<path d="M234.477 144.024C234.147 144.024 233.814 143.921 233.532 143.706C232.849 143.186 232.718 142.21 233.242 141.523C237.387 136.088 229.895 125.945 226.664 122.495C226.076 121.867 226.108 120.883 226.735 120.291C227.367 119.704 228.355 119.739 228.939 120.359C229.486 120.942 242.306 134.77 235.719 143.409C235.406 143.813 234.945 144.024 234.477 144.024Z" fill="black"/>
<path d="M241.584 124.463C240.89 124.463 240.259 123.999 240.076 123.296L237.591 113.689C237.376 112.859 237.876 112.006 238.706 111.791C239.56 111.585 240.389 112.081 240.604 112.911L243.089 122.518C243.303 123.352 242.803 124.201 241.974 124.416C241.843 124.448 241.711 124.463 241.584 124.463Z" fill="black"/>
<path d="M215.164 124.626C214.469 124.626 213.838 124.158 213.655 123.459L211.174 113.852C210.959 113.018 211.459 112.168 212.293 111.954C213.123 111.748 213.972 112.244 214.191 113.074L216.672 122.681C216.886 123.515 216.386 124.364 215.553 124.579C215.425 124.61 215.295 124.626 215.164 124.626Z" fill="black"/>
<path d="M241.001 96.2446C241.001 96.2446 236.583 87.7924 226.173 87.582C215.764 87.3716 209.586 94.6208 209.586 94.6208C209.586 94.6208 213.918 112.216 199.634 121.335C185.35 130.458 174.432 127.703 174.432 127.703L164.213 123.904L156.885 108.798L187.025 77.1846L225.748 57.41L245.102 75.4616L241.001 96.2446Z" fill="black"/>
<path d="M174.284 209.108C174.284 209.108 199.216 232.674 215.036 245.032L230.65 206.007L196.155 200.044L174.284 209.108Z" fill="#B26756"/>
<path d="M254.86 267.582C254.686 267.582 254.507 267.551 254.332 267.491C204.933 249.737 173.372 210.47 173.054 210.077C172.518 209.406 172.638 208.425 173.305 207.889C173.975 207.361 174.952 207.465 175.496 208.14C175.802 208.529 206.843 247.113 255.384 264.557C256.194 264.847 256.615 265.74 256.321 266.55C256.099 267.185 255.503 267.582 254.86 267.582Z" fill="white"/>
<path d="M215.037 246.588C214.751 246.588 214.461 246.509 214.203 246.346C213.477 245.886 213.263 244.925 213.723 244.198C221.322 232.213 229.075 205.836 229.154 205.574C229.401 204.749 230.246 204.272 231.088 204.514C231.914 204.752 232.386 205.618 232.148 206.444C231.826 207.543 224.188 233.507 216.355 245.866C216.057 246.334 215.553 246.588 215.037 246.588Z" fill="white"/>
<path d="M226.571 165.894C221.382 165.894 215.225 158.157 213.919 156.438C213.553 155.958 213.502 155.307 213.784 154.771C214.062 154.235 214.625 153.893 215.233 153.941L235.805 154.91C236.349 154.933 236.842 155.243 237.1 155.723C237.358 156.204 237.354 156.783 237.072 157.256C236.929 157.506 233.439 163.378 228.405 165.529C227.818 165.779 227.206 165.894 226.571 165.894ZM218.639 157.22C221.585 160.428 225.305 163.465 227.182 162.663C229.521 161.666 231.534 159.535 232.836 157.887L218.639 157.22Z" fill="black"/>
</svg>
