<svg width="388" height="388" viewBox="0 0 388 388" fill="none" xmlns="http://www.w3.org/2000/svg">
<path d="M387.194 193.577C387.194 228.354 378.023 260.988 361.985 289.215C356.149 299.457 349.36 309.184 341.777 318.156C334.711 326.572 326.969 334.353 318.553 341.42C300.172 356.982 278.813 369.21 255.509 377.071C253.445 377.746 251.42 378.42 249.316 379.016C239.272 382.073 228.871 384.296 218.191 385.606C210.132 386.638 201.954 387.194 193.617 387.194C182.699 387.194 171.941 386.281 161.5 384.534C141.65 381.199 122.792 374.847 105.443 365.955C84.164 355.077 65.108 340.269 49.2677 322.602C47.1636 320.26 45.1389 317.878 43.1539 315.417C42.6775 314.821 42.2012 314.265 41.7645 313.67C36.5638 307.119 31.7601 300.251 27.4725 293.065C10.0442 263.965 0 229.982 0 193.577C0 86.6651 86.7049 0 193.617 0C300.489 0 387.194 86.6651 387.194 193.577Z" fill="#E8E1EF"/>
<path d="M249.318 265.633V379.016C239.274 382.073 228.873 384.296 218.193 385.606C210.134 386.638 201.956 387.194 193.619 387.194C161.899 387.194 131.925 379.532 105.445 365.955V256.899C106.557 246.696 141.136 211.879 151.339 210.728L217.757 203.661C238.52 212.991 249.318 254.953 249.318 265.633Z" fill="#92B4EA"/>
<path d="M153.625 73.2065C153.625 73.2065 134.915 94.3707 145.201 117.706C155.487 141.042 166.516 75.3186 166.516 75.3186L153.625 73.2065Z" fill="#ADA9C4"/>
<path d="M216.543 168.308L217.254 210.291C217.254 210.291 209.885 222.487 185.359 224.9C167.089 226.699 160.59 222.669 160.59 222.669L162.781 201.362L164.945 180.583L209.127 170.079L216.543 168.308Z" fill="#F48462"/>
<path d="M209.14 170.079C209.053 171.226 215.897 174.835 215.246 176.399C206.206 197.532 172.529 208.151 161.98 209.279L164.958 180.588L209.14 170.079Z" fill="black"/>
<path d="M161.598 75.3031C155.833 79.9957 151.8 86.4509 149.414 93.4937C143.927 109.699 132.851 147.529 140.108 170.722C149.537 200.862 176.712 195.221 192.873 188.829C209.031 182.438 216.285 172.036 216.285 172.036C216.285 172.036 231.74 176.808 241.474 162.087C251.213 147.37 244.364 131.034 235.511 127.517C226.662 124.003 216.499 130.708 216.499 130.708L224.101 114.725C224.101 114.725 193.509 49.3234 161.598 75.3031Z" fill="#F48462"/>
<path d="M218.737 150.931C218.264 150.931 217.796 150.713 217.49 150.304C216.974 149.613 217.117 148.641 217.807 148.125L233.136 136.699C233.822 136.183 234.799 136.322 235.315 137.017C235.831 137.707 235.688 138.68 234.998 139.196L219.669 150.622C219.388 150.832 219.062 150.931 218.737 150.931Z" fill="black"/>
<path d="M235.975 150.403C235.856 150.403 235.733 150.387 235.609 150.36L223.104 147.362C222.27 147.16 221.754 146.318 221.953 145.48C222.159 144.647 222.973 144.131 223.834 144.329L236.34 147.326C237.174 147.529 237.69 148.371 237.491 149.208C237.313 149.923 236.677 150.403 235.975 150.403Z" fill="black"/>
<path d="M149.238 124.027C149.111 124.027 148.98 124.011 148.853 123.975C148.019 123.765 147.515 122.915 147.729 122.085L150.19 112.41C150.401 111.573 151.258 111.053 152.084 111.287C152.918 111.497 153.422 112.347 153.208 113.181L150.746 122.856C150.568 123.558 149.936 124.027 149.238 124.027Z" fill="black"/>
<path d="M175.835 125.436C175.708 125.436 175.577 125.42 175.45 125.384C174.616 125.17 174.112 124.325 174.327 123.495L176.792 113.82C177.002 112.986 177.864 112.462 178.686 112.696C179.519 112.911 180.024 113.756 179.809 114.59L177.344 124.265C177.165 124.968 176.534 125.436 175.835 125.436Z" fill="black"/>
<path d="M147.717 102.91C146.931 102.91 146.256 102.319 146.169 101.517C146.078 100.663 146.693 99.8972 147.551 99.8019L155.515 98.9365C156.285 98.8253 157.134 99.4605 157.23 100.318C157.321 101.172 156.706 101.938 155.848 102.033L147.884 102.898C147.829 102.906 147.773 102.91 147.717 102.91Z" fill="#8D8BA0"/>
<path d="M183.848 109.31C183.646 109.31 183.443 109.27 183.249 109.191L172.418 104.657C171.624 104.323 171.251 103.414 171.581 102.616C171.918 101.822 172.827 101.449 173.621 101.779L184.448 106.312C185.242 106.646 185.615 107.559 185.285 108.353C185.035 108.948 184.455 109.31 183.848 109.31Z" fill="#8D8BA0"/>
<path d="M216.499 130.712C216.499 130.712 212.148 148.184 208.797 146.056C205.446 143.924 202.314 118.731 204.811 107.456C207.308 96.1811 209.13 90.508 209.13 90.508C209.13 90.508 163.269 86.4308 151.18 75.5331C139.092 64.6355 164.627 57.6046 190.749 62.5473C216.868 67.4939 227.166 77.3078 227.166 77.3078C227.166 77.3078 243.53 74.8662 249.648 84.8508C255.766 94.8353 241.843 132.765 241.843 132.765C241.843 132.765 237.718 123.249 216.499 130.712Z" fill="#ADA9C4"/>
<path d="M129.033 148.76C129.033 148.76 141.848 134.571 148.371 136.699C154.894 138.827 157.264 148.363 157.264 148.363C157.264 148.363 165.001 137.648 173.541 140.661C182.08 143.674 200.386 144.794 200.577 147.755C200.767 150.717 195.471 151.777 195.471 151.777C195.471 151.777 152.385 156.755 129.033 148.76Z" fill="#ADA9C4"/>
<path d="M216.499 130.712C216.499 130.712 215.733 159.046 216.281 172.036C216.828 185.026 180.721 205.289 155.778 194.097C130.834 182.906 137.675 150.225 137.675 150.225L159.903 152.277C159.903 152.277 165.028 149.371 170.852 148.176C176.676 146.977 184.437 150.15 184.437 150.15L216.499 130.712Z" fill="#ADA9C4"/>
<path d="M163.396 158.542C162.61 158.542 161.935 157.947 161.848 157.145C161.761 156.291 162.38 155.525 163.234 155.434C163.313 155.422 170.959 154.54 173.762 148.931C174.147 148.165 175.088 147.855 175.85 148.236C176.616 148.621 176.926 149.554 176.545 150.324C172.972 157.478 163.936 158.486 163.555 158.526C163.504 158.538 163.448 158.542 163.396 158.542Z" fill="black"/>
<path d="M156.476 145.021C155.908 145.021 155.356 144.703 155.082 144.159C148.933 131.884 157.79 118.945 158.167 118.402C158.655 117.695 159.624 117.528 160.331 118.013C161.037 118.505 161.212 119.473 160.724 120.18C160.644 120.299 152.554 132.162 157.865 142.765C158.251 143.532 157.941 144.473 157.171 144.854C156.948 144.965 156.714 145.021 156.476 145.021Z" fill="black"/>
<path d="M180.035 227.787C173.976 227.787 167.295 226.743 160.07 224.138C159.26 223.848 158.839 222.951 159.133 222.145C159.423 221.336 160.312 220.915 161.126 221.208C194.934 233.4 215.868 209.529 216.078 209.283C216.638 208.623 217.623 208.552 218.274 209.112C218.929 209.672 219.004 210.656 218.445 211.307C218.266 211.51 203.99 227.787 180.035 227.787Z" fill="#40507F"/>
<path d="M341.775 318.156C334.708 326.572 326.967 334.353 318.55 341.42C300.169 356.982 278.811 369.21 255.507 377.071C243.517 381.12 231.052 384.018 218.189 385.606L217.752 203.661C217.752 203.661 256.459 209.497 278.414 225.377C305.965 245.306 328.713 270.437 341.775 318.156Z" fill="#F6F5F7"/>
<path d="M161.896 206.718L161.499 384.535C141.649 381.2 122.791 374.848 105.442 365.955C84.1632 355.077 65.1072 340.269 49.2669 322.603C47.1628 320.26 45.1381 317.878 43.1531 315.417C42.6767 314.821 42.2004 314.266 41.7637 313.67C57.5246 268.055 82.4164 242.131 101.274 228.394C131.089 206.718 161.896 206.718 161.896 206.718Z" fill="#F6F5F7"/>
<path d="M242.375 307.639L289.543 306.682C293.922 306.595 297.403 302.97 297.316 298.587L297.106 288.146C297.018 283.764 293.394 280.286 289.011 280.373L241.843 281.33C237.46 281.417 233.983 285.042 234.07 289.425L234.28 299.866C234.372 304.245 237.992 307.726 242.375 307.639Z" fill="#F7B369"/>
</svg>
