<svg width="388" height="388" viewBox="0 0 388 388" fill="none" xmlns="http://www.w3.org/2000/svg">
<path d="M387.194 193.617C387.194 228.95 377.706 262.099 361.151 290.604C360.516 291.676 359.841 292.787 359.206 293.859C357.657 296.44 356.03 298.981 354.323 301.482C353.608 302.514 352.933 303.546 352.139 304.618C349.201 308.826 346.105 312.915 342.849 316.885C318.116 346.859 284.45 369.21 245.981 380.008C245.068 380.247 244.115 380.525 243.202 380.763C227.402 384.971 210.728 387.194 193.577 387.194C133.154 387.194 79.2015 359.523 43.7891 316.131C39.9779 311.486 36.4049 306.643 33.0304 301.641C29.7353 296.877 26.7181 291.914 23.8994 286.833C8.69432 259.162 0 227.402 0 193.617C0 86.6651 86.6651 0 193.577 0C300.529 0 387.194 86.6651 387.194 193.617Z" fill="#E8E1EF"/>
<path d="M148.39 131.696C148.39 131.696 123.217 118.909 130.633 87.157C138.045 55.4089 157.863 63.8134 157.863 63.8134C157.863 63.8134 162.19 44.6621 185.097 48.2153C208.004 51.7684 217.27 70.9872 217.27 70.9872C217.27 70.9872 230.097 61.9594 240.594 74.0044C251.09 86.0494 251.555 99.9484 251.555 99.9484C251.555 99.9484 270.551 104.423 269.158 126.508C267.768 148.597 248.546 160.245 248.546 160.245L148.39 131.696Z" fill="#92B4EA"/>
<path d="M342.846 316.885C318.113 346.859 284.448 369.21 245.978 380.008C245.065 380.247 244.112 380.524 243.199 380.763C227.399 384.971 210.725 387.194 193.574 387.194C133.151 387.194 79.1985 359.523 43.7861 316.131C68.4398 281.473 114.69 229.942 174.201 225.615C250.742 220.017 312.238 242.964 342.846 316.885Z" fill="#40507F"/>
<path d="M153.201 130.858C153.201 130.858 135.681 98.8444 148.389 83.9847C161.097 69.125 167.973 78.5498 167.973 78.5498C167.973 78.5498 165.5 69.4148 185.092 71.2331C204.683 73.0474 220.047 85.4774 220.047 85.4774C220.047 85.4774 228.785 80.6341 240.588 97.8797C252.391 115.125 252.72 130.862 252.72 130.862C252.72 130.862 257.032 130.982 253.403 146.965C249.771 162.952 237.662 177.296 237.662 177.296L153.201 130.858Z" fill="black"/>
<path d="M219.48 189.821L220.052 232.058C220.052 232.058 212.6 244.302 187.919 246.644C169.534 248.387 163.856 236.346 163.856 236.346L165.286 222.887L167.533 201.993L212.017 191.576L219.48 189.821Z" fill="#F48462"/>
<path d="M212.02 191.581C211.929 192.736 211.508 194.101 210.849 195.674C201.682 216.897 175.909 221.796 165.289 222.892L167.536 201.998L212.02 191.581Z" fill="black"/>
<path d="M156.817 105.852C156.817 105.852 135.367 159.106 144.502 188.408C153.637 217.711 180.419 212.28 196.358 206.103C212.298 199.925 219.487 189.83 219.487 189.83C219.487 189.83 234.681 194.494 244.336 180.214C253.991 165.934 247.333 150.046 238.635 146.616C229.94 143.182 219.904 149.681 219.904 149.681L227.467 134.166C227.467 134.166 191.531 57.4778 156.817 105.852Z" fill="#F48462"/>
<path d="M221.755 172.338C221.279 172.338 220.807 172.119 220.501 171.707C219.989 171.016 220.136 170.039 220.826 169.527L239.672 155.584C240.367 155.072 241.339 155.219 241.852 155.91C242.364 156.601 242.217 157.577 241.526 158.089L222.68 172.032C222.403 172.239 222.077 172.338 221.755 172.338Z" fill="black"/>
<path d="M239.095 171.869C238.972 171.869 238.849 171.853 238.726 171.826L226.153 168.769C225.319 168.566 224.807 167.721 225.006 166.887C225.212 166.053 226.05 165.541 226.887 165.74L239.46 168.797C240.294 168.999 240.806 169.845 240.608 170.678C240.433 171.389 239.794 171.869 239.095 171.869Z" fill="black"/>
<path d="M191.381 129.764C190.742 129.764 190.142 129.367 189.912 128.727C186.919 120.331 179.407 121.53 179.082 121.593C178.248 121.748 177.426 121.176 177.28 120.335C177.129 119.493 177.684 118.687 178.526 118.529C182.115 117.873 189.722 118.941 192.842 127.683C193.132 128.493 192.707 129.386 191.897 129.672C191.73 129.732 191.556 129.764 191.381 129.764Z" fill="black"/>
<path d="M151.48 126.091C151.04 126.091 150.599 125.904 150.293 125.543C149.734 124.888 149.817 123.903 150.472 123.347C152.096 121.97 157.038 117.785 159.027 120.04C159.599 120.684 159.536 121.668 158.888 122.236C158.444 122.637 157.832 122.728 157.308 122.526C156.927 122.613 155.585 123.093 152.489 125.721C152.195 125.972 151.838 126.091 151.48 126.091Z" fill="black"/>
<path d="M159.139 166.18C158.671 166.18 158.206 165.969 157.896 165.568C151.239 156.838 164.205 142.856 164.761 142.265C165.348 141.641 166.337 141.609 166.96 142.193C167.587 142.781 167.615 143.765 167.032 144.396C163.752 147.89 156.17 158.168 160.374 163.679C160.894 164.362 160.763 165.338 160.08 165.862C159.798 166.077 159.465 166.18 159.139 166.18Z" fill="black"/>
<path d="M151.95 146.386C151.819 146.386 151.688 146.37 151.557 146.334C150.723 146.12 150.223 145.27 150.437 144.436L152.95 134.714C153.169 133.88 154.03 133.388 154.848 133.594C155.682 133.809 156.182 134.658 155.967 135.492L153.454 145.215C153.276 145.917 152.641 146.386 151.95 146.386Z" fill="black"/>
<path d="M178.684 146.548C178.553 146.548 178.422 146.532 178.291 146.497C177.458 146.282 176.957 145.433 177.172 144.599L179.685 134.876C179.899 134.047 180.768 133.55 181.582 133.757C182.416 133.971 182.916 134.821 182.702 135.655L180.189 145.377C180.006 146.08 179.375 146.548 178.684 146.548Z" fill="black"/>
<path d="M152.535 117.845C152.535 117.845 157.005 109.294 167.542 109.079C178.078 108.865 184.331 116.202 184.331 116.202C184.331 116.202 179.948 134.007 194.403 143.237C208.858 152.468 219.906 149.685 219.906 149.685L230.248 145.842L237.668 130.553L207.166 98.5589L167.979 78.5461L148.395 96.816L152.535 117.845Z" fill="black"/>
<path d="M163.857 230.526L161.725 281.961C161.725 281.961 191.631 266.991 204.759 253.389C220.052 237.549 221.747 226.239 221.747 226.239C221.747 226.239 191.754 240.646 163.857 230.526Z" fill="#F7B369"/>
<path d="M132.513 298.413C131.909 298.413 131.337 298.06 131.083 297.472C130.746 296.682 131.107 295.765 131.897 295.424C132.636 295.106 206.077 263.124 220.297 225.691C220.603 224.889 221.508 224.48 222.306 224.79C223.112 225.091 223.513 225.993 223.211 226.798C208.522 265.462 136.205 296.964 133.136 298.286C132.925 298.37 132.715 298.413 132.513 298.413Z" fill="#68B6D8"/>
<path d="M161.727 283.521C160.802 283.481 160.135 282.759 160.167 281.897L162.299 230.462C162.335 229.6 163.097 228.822 163.919 228.973C164.78 229.009 165.447 229.731 165.411 230.593L163.28 282.028C163.248 282.866 162.557 283.521 161.727 283.521Z" fill="#68B6D8"/>
<path d="M148.388 131.696C148.388 131.696 149.348 102.426 172.696 101.501C196.044 100.576 219.899 149.684 219.899 149.684L248.543 160.249C248.543 160.249 260.354 147.954 261.279 136.925C262.204 125.896 254.855 112.998 254.855 112.998L240.587 83.9809L223.75 75.3978L193.022 67.0568L172.787 64.2778C172.787 64.2778 137.577 79.3797 136.188 78.546C134.798 77.7123 130.63 104.014 130.63 104.014L148.388 131.696Z" fill="#92B4EA"/>
<path d="M175.753 185.53C171.196 185.53 167.424 180.809 167.23 180.559C166.944 180.194 166.833 179.722 166.932 179.265C167.031 178.812 167.325 178.427 167.738 178.213L185.091 169.241C185.639 168.963 186.302 169.026 186.782 169.415C187.262 169.801 187.469 170.436 187.31 171.031C187.195 171.456 184.44 181.48 179.132 184.589C177.985 185.256 176.845 185.53 175.753 185.53ZM171.009 180.031C172.562 181.456 175.214 183.279 177.56 181.901C179.93 180.512 181.867 176.82 183.082 173.79L171.009 180.031Z" fill="black"/>
</svg>
