<svg width="388" height="388" viewBox="0 0 388 388" fill="none" xmlns="http://www.w3.org/2000/svg">
<path d="M387.194 193.577C387.194 213.784 384.097 233.317 378.341 251.619C369.964 278.218 356.03 302.316 337.887 322.563C336.974 323.634 336.021 324.706 335.028 325.738C334.512 326.334 334.155 326.731 333.718 327.168C333.202 327.724 332.607 328.319 332.051 328.875C311.923 349.439 287.428 365.478 259.995 375.443C259.36 375.681 258.725 375.919 258.09 376.118C237.922 383.264 216.206 387.154 193.577 387.154C185.2 387.154 176.863 386.638 168.765 385.646C168.685 385.566 168.646 385.566 168.526 385.566C166.462 385.288 164.358 384.971 162.294 384.653C162.135 384.614 162.016 384.614 161.857 384.574C144.905 381.755 128.628 376.753 113.502 369.845C113.026 369.607 112.51 369.408 112.033 369.17C110.565 368.535 109.135 367.821 107.666 367.106C80.6704 353.727 57.2474 334.195 39.303 310.375C38.4296 309.223 37.5562 308.072 36.7225 306.921C36.524 306.643 36.2858 306.325 36.0873 306.047C34.4993 303.824 32.9113 301.561 31.4424 299.259C27.7106 293.621 24.2964 287.746 21.1998 281.751C7.62239 255.271 0 225.337 0 193.577C0 86.665 86.6651 0 193.577 0C300.529 0 387.194 86.665 387.194 193.577Z" fill="#E8E1EF"/>
<path d="M332.052 328.875C311.925 349.439 287.43 365.478 259.997 375.443C239.274 383.025 216.922 387.154 193.579 387.154C185.202 387.154 176.865 386.638 168.766 385.646C168.687 385.566 168.647 385.566 168.528 385.566C166.464 385.288 164.36 384.971 162.295 384.653C162.136 384.613 162.017 384.613 161.859 384.574C144.907 381.755 128.63 376.753 113.504 369.845C115.251 301.998 123.389 248.244 123.389 248.244C123.985 246.854 146.892 232.126 189.331 230.736C255.868 228.632 312.163 266.109 332.052 328.875Z" fill="#40507F"/>
<path d="M197.816 120.203C197.816 120.203 240.899 123.344 244.376 82.0398C248.081 38.0641 207.436 32.8237 189.69 50.1964C171.94 67.5691 174.691 85.7597 174.691 85.7597C174.691 85.7597 162.904 74.5842 149.41 87.6097C139.509 97.1695 144.09 113.316 144.09 113.316C144.09 113.316 121.866 111.902 123.454 131.379C125.042 150.856 138.687 161.067 138.687 161.067L197.816 120.203Z" fill="black"/>
<path d="M156.467 195.38L159.802 241.324C159.802 241.324 169.048 253.929 196.083 254.163C216.223 254.338 222.929 249.3 222.929 249.3L218.446 226.234L214.048 203.744L164.736 196.594L156.467 195.38Z" fill="#B26756"/>
<path d="M164.74 196.587C164.947 197.833 165.53 199.278 166.396 200.922C178.341 223.126 206.81 226.032 218.446 226.231L214.048 203.74L164.74 196.587Z" fill="black"/>
<path d="M216.698 98.2696C216.698 98.2696 244.996 154.124 237.814 186.82C230.633 219.517 201.024 216.123 183.124 210.903C165.227 205.682 156.469 195.388 156.469 195.388C156.469 195.388 140.398 201.879 128.568 187.265C116.737 172.652 122.486 154.767 131.617 150.225C140.744 145.679 152.257 151.801 152.257 151.801L142.586 135.651C142.586 135.651 174.449 48.9582 216.698 98.2696Z" fill="#B26756"/>
<path d="M152.226 176.458C151.949 176.458 151.667 176.383 151.413 176.224L133.5 165.223C132.765 164.774 132.535 163.818 132.988 163.083C133.432 162.345 134.393 162.111 135.128 162.571L153.04 173.572C153.775 174.021 154.005 174.981 153.552 175.712C153.263 176.196 152.75 176.458 152.226 176.458Z" fill="black"/>
<path d="M137.349 177.674C136.773 177.674 136.218 177.352 135.948 176.8C135.567 176.03 135.888 175.093 136.658 174.716L146.027 170.119C146.806 169.734 147.735 170.059 148.112 170.833C148.493 171.604 148.171 172.54 147.401 172.918L138.032 177.515C137.814 177.622 137.579 177.674 137.349 177.674Z" fill="black"/>
<path d="M225.001 121.665C224.687 121.665 224.374 121.573 224.1 121.375C218.943 117.71 215.199 120.867 215.048 121.002C214.405 121.561 213.421 121.502 212.857 120.859C212.289 120.219 212.345 119.247 212.98 118.675C214.925 116.936 220.122 114.729 225.902 118.838C226.605 119.334 226.768 120.307 226.271 121.009C225.97 121.438 225.489 121.665 225.001 121.665Z" fill="black"/>
<path d="M223.599 146.684C222.753 146.684 222.058 146.001 222.042 145.151L221.848 134.202C221.832 133.34 222.519 132.63 223.376 132.618C224.381 132.646 224.945 133.293 224.96 134.15L225.155 145.1C225.171 145.961 224.488 146.672 223.626 146.684C223.619 146.684 223.611 146.684 223.599 146.684Z" fill="black"/>
<path d="M193.44 148.804C192.595 148.804 191.9 148.121 191.884 147.271L191.694 136.322C191.678 135.46 192.365 134.75 193.222 134.738C194.095 134.738 194.79 135.421 194.806 136.27L194.997 147.219C195.013 148.081 194.33 148.792 193.468 148.807C193.456 148.804 193.448 148.804 193.44 148.804Z" fill="black"/>
<path d="M222.468 110.902C222.468 110.902 216.807 102.029 205.342 102.783C193.876 103.537 187.766 112.093 187.766 112.093C187.766 112.093 194.198 131.03 179.354 142.412C164.514 153.798 152.247 151.805 152.247 151.805L140.65 148.597L131.158 132.681L161.302 95.0614L202.007 69.6455L224.997 87.6613L222.468 110.902Z" fill="black"/>
<path d="M207.609 183.14C203.921 183.14 196.636 182.132 192.519 174.791C192.098 174.045 192.368 173.092 193.115 172.675C193.865 172.254 194.814 172.516 195.235 173.271C199.788 181.393 208.979 179.984 209.368 179.924C210.217 179.769 211.015 180.357 211.158 181.203C211.301 182.048 210.734 182.85 209.884 182.993C209.852 183.001 208.979 183.14 207.609 183.14Z" fill="black"/>
<path d="M175.9 153.496C175.682 153.496 175.463 153.448 175.249 153.353C175.035 153.254 153.747 143.591 141.373 149.978C140.603 150.368 139.67 150.07 139.273 149.308C138.88 148.545 139.178 147.604 139.944 147.211C153.688 140.121 175.626 150.102 176.555 150.522C177.333 150.884 177.675 151.809 177.313 152.587C177.055 153.158 176.492 153.496 175.9 153.496Z" fill="white"/>
<path d="M197.854 256.676C186.167 256.676 171.585 253.449 155.59 242.567C154.879 242.083 154.692 241.118 155.181 240.403C155.665 239.697 156.63 239.51 157.344 239.99C194.774 265.446 223.87 247.319 224.16 247.132C224.882 246.672 225.843 246.878 226.311 247.597C226.776 248.324 226.569 249.284 225.847 249.749C225.664 249.868 214.81 256.676 197.854 256.676Z" fill="#F7B369"/>
<path d="M183.021 128.143C182.727 128.143 182.425 128.06 182.163 127.885C181.445 127.413 181.25 126.444 181.723 125.726C188.642 115.277 198.996 119.783 199.099 119.83C199.881 120.184 200.227 121.097 199.877 121.883C199.528 122.661 198.607 123.01 197.825 122.673C197.495 122.526 189.75 119.239 184.319 127.449C184.021 127.897 183.525 128.143 183.021 128.143Z" fill="black"/>
<path d="M220.06 156.747C219.349 156.747 218.666 156.505 218.106 156.049C217.467 155.525 217.07 154.782 216.987 153.961L215.939 143.472C215.772 141.772 217.015 140.256 218.71 140.085L241.986 137.763C242.816 137.711 243.614 137.926 244.253 138.446C244.892 138.97 245.289 139.712 245.372 140.534L246.42 151.019C246.587 152.718 245.345 154.234 243.649 154.409L220.373 156.732C220.27 156.743 220.163 156.747 220.06 156.747ZM242.276 140.848L219.023 143.19L220.087 153.655L243.324 151.316L242.276 140.848Z" fill="white"/>
<path d="M178.199 161.424C177.457 161.424 176.742 161.166 176.154 160.69C175.487 160.142 175.071 159.368 174.987 158.502L173.967 148.304C173.792 146.529 175.09 144.937 176.861 144.758L204.889 141.959C205.751 141.868 206.592 142.13 207.263 142.678C207.93 143.226 208.347 144 208.434 144.862L209.451 155.064C209.538 155.926 209.284 156.768 208.736 157.438C208.188 158.105 207.414 158.518 206.557 158.61L178.532 161.408C178.417 161.42 178.31 161.424 178.199 161.424ZM205.338 145.171L177.179 147.863L178.088 158.201L206.243 155.509C206.354 155.378 205.338 145.171 205.338 145.171Z" fill="white"/>
<path d="M216.788 171.655C216.677 171.655 216.561 171.643 216.45 171.615C215.609 171.429 215.081 170.599 215.267 169.761C219.066 152.524 209.269 140.975 209.169 140.86C208.606 140.213 208.677 139.228 209.328 138.664C209.979 138.096 210.96 138.164 211.524 138.819C211.972 139.335 222.441 151.682 218.308 170.428C218.145 171.159 217.498 171.655 216.788 171.655Z" fill="black"/>
<path d="M205.43 147.164C204.624 147.164 203.945 146.545 203.878 145.731C203.81 144.873 204.45 144.123 205.307 144.055L219.48 142.932C220.381 142.849 221.088 143.508 221.155 144.357C221.223 145.215 220.584 145.965 219.726 146.033L205.553 147.156C205.514 147.16 205.47 147.164 205.43 147.164Z" fill="white"/>
<path d="M162.295 384.653C162.137 384.613 162.017 384.613 161.859 384.574C144.351 381.676 127.598 376.435 112.035 369.17C110.566 368.535 109.137 367.82 107.668 367.106C80.6721 353.727 57.2491 334.194 39.3047 310.374C58.5592 283.061 97.5049 243.242 159.318 232.126L162.295 384.653Z" fill="#F6F5F7"/>
<path d="M147.732 333.396L105.026 329.557C101.06 329.2 98.1346 325.695 98.4879 321.729L99.3374 312.276C99.6947 308.31 103.2 305.384 107.166 305.737L149.872 309.576C153.838 309.934 156.763 313.439 156.406 317.405L155.557 326.858C155.203 330.824 151.698 333.75 147.732 333.396Z" fill="#92B4EA"/>
<path d="M334.908 325.857C334.511 326.334 334.154 326.731 333.717 327.168C333.201 327.723 332.605 328.319 332.05 328.875C311.922 349.439 287.427 365.478 259.994 375.443C259.359 375.681 258.724 375.919 258.088 376.118L219.5 232.126C290.523 238.954 323.038 296.956 334.908 325.857Z" fill="#F6F5F7"/>
</svg>
