<svg width="388" height="388" viewBox="0 0 388 388" fill="none" xmlns="http://www.w3.org/2000/svg">
<path d="M387.194 193.577C387.194 228.91 377.706 262.06 361.151 290.564C360.516 291.636 359.841 292.748 359.206 293.82C357.657 296.4 356.03 298.981 354.323 301.442C353.648 302.474 352.933 303.546 352.139 304.578C346.938 312.002 341.261 319.069 335.108 325.659C321.252 340.507 305.094 353.171 287.19 363.017C279.885 367.106 272.263 370.679 264.402 373.736C258.407 376.118 252.254 378.182 245.981 379.969C245.068 380.247 244.115 380.485 243.202 380.723C227.402 384.931 210.728 387.154 193.577 387.154C185.796 387.154 178.174 386.718 170.631 385.805C159.554 384.495 148.796 382.232 138.394 379.135C127.358 375.84 116.758 371.632 106.674 366.59C95.9549 361.191 85.8314 354.839 76.3828 347.653C59.55 334.87 44.9404 319.347 33.1098 301.76C29.7353 296.837 26.7181 291.874 23.9391 286.793C8.69431 259.122 0 227.362 0 193.577C0 86.6254 86.6651 0 193.577 0C300.529 0 387.194 86.6254 387.194 193.577Z" fill="#E8E1EF"/>
<path d="M148.046 137.906C148.046 137.906 123.098 130.903 114.325 150.856C109.013 162.941 114.325 176.895 114.325 176.895C114.325 176.895 92.5295 171.619 81.5683 190.651C72.5088 206.381 81.5683 222.967 81.5683 222.967C81.5683 222.967 52.0236 234.699 47.2596 258.999C42.4956 283.303 54.4056 297.123 54.4056 297.123L197.766 271.389L195.67 162.044L148.046 137.906Z" fill="black"/>
<path d="M287.192 363.016C274.289 370.202 260.474 375.879 245.983 379.968C245.07 380.246 244.117 380.484 243.204 380.723C227.404 384.931 210.73 387.154 193.579 387.154C185.798 387.154 178.176 386.717 170.633 385.804C159.556 384.494 148.798 382.231 138.396 379.135L136.213 352.059L175.516 218.826C175.516 218.826 203.624 214.578 235.503 217.953C261.228 220.652 280.721 323.674 287.192 363.016Z" fill="#68B6D8"/>
<path d="M235.505 217.953L180.679 221.367C180.679 221.367 173.295 297.949 170.635 385.805C135.461 381.636 103.145 368.059 76.3871 347.653C74.4021 300.569 76.1886 260.234 86.9076 250.309C116.087 223.194 188.381 214.142 188.381 214.142L222.245 213.666C222.245 213.666 227.565 215.214 235.505 217.953Z" fill="#F6F5F7"/>
<path d="M335.106 325.659C321.251 340.506 305.093 353.171 287.188 363.016C279.883 367.105 272.261 370.678 264.4 373.735C263.725 363.135 262.931 352.416 261.899 341.737C252.173 240.78 236.531 219.263 235.578 217.992C256.5 225.098 291.238 242.765 302.393 256.819C315.971 273.89 326.65 298.226 335.106 325.659Z" fill="#F6F5F7"/>
<path d="M179.192 183.041L180.856 225.587C180.856 225.587 189.006 237.517 213.974 238.569C232.573 239.351 238.071 229.601 238.071 229.601L232.124 192.545L186.795 184.414L179.192 183.041Z" fill="#B26756"/>
<path d="M179.153 180.444C179.308 181.603 179.8 182.957 180.551 184.501C190.901 205.384 224.749 212.919 235.496 213.459L232.125 192.545L179.153 180.444Z" fill="black"/>
<path d="M237.822 95.196C237.822 95.196 262.233 147.667 254.591 177.649C246.949 207.63 219.699 203.581 203.326 198.206C186.954 192.83 179.185 183.052 179.185 183.052C179.185 183.052 164.138 188.55 153.662 174.687C143.185 160.824 149.048 144.48 157.624 140.565C166.195 136.651 176.64 142.661 176.64 142.661L168.204 127.444C168.204 127.444 200.321 48.338 237.822 95.196Z" fill="#B26756"/>
<path d="M238.071 159.919C237.586 159.919 237.11 159.697 236.804 159.272C236.3 158.573 236.459 157.601 237.158 157.096C240.131 154.953 241.727 152.408 241.902 149.53C242.311 142.789 235.173 136.115 235.101 136.048C234.47 135.464 234.43 134.479 235.014 133.848C235.597 133.217 236.578 133.177 237.213 133.761C237.551 134.074 245.506 141.518 245.01 149.72C244.776 153.575 242.747 156.91 238.98 159.625C238.706 159.824 238.384 159.919 238.071 159.919Z" fill="black"/>
<path d="M174.777 167.43C174.372 167.43 173.967 167.272 173.662 166.962L159 151.939C158.401 151.324 158.413 150.339 159.028 149.736C159.644 149.133 160.628 149.148 161.232 149.764L175.893 164.786C176.492 165.402 176.48 166.386 175.865 166.99C175.563 167.283 175.17 167.43 174.777 167.43Z" fill="black"/>
<path d="M159.463 163.596C158.716 163.596 158.057 163.06 157.93 162.297C157.787 161.448 158.359 160.646 159.204 160.503L169.141 158.828C170.015 158.677 170.793 159.253 170.936 160.102C171.079 160.952 170.507 161.754 169.661 161.897L159.725 163.572C159.633 163.592 159.55 163.596 159.463 163.596Z" fill="black"/>
<path d="M246.533 118.913C246.453 118.913 246.37 118.905 246.283 118.893L236.842 117.389C235.993 117.254 235.417 116.456 235.552 115.606C235.687 114.757 236.493 114.177 237.334 114.316L246.775 115.821C247.625 115.956 248.2 116.754 248.065 117.603C247.946 118.369 247.283 118.913 246.533 118.913Z" fill="black"/>
<path d="M207.48 125.647C206.916 125.647 206.376 125.345 206.098 124.813C205.697 124.051 205.991 123.11 206.753 122.713L222.086 114.674C222.852 114.269 223.793 114.57 224.186 115.329C224.587 116.091 224.293 117.032 223.531 117.429L208.199 125.468C207.972 125.587 207.722 125.647 207.48 125.647Z" fill="black"/>
<path d="M246.837 140.684C246.182 140.684 245.567 140.264 245.356 139.601L242.283 130.069C242.125 129.572 242.224 129.032 242.545 128.624L245.436 124.983C245.968 124.312 246.952 124.201 247.623 124.733C248.298 125.269 248.409 126.245 247.873 126.92L245.503 129.906L248.322 138.644C248.584 139.462 248.135 140.339 247.317 140.605C247.155 140.657 246.992 140.684 246.837 140.684Z" fill="black"/>
<path d="M220.089 143.627C219.43 143.627 218.819 143.206 218.604 142.543L215.532 133.015C215.369 132.507 215.476 131.951 215.817 131.538L219.811 126.743C220.363 126.076 221.344 125.992 222.003 126.544C222.666 127.096 222.753 128.076 222.201 128.736L218.755 132.872L221.566 141.586C221.828 142.404 221.379 143.282 220.562 143.548C220.407 143.603 220.244 143.627 220.089 143.627Z" fill="black"/>
<path d="M229.426 176.566C222.912 176.566 215.658 169.563 214.706 168.614C214.098 168.006 214.094 167.022 214.702 166.414C215.309 165.803 216.294 165.803 216.905 166.406C219.557 169.043 227.382 175.347 231.693 172.889C232.444 172.469 233.392 172.735 233.817 173.477C234.242 174.223 233.98 175.176 233.23 175.601C232.031 176.284 230.744 176.566 229.426 176.566Z" fill="black"/>
<path d="M106.673 366.59C95.9545 361.191 85.831 354.839 76.3824 347.653C59.5496 334.869 44.94 319.347 33.1094 301.76C65.7825 262.536 100.917 240.225 100.917 240.225L106.673 366.59Z" fill="#F6F5F7"/>
<path d="M217.73 240.3C216.491 240.3 215.193 240.24 213.827 240.117C197.197 238.585 180.662 227.342 179.967 226.865C179.26 226.381 179.078 225.412 179.566 224.702C180.05 223.991 181.023 223.804 181.73 224.297C181.893 224.408 198.301 235.556 214.113 237.013C230.819 238.553 236.488 229.207 236.718 228.81C237.151 228.072 238.108 227.826 238.846 228.247C239.588 228.675 239.843 229.624 239.418 230.367C239.168 230.803 233.522 240.3 217.73 240.3Z" fill="#6876AA"/>
<path d="M176.644 142.658C176.644 142.658 185.326 140.796 193.73 130.085C202.135 119.374 200.348 101.266 200.348 101.266C200.348 101.266 209.861 105.078 221.008 105.078C232.156 105.078 239.497 99.0036 239.497 99.0036C239.497 99.0036 250.029 91.2581 248 78.3914C245.972 65.5246 231.97 68.383 231.97 68.383C231.97 68.383 220 59.3274 200.344 59.8038C180.689 60.2802 174.774 71.2414 174.774 71.2414C174.774 71.2414 157.238 71.8409 150.616 80.3565C143.994 88.8722 143.994 101.219 143.994 101.219C143.994 101.219 136.106 103.609 133.617 120.068C131.128 136.528 149.326 150.852 149.326 150.852C149.326 150.852 158.294 136.397 176.644 142.658Z" fill="black"/>
<path d="M152.322 88.3489C152.322 88.3489 126.482 40.2206 103.98 65.9541C78.5678 95.0106 130.19 126.473 145.915 110.271C161.64 94.0657 152.322 88.3489 152.322 88.3489Z" fill="black"/>
<path d="M160.435 324.027L116.9 320.113C112.855 319.748 109.873 316.175 110.235 312.133L111.1 302.498C111.465 298.453 115.038 295.471 119.08 295.832L162.615 299.747C166.66 300.112 169.642 303.685 169.281 307.727L168.415 317.362C168.05 321.407 164.477 324.389 160.435 324.027Z" fill="#92B4EA"/>
</svg>
