<svg width="388" height="388" viewBox="0 0 388 388" fill="none" xmlns="http://www.w3.org/2000/svg">
<path d="M386.983 184.402C388.218 210.378 384.32 235.401 376.074 258.447C375.339 260.547 374.522 262.615 373.668 264.684C368.563 277.646 362.072 289.957 354.429 301.406C330.86 336.509 296.059 363.596 254.937 377.277C254.778 377.325 254.663 377.368 254.504 377.416C250.594 378.714 246.636 379.897 242.59 380.921C241.257 381.263 239.919 381.604 238.585 381.906C228.052 384.435 217.163 386.102 206.067 386.789C204.999 386.88 203.887 386.932 202.815 386.984C195.955 387.309 189.198 387.273 182.461 386.916C179.63 386.733 176.8 386.511 173.961 386.166C172.445 386.039 170.928 385.872 169.447 385.666C163.77 384.943 158.2 384.014 152.658 382.807C145.191 381.215 137.783 379.182 130.664 376.658C116.281 371.739 102.616 365.152 89.9083 357.093C88.0623 355.91 86.2162 354.684 84.3662 353.421C70.3204 343.873 57.6163 332.475 46.5916 319.605C39.8148 311.661 33.6494 303.209 28.1748 294.209C11.8382 267.403 1.81401 236.282 0.222042 202.772C-4.85162 95.9786 77.641 5.29577 184.434 0.222112C291.227 -4.85155 381.91 77.6133 386.983 184.402Z" fill="#E8E1EF"/>
<path d="M238.617 217.925L220.617 272.358L173.961 386.178C172.445 386.051 170.928 385.884 169.447 385.678C163.77 384.955 158.2 384.026 152.658 382.819C145.191 381.227 137.783 379.195 130.664 376.67C116.281 371.751 102.616 365.165 89.9085 357.106C88.0625 355.922 86.2163 354.696 84.3663 353.433C70.3204 343.885 57.6165 332.488 46.5918 319.617C51.193 306.917 56.0007 295.999 61.0108 287.65C122.744 184.958 164.008 212.764 164.008 212.764L238.617 217.925Z" fill="#F6F5F7"/>
<path d="M254.939 377.281C254.78 377.328 254.665 377.372 254.506 377.42C250.596 378.718 246.638 379.901 242.592 380.925C241.258 381.267 239.921 381.608 238.587 381.91C228.054 384.438 217.165 386.106 206.068 386.793C205.001 386.884 203.889 386.936 202.817 386.987C195.957 387.313 189.2 387.277 182.463 386.92C178.116 386.65 173.765 386.221 169.445 385.669C163.768 384.947 158.198 384.018 152.656 382.811C145.188 381.219 137.78 379.186 130.662 376.661C116.279 371.742 102.614 365.156 89.9062 357.097C91.0139 347.823 92.4431 338.533 94.1859 329.271C110.693 242.559 163.363 222.689 163.363 222.689L221.143 205.792L254.939 377.281Z" fill="#F7B369"/>
<path d="M137.412 154.969C137.412 154.969 133.707 118.711 135.915 92.8658C137.411 75.3462 168.06 64.262 168.06 64.262C168.06 64.262 227.098 64.1032 235.764 82.1071C244.431 100.111 239.52 128.112 239.52 128.112L137.412 154.969Z" fill="black"/>
<path d="M217.73 170.559L220.14 213.216C220.14 213.216 213.141 225.913 188.301 229.351C169.797 231.911 163.373 222.697 163.373 222.697L165.767 185.117L210.267 172.663L217.73 170.559Z" fill="#FCA397"/>
<path d="M217.523 167.963C217.479 169.134 217.114 170.535 216.515 172.147C208.174 193.994 175.084 204.757 164.404 206.325L165.77 185.113L217.523 167.963Z" fill="black"/>
<path d="M150.765 88.4232C150.765 88.4232 131.399 143.169 141.9 172.385C152.401 201.6 179.23 194.95 195.07 188.019C210.91 181.083 217.735 170.57 217.735 170.57C217.735 170.57 233.289 174.624 242.428 159.776C251.567 144.924 244.147 129.163 235.211 126.071C226.274 122.978 216.413 129.981 216.413 129.981L223.384 113.974C223.384 113.974 183.744 38.032 150.765 88.4232Z" fill="#DD857A"/>
<path d="M216.42 129.978C216.42 129.978 193.99 136.441 176.073 112.355C158.157 88.2688 158.76 77.7284 158.76 77.7284L145.115 105.217C145.115 105.217 140.101 87.3358 146.421 75.1638C152.741 62.9878 160.483 64.7743 160.483 64.7743L211.795 73.2304L228.326 112.454L216.42 129.978Z" fill="black"/>
<path d="M157.942 155.552C157.859 155.552 157.776 155.544 157.688 155.528C154.008 154.929 151.558 153.234 150.399 150.487C147.148 142.773 155.941 129.831 156.954 128.382C157.446 127.671 158.423 127.508 159.121 127.996C159.828 128.489 159.999 129.457 159.506 130.164C157.029 133.717 151.074 144.075 153.274 149.276C153.996 150.991 155.608 152.031 158.192 152.456C159.042 152.591 159.614 153.393 159.475 154.242C159.355 155.008 158.697 155.552 157.942 155.552Z" fill="black"/>
<path d="M220.498 154.603C220.141 154.603 219.784 154.488 219.486 154.246C218.791 153.686 218.684 152.67 219.24 151.979L232.444 135.575C233.004 134.88 234.02 134.773 234.711 135.333C235.406 135.893 235.513 136.905 234.953 137.6L221.749 154.004C221.435 154.397 220.967 154.603 220.498 154.603Z" fill="black"/>
<path d="M235.432 149.307C235.317 149.303 225.229 148.581 225.229 148.581C224.34 148.517 223.673 147.743 223.737 146.854C223.804 145.964 224.558 145.254 225.46 145.361L235.547 146.088C236.437 146.151 237.108 146.925 237.04 147.814C236.977 148.66 236.274 149.307 235.432 149.307Z" fill="black"/>
<path d="M144.183 112.95C143.489 112.95 142.857 112.485 142.675 111.783C142.46 110.949 142.957 110.1 143.79 109.885L153.076 107.475C153.922 107.253 154.76 107.761 154.978 108.591C155.192 109.425 154.696 110.274 153.862 110.493L144.577 112.898C144.446 112.934 144.314 112.95 144.183 112.95Z" fill="black"/>
<path d="M183.841 115.936C183.642 115.936 183.444 115.896 183.253 115.821L167.167 109.262C166.373 108.937 165.987 108.027 166.313 107.229C166.643 106.435 167.556 106.058 168.346 106.376L184.432 112.934C185.226 113.26 185.611 114.169 185.286 114.967C185.032 115.566 184.452 115.936 183.841 115.936Z" fill="black"/>
<path d="M145.967 134.722C145.86 134.722 145.745 134.71 145.634 134.682C144.792 134.499 144.26 133.666 144.447 132.828L146.424 123.828L143.768 121.073C143.172 120.454 143.188 119.469 143.808 118.87C144.423 118.274 145.412 118.29 146.011 118.909L149.247 122.268C149.608 122.645 149.759 123.177 149.648 123.685L147.488 133.499C147.329 134.225 146.682 134.722 145.967 134.722Z" fill="black"/>
<path d="M175.079 135.004C174.972 135.004 174.857 134.992 174.745 134.964C173.904 134.781 173.372 133.948 173.558 133.11L175.531 124.134L171.689 120.327C171.081 119.723 171.077 118.738 171.681 118.123C172.28 117.516 173.269 117.508 173.884 118.115L178.334 122.522C178.711 122.899 178.874 123.439 178.759 123.959L176.599 133.773C176.437 134.507 175.793 135.004 175.079 135.004Z" fill="black"/>
<path d="M354.428 301.41C330.782 336.636 295.826 363.771 254.503 377.42C250.592 378.718 246.634 379.901 242.589 380.925C241.255 381.267 239.917 381.608 238.583 381.91C228.051 384.438 217.161 386.106 206.065 386.793C204.707 371.596 194.683 248.506 221.151 205.792C221.151 205.792 291.729 206.459 354.428 301.41Z" fill="#F6F5F7"/>
<path d="M183.619 232.154C175.822 232.154 168.065 230.049 162.197 223.801C161.59 223.15 161.622 222.129 162.269 221.518C162.928 220.914 163.948 220.942 164.551 221.593C180.42 238.517 214.014 220.565 214.351 220.375C215.121 219.962 216.11 220.236 216.543 221.022C216.967 221.804 216.678 222.784 215.895 223.213C214.923 223.741 199.202 232.154 183.619 232.154Z" fill="white"/>
<path d="M137.349 87.4548C137.349 87.4548 163.821 57.5288 198.765 97.0581C233.709 136.587 214.804 163.766 214.804 163.766C214.804 163.766 196.815 204.189 157.755 191.393C131.346 182.743 135.916 92.8658 135.916 92.8658C135.916 92.8658 114.128 166.319 136.055 214.114C157.985 261.904 208.38 255.163 231.89 245.496C255.401 235.83 267.894 215.932 267.894 215.932L254.154 202.061C254.154 202.061 270.495 103.652 238.925 72.3171C206.494 40.1204 148.393 45.0234 137.349 87.4548Z" fill="#6876AA"/>
<path d="M165.933 170.11C164.745 170.11 163.475 169.932 162.129 169.523C161.307 169.269 160.843 168.403 161.093 167.581C161.347 166.759 162.217 166.299 163.034 166.545C169.851 168.602 173.408 162.948 173.559 162.71C174.007 161.976 174.96 161.745 175.695 162.186C176.429 162.631 176.663 163.584 176.223 164.318C174.865 166.585 171.217 170.11 165.933 170.11Z" fill="black"/>
<path d="M136.876 201.426L115.99 222.002C115.99 222.002 127.396 248.645 171.852 248.351C216.304 248.053 136.876 201.426 136.876 201.426Z" fill="#6876AA"/>
<path d="M168.258 246.533C168.08 246.533 167.893 246.501 167.715 246.438C166.738 246.073 143.684 237.311 134.609 214.698C134.291 213.9 134.68 212.991 135.474 212.669C136.264 212.363 137.181 212.741 137.503 213.535C146.066 234.885 168.572 243.433 168.802 243.516C169.608 243.814 170.021 244.715 169.719 245.521C169.489 246.144 168.89 246.533 168.258 246.533Z" fill="#F7B369"/>
<path d="M172.197 234.079C164.015 234.079 155.317 233.313 146.138 231.534C145.293 231.371 144.741 230.557 144.903 229.712C145.066 228.87 145.892 228.306 146.726 228.477C212.159 241.114 252.649 201.366 253.046 200.957C253.654 200.35 254.638 200.342 255.25 200.949C255.857 201.557 255.861 202.541 255.258 203.152C254.9 203.514 223.855 234.079 172.197 234.079Z" fill="#F7B369"/>
<path d="M156.91 232.428C153.365 232.428 149.792 232.146 146.183 231.542C145.333 231.403 144.762 230.601 144.905 229.752C145.044 228.91 145.806 228.303 146.695 228.473C201.922 237.684 250.824 168.705 251.313 168.014C251.805 167.3 252.782 167.141 253.48 167.629C254.187 168.121 254.358 169.09 253.865 169.797C253.393 170.468 209.417 232.428 156.91 232.428Z" fill="#F7B369"/>
<path d="M221.539 335.298L268.707 334.341C273.09 334.254 276.567 330.629 276.48 326.246L276.27 315.805C276.182 311.422 272.558 307.945 268.175 308.032L221.007 308.989C216.628 309.076 213.147 312.701 213.234 317.084L213.444 327.525C213.536 331.907 217.16 335.389 221.539 335.298Z" fill="#6876AA"/>
</svg>
