<svg width="388" height="388" viewBox="0 0 388 388" fill="none" xmlns="http://www.w3.org/2000/svg">
<path d="M387.194 193.617C387.194 231.848 376.118 267.538 356.943 297.591C343.127 319.267 325.103 338.006 303.983 352.655C292.708 360.516 280.52 367.185 267.657 372.545C244.87 381.954 219.859 387.194 193.617 387.194C192.108 387.194 190.6 387.194 189.051 387.154C154.195 386.36 121.601 376.316 93.6523 359.444C92.104 358.491 90.5954 357.578 89.0868 356.546C81.385 351.623 74.0406 346.105 67.0931 340.15C61.3763 335.227 55.977 329.947 50.8557 324.389C19.2545 289.929 0 244.036 0 193.617C0 86.6651 86.7049 0 193.617 0C300.489 0 387.194 86.6651 387.194 193.617Z" fill="#E8E1EF"/>
<path d="M29.4424 295.21C34.524 303.348 40.1216 311.129 46.2751 318.394C49.8481 322.642 53.6197 326.731 57.5103 330.622C63.8226 336.934 70.6113 342.85 77.797 348.209C80.4569 350.234 83.1564 352.179 85.9354 354.005C86.8088 354.641 87.6823 355.196 88.5954 355.792C88.9924 356.109 89.4291 356.348 89.8658 356.586C94.5107 359.603 99.2746 362.382 104.197 364.963L120.474 225.655C120.474 225.655 104.912 228.911 68.8645 260.194C41.1936 284.213 32.2611 292.431 29.4424 295.21Z" fill="#FFBF69"/>
<path d="M85.9355 354.005C86.8089 354.64 87.6824 355.196 88.5955 355.791C88.9925 356.109 89.4292 356.347 89.8659 356.585C95.1063 359.999 100.545 363.136 106.143 365.994C107.453 366.629 108.723 367.304 110.033 367.939C116.068 370.837 122.261 373.458 128.573 375.721C136.95 378.777 145.605 381.279 154.498 383.105C167.36 385.804 180.66 387.194 194.317 387.194C200.153 387.194 205.988 386.956 211.705 386.4C217.7 385.884 223.575 385.09 229.411 383.978C232.627 383.383 235.843 382.708 238.979 381.953C248.19 379.81 257.122 376.991 265.777 373.497C267.404 372.862 269.032 372.187 270.66 371.512C272.049 306.126 272.287 242.646 268.436 237.128C260.258 225.456 227.029 213.546 194.555 212.871C162.041 212.157 120.475 225.655 120.475 225.655L85.9355 354.005Z" fill="#FFBF69"/>
<path d="M206.309 288.222L227.826 380.168L259.07 376.078C261.333 375.245 263.556 374.411 265.779 373.498C267.407 372.863 269.035 372.188 270.662 371.513C276.617 368.932 282.453 366.074 288.091 362.938C288.924 362.501 289.718 362.025 290.512 361.548C295.435 358.809 300.159 355.831 304.725 352.616C308.655 349.916 312.546 347.018 316.278 343.921C316.714 343.604 317.151 343.247 317.588 342.889C322.868 338.483 327.949 333.838 332.753 328.955C334.143 327.565 335.453 326.176 336.723 324.746C340.455 320.776 343.948 316.608 347.283 312.32C348.355 310.97 349.387 309.581 350.34 308.191C295.117 215.373 214.765 212.832 214.765 212.832L206.309 288.222Z" fill="#FFBF69"/>
<path d="M211.331 218.926C211.331 218.926 199.385 240.864 181.206 254.616C163.028 268.368 154.723 269.992 154.723 269.992L155.882 225.643L211.331 218.926Z" fill="#6876AA"/>
<path d="M184.894 84.4061C184.894 84.4061 219.405 4.10486 265.179 41.939C303.474 73.5878 249.16 127.667 215.57 114.542C181.98 101.417 184.894 84.4061 184.894 84.4061Z" fill="black"/>
<path d="M134.379 151.043C134.379 151.043 119.123 135.298 122.505 109.977C124.796 92.8111 132.204 87.0308 132.204 87.0308C132.204 87.0308 119.841 64.1279 154.329 64.3661C188.816 64.6083 209.655 80.8257 209.655 80.8257C209.655 80.8257 225.134 72.5602 232.82 90.6753C240.505 108.79 234.364 136.112 234.364 136.112L134.379 151.043Z" fill="black"/>
<path d="M210.955 176.847L211.332 218.921C211.332 218.921 203.852 231.085 179.254 233.305C160.932 234.96 155.041 225.595 155.041 225.595L159.154 188.737L203.515 178.562L210.955 176.847Z" fill="#B26756"/>
<path d="M210.869 174.282C210.774 175.434 210.349 176.792 209.682 178.352C200.456 199.452 167.401 208.496 156.817 209.536L159.152 188.733L210.869 174.282Z" fill="black"/>
<path d="M148.917 92.9138C148.917 92.9138 127.304 145.866 136.268 175.097C145.236 204.332 171.939 199.044 187.846 192.962C203.754 186.88 210.96 176.859 210.96 176.859C210.96 176.859 226.074 181.576 235.756 167.395C245.439 153.214 238.877 137.358 230.23 133.9C221.583 130.442 211.555 136.87 211.555 136.87L219.158 121.45C219.166 121.442 183.718 44.8847 148.917 92.9138Z" fill="#B26756"/>
<path d="M211.558 136.866C211.558 136.866 189.187 142.178 172.692 117.643C156.193 93.1084 157.28 82.7665 157.28 82.7665L142.571 109.171C142.571 109.171 138.478 91.3497 145.263 79.666C152.048 67.9823 159.579 70.1022 159.579 70.1022L209.664 80.8212L224.095 120.184L211.558 136.866Z" fill="black"/>
<path d="M152.906 159.316C152.258 159.316 151.655 158.907 151.433 158.264C147.637 147.223 155.149 135.631 155.47 135.142C155.947 134.424 156.907 134.233 157.622 134.698C158.344 135.17 158.543 136.135 158.07 136.854C157.999 136.961 151.087 147.672 154.378 157.251C154.656 158.065 154.224 158.951 153.414 159.232C153.243 159.284 153.072 159.316 152.906 159.316Z" fill="black"/>
<path d="M214.488 161.25C214.119 161.25 213.75 161.123 213.456 160.857C212.813 160.289 212.749 159.3 213.321 158.657L227.081 143.135C227.656 142.496 228.641 142.436 229.28 143.004C229.923 143.575 229.987 144.56 229.415 145.203L215.655 160.726C215.346 161.075 214.921 161.25 214.488 161.25Z" fill="black"/>
<path d="M229.437 156.744C229.246 156.736 219.357 155.549 219.357 155.549C218.503 155.446 217.896 154.671 217.995 153.814C218.098 152.96 218.9 152.397 219.726 152.452L229.615 153.635C230.469 153.738 231.076 154.513 230.977 155.37C230.882 156.164 230.211 156.744 229.437 156.744Z" fill="black"/>
<path d="M141.362 116.761C140.636 116.761 139.989 116.257 139.838 115.522C139.659 114.681 140.203 113.855 141.045 113.68L150.291 111.747C151.164 111.576 151.962 112.112 152.133 112.954C152.311 113.796 151.768 114.621 150.926 114.796L141.68 116.729C141.569 116.749 141.465 116.761 141.362 116.761Z" fill="black"/>
<path d="M180.232 121.554C180.01 121.554 179.791 121.506 179.577 121.407L164.058 114.201C163.28 113.84 162.939 112.911 163.304 112.133C163.669 111.347 164.586 111.017 165.372 111.374L180.891 118.58C181.669 118.941 182.01 119.87 181.645 120.648C181.379 121.22 180.816 121.554 180.232 121.554Z" fill="black"/>
<path d="M142.094 138.263C141.963 138.263 141.824 138.243 141.685 138.207C140.855 137.985 140.363 137.131 140.589 136.298L142.955 127.552L140.482 124.725C139.918 124.078 139.982 123.093 140.625 122.53C141.28 121.958 142.257 122.029 142.824 122.676L145.849 126.13C146.195 126.523 146.318 127.059 146.183 127.564L143.603 137.115C143.408 137.806 142.781 138.263 142.094 138.263Z" fill="black"/>
<path d="M168.64 139.903C168.509 139.903 168.37 139.883 168.231 139.847C167.401 139.625 166.909 138.771 167.135 137.938L169.498 129.211L165.909 125.301C165.329 124.666 165.369 123.681 166 123.102C166.639 122.522 167.62 122.558 168.203 123.197L172.372 127.743C172.733 128.136 172.868 128.687 172.729 129.204L170.149 138.759C169.954 139.446 169.327 139.903 168.64 139.903Z" fill="black"/>
<path d="M163.406 174.859C161.159 174.859 158.964 173.838 156.864 171.817C156.494 171.46 156.324 170.944 156.411 170.436C156.498 169.932 156.828 169.499 157.296 169.281L173.415 161.841C173.998 161.567 174.685 161.69 175.157 162.139C175.618 162.591 175.753 163.282 175.499 163.874C175.328 164.263 171.291 173.429 164.927 174.704C164.415 174.803 163.91 174.859 163.406 174.859ZM160.929 171.031C162.072 171.675 163.18 171.869 164.307 171.651C166.63 171.186 168.762 168.931 170.322 166.696L160.929 171.031Z" fill="black"/>
<path d="M135.491 160.408C131.565 160.408 127.825 158.753 124.907 155.708C121.874 152.548 120.083 148.252 119.861 143.611C119.397 133.952 125.955 125.762 134.483 125.353C138.715 125.167 142.653 126.818 145.734 130.034C148.767 133.194 150.557 137.489 150.779 142.13C151.244 151.789 144.685 159.979 136.162 160.392C135.936 160.404 135.713 160.408 135.491 160.408ZM135.15 128.454C134.975 128.454 134.804 128.458 134.63 128.466C127.821 128.795 122.592 135.52 122.974 143.468C123.16 147.359 124.645 150.94 127.158 153.56C129.611 156.125 132.764 157.439 136.015 157.288C142.82 156.958 148.048 150.229 147.671 142.285C147.484 138.399 146 134.814 143.487 132.197C141.164 129.768 138.222 128.454 135.15 128.454Z" fill="#92B4EA"/>
<path d="M173.863 158.562C164.573 158.562 156.804 151.237 156.355 141.864C155.891 132.205 163.371 123.967 173.034 123.503C182.645 123.07 190.93 130.522 191.391 140.181C191.621 144.857 190.005 149.347 186.857 152.813C183.705 156.283 179.393 158.316 174.709 158.538C174.431 158.554 174.145 158.562 173.863 158.562ZM159.464 141.713C159.849 149.657 166.527 155.731 174.566 155.43C178.417 155.243 181.962 153.572 184.554 150.721C187.143 147.871 188.469 144.179 188.282 140.332C188.096 136.481 186.424 132.936 183.57 130.343C180.719 127.751 177.027 126.464 173.18 126.611C165.236 126.992 159.083 133.769 159.464 141.713Z" fill="#92B4EA"/>
<path d="M149.04 139.946C148.572 139.946 148.103 139.732 147.794 139.327C147.278 138.64 147.413 137.663 148.099 137.147C151.637 134.471 157.941 136.246 158.648 136.46C159.469 136.707 159.938 137.572 159.696 138.394C159.446 139.22 158.572 139.696 157.762 139.446C156.357 139.033 151.899 138.179 149.977 139.632C149.699 139.843 149.37 139.946 149.04 139.946Z" fill="#92B4EA"/>
<path d="M189.834 141.812C189.516 141.812 189.199 141.717 188.925 141.518C188.226 141.014 188.071 140.041 188.575 139.343C194.503 131.152 217.862 131.351 220.49 131.383C221.352 131.399 222.038 132.109 222.023 132.967C222.007 133.824 221.328 134.535 220.439 134.495C213.709 134.352 195.316 135.341 191.096 141.169C190.791 141.59 190.314 141.812 189.834 141.812Z" fill="#92B4EA"/>
<path d="M133.615 276.717C132.825 276.717 132.15 276.117 132.066 275.315C131.975 274.458 132.602 273.696 133.456 273.604C133.96 273.553 184.197 267.828 212.217 213.765C212.618 212.998 213.559 212.712 214.317 213.098C215.079 213.495 215.377 214.435 214.984 215.198C186.162 270.809 134.294 276.649 133.77 276.705C133.722 276.713 133.666 276.717 133.615 276.717Z" fill="#40507F"/>
<path d="M154.77 269.781C153.873 269.761 153.194 269.047 153.21 268.189L154.322 218.016C154.342 217.155 155.104 216.464 155.914 216.492C156.775 216.512 157.454 217.226 157.438 218.084L156.327 268.257C156.307 269.106 155.612 269.781 154.77 269.781Z" fill="#40507F"/>
<path d="M101.315 285.681C101.076 286.158 78.368 325.223 93.6525 359.444C92.1042 358.491 90.5956 357.578 89.087 356.546C76.5815 321.888 98.2975 284.49 98.5754 284.054C99.0121 283.299 100.005 283.061 100.759 283.498C101.513 283.935 101.751 284.927 101.315 285.681Z" fill="#40507F"/>
</svg>
