<svg width="388" height="388" viewBox="0 0 388 388" fill="none" xmlns="http://www.w3.org/2000/svg">
<path d="M387.154 193.577C387.154 213.824 384.097 233.317 378.301 251.658C372.346 270.675 363.493 288.421 352.258 304.42C349.241 308.747 346.065 312.915 342.69 316.965C340.229 319.982 337.649 322.92 334.989 325.778C334.592 326.255 334.195 326.731 333.718 327.168L333.242 327.684C332.805 328.121 332.368 328.597 331.932 328.994C326.453 334.592 320.617 339.911 314.503 344.795C314.424 344.874 314.345 344.914 314.265 344.993C312.717 346.184 311.169 347.415 309.581 348.566C308.032 349.757 306.405 350.948 304.777 352.06C303.11 353.211 301.482 354.322 299.854 355.434C298.187 356.506 296.48 357.578 294.773 358.61C294.098 359.047 293.383 359.444 292.748 359.881C291.874 360.397 290.961 360.952 290.048 361.429C289.651 361.667 289.334 361.866 288.976 362.064C287.785 362.739 286.634 363.334 285.483 363.97C283.895 364.843 282.267 365.716 280.639 366.51C279.488 367.106 278.337 367.662 277.106 368.257C276.431 368.575 275.716 368.972 274.962 369.25C273.851 369.806 272.739 370.322 271.548 370.798C270.039 371.473 268.57 372.108 267.022 372.743C266.903 372.823 266.784 372.862 266.665 372.902C265.514 373.339 264.362 373.855 263.211 374.252C261.901 374.768 260.591 375.284 259.281 375.721C258.765 375.919 258.288 376.118 257.772 376.277C256.105 376.832 254.437 377.428 252.73 377.984C251.301 378.46 249.792 378.937 248.284 379.294C247.093 379.731 245.902 380.048 244.671 380.366C244.354 380.445 244.036 380.525 243.718 380.644C241.892 381.12 240.066 381.596 238.24 381.993C237.446 382.192 236.652 382.351 235.858 382.549C230.736 383.701 225.536 384.653 220.256 385.368C218.112 385.646 215.928 385.924 213.705 386.162C211.561 386.4 209.298 386.559 207.155 386.718C202.589 387.035 198.103 387.194 193.577 387.194C186.193 387.194 178.849 386.757 171.663 385.963C170.67 385.884 169.678 385.765 168.725 385.646C168.646 385.606 168.606 385.606 168.526 385.606C159.356 384.415 150.384 382.589 141.65 380.128C131.804 377.428 122.236 373.895 113.105 369.686C112.748 369.528 112.391 369.369 112.033 369.21C110.565 368.535 109.096 367.821 107.666 367.146C103.974 365.319 100.322 363.374 96.7886 361.27C95.2403 360.397 93.692 359.484 92.1834 358.531C88.3722 356.228 84.6801 353.767 81.0674 351.147C77.2959 348.447 73.6038 345.628 70.0705 342.651C65.7035 339.038 61.4953 335.267 57.4856 331.257C54.4684 328.279 51.5703 325.183 48.7913 322.007C44.2258 316.925 40.0176 311.605 36.0873 306.087C34.4993 303.864 32.9113 301.601 31.4027 299.259C27.6709 293.621 24.2567 287.785 21.1998 281.751C17.8253 275.161 14.8081 268.372 12.1879 261.425C4.28757 240.304 0 217.477 0 193.577C0 86.6651 86.6651 0 193.577 0C300.489 0 387.154 86.6651 387.154 193.577Z" fill="#E8E1EF"/>
<path d="M163.562 69.1977C163.562 69.1977 211.408 32.106 252.251 57.3632C293.095 82.6203 277.342 135.513 277.342 135.513C277.342 135.513 328.054 149.372 335.371 213.801C342.684 278.226 281.431 290.43 281.431 290.43L193.396 238.28L163.562 69.1977Z" fill="black"/>
<path d="M239.632 335.664L235.861 382.55C230.74 383.701 225.539 384.654 220.259 385.368C218.115 385.646 215.931 385.924 213.708 386.162C211.525 386.4 209.262 386.559 207.078 386.718C202.592 387.036 198.106 387.194 193.58 387.194C186.196 387.194 178.852 386.758 171.666 385.964C170.673 385.884 169.681 385.765 168.728 385.646C168.649 385.606 168.609 385.607 168.53 385.607C159.359 384.416 150.387 382.589 141.653 380.128C131.807 377.428 122.239 373.895 113.108 369.687C112.751 369.528 112.394 369.369 112.037 369.21C110.568 368.535 109.099 367.821 107.669 367.146C103.977 365.32 100.325 363.374 96.7917 361.27C95.2434 360.397 93.6951 359.484 92.1865 358.531C95.0052 339.832 115.451 209.418 143.955 206.44C174.643 203.185 201.758 207.274 201.758 207.274L239.632 335.664Z" fill="#6876AA"/>
<path d="M314.502 344.794C314.423 344.874 314.344 344.913 314.264 344.993C312.716 346.184 311.168 347.415 309.58 348.566C308.031 349.757 306.404 350.948 304.776 352.059C303.109 353.211 301.481 354.322 299.853 355.434C298.186 356.506 296.479 357.578 294.771 358.61C294.097 359.047 293.382 359.444 292.747 359.88C291.873 360.396 290.96 360.952 290.047 361.429C289.65 361.667 289.333 361.865 288.975 362.064C287.784 362.739 286.633 363.334 285.482 363.969C283.894 364.843 282.266 365.716 280.638 366.51C279.487 367.106 278.336 367.662 277.105 368.257C276.43 368.575 275.715 368.972 274.961 369.25C273.85 369.805 272.738 370.321 271.547 370.798C270.038 371.473 268.569 372.108 267.021 372.743C266.902 372.823 266.783 372.862 266.664 372.902C265.513 373.339 264.361 373.855 263.21 374.252C261.9 374.768 260.59 375.284 259.28 375.721C258.764 375.919 258.287 376.118 257.771 376.276C256.104 376.832 254.436 377.428 252.729 377.984C251.3 378.46 249.791 378.936 248.283 379.294C247.092 379.73 245.901 380.048 244.67 380.366C244.353 380.445 244.035 380.524 243.717 380.643C241.891 381.12 240.065 381.596 238.239 381.993C237.445 382.192 236.651 382.351 235.857 382.549C230.735 383.7 225.535 384.653 220.255 385.368C218.111 385.646 215.927 385.924 213.704 386.162C211.56 386.4 209.297 386.559 207.154 386.718C206.836 379.492 206.598 373.299 206.439 368.336C203.858 283.617 196.752 209.735 196.752 209.735L143.951 206.44C151.574 203.82 156.735 202.311 156.735 202.311L189.328 202.748C189.328 202.748 259.042 211.521 287.149 237.604C296.121 245.941 306.007 288.539 314.502 344.794Z" fill="#F6F5F7"/>
<path d="M143.874 206.48C142.961 207.71 127.914 228.434 118.505 325.699C117.394 337.132 115.528 352.179 113.106 369.686C112.749 369.528 112.392 369.369 112.034 369.21C110.565 368.535 109.096 367.821 107.667 367.146C103.975 365.319 100.323 363.374 96.7894 361.27C91.3505 358.173 86.1498 354.799 81.0682 351.147C77.2967 348.447 73.6046 345.628 70.0713 342.651C73.3664 290.088 76.6615 250.388 79.4802 243.877C86.388 228.037 123.746 213.348 143.874 206.48Z" fill="#F6F5F7"/>
<path d="M124.846 144.087C124.846 144.087 110.725 128.04 115.199 103.537C118.232 86.9268 125.716 81.6428 125.716 81.6428C125.716 81.6428 114.747 58.7597 148.325 60.6057C181.899 62.4518 201.436 79.225 201.436 79.225C201.436 79.225 216.899 71.8964 223.533 89.9004C230.17 107.904 222.913 134.221 222.913 134.221L124.846 144.087Z" fill="black"/>
<path d="M198.202 172.802L196.598 213.797C196.598 213.797 188.746 225.294 164.687 226.306C146.767 227.061 141.467 217.664 141.467 217.664L147.196 181.961L190.873 174.128L198.202 172.802Z" fill="#F48462"/>
<path d="M198.245 170.297C198.098 171.413 197.621 172.719 196.899 174.208C186.926 194.328 154.313 201.589 143.959 202.109L147.206 181.957L198.245 170.297Z" fill="black"/>
<path d="M141.708 88.1585C141.708 88.1585 118.185 138.716 125.55 167.606C132.914 196.496 159.168 192.593 174.945 187.416C190.721 182.236 198.209 172.815 198.209 172.815C198.209 172.815 212.707 178.115 222.803 164.756C232.899 151.397 227.245 135.648 218.988 131.876C210.726 128.105 200.662 133.893 200.662 133.893L208.789 119.232C208.789 119.232 177.847 43.0116 141.708 88.1585Z" fill="#F48462"/>
<path d="M200.665 133.888C200.665 133.888 178.632 138.013 163.712 113.352C148.793 88.69 150.334 78.6658 150.334 78.6658L134.775 103.693C134.775 103.693 131.619 86.1453 138.777 75.0848C145.931 64.0244 153.168 66.4382 153.168 66.4382L201.443 79.2176L213.659 118.227L200.665 133.888Z" fill="black"/>
<path d="M142.566 153.051C141.891 153.051 141.268 152.606 141.073 151.928C137.885 140.978 145.754 130.025 146.091 129.565C146.599 128.874 147.572 128.723 148.267 129.227C148.962 129.731 149.112 130.704 148.608 131.403C148.537 131.502 141.311 141.598 144.062 151.062C144.305 151.888 143.828 152.749 143.003 152.992C142.856 153.031 142.709 153.051 142.566 153.051Z" fill="black"/>
<path d="M202.461 157.819C202.068 157.819 201.675 157.672 201.373 157.379C200.758 156.779 200.746 155.791 201.345 155.175L215.474 140.701C216.078 140.089 217.062 140.073 217.678 140.673C218.293 141.272 218.305 142.261 217.706 142.876L203.576 157.347C203.271 157.66 202.866 157.819 202.461 157.819Z" fill="black"/>
<path d="M217.216 154.124C217.133 154.124 217.045 154.12 216.954 154.104L207.378 152.488C206.533 152.345 205.961 151.543 206.104 150.694C206.247 149.848 207.037 149.272 207.898 149.419L217.474 151.035C218.32 151.178 218.891 151.98 218.748 152.83C218.621 153.588 217.962 154.124 217.216 154.124Z" fill="black"/>
<path d="M133.311 111.069C132.561 111.069 131.898 110.525 131.774 109.755C131.64 108.906 132.215 108.108 133.069 107.973L142.164 106.524C142.998 106.389 143.812 106.964 143.947 107.818C144.082 108.667 143.506 109.465 142.652 109.6L133.553 111.049C133.474 111.065 133.39 111.069 133.311 111.069Z" fill="black"/>
<path d="M170.947 117.552C170.705 117.552 170.455 117.496 170.224 117.377L155.448 109.636C154.686 109.235 154.392 108.294 154.789 107.531C155.19 106.769 156.127 106.471 156.893 106.872L171.67 114.614C172.432 115.015 172.726 115.956 172.325 116.718C172.051 117.25 171.511 117.552 170.947 117.552Z" fill="black"/>
<path d="M133.02 132.042C132.861 132.042 132.702 132.018 132.539 131.967C131.721 131.701 131.273 130.823 131.535 130.006L134.242 121.617L131.979 118.767C131.443 118.092 131.559 117.111 132.229 116.579C132.904 116.047 133.885 116.158 134.417 116.829L137.2 120.335C137.521 120.744 137.621 121.288 137.462 121.784L134.5 130.966C134.286 131.621 133.675 132.042 133.02 132.042Z" fill="black"/>
<path d="M158.795 134.885C158.636 134.885 158.474 134.861 158.315 134.809C157.497 134.543 157.048 133.666 157.31 132.848L160.01 124.479L156.711 120.517C156.159 119.854 156.25 118.874 156.909 118.326C157.564 117.774 158.549 117.861 159.101 118.524L162.948 123.145C163.289 123.554 163.396 124.114 163.234 124.622L160.272 133.805C160.066 134.464 159.454 134.885 158.795 134.885Z" fill="black"/>
<path d="M352.256 304.419C349.239 308.747 346.063 312.915 342.689 316.964C340.227 319.982 337.647 322.919 334.987 325.778C334.59 326.254 334.193 326.731 333.717 327.167L333.24 327.683C332.803 328.12 332.367 328.597 331.93 328.994C326.372 334.671 320.457 340.03 314.264 344.993C312.715 346.184 311.167 347.414 309.579 348.566C308.031 349.757 306.403 350.948 304.775 352.059C303.108 353.211 301.48 354.322 299.852 355.434C298.185 356.506 296.478 357.578 294.771 358.61C294.096 359.046 293.381 359.443 292.746 359.88C291.873 360.396 290.96 360.952 290.047 361.428C289.65 361.667 289.332 361.865 288.975 362.064C287.784 362.739 286.632 363.334 285.481 363.969C283.893 364.843 282.265 365.716 280.638 366.51C279.486 367.106 278.335 367.661 277.104 368.257C276.429 368.574 275.715 368.971 274.961 369.249C273.849 369.805 272.737 370.321 271.546 370.798C270.038 371.473 268.569 372.108 267.021 372.743L273.611 227.917C273.611 227.917 317.876 256.025 352.256 304.419Z" fill="#F6F5F7"/>
<path d="M161.064 228.033C145.811 228.033 140.361 218.858 140.118 218.437C139.69 217.691 139.948 216.738 140.694 216.309C141.44 215.876 142.389 216.138 142.822 216.885C143.04 217.262 148.515 226.238 164.55 224.749C179.767 223.348 195.567 212.617 195.726 212.51C196.437 212.018 197.405 212.204 197.89 212.915C198.374 213.621 198.196 214.59 197.489 215.078C196.818 215.539 180.874 226.377 164.836 227.854C163.514 227.973 162.259 228.033 161.064 228.033Z" fill="white"/>
<path d="M214.842 257.764C214.691 257.764 214.537 257.748 214.382 257.712C213.314 257.458 212.655 256.39 212.905 255.322C217.149 237.374 216.283 223.503 210.32 214.086C205.132 205.888 197.894 204.26 197.823 204.244C196.747 204.018 196.068 202.962 196.294 201.89C196.525 200.814 197.597 200.139 198.649 200.362C199.014 200.441 207.605 202.366 213.679 211.962C220.23 222.312 221.274 237.207 216.772 256.235C216.557 257.152 215.744 257.764 214.842 257.764Z" fill="#40507F"/>
<path d="M264.81 323.099L221.465 326.767C217.44 327.108 213.899 324.119 213.557 320.093L212.747 310.498C212.406 306.472 215.395 302.931 219.421 302.59L262.765 298.921C266.791 298.58 270.332 301.569 270.674 305.595L271.483 315.19C271.825 319.216 268.839 322.757 264.81 323.099Z" fill="#F7B369"/>
<path d="M114.32 305.158C113.232 305.158 112.347 304.281 112.335 303.193C112.303 299.978 111.882 224.258 140.304 203.578C141.185 202.935 142.436 203.129 143.075 204.015C143.722 204.9 143.523 206.143 142.638 206.786C115.864 226.263 116.297 302.383 116.305 303.15C116.313 304.245 115.436 305.143 114.34 305.155C114.34 305.155 114.328 305.158 114.32 305.158Z" fill="#40507F"/>
<path d="M210.862 325.846C210.596 325.846 210.326 325.79 210.064 325.679C209.06 325.238 208.604 324.067 209.044 323.063C209.247 322.598 229.267 276.296 214.447 260.261C212.585 258.248 210.39 257.379 207.698 257.613C194.204 258.796 173.239 287.079 166.299 297.877C165.708 298.798 164.481 299.068 163.556 298.472C162.635 297.881 162.369 296.65 162.96 295.729C164.02 294.078 189.166 255.255 207.353 253.659C211.279 253.33 214.65 254.632 217.361 257.566C233.936 275.502 213.554 322.658 212.677 324.655C212.355 325.401 211.625 325.846 210.862 325.846Z" fill="#40507F"/>
<path d="M173.859 300.87H157.908C156.812 300.87 155.923 299.981 155.923 298.885C155.923 297.789 156.812 296.9 157.908 296.9H173.859C174.955 296.9 175.844 297.789 175.844 298.885C175.844 299.981 174.959 300.87 173.859 300.87Z" fill="#40507F"/>
<path d="M213.214 332.642C212.547 332.642 211.896 332.309 211.519 331.697L203.174 318.1C202.602 317.167 202.892 315.945 203.829 315.369C204.758 314.793 205.984 315.087 206.56 316.024L214.905 329.621C215.481 330.554 215.187 331.777 214.25 332.353C213.928 332.547 213.571 332.642 213.214 332.642Z" fill="#40507F"/>
<path d="M109.014 222.042L96.7867 361.27C91.3478 358.173 86.147 354.799 81.0654 351.146C72.6887 345.152 64.7884 338.522 57.4836 331.257C54.4664 328.279 51.5683 325.183 48.7893 322.007C44.2238 316.925 40.0156 311.605 36.0853 306.087C34.4973 303.864 32.9094 301.601 31.4008 299.259C27.669 293.621 24.2547 287.785 21.1978 281.751C17.8233 275.161 109.014 222.042 109.014 222.042Z" fill="#F6F5F7"/>
<path d="M126.657 307.199C126.657 314.011 121.135 319.533 114.322 319.533C107.51 319.533 101.987 314.011 101.987 307.199C101.987 300.386 107.51 294.864 114.322 294.864C121.135 294.864 126.657 300.386 126.657 307.199Z" fill="#40507F"/>
<path d="M119.124 307.198C119.124 309.85 116.976 311.998 114.324 311.998C111.672 311.998 109.524 309.85 109.524 307.198C109.524 304.546 111.672 302.399 114.324 302.399C116.972 302.395 119.124 304.546 119.124 307.198Z" fill="#A37B90"/>
<path d="M157.303 169.178C152.972 169.178 149.633 165.418 149.482 165.24C149.196 164.91 149.061 164.477 149.109 164.041C149.157 163.608 149.387 163.211 149.74 162.957C158.955 156.26 164.707 153.687 166.823 155.307C167.883 156.117 168.058 157.474 167.343 159.352C165.14 165.152 162.198 168.42 158.601 169.063C158.161 169.142 157.724 169.178 157.303 169.178ZM153.123 164.37C154.306 165.283 156.156 166.343 158.061 165.994C160.467 165.557 162.67 162.878 164.429 158.245C164.473 158.129 164.509 158.03 164.536 157.939C162.631 158.372 157.938 161.012 153.123 164.37Z" fill="black"/>
</svg>
