<svg width="388" height="388" viewBox="0 0 388 388" fill="none" xmlns="http://www.w3.org/2000/svg">
<path d="M387.182 193.589C387.182 230.546 376.801 265.097 358.864 294.495C355.748 299.6 352.385 304.503 348.856 309.279C346.696 312.145 344.497 314.968 342.131 317.667C341.674 318.247 341.174 318.831 340.678 319.41C333.246 328.132 325.024 336.144 316.179 343.453C314.892 344.489 313.602 345.529 312.316 346.525C310.656 347.812 308.953 349.098 307.211 350.345C305.551 351.591 303.848 352.794 302.101 353.957C299.112 355.95 296.079 357.903 292.966 359.73C292.387 360.146 291.763 360.476 291.14 360.853L290.89 360.976C290.35 361.31 289.77 361.639 289.187 361.973C288.73 362.263 288.23 362.513 287.734 362.763C283.831 364.962 279.845 367.038 275.732 368.908C273.863 369.821 271.953 370.651 270.043 371.481C266.804 372.85 263.564 374.18 260.245 375.344C258.086 376.173 255.926 376.92 253.766 377.626C244.838 380.532 235.659 382.815 226.234 384.395C224.531 384.729 222.872 384.975 221.169 385.225C216.849 385.848 212.49 386.305 208.088 386.638C207.631 386.678 207.174 386.722 206.718 386.722C203.685 386.928 200.572 387.055 197.456 387.095C196.17 387.178 194.883 387.178 193.593 387.178C184.625 387.178 175.78 386.555 167.141 385.352C160.706 384.522 154.393 383.315 148.204 381.823C145.171 381.116 142.182 380.326 139.236 379.457C130.597 376.924 122.212 373.768 114.114 370.072C109.671 368.118 105.269 365.963 101.033 363.636C99.6629 362.89 98.3329 362.1 97.003 361.353C94.3868 359.857 91.7705 358.281 89.2377 356.661C86.288 354.791 83.3819 352.798 80.5156 350.722C77.153 348.312 73.8698 345.779 70.6739 343.079C62.329 336.271 54.5637 328.712 47.4614 320.53C45.8853 318.704 44.3449 316.877 42.8522 315.008C41.2324 313.015 39.6563 310.978 38.1199 308.902C37.457 308.028 36.8337 307.199 36.2104 306.329C35.464 305.333 34.7574 304.293 34.0904 303.256C29.8147 297.111 25.9082 290.632 22.3789 283.946C20.7194 280.874 19.1791 277.717 17.73 274.561C6.30834 249.896 0 222.447 0 193.589C0 86.6611 86.6611 0 193.589 0C300.517 0 387.182 86.6611 387.182 193.589Z" fill="#E8E1EF"/>
<path d="M342.125 317.667C341.668 318.247 341.168 318.83 340.672 319.41C333.24 328.132 325.018 336.143 316.173 343.452C314.886 344.488 313.596 345.528 312.31 346.525C310.65 347.811 308.947 349.097 307.205 350.344C305.545 351.591 303.842 352.793 302.095 353.957C299.106 355.95 296.073 357.903 292.96 359.729C292.381 360.146 291.757 360.475 291.134 360.853L290.884 360.976C290.344 361.309 289.764 361.639 289.181 361.972C288.724 362.262 288.224 362.512 287.728 362.762L269.168 245.619C269.168 245.619 308.03 283.739 342.125 317.667Z" fill="#F6F5F7"/>
<path d="M312.314 346.525C310.655 347.811 308.952 349.097 307.209 350.344C305.549 351.591 303.846 352.794 302.099 353.957C299.11 355.95 296.077 357.903 292.964 359.729C292.385 360.146 291.761 360.476 291.138 360.853L290.888 360.976C290.348 361.309 289.769 361.639 289.185 361.972C284.826 364.465 280.34 366.788 275.731 368.908C273.861 369.821 271.951 370.651 270.042 371.48C266.802 372.85 263.563 374.18 260.244 375.343L218.801 224.483C218.801 224.483 245.793 230.295 260.533 239.184C273.237 246.822 288.645 260.404 312.314 346.525Z" fill="#F6F5F7"/>
<path d="M275.726 368.908C273.857 369.821 271.947 370.651 270.037 371.481C256.21 377.459 241.509 381.818 226.228 384.395C224.525 384.728 222.866 384.975 221.163 385.225C216.843 385.848 212.484 386.305 208.082 386.638C207.625 386.678 207.168 386.721 206.712 386.721C203.679 386.928 200.566 387.055 197.45 387.095C196.164 387.178 194.877 387.178 193.587 387.178C177.973 387.178 162.732 385.308 148.198 381.822C145.165 381.116 142.176 380.326 139.23 379.456C130.591 376.923 122.207 373.767 114.108 370.071C108.252 367.499 102.523 364.549 97.001 361.353C99.9904 300.684 103.603 247.2 107.259 242.011C115.982 229.553 149.115 218.258 180.883 219.299C212.651 220.295 252.307 237.569 252.307 237.569L275.726 368.908Z" fill="#F7B369"/>
<path d="M236.496 109.746C236.496 109.746 262.118 67.7873 241.423 58.4419C220.727 49.0966 195.609 71.9796 195.609 71.9796C195.609 71.9796 149.041 75.5169 131.057 100.206C113.072 124.896 155.976 169.082 155.976 169.082L236.496 109.746Z" fill="black"/>
<path d="M164.103 178.638L160.911 221.459C160.911 221.459 167.716 234.345 192.616 238.248C211.163 241.154 218.035 237.426 218.035 237.426L217.051 215.543L216.062 194.205L171.571 180.881L164.103 178.638Z" fill="#F48462"/>
<path d="M171.571 180.881C171.591 182.056 171.933 183.47 172.508 185.105C180.496 207.21 206.345 213.777 217.052 215.543L216.063 194.204L171.571 180.881Z" fill="black"/>
<path d="M232.881 97.3086C232.881 97.3086 251.353 152.674 240.269 181.842C229.185 211.009 202.347 203.844 186.555 196.586C170.762 189.329 164.092 178.642 164.092 178.642C164.092 178.642 148.387 182.433 139.475 167.347C130.562 152.257 138.303 136.552 147.339 133.606C156.375 130.661 166.157 137.878 166.157 137.878L159.444 121.669C159.444 121.669 200.656 46.0757 232.881 97.3086Z" fill="#F48462"/>
<path d="M162.984 160.733C162.631 160.733 162.273 160.614 161.983 160.372L143.725 145.06C143.066 144.504 142.979 143.523 143.531 142.864C144.087 142.201 145.071 142.118 145.726 142.67L163.984 157.982C164.643 158.538 164.731 159.518 164.179 160.177C163.869 160.543 163.429 160.733 162.984 160.733Z" fill="black"/>
<path d="M145.416 159.185C144.678 159.185 144.019 158.657 143.884 157.902C143.733 157.057 144.297 156.247 145.142 156.092L158.092 153.769C158.95 153.63 159.748 154.182 159.903 155.028C160.054 155.874 159.49 156.683 158.644 156.838L145.694 159.161C145.603 159.177 145.508 159.185 145.416 159.185Z" fill="black"/>
<path d="M195.461 120.366C194.881 120.366 194.329 120.045 194.059 119.493C193.682 118.719 194.004 117.786 194.778 117.413C202.357 113.721 209.816 112.264 210.13 112.204C210.975 112.037 211.789 112.593 211.952 113.443C212.115 114.284 211.559 115.102 210.717 115.265C210.642 115.277 203.337 116.71 196.144 120.216C195.925 120.315 195.691 120.366 195.461 120.366Z" fill="black"/>
<path d="M237.145 118.159C236.704 118.159 236.267 117.976 235.962 117.611C234.981 116.46 230.872 114.884 228.268 114.137C227.442 113.899 226.966 113.038 227.204 112.208C227.446 111.382 228.288 110.914 229.133 111.144C230.328 111.489 236.402 113.327 238.332 115.594C238.892 116.249 238.812 117.23 238.157 117.79C237.863 118.036 237.506 118.159 237.145 118.159Z" fill="black"/>
<path d="M226.897 158.36C226.715 158.36 226.524 158.328 226.342 158.256C225.536 157.951 225.135 157.049 225.44 156.248C231.018 141.606 221.085 136.39 220.657 136.175C219.89 135.786 219.581 134.853 219.962 134.087C220.347 133.321 221.276 133.007 222.042 133.384C222.173 133.448 234.957 140.002 228.35 157.355C228.12 157.974 227.525 158.36 226.897 158.36Z" fill="black"/>
<path d="M235.416 138.716C234.686 138.716 234.035 138.199 233.888 137.457L231.939 127.437C231.776 126.595 232.328 125.773 233.173 125.611C233.999 125.444 234.833 126 234.999 126.845L236.949 136.866C237.112 137.707 236.56 138.525 235.714 138.692C235.619 138.708 235.516 138.716 235.416 138.716Z" fill="black"/>
<path d="M209.256 138.716C208.526 138.716 207.875 138.2 207.728 137.457L205.778 127.437C205.616 126.595 206.168 125.774 207.013 125.611C207.847 125.444 208.673 126 208.839 126.846L210.789 136.866C210.951 137.707 210.4 138.525 209.554 138.692C209.455 138.708 209.355 138.716 209.256 138.716Z" fill="black"/>
<path d="M236.494 109.746C236.494 109.746 232.485 100.79 221.809 99.9203C211.134 99.0509 204.334 106.11 204.334 106.11C204.334 106.11 207.68 124.447 192.439 132.919C177.203 141.391 166.162 137.881 166.162 137.881L155.907 133.34L149.325 117.368L182.252 86.7915L223.255 68.9106L241.997 88.6614L236.494 109.746Z" fill="black"/>
<path d="M210.779 175.49C209.929 175.49 209.052 175.379 208.174 175.105C204.451 173.962 201.707 170.389 200.012 164.485C199.845 163.91 200.028 163.287 200.477 162.89C200.929 162.489 201.572 162.393 202.116 162.624L218.643 169.674C219.143 169.889 219.493 170.345 219.572 170.881C219.648 171.417 219.445 171.957 219.028 172.302C218.85 172.457 215.162 175.49 210.779 175.49ZM204.169 166.887C205.451 169.754 207.091 171.512 209.072 172.124C211.061 172.743 213.145 172.116 214.681 171.373L204.169 166.887Z" fill="black"/>
<path d="M167.142 385.352C160.706 384.522 154.394 383.315 148.205 381.823C145.172 381.116 142.182 380.326 139.237 379.456C130.598 376.924 122.213 373.767 114.114 370.071C109.672 368.118 105.269 365.962 101.033 363.636L160.913 221.454C160.913 221.454 165.645 308.572 167.142 385.352Z" fill="#F6F5F7"/>
<path d="M290.888 360.976C290.348 361.309 289.769 361.639 289.185 361.972C284.826 364.466 280.34 366.788 275.731 368.908C273.861 369.821 271.951 370.651 270.042 371.481C264.726 373.763 259.287 375.84 253.765 377.626L218.801 224.479C248.492 228.592 269.172 245.616 269.172 245.616L290.888 360.976Z" fill="#F6F5F7"/>
<path d="M161.245 219.211L139.235 379.456C130.596 376.924 122.212 373.767 114.113 370.071C105.474 366.252 97.1691 361.726 89.241 356.661C86.2913 354.791 83.3853 352.798 80.5189 350.722C77.1563 348.312 73.8732 345.779 70.6773 343.079C62.3324 336.271 54.567 328.712 47.4647 320.53C45.8886 318.704 44.3483 316.877 42.8555 315.007C41.2358 313.014 39.6597 310.978 38.1233 308.902C37.4603 308.028 36.837 307.198 36.2137 306.329C35.4674 305.333 34.7607 304.292 34.0938 303.256C37.6667 298.357 41.4859 293.498 45.5948 288.639C112.497 209.576 161.245 219.211 161.245 219.211Z" fill="#F6F5F7"/>
<path d="M148.83 307.02L105.136 308.207C101.079 308.318 97.6963 305.118 97.5852 301.057L97.3231 291.386C97.212 287.329 100.412 283.946 104.473 283.835L148.167 282.648C152.224 282.537 155.607 285.737 155.714 289.798L155.976 299.469C156.091 303.526 152.891 306.909 148.83 307.02Z" fill="#6876AA"/>
<path d="M200.759 242.321C176.145 242.321 159.9 222.681 159.705 222.439C159.166 221.772 159.269 220.792 159.936 220.252C160.603 219.712 161.579 219.811 162.127 220.482C162.353 220.764 185.304 248.435 217.477 235.977C218.271 235.671 219.18 236.06 219.49 236.866C219.799 237.668 219.402 238.569 218.6 238.879C212.284 241.325 206.309 242.321 200.759 242.321Z" fill="white"/>
</svg>
