<svg width="131" height="218" viewBox="0 0 131 218" fill="none" xmlns="http://www.w3.org/2000/svg">
<path d="M78.4881 83.1632H51.6482C40.8192 83.1632 31.5182 92.472 31.5182 103.297V217.401H95.8641V163.3L98.6242 152.717V103.297C98.6242 92.466 89.3171 83.1632 78.4881 83.1632Z" fill="#577CFF"/>
<path d="M53.5919 99.6043C46.3838 99.6043 39.4709 102.468 34.374 107.566C29.2771 112.664 26.4137 119.578 26.4137 126.788C26.4137 133.997 29.2771 140.911 34.374 146.009C39.4709 151.107 46.3838 153.971 53.5919 153.971V99.6043Z" fill="#0072DB"/>
<path d="M53.5951 105.648C47.9888 105.648 42.6121 107.876 38.6479 111.841C34.6836 115.806 32.4565 121.183 32.4565 126.791C32.4565 132.398 34.6836 137.776 38.6479 141.741C42.6121 145.706 47.9888 147.933 53.5951 147.933V105.648Z" fill="#577CFF"/>
<path d="M65.6736 99.6043C58.4654 99.6043 51.5526 102.468 46.4557 107.566C41.3588 112.664 38.4954 119.578 38.4954 126.788C38.4954 133.997 41.3588 140.911 46.4557 146.009C51.5526 151.107 58.4654 153.971 65.6736 153.971V99.6043Z" fill="#0072DB"/>
<path d="M65.6727 105.648C60.0663 105.648 54.6897 107.876 50.7254 111.841C46.7611 115.806 44.5341 121.183 44.5341 126.791C44.5341 132.398 46.7611 137.776 50.7254 141.741C54.6897 145.706 60.0663 147.933 65.6727 147.933V105.648Z" fill="#577CFF"/>
<path d="M16.2307 217.397H59.438V131.316C56.6635 130.831 53.8534 130.578 51.0369 130.561C37.6667 130.561 24.8441 135.873 15.3899 145.329C5.9357 154.785 0.62439 167.61 0.62439 180.983C0.62439 195.312 6.62775 208.215 16.2307 217.397Z" fill="#0072DB"/>
<path d="M58.3601 109.701V136.83C55.9405 136.408 53.4901 136.188 51.0341 136.171C45.1496 136.17 39.3227 137.329 33.886 139.581C28.4493 141.833 23.5094 145.134 19.3484 149.296C15.1875 153.458 11.887 158.398 9.63549 163.836C7.38397 169.274 6.22553 175.102 6.22632 180.988C6.2269 188.112 7.92896 195.134 11.1908 201.467C14.4527 207.801 19.18 213.264 24.9793 217.401H89.5788V92.5568L58.3601 109.701Z" fill="#577CFF"/>
<path d="M92.4787 96.5863L121.771 127.479L95.8729 154.729L95.8609 173.129L72.0648 189.282L56.1143 164.279L90.2078 129.182L78.497 117.566L92.4787 96.5863Z" fill="#0072DB"/>
<path d="M92.4715 89.0374L125.472 123.434C125.472 123.434 136.929 132.664 125.472 143.567C118.593 150.11 75.4881 179.148 75.4881 179.148L62.0681 165.725L98.6318 130.145L78.4958 110.011L92.4715 89.0374Z" fill="#577CFF"/>
<path d="M67.6702 166.246C60.8817 163.014 54.4435 163.461 48.2167 167.104C45.2392 168.85 44.0252 172.112 48.5851 173.193C53.1631 174.262 67.6702 166.246 67.6702 166.246Z" fill="#EEC2AD"/>
<path d="M76.8206 177.831C77.6601 188.493 63.3765 198.454 52.5415 197.155C44.7987 196.225 38.0585 175.36 47.2447 172.672C55.4344 170.28 57.6993 162.838 67.417 165.617C75.1356 167.828 76.5126 173.735 76.8206 177.831Z" fill="#F7DECE"/>
<path d="M69.6552 181.951L68.3748 179.287C68.3748 179.287 63.7183 186.216 57.2438 188.892C52.3336 190.897 48.1965 191.096 46.0283 190.74C46.9584 192.51 46.9765 192.812 48.1965 193.942C54.9427 194.177 65.7234 190.559 69.6552 181.951ZM56.2654 181.715C62.2446 177.62 63.99 173.705 63.99 173.705L62.0392 171.234C62.0392 171.234 55.1239 181.963 42.8514 181.413C42.942 182.911 42.8212 183.201 43.2621 184.736C44.9109 184.79 51.4095 185.038 56.2654 181.715Z" fill="#E0AA94"/>
<path d="M38.9386 28.9787C39.7697 30.9562 40.2032 33.0782 40.2141 35.2234C40.225 37.3686 39.8131 39.4949 39.0021 41.4808C38.191 43.4667 36.9967 45.2733 35.4873 46.7973C33.9779 48.3214 32.1831 49.533 30.2053 50.363C28.2214 51.1806 26.0958 51.5991 23.9501 51.5946C21.8044 51.5901 19.6806 51.1628 17.7001 50.337C15.7196 49.5112 13.9212 48.3032 12.4077 46.7819C10.8942 45.2606 9.69532 43.4559 8.87948 41.471C8.04866 39.4927 7.61585 37.37 7.60577 35.2243C7.5957 33.0786 8.00856 30.9519 8.82076 28.9659C9.63297 26.9799 10.8286 25.1734 12.3392 23.6499C13.8499 22.1263 15.646 20.9155 17.6248 20.0867C19.6079 19.2693 21.7326 18.851 23.8774 18.8556C26.0222 18.8602 28.1451 19.2877 30.1246 20.1135C32.1042 20.9394 33.9015 22.1474 35.4139 23.6686C36.9262 25.1898 38.124 26.9942 38.9386 28.9787Z" fill="#292F33"/>
<path d="M71.6139 71.2098C78.8796 62.5413 83.216 51.4626 79.4896 42.5101L73.3292 27.668C40.0268 40.2086 26.323 22.9985 26.323 22.9985C26.323 22.9985 32.8457 38.6924 18.8459 46.6843L26.2928 64.6133C32.3807 79.2561 40.6791 89.7429 55.301 83.7323L55.7962 85.7016C57.0404 90.6369 56.1284 94.6299 63.394 94.9077C68.4733 95.101 75.3343 86.0278 74.0902 81.0925L71.6139 71.2098Z" fill="#F7DECE"/>
<path d="M110.429 32.6231C115.406 19.3214 103.429 9.20914 93.2343 8.17012C87.0498 7.54188 81.4692 11.4865 78.7514 16.2104C66.3641 -4.5336 47.8346 0.353375 36.0453 4.50338C23.5555 8.90106 4.97765 21.8343 12.2674 35.7341C19.5572 49.64 43.9029 43.6596 43.9029 43.6596L52.7146 57.8675C50.335 45.641 58.4523 42.9106 62.2028 45.5745C66.1527 48.3835 63.5316 57.3903 65.3314 60.9422C67.1312 64.4942 73.364 69.3631 73.364 69.3631C77.1931 64.4942 89.2784 47.7492 83.6313 27.4704C85.9687 26.5945 89.4777 27.1865 92.3102 28.6664C99.5094 32.4057 93.8383 51.0354 103.852 56.9251C113.449 62.5732 119.078 54.8048 119.078 54.8048C109.245 55.131 105.676 45.3389 110.429 32.6231Z" fill="#292F33"/>
<path d="M31.5007 71.1062L29.6405 71.8794C29.4456 71.9663 29.2353 72.0134 29.0219 72.0178C28.8085 72.0222 28.5964 71.9838 28.3981 71.905C28.1997 71.8262 28.0191 71.7085 27.8669 71.5589C27.7147 71.4092 27.594 71.2307 27.5118 71.0336C27.4296 70.8366 27.3877 70.6252 27.3884 70.4117C27.3892 70.1982 27.4326 69.9871 27.5162 69.7907C27.5997 69.5942 27.7217 69.4165 27.8749 69.2679C28.0282 69.1193 28.2096 69.0029 28.4085 68.9255L30.2747 68.1523C30.4705 68.0604 30.6829 68.0092 30.899 68.0018C31.1151 67.9943 31.3305 68.0307 31.5322 68.1088C31.7338 68.1869 31.9176 68.305 32.0723 68.4561C32.2271 68.6072 32.3496 68.7881 32.4325 68.9878C32.5154 69.1876 32.557 69.4021 32.5547 69.6184C32.5525 69.8347 32.5064 70.0482 32.4193 70.2462C32.3322 70.4442 32.2059 70.6225 32.0481 70.7703C31.8902 70.9181 31.704 71.0324 31.5007 71.1062Z" fill="#BF6952"/>
<path d="M32.416 58.5921C31.6326 58.9164 30.7526 58.9167 29.9691 58.5928C29.1855 58.2689 28.5625 57.6473 28.2366 56.8645L26.9985 53.8984C26.6725 53.1134 26.6717 52.231 26.9962 51.4454C27.3207 50.6597 27.944 50.0352 28.7288 49.7092C29.5137 49.3831 30.3959 49.3823 31.1814 49.7069C31.9669 50.0314 32.5913 50.6548 32.9173 51.4398L34.1494 54.3998C34.3116 54.7888 34.3955 55.206 34.3961 55.6275C34.3968 56.049 34.3142 56.4665 34.1532 56.856C33.9921 57.2455 33.7558 57.5994 33.4577 57.8973C33.1596 58.1952 32.8056 58.4314 32.416 58.5921Z" fill="#662113"/>
<path d="M34.0341 78.3593C35.5017 80.1414 37.1082 81.6274 38.8416 82.7872C45.2134 79.1084 45.6603 73.5267 45.6603 73.5267L34.336 78.2325L34.0341 78.3593Z" fill="#DF1F32"/>
</svg>
