<svg width="651" height="391" viewBox="0 0 651 391" fill="none" xmlns="http://www.w3.org/2000/svg">
<g id="Group">
<g id="Group_2">
<g id="Group_3">
<path id="Vector" d="M423.034 322.721C424.742 322.721 424.744 320.067 423.034 320.067C421.327 320.067 421.324 322.721 423.034 322.721Z" fill="#F4F8FC"/>
</g>
</g>
<path id="Vector_2" d="M62.3987 384.933C40.3094 382.171 19.0011 360.111 9.31969 341.631C-3.04006 318.039 -2.16549 289.925 6.44122 265.042C16.9277 234.724 46.8094 220.239 74.4398 207.711C97.286 197.354 120.907 188.373 142.02 174.732C166.913 158.65 187.807 136.222 202.249 110.078C215.481 86.1278 223.503 58.9829 240.515 37.6412C255.958 18.2682 279.144 4.94493 303.881 1.13444C330.383 -2.94749 355.469 3.99624 375.186 21.8035C379.463 25.665 383.426 29.8646 387.114 34.2846C404.558 55.1965 417.991 80.0429 439.349 96.7848C460.585 113.429 487.226 119.51 511.983 128.862C523.591 133.247 535.867 136.458 546.965 142.299C575.975 157.567 601.588 180.323 618.294 208.693C635.086 237.211 641.485 271.341 637.549 304.253C635.367 322.505 629.665 340.418 619.815 356.008C610.932 370.069 597.54 380.464 581.476 384.991C573.157 384.991 564.839 384.991 556.521 384.991C535.184 384.991 513.847 384.991 492.511 384.991C462.785 384.991 433.058 384.991 403.332 384.991C369.845 384.991 336.358 384.991 302.872 384.991C270.253 384.991 237.635 384.991 205.016 384.991C177.895 384.991 150.774 384.991 123.653 384.991C106.658 384.991 89.6623 384.991 72.6675 384.991C69.487 384.991 66.0721 385.344 62.9064 384.991C62.736 384.973 62.5673 384.954 62.3987 384.933Z" fill="#B3E5F6"/>
<g id="Chat2">
<g id="Group_4" opacity="0.25">
<path id="Vector_3" d="M435.341 32.6217H364.605C362.392 32.6217 360.598 34.4162 360.598 36.6295V55.8746C360.598 58.0879 362.392 59.8825 364.605 59.8825H417.199L433.91 80.0327L429.262 59.8825H435.34C437.553 59.8825 439.348 58.0879 439.348 55.8746V36.6295C439.349 34.4162 437.554 32.6217 435.341 32.6217Z" fill="#2490BF"/>
<path id="Vector_4" d="M384.549 45.8421C384.549 47.8915 382.888 49.5526 380.839 49.5526C378.79 49.5526 377.128 47.8915 377.128 45.8421C377.128 43.7928 378.79 42.1317 380.839 42.1317C382.888 42.1317 384.549 43.7928 384.549 45.8421Z" fill="#2490BF"/>
<path id="Vector_5" d="M401.656 45.8421C401.656 47.8915 399.995 49.5526 397.946 49.5526C395.896 49.5526 394.235 47.8915 394.235 45.8421C394.235 43.7928 395.896 42.1317 397.946 42.1317C399.995 42.1317 401.656 43.7928 401.656 45.8421Z" fill="#2490BF"/>
<path id="Vector_6" d="M418.763 45.8421C418.763 47.8915 417.102 49.5526 415.052 49.5526C413.003 49.5526 411.342 47.8915 411.342 45.8421C411.342 43.7928 413.003 42.1317 415.052 42.1317C417.102 42.1317 418.763 43.7928 418.763 45.8421Z" fill="#2490BF"/>
</g>
<g id="Group_5">
<g id="Group_6">
<path id="Vector_7" d="M435.341 26.6044H364.605C362.392 26.6044 360.598 28.3989 360.598 30.6122V49.8573C360.598 52.0706 362.392 53.8651 364.605 53.8651H417.199L433.91 74.0154L429.262 53.8651H435.34C437.553 53.8651 439.348 52.0706 439.348 49.8573V30.6122C439.349 28.3989 437.554 26.6044 435.341 26.6044Z" fill="#0090C9"/>
<g id="Group_7">
<path id="Vector_8" d="M384.549 39.8248C384.549 41.8741 382.888 43.5352 380.839 43.5352C378.79 43.5352 377.128 41.8741 377.128 39.8248C377.128 37.7755 378.79 36.1144 380.839 36.1144C382.888 36.1144 384.549 37.7755 384.549 39.8248Z" fill="white"/>
<path id="Vector_9" d="M401.656 39.8248C401.656 41.8741 399.995 43.5352 397.946 43.5352C395.896 43.5352 394.235 41.8741 394.235 39.8248C394.235 37.7755 395.896 36.1144 397.946 36.1144C399.995 36.1144 401.656 37.7755 401.656 39.8248Z" fill="white"/>
<path id="Vector_10" d="M418.763 39.8248C418.763 41.8741 417.102 43.5352 415.053 43.5352C413.003 43.5352 411.342 41.8741 411.342 39.8248C411.342 37.7755 413.003 36.1144 415.053 36.1144C417.102 36.1144 418.763 37.7755 418.763 39.8248Z" fill="white"/>
</g>
</g>
</g>
</g>
<g id="Chat3">
<g id="Group_8" opacity="0.25">
<path id="Vector_11" d="M590.654 32.6217H519.918C517.705 32.6217 515.911 34.4162 515.911 36.6295V55.8746C515.911 58.0879 517.705 59.8825 519.918 59.8825H572.512L568.682 80.0327L584.575 59.8825H590.653C592.866 59.8825 594.661 58.0879 594.661 55.8746V36.6295C594.661 34.4162 592.867 32.6217 590.654 32.6217Z" fill="#2490BF"/>
<path id="Vector_12" d="M541.89 46.8426C541.89 48.8919 540.229 50.5531 538.18 50.5531C536.13 50.5531 534.469 48.8919 534.469 46.8426C534.469 44.7933 536.13 43.1322 538.18 43.1322C540.229 43.1322 541.89 44.7933 541.89 46.8426Z" fill="#2490BF"/>
<path id="Vector_13" d="M558.996 46.8426C558.996 48.8919 557.335 50.5531 555.286 50.5531C553.236 50.5531 551.575 48.8919 551.575 46.8426C551.575 44.7933 553.236 43.1322 555.286 43.1322C557.335 43.1322 558.996 44.7933 558.996 46.8426Z" fill="#2490BF"/>
<path id="Vector_14" d="M576.103 46.8426C576.103 48.8919 574.442 50.5531 572.392 50.5531C570.343 50.5531 568.682 48.8919 568.682 46.8426C568.682 44.7933 570.343 43.1322 572.392 43.1322C574.442 43.1322 576.103 44.7933 576.103 46.8426Z" fill="#2490BF"/>
</g>
<g id="Group_9">
<g id="Group_10">
<path id="Vector_15" d="M590.654 26.6044H519.918C517.705 26.6044 515.911 28.3989 515.911 30.6122V49.8573C515.911 52.0706 517.705 53.8651 519.918 53.8651H572.512L568.682 74.0154L584.575 53.8651H590.653C592.866 53.8651 594.661 52.0706 594.661 49.8573V30.6122C594.661 28.3989 592.867 26.6044 590.654 26.6044Z" fill="#0090C9"/>
<g id="Group_11">
<path id="Vector_16" d="M541.89 40.8244C541.89 42.8738 540.229 44.5349 538.18 44.5349C536.13 44.5349 534.469 42.8738 534.469 40.8244C534.469 38.7751 536.13 37.114 538.18 37.114C540.229 37.1149 541.89 38.7761 541.89 40.8244Z" fill="white"/>
<path id="Vector_17" d="M558.996 40.8244C558.996 42.8738 557.335 44.5349 555.286 44.5349C553.236 44.5349 551.575 42.8738 551.575 40.8244C551.575 38.7751 553.236 37.114 555.286 37.114C557.335 37.1149 558.996 38.7761 558.996 40.8244Z" fill="white"/>
<path id="Vector_18" d="M576.103 40.8244C576.103 42.8738 574.442 44.5349 572.392 44.5349C570.343 44.5349 568.682 42.8738 568.682 40.8244C568.682 38.7751 570.343 37.114 572.392 37.114C574.442 37.1149 576.103 38.7761 576.103 40.8244Z" fill="white"/>
</g>
</g>
</g>
</g>
<g id="Chat1">
<g id="Group_12" opacity="0.25">
<path id="Vector_19" d="M306.475 231.432H235.74C233.527 231.432 231.732 229.638 231.732 227.424V208.179C231.732 205.966 233.527 204.171 235.74 204.171H288.334L311.791 184.021L300.397 204.171H306.475C308.688 204.171 310.482 205.966 310.482 208.179V227.424C310.483 229.638 308.689 231.432 306.475 231.432Z" fill="#2490BF"/>
<path id="Vector_20" d="M257.712 218.284C257.712 216.235 256.051 214.573 254.001 214.573C251.952 214.573 250.291 216.235 250.291 218.284C250.291 220.333 251.952 221.994 254.001 221.994C256.051 221.994 257.712 220.333 257.712 218.284Z" fill="#2490BF"/>
<path id="Vector_21" d="M274.818 218.284C274.818 216.235 273.157 214.573 271.107 214.573C269.058 214.573 267.397 216.235 267.397 218.284C267.397 220.333 269.058 221.994 271.107 221.994C273.157 221.994 274.818 220.333 274.818 218.284Z" fill="#2490BF"/>
<path id="Vector_22" d="M291.925 218.284C291.925 216.235 290.263 214.573 288.214 214.573C286.165 214.573 284.504 216.235 284.504 218.284C284.504 220.333 286.165 221.994 288.214 221.994C290.263 221.994 291.925 220.333 291.925 218.284Z" fill="#2490BF"/>
</g>
<g id="Group_13">
<g id="Group_14">
<path id="Vector_23" d="M306.476 225.414H235.74C233.527 225.414 231.732 223.619 231.732 221.406V202.161C231.732 199.948 233.527 198.153 235.74 198.153H288.334L311.792 178.003L300.397 198.153H306.475C308.688 198.153 310.482 199.948 310.482 202.161V221.406C310.483 223.62 308.689 225.414 306.476 225.414Z" fill="#0090C9"/>
<g id="Group_15">
<path id="Vector_24" d="M257.712 212.267C257.712 210.217 256.051 208.556 254.001 208.556C251.952 208.556 250.291 210.217 250.291 212.267C250.291 214.316 251.952 215.977 254.001 215.977C256.051 215.977 257.712 214.316 257.712 212.267Z" fill="white"/>
<path id="Vector_25" d="M274.818 212.267C274.818 210.217 273.157 208.556 271.107 208.556C269.058 208.556 267.397 210.217 267.397 212.267C267.397 214.316 269.058 215.977 271.107 215.977C273.157 215.977 274.818 214.316 274.818 212.267Z" fill="white"/>
<path id="Vector_26" d="M291.925 212.267C291.925 210.217 290.263 208.556 288.214 208.556C286.165 208.556 284.504 210.217 284.504 212.267C284.504 214.316 286.165 215.977 288.214 215.977C290.263 215.977 291.925 214.316 291.925 212.267Z" fill="white"/>
</g>
</g>
</g>
</g>
<g id="ComTable">
<g id="Computer">
<g id="Screen">
<g id="Group_16">
<g id="Group_17">
<path id="Vector_27" d="M464.028 271.794C463.568 282.924 463.017 296.763 462.345 307.883C464.712 307.883 465.896 307.883 468.263 307.883C468.928 296.766 469.475 282.93 469.93 271.803C467.569 271.8 466.389 271.798 464.028 271.794Z" fill="#808080"/>
<path id="Vector_28" d="M455.019 271.779C439.434 271.753 423.85 271.726 408.265 271.697C407.76 282.86 407.16 296.733 406.435 307.884C422.06 307.884 437.685 307.884 453.31 307.884C456.924 307.884 458.731 307.884 462.345 307.884C463.017 296.764 463.568 282.924 464.028 271.795C460.425 271.788 458.623 271.785 455.019 271.779Z" fill="#B0B0B0"/>
<path id="Vector_29" d="M557.998 261.72C563.105 266.78 563.691 267.588 568.779 272.659C574.703 218.732 579.39 164.682 586.142 110.847C587.418 101.906 584.464 92.7417 577.705 86.969C569.491 145.214 564.277 203.25 557.998 261.72Z" fill="#B0B0B0"/>
<path id="Vector_30" d="M557.998 261.72C563.105 266.78 568.779 272.659 568.779 272.659L332.061 272.224C332.061 272.224 327.519 266.932 323.159 261.72C401.44 262.031 479.719 261.456 557.998 261.72Z" fill="#969696"/>
<g id="Group_18">
<path id="Vector_31" d="M323.16 261.72C401.439 262.031 479.719 261.456 557.999 261.72C559.096 251.678 559.617 246.192 560.64 236.256C482.477 235.704 404.313 236.861 326.15 236.256C325.187 244.86 324.195 253.125 323.16 261.72Z" fill="#E3E3E3"/>
<path id="Vector_32" d="M344.676 86.969C336.59 136.008 331.644 186.879 326.149 236.256C404.311 236.861 482.476 235.704 560.64 236.256C565.765 186.077 570.666 136.927 577.705 86.969C500.028 87.031 422.352 86.7299 344.676 86.969Z" fill="#1A1A1A"/>
</g>
<g id="Group_19">
<path id="Vector_33" d="M567.19 95.7369C495.634 95.5451 424.078 95.7017 352.521 95.635C351.902 99.477 351.601 101.409 351.012 105.295C422.592 105.668 494.173 105.822 565.753 106.295C566.313 102.087 566.599 99.9764 567.19 95.7369Z" fill="#C9C9C9"/>
<path id="Vector_34" d="M354.141 102.852C354.436 100.936 354.584 99.981 354.886 98.0753C416.055 98.1985 477.225 98.1661 538.394 98.3199C538.108 100.386 537.967 101.418 537.689 103.478C476.506 103.202 415.323 103.104 354.141 102.852Z" fill="white"/>
<path id="Vector_35" d="M351.013 105.295C345.106 145.541 340.853 186.861 336.408 227.287C408.38 227.931 480.351 226.688 552.322 227.287C556.444 186.618 560.495 146.836 565.753 106.295C494.173 105.822 422.592 105.667 351.013 105.295Z" fill="#373B4A"/>
</g>
<g id="Group_20">
<path id="Vector_36" d="M448.812 111.627C421.128 111.463 393.444 111.297 365.759 111.108C362.792 126.249 360.135 141.452 357.598 156.67C386.109 157.087 414.621 157.481 443.132 157.869C444.874 142.438 446.713 127.015 448.812 111.627Z" fill="#FFDF87"/>
<path id="Vector_37" d="M357.598 156.671C357.067 159.861 356.804 161.462 356.28 164.674C384.933 165.096 413.586 165.495 442.24 165.888C442.594 162.675 442.772 161.071 443.132 157.87C414.621 157.482 386.109 157.088 357.598 156.671Z" fill="#7FB8FA"/>
</g>
<g id="Group_21">
<g id="Group_22">
<path id="Vector_38" d="M546.632 125.7C545.21 133.818 536.336 139.477 528.063 139.594C520.333 139.702 512.4 133.064 513.558 125.342C514.799 117.068 523.839 111.314 532.209 111.397C539.327 111.467 548.016 117.802 546.632 125.7Z" fill="white"/>
<path id="Vector_39" d="M538.819 123.163C536.61 123.139 535.506 123.127 533.298 123.105C533.57 121.215 533.708 120.269 533.985 118.377C534.067 117.814 533.607 117.354 532.956 117.348C531.632 117.336 530.971 117.331 529.648 117.319C528.997 117.313 528.4 117.763 528.314 118.325C528.021 120.215 527.877 121.159 527.589 123.046C525.383 123.024 524.28 123.012 522.074 122.99C521.419 122.984 520.815 123.432 520.724 123.992C520.54 125.13 520.449 125.7 520.267 126.839C520.177 127.398 520.639 127.858 521.299 127.864C523.519 127.889 524.63 127.901 526.853 127.926C526.57 129.812 526.43 130.755 526.152 132.639C526.07 133.199 526.542 133.659 527.208 133.668C528.562 133.684 529.239 133.693 530.594 133.709C531.259 133.718 531.862 133.27 531.94 132.71C532.202 130.823 532.335 129.88 532.602 127.992C534.826 128.017 535.938 128.03 538.161 128.056C538.822 128.064 539.417 127.615 539.491 127.053C539.642 125.91 539.718 125.338 539.871 124.194C539.945 123.63 539.475 123.169 538.819 123.163Z" fill="#F45B5B"/>
</g>
</g>
<path id="Vector_40" d="M444.024 249.893C443.42 253.615 439.457 256.265 435.766 256.354C432.317 256.437 428.782 253.395 429.274 249.824C429.801 245.999 433.786 243.346 437.517 243.377C440.69 243.404 444.612 246.272 444.024 249.893Z" fill="#808080"/>
<g id="Group_23">
<g id="Group_24">
<path id="Vector_41" d="M553.184 152.993C525.413 152.586 497.642 152.204 469.87 151.832C467.339 167.488 464.957 183.168 462.58 198.848C491.144 199.179 519.707 199.513 548.271 199.863C549.851 184.234 551.45 168.607 553.184 152.993Z" fill="#FFDF87"/>
<path id="Vector_42" d="M462.58 198.847C462.088 202.101 461.842 203.729 461.349 206.994C490.052 207.299 518.755 207.606 547.457 207.929C547.783 204.698 547.945 203.085 548.271 199.862C519.708 199.512 491.144 199.179 462.58 198.847Z" fill="#7FB8FA"/>
</g>
<g id="Group_25">
<g id="Group_26">
<path id="Vector_43" d="M491.646 195.876C492.142 194.304 492.685 192.763 493.293 191.297C493.72 190.268 494.221 189.292 494.753 188.365C493.483 187.622 491.58 186.321 489.65 184.333C488.908 185.631 488.333 187.011 487.84 188.386C487.541 189.222 487.294 190.087 487.031 190.941C486.83 191.815 486.607 192.685 486.426 193.563C486.067 195.315 485.82 197.115 485.627 198.921C485.62 198.985 485.629 199.05 485.629 199.115C487.667 199.139 488.685 199.151 490.723 199.174C490.818 198.813 490.864 198.633 490.959 198.272C491.234 197.313 491.371 196.834 491.646 195.876Z" fill="#FFBD81"/>
<path id="Vector_44" d="M489.367 183.265C489.954 182.324 490.68 181.373 491.516 180.543C491.943 180.121 492.386 179.698 492.934 179.323C493.182 179.13 493.496 178.945 493.79 178.762C494.161 178.561 494.344 178.436 495.073 178.182C496.119 177.817 497.712 178.221 498.776 179.152C499.425 179.719 499.728 180.535 499.723 181.238C499.718 181.941 499.449 182.553 499.149 183.13C498.473 184.436 497.508 185.501 496.715 186.721C496.437 187.066 496.176 187.439 495.93 187.832C495.638 188.299 495.353 188.781 495.072 189.269C493.502 188.351 491.148 186.742 488.763 184.284C488.959 183.942 489.161 183.597 489.367 183.265Z" fill="#D8E6EA"/>
</g>
<g id="Group_27">
<path id="Vector_45" d="M499.474 177.568C499.212 177.696 498.97 177.85 498.72 177.994C499.075 186.497 499.263 190.759 499.636 199.313C503.781 199.362 505.854 199.386 510.001 199.435C509.862 190.715 509.792 186.37 509.672 177.699C506.27 176.092 502.25 176.213 499.474 177.568Z" fill="#00E3CC"/>
<path id="Vector_46" d="M492.039 186.366C490.624 189.985 491.297 195.169 490.833 199.211C494.353 199.252 496.114 199.273 499.636 199.314C499.263 190.759 499.076 186.498 498.72 177.995C495.554 179.831 493.368 182.964 492.039 186.366Z" fill="#D0E1E3"/>
<path id="Vector_47" d="M510.091 177.885C509.955 177.814 509.81 177.765 509.672 177.699C509.792 186.37 509.862 190.715 510.001 199.435C514.588 199.49 516.882 199.517 521.47 199.572C519.772 192.928 517.559 181.791 510.091 177.885Z" fill="#D0E1E3"/>
<g id="Group_28">
<path id="Vector_48" d="M523.001 198.734C522.901 197.857 522.76 196.965 522.639 196.078C522.463 195.183 522.301 194.288 522.089 193.388C521.742 191.914 521.318 190.398 520.738 188.879C518.838 189.803 517.014 190.116 515.805 190.21C516.221 191.295 516.606 192.411 516.92 193.541C517.367 195.153 517.75 196.798 518.087 198.451C518.163 198.87 518.201 199.08 518.278 199.498C520.196 199.521 521.155 199.533 523.073 199.556C523.046 199.282 523.032 199.009 523.001 198.734Z" fill="#FFBD81"/>
<path id="Vector_49" d="M521.075 188.039C520.611 186.914 520.023 185.724 519.322 184.583C518.964 184.002 518.595 183.418 518.125 182.826C517.915 182.538 517.642 182.226 517.389 181.925C517.067 181.572 516.913 181.378 516.267 180.811C515.344 180 513.869 179.64 512.832 179.998C512.2 180.217 511.864 180.82 511.816 181.461C511.768 182.102 511.967 182.782 512.196 183.443C512.714 184.94 513.511 186.348 514.143 187.82C514.37 188.261 514.58 188.719 514.775 189.189C515.006 189.747 515.231 190.315 515.45 190.888C516.945 190.771 519.201 190.385 521.55 189.243C521.396 188.84 521.24 188.437 521.075 188.039Z" fill="#D8E6EA"/>
</g>
</g>
<g id="Group_29">
<path id="Vector_50" d="M500.818 169.899C500.679 171.917 500.61 172.927 500.473 174.948C502.035 176.047 503.867 176.71 505.593 176.747C506.72 176.771 507.786 176.522 508.708 176.061C508.816 174.664 508.871 173.966 508.98 172.57C505.714 171.502 504.082 170.967 500.818 169.899Z" fill="#F78B4F"/>
<path id="Vector_51" d="M500.473 174.947C500.406 175.949 500.371 176.45 500.305 177.453C500.195 179.074 501.49 180.774 503.208 181.245C503.586 181.349 504.01 181.436 504.488 181.499C508.355 182.013 508.395 180.098 508.395 180.098C508.519 178.483 508.582 177.675 508.708 176.061C507.785 176.521 506.72 176.771 505.593 176.747C503.867 176.71 502.035 176.047 500.473 174.947Z" fill="#F79E6C"/>
</g>
<g id="Group_30">
<path id="Vector_52" d="M510.999 168.233C511.132 167.97 511.217 167.534 511.218 167.061C511.218 166.746 511.182 166.414 511.096 166.106C511.089 166.079 511.075 166.055 511.066 166.028C511.002 165.824 510.91 165.638 510.798 165.471C510.675 165.29 510.533 165.129 510.345 165.024C510.232 164.961 510.127 164.925 510.025 164.9C509.984 164.89 509.944 164.882 509.905 164.877C509.854 164.87 509.805 164.87 509.756 164.872C509.565 164.879 509.389 164.948 509.23 165.046C508.874 165.318 508.821 165.847 508.426 166.166C507.946 166.554 507.337 166.538 506.804 165.91C506.545 165.605 506.387 165.243 506.244 164.888C505.452 162.916 505.168 160.98 504.735 158.995C503.536 160.206 501.77 160.811 499.908 160.95C499.138 161.007 498.348 160.977 497.552 160.906C497.229 163.116 497.434 165.525 497.895 167.857C498.305 169.932 499.14 172.522 501.231 173.84C501.433 173.967 501.648 174.088 501.877 174.199C506.155 176.286 509.167 174.271 510.045 170.725C510.05 170.727 510.057 170.727 510.062 170.729C509.815 170.227 509.565 169.727 509.331 169.221C510.061 169.206 510.696 168.829 510.999 168.233Z" fill="#F79E6C"/>
<path id="Vector_53" d="M512.704 158.972C512.325 158.451 511.806 157.987 511.241 157.666C510.505 157.247 509.695 157.072 509.033 157.332C508.549 156.416 507.504 155.863 506.532 155.527C504.011 154.657 501.417 154.691 499.119 155.268C496.82 155.844 494.787 156.935 492.872 158.146C492.613 158.309 492.342 158.497 492.287 158.81C492.22 159.195 492.523 159.646 492.901 159.904C493.28 160.161 493.718 160.268 494.139 160.361C495.278 160.614 496.422 160.808 497.55 160.908C498.346 160.978 499.136 161.009 499.906 160.951C501.768 160.812 503.534 160.208 504.733 158.997C505.166 160.982 505.45 162.917 506.242 164.89C506.385 165.245 506.542 165.606 506.802 165.912C507.335 166.54 507.943 166.556 508.424 166.167C508.815 165.851 508.873 165.331 509.22 165.056C509.247 165.039 509.272 165.018 509.3 165.004C509.417 164.932 509.559 164.882 509.753 164.874C509.802 164.873 509.851 164.872 509.902 164.879C509.941 164.883 509.981 164.892 510.022 164.902C510.123 164.928 510.229 164.962 510.342 165.025C510.53 165.13 510.673 165.291 510.795 165.472C510.908 165.638 511 165.825 511.063 166.029C511.072 166.056 511.086 166.079 511.093 166.107C511.179 166.414 511.216 166.746 511.215 167.061C511.214 167.535 511.129 167.971 510.996 168.234C510.694 168.829 510.058 169.206 509.327 169.224C509.561 169.73 509.811 170.23 510.058 170.732C512.502 171.658 513.872 166.764 513.96 165.209C514.08 163.173 514.158 160.973 512.704 158.972Z" fill="#9B5B30"/>
</g>
<path id="Vector_54" d="M499.943 177.357C499.943 177.357 499.494 188.222 499.34 192.519C498.132 190.422 497.528 189.374 496.322 187.278C497.107 186.93 497.499 186.757 498.283 186.408C496.833 184.497 496.108 183.542 494.66 181.633C494.66 181.633 496.457 177.238 500.304 177.452" fill="#E6F1F2"/>
<path id="Vector_55" d="M509.672 177.7C509.672 177.7 509.948 188.715 509.9 193.033C511.193 191.522 511.84 190.766 513.133 189.258C512.373 188.549 511.993 188.196 511.233 187.487C512.759 186.273 513.522 185.667 515.049 184.455C515.049 184.455 513.485 179.278 509.672 177.7Z" fill="#E6F1F2"/>
<path id="Vector_56" d="M504.535 170.489C504.566 170.434 504.565 170.344 504.515 170.204C504.358 169.765 503.937 169.358 503.515 169.141C502.935 168.843 502.235 168.872 501.875 169.265C501.512 168.753 500.777 168.593 500.288 168.795C500.075 168.883 499.899 169.025 499.756 169.193C499.657 169.311 499.454 169.595 499.531 169.789C499.634 170.049 500.304 170.075 500.498 170.098C500.935 170.151 501.371 170.205 501.807 170.258C502.503 170.342 503.199 170.427 503.895 170.512C504.135 170.541 504.451 170.637 504.535 170.489Z" fill="#9B5B30"/>
</g>
</g>
<g id="Group_31">
<g id="Group_32">
<path id="Vector_57" d="M377.275 129.927C377.719 129.232 377.792 128.323 377.84 127.453C377.88 126.723 377.608 126.052 377.322 125.329C377.008 124.536 376.649 123.753 376.251 122.983C376.119 122.727 375.979 122.47 375.776 122.252C375.472 121.926 375.056 122.057 374.941 122.395C374.887 122.556 374.913 122.742 374.948 122.923C375.024 123.325 375.13 123.737 375.286 124.133C375.32 124.221 375.589 125.1 375.489 125.082C373.47 124.727 371.535 123.772 369.504 123.591C369.273 123.571 369.038 123.551 368.823 123.593C368.151 123.726 367.697 124.221 368.015 124.939C368.258 125.488 368.826 125.918 369.342 126.238C370.389 126.888 371.607 127.437 372.749 127.786C372.963 127.852 373.178 127.91 373.393 127.958C373.455 127.972 373.519 127.987 373.573 128.025C373.637 128.073 373.671 128.146 373.701 128.215C373.88 128.637 374.016 129.069 374.106 129.501C374.107 129.499 376.725 130.787 377.275 129.927Z" fill="#F79E6C"/>
<path id="Vector_58" d="M396.394 136.689C396.317 136.641 396.235 136.595 396.147 136.551C395.541 136.249 394.884 136.15 394.251 136.107C391.137 135.889 388.256 137.132 385.722 138.318C383.04 139.573 380.554 141.109 377.937 142.46C377.948 141.027 377.96 139.596 377.973 138.167C377.984 136.962 377.961 134.344 377.975 133.143C377.984 132.381 377.93 131.621 377.876 130.858C377.841 130.356 377.806 129.853 377.789 129.346C376.319 128.997 374.848 128.649 373.377 128.301C373.268 128.837 373.185 129.382 373.105 129.928C372.785 132.114 372.674 134.372 372.637 136.639C372.594 139.267 372.358 142.179 373.373 144.9C373.785 146.006 374.457 147.156 375.524 147.797C377.221 148.816 379.615 147.989 381.112 147.55C382.972 147.006 384.701 146.218 386.407 145.41C386.828 145.211 387.239 144.995 387.649 144.774C386.327 148.302 386.866 153.216 386.369 157.087C389.887 157.137 391.645 157.161 395.162 157.211C394.953 150.697 394.855 147.459 394.684 141.023C396.021 140.208 398.744 138.146 396.394 136.689Z" fill="#00C5AB"/>
<g id="Group_33">
<path id="Vector_59" d="M395.32 135.862C395.056 135.987 394.812 136.138 394.56 136.28C394.764 144.586 394.889 148.774 395.16 157.21C399.299 157.269 401.368 157.298 405.505 157.355C405.469 148.743 405.463 144.466 405.496 135.978C402.131 134.41 398.116 134.536 395.32 135.862Z" fill="#FFF7E0"/>
<path id="Vector_60" d="M405.91 136.16C405.776 136.09 405.633 136.042 405.495 135.978C405.463 144.466 405.469 148.743 405.504 157.355C410.08 157.418 412.369 157.45 416.944 157.512C415.329 150.936 413.293 139.973 405.91 136.16Z" fill="#00C5AB"/>
</g>
<path id="Vector_61" d="M397.421 129.304C397.272 130.952 397.199 131.777 397.054 133.429C398.343 134.326 399.865 134.867 401.308 134.895C402.251 134.913 403.145 134.708 403.923 134.329C404.035 133.184 404.092 132.612 404.205 131.47C401.49 130.603 400.134 130.169 397.421 129.304Z" fill="#F78B4F"/>
<g id="Group_34">
<path id="Vector_62" d="M406.623 127.281C406.961 126.652 407.012 124.923 406.084 124.415C405.129 123.893 404.602 124.913 404.066 125.328C403.99 125.388 403.905 125.442 403.801 125.453C403.555 125.48 403.29 125.252 403.19 125.012C403.089 124.771 403.109 124.522 403.122 124.283C403.203 122.851 403.462 121.43 402.713 120.035C400.517 115.938 394.843 119.218 394.843 119.218C394.043 121.572 394.151 124.333 394.635 126.983C394.972 128.831 395.692 131.144 397.583 132.32C397.766 132.433 397.961 132.541 398.168 132.64C402.05 134.501 404.839 132.69 405.704 129.512C405.709 129.514 405.715 129.514 405.72 129.516C405.502 129.068 405.282 128.62 405.078 128.169C405.747 128.152 406.336 127.813 406.623 127.281Z" fill="#F79E6C"/>
<path id="Vector_63" d="M407.092 117.754C405.806 116.322 404.158 115.627 402.395 115.246C402.102 115.183 398.946 115.259 398.946 115.259C398.946 115.259 398.161 113.539 397.325 113.247C396.652 113.011 396.002 113.38 395.681 113.89C395.405 114.326 395.317 114.958 395.704 115.438C394.66 115.077 393.63 114.611 392.569 114.638C392.34 114.644 392.106 114.673 391.94 114.798C391.664 115.001 391.643 115.419 391.79 115.777C391.938 116.134 392.221 116.444 392.505 116.737C392.692 116.929 394.865 119.158 394.845 119.217C394.845 119.217 400.519 115.937 402.715 120.034C403.464 121.43 403.205 122.85 403.124 124.282C403.11 124.521 403.091 124.77 403.192 125.011C403.292 125.252 403.557 125.48 403.803 125.452C403.907 125.441 403.992 125.386 404.068 125.328C404.604 124.913 405.131 123.893 406.086 124.414C407.014 124.922 406.963 126.651 406.625 127.28C406.338 127.813 405.749 128.151 405.08 128.169C405.285 128.62 405.506 129.068 405.722 129.516C407.942 130.338 409.282 125.954 409.393 124.563C409.571 122.305 408.846 119.71 407.092 117.754Z" fill="#6D5952"/>
</g>
<path id="Vector_64" d="M396.375 135.438C396.375 135.438 395.164 146.293 394.951 150.519C393.774 148.455 393.186 147.424 392.012 145.369C392.801 145.028 393.196 144.857 393.984 144.516C392.393 142.655 391.598 141.727 390.01 139.873C390.01 139.873 392.538 135.233 396.375 135.438Z" fill="#00DEC1"/>
<path id="Vector_65" d="M404.22 135.469C404.22 135.469 405.121 146.966 405.486 151.465C406.92 149.501 407.637 148.52 409.074 146.562C408.251 145.957 407.839 145.655 407.017 145.051C408.316 143.617 408.965 142.9 410.266 141.467C410.266 141.467 408.082 136.502 404.22 135.469Z" fill="#00DEC1"/>
</g>
<path id="Vector_66" d="M401.308 134.895C399.865 134.867 398.343 134.326 397.054 133.429C397.061 133.434 397.044 133.532 397.044 133.541C397.036 133.636 397.028 133.731 397.019 133.827C396.987 134.193 396.955 134.559 396.923 134.925C396.889 135.317 396.83 135.705 396.895 136.115C396.939 136.393 396.999 136.672 397.073 136.949C397.18 137.347 397.317 137.745 397.489 138.134C397.685 138.578 397.929 139.011 398.232 139.413C398.554 139.84 398.944 140.226 399.392 140.529C399.392 140.529 402.527 140.135 403.429 137.942C403.567 137.675 403.619 137.377 403.657 137.034C403.663 136.985 403.669 136.938 403.674 136.887C403.731 136.291 403.789 135.696 403.847 135.101C403.865 134.915 403.883 134.728 403.902 134.543C403.905 134.517 403.898 134.342 403.922 134.33C403.144 134.709 402.251 134.914 401.308 134.895Z" fill="#F79E6C"/>
</g>
<g id="Group_35">
<g id="Group_36">
<path id="Vector_67" d="M495.587 131.228C467.894 130.921 440.2 130.626 412.506 130.324C409.775 145.798 407.284 161.311 404.825 176.829C433.335 177.215 461.846 177.592 490.356 177.976C491.997 162.382 493.694 146.793 495.587 131.228Z" fill="#FFF7E0"/>
<path id="Vector_68" d="M404.825 176.829C404.316 180.063 404.063 181.684 403.557 184.934C432.21 185.309 460.862 185.673 489.513 186.043C489.849 182.811 490.017 181.198 490.355 177.976C461.846 177.592 433.335 177.215 404.825 176.829Z" fill="#7FB8FA"/>
</g>
<g id="Group_37">
<g id="Group_38">
<path id="Vector_69" d="M436.613 174.13C437.09 172.646 437.613 171.192 438.197 169.81C438.608 168.839 439.088 167.917 439.597 167.044C438.398 166.341 436.604 165.112 434.789 163.237C434.077 164.461 433.523 165.761 433.049 167.058C432.761 167.846 432.522 168.661 432.268 169.466C432.072 170.292 431.856 171.112 431.681 171.939C431.33 173.593 431.089 175.292 430.897 176.997C430.89 177.058 430.898 177.119 430.898 177.18C432.828 177.206 433.794 177.219 435.724 177.245C435.814 176.904 435.86 176.733 435.951 176.393C436.215 175.487 436.348 175.035 436.613 174.13Z" fill="#FFBD81"/>
<path id="Vector_70" d="M434.528 162.231C435.089 161.344 435.783 160.448 436.581 159.666C436.988 159.268 437.411 158.871 437.932 158.517C438.168 158.335 438.467 158.16 438.747 157.989C439.1 157.8 439.274 157.681 439.966 157.442C440.959 157.098 442.463 157.479 443.465 158.356C444.076 158.891 444.357 159.661 444.348 160.323C444.339 160.986 444.079 161.563 443.793 162.108C443.144 163.34 442.224 164.343 441.465 165.494C441.2 165.82 440.95 166.171 440.715 166.542C440.436 166.983 440.163 167.437 439.894 167.898C438.412 167.03 436.192 165.51 433.948 163.191C434.136 162.868 434.329 162.543 434.528 162.231Z" fill="#0090C9"/>
</g>
<g id="Group_39">
<path id="Vector_71" d="M459.304 144.227C460.004 148.067 459.891 152.057 459.022 155.548C458.999 155.64 458.974 155.736 458.901 155.791C458.853 155.828 458.789 155.844 458.726 155.858C455.997 156.489 453.373 156.884 450.391 156.576C449.407 156.474 448.42 156.359 447.429 156.154C446.492 155.962 445.574 155.547 444.651 155.348C443.786 155.162 442.967 154.979 442.1 154.65C441.857 154.557 439.549 153.653 439.562 153.465C439.818 149.871 440.281 146.338 440.437 142.734C440.527 140.658 440.718 138.786 441.893 137.179C442.484 136.37 443.255 135.688 444.203 135.275C445.494 134.714 447.68 134.439 448.976 135.811C448.881 135.71 451.224 135.467 451.393 135.479C452.46 135.552 453.559 135.721 454.597 136.237C457.588 137.724 458.603 140.885 459.191 143.65C459.23 143.843 459.268 144.035 459.304 144.227Z" fill="#FFDF87"/>
<path id="Vector_72" d="M453.722 157.334C453.595 157.267 453.46 157.221 453.331 157.16C450.161 155.66 446.401 155.774 443.795 157.038C443.549 157.158 443.321 157.301 443.087 157.436C440.113 159.147 438.048 162.07 436.785 165.244C435.441 168.621 436.044 173.465 435.592 177.243C438.886 177.288 440.534 177.309 443.828 177.353C447.705 177.405 449.644 177.431 453.522 177.482C457.811 177.54 459.956 177.567 464.245 177.625C462.686 171.398 460.679 160.979 453.722 157.334Z" fill="#0079A9"/>
<g id="Group_40">
<path id="Vector_73" d="M445.147 149.89C445.056 151.77 445.011 152.712 444.923 154.597C446.245 155.62 447.789 156.236 449.234 156.267C450.179 156.288 451.067 156.054 451.833 155.623C451.905 154.318 451.941 153.667 452.014 152.365C449.267 151.374 447.894 150.879 445.147 149.89Z" fill="#FFAB5E"/>
<path id="Vector_74" d="M444.924 154.597C444.877 155.617 444.629 156.663 444.959 157.713C445.48 159.361 446.239 160.987 447.206 162.52C447.247 162.585 449.569 161.354 449.771 161.228C450.429 160.82 450.926 160.237 451.253 159.535C451.591 158.809 451.692 158.204 451.737 157.366C451.768 156.804 451.799 156.24 451.83 155.678C451.831 155.66 451.832 155.64 451.833 155.622C451.066 156.053 450.178 156.287 449.234 156.266C447.79 156.236 446.246 155.62 444.924 154.597Z" fill="#FFBD81"/>
</g>
<path id="Vector_75" d="M443.15 146.172C443.234 148.224 443.744 150.354 444.809 152.22C446.011 154.323 449.386 155.186 451.191 154.399C452.082 154.01 452.75 153.229 453.232 152.426C453.49 151.997 453.704 151.532 453.834 151.032C453.935 150.642 454.192 150.192 454.038 149.745C454.594 150.395 455.236 150.215 455.649 149.777C456.04 149.361 456.105 148.596 456.111 147.993C456.114 147.763 456.096 147.524 456.019 147.289C455.768 146.527 455.189 146.004 454.45 146.286C453.392 146.689 453.731 147.663 453.249 148.506C453.151 148.677 452.962 148.836 452.745 148.745C452.527 148.651 452.453 148.381 452.419 148.163C452.374 147.867 452.328 147.572 452.283 147.276C452.258 147.115 452.233 146.951 452.168 146.793C451.942 146.239 451.399 145.799 451.032 145.322C450.586 144.742 450.195 144.112 449.826 143.493C449.6 143.115 447.749 139.955 448.033 139.744C447.039 140.483 445.995 141.251 444.687 141.491C444.524 141.521 443.689 141.575 443.643 141.741C443.271 143.069 443.085 144.598 443.15 146.172Z" fill="#FFBD81"/>
</g>
</g>
</g>
<g id="Group_41">
<path id="Vector_76" d="M465.134 176.799C465.037 175.904 464.898 174.995 464.78 174.091C464.604 173.179 464.445 172.267 464.233 171.351C463.887 169.849 463.464 168.304 462.883 166.757C460.935 167.697 459.068 168.013 457.832 168.108C458.25 169.213 458.636 170.35 458.95 171.502C459.397 173.143 459.778 174.82 460.113 176.506C460.189 176.934 460.226 177.147 460.302 177.574C462.263 177.6 463.243 177.613 465.203 177.64C465.177 177.358 465.164 177.08 465.134 176.799Z" fill="#FFBD81"/>
<path id="Vector_77" d="M463.233 165.901C462.767 164.756 462.175 163.545 461.467 162.384C461.106 161.792 460.732 161.198 460.257 160.597C460.044 160.303 459.769 159.986 459.513 159.681C459.187 159.323 459.031 159.124 458.375 158.548C457.438 157.724 455.933 157.359 454.871 157.723C454.223 157.944 453.875 158.558 453.82 159.209C453.765 159.86 453.964 160.551 454.192 161.223C454.709 162.745 455.515 164.177 456.15 165.674C456.379 166.124 456.59 166.589 456.786 167.067C457.018 167.635 457.244 168.214 457.465 168.797C458.993 168.679 461.301 168.288 463.71 167.126C463.556 166.718 463.399 166.307 463.233 165.901Z" fill="#0090C9"/>
</g>
<g id="Group_42">
<path id="Vector_78" d="M365.348 209.612C367.869 212.956 367.002 217.587 363.409 219.96C359.815 222.332 354.858 221.535 352.339 218.174C349.82 214.813 350.691 210.175 354.283 207.82C357.874 205.465 362.827 206.269 365.348 209.612Z" fill="#89C33F"/>
<g id="Group_43">
<path id="Vector_79" d="M361.388 212.897C361.459 212.317 361.495 212.027 361.566 211.448C359.913 211.43 356.758 211.396 355.104 211.377C354.798 213.347 354.644 214.333 354.337 216.308C356.055 216.325 359.243 216.358 360.961 216.375C361.032 215.794 361.069 215.505 361.14 214.924C361.803 215.512 362.139 215.806 362.818 216.394C363.033 214.421 363.139 213.435 363.353 211.467C362.576 212.039 362.183 212.325 361.388 212.897Z" fill="white"/>
</g>
</g>
<g id="Group_44">
<path id="Vector_80" d="M417.523 210.166C420.048 213.486 419.197 218.085 415.616 220.442C412.036 222.798 407.087 222.011 404.565 218.676C402.043 215.341 402.9 210.735 406.477 208.393C410.054 206.051 414.997 206.847 417.523 210.166Z" fill="#7FB8FA"/>
<g id="Group_45">
<g id="Group_46">
<path id="Vector_81" d="M410.985 215.646C411.999 215.656 412.824 215.002 412.818 214.194C412.811 213.198 412.807 212.699 412.8 211.703C412.794 210.896 411.987 210.228 411.007 210.218C410.027 210.208 409.215 210.859 409.202 211.666C409.186 212.662 409.179 213.161 409.163 214.158C409.151 214.967 409.97 215.637 410.985 215.646Z" fill="white"/>
<path id="Vector_82" d="M411.253 216.725C412.768 216.628 413.945 215.64 413.928 214.413C413.922 214.031 413.92 213.841 413.914 213.46C413.912 213.34 413.791 213.242 413.643 213.241C413.496 213.239 413.377 213.336 413.379 213.455C413.382 213.836 413.385 214.027 413.389 214.408C413.4 215.47 412.32 216.324 410.981 216.312C409.642 216.299 408.57 215.424 408.591 214.362C408.598 213.98 408.602 213.79 408.609 213.409C408.612 213.289 408.493 213.191 408.346 213.189C408.199 213.188 408.076 213.284 408.074 213.403C408.065 213.785 408.061 213.975 408.052 214.357C408.025 215.583 409.194 216.596 410.707 216.721C410.704 217.22 410.702 217.47 410.699 217.971C410.699 217.971 410.7 217.972 410.701 217.974C410.063 217.969 409.743 217.965 409.105 217.959C408.953 217.959 408.828 218.054 408.825 218.174C408.823 218.293 408.945 218.391 409.097 218.393C410.598 218.407 411.349 218.413 412.849 218.427C413.001 218.428 413.124 218.333 413.123 218.213C413.122 218.094 412.997 217.996 412.846 217.994C412.207 217.987 411.887 217.985 411.249 217.979C411.25 217.977 411.25 217.977 411.25 217.975C411.251 217.474 411.251 217.225 411.253 216.725Z" fill="white"/>
</g>
</g>
</g>
<g id="Group_47">
<path id="Vector_83" d="M391.449 209.893C393.971 213.224 393.112 217.839 389.525 220.204C385.939 222.57 380.987 221.777 378.467 218.429C375.947 215.082 376.812 210.46 380.396 208.111C383.979 205.763 388.926 206.562 391.449 209.893Z" fill="#F45B5B"/>
<path id="Vector_84" d="M388.018 214.893C387.582 214.68 387.363 214.573 386.927 214.361C386.569 214.187 386.199 214.328 386.121 214.668C386.045 214.994 386.007 215.157 385.932 215.482C385.34 215.299 384.6 214.943 383.768 214.225C383.075 213.627 382.673 213.045 382.435 212.551C382.751 212.399 382.909 212.324 383.225 212.172C383.529 212.026 383.591 211.62 383.359 211.286C383.075 210.88 382.935 210.676 382.651 210.269C382.429 209.95 382.022 209.821 381.744 209.982C381.571 210.083 381.398 210.183 381.224 210.284C380.947 210.445 380.727 210.613 380.608 210.928C380.525 211.147 380.551 211.372 380.605 211.629C380.895 213.027 381.698 214.377 382.86 215.379C384.637 216.911 386.193 217.26 387.115 217.305C387.636 217.33 388.059 217.052 388.205 216.583C388.307 216.257 388.358 216.094 388.46 215.768C388.558 215.453 388.361 215.06 388.018 214.893Z" fill="white"/>
</g>
</g>
</g>
</g>
<g id="MouseKey">
<g id="Group_48">
<g id="Group_49">
<path id="Vector_85" d="M498.624 303.232H346.125V307.813H498.624V303.232Z" fill="#E3E3E3"/>
<g id="Group_50">
<path id="Vector_86" d="M361.741 300.544H349.802V303.232H361.741V300.544Z" fill="#292B33"/>
<path id="Vector_87" d="M376.551 300.544H364.612V303.232H376.551V300.544Z" fill="#292B33"/>
<path id="Vector_88" d="M436.493 300.544H379.422V303.232H436.493V300.544Z" fill="#292B33"/>
<path id="Vector_89" d="M450.601 300.544H438.662V303.232H450.601V300.544Z" fill="#292B33"/>
<path id="Vector_90" d="M465.412 300.544H453.473V303.232H465.412V300.544Z" fill="#292B33"/>
<path id="Vector_91" d="M480.222 300.544H468.283V303.232H480.222V300.544Z" fill="#292B33"/>
<path id="Vector_92" d="M495.031 300.544H483.092V303.232H495.031V300.544Z" fill="#292B33"/>
<path id="Vector_93" d="M508.158 300.544H497.902V303.232H508.158V300.544Z" fill="#292B33"/>
<path id="Vector_94" d="M520.881 300.544H510.625V303.232H520.881V300.544Z" fill="#292B33"/>
</g>
</g>
<path id="Vector_95" d="M522.825 303.232H498.624V307.813H522.825V303.232Z" fill="#B0B0B0"/>
</g>
<path id="Vector_96" d="M562.783 297.194H553.076C547.446 297.194 542.881 301.759 542.881 307.389V307.814H572.978V307.389C572.978 301.759 568.413 297.194 562.783 297.194Z" fill="#808080"/>
</g>
</g>
<g id="Table">
<path id="Vector_97" d="M643.647 307.884H592.651H234.402C230.46 307.884 227.264 311.036 227.264 314.925H592.651H650.786C650.786 311.036 647.589 307.884 643.647 307.884Z" fill="#7FB8FA"/>
<path id="Vector_98" d="M592.651 314.925H227.264C227.264 318.814 230.46 321.966 234.402 321.966H592.651H643.647C647.589 321.966 650.786 318.814 650.786 314.925H592.651Z" fill="#618DBF"/>
</g>
</g>
<g id="DocChat">
<g id="Group_51">
<g id="Group_52" opacity="0.25">
<path id="Vector_99" d="M266.192 62.9546C242.213 66.8235 225.23 87.7205 225.579 111.307L207.019 123.599L229.438 129.59C237.93 149.562 259.196 161.96 281.584 158.347C307.925 154.097 325.835 129.297 321.584 102.955C317.333 76.6133 292.533 58.705 266.192 62.9546Z" fill="#2490BF"/>
</g>
<g id="Group_53">
<path id="Vector_100" d="M266.192 58.0009C242.213 61.8697 225.23 82.7667 225.579 106.353L207.019 118.646L229.439 124.637C237.93 144.609 259.196 157.007 281.584 153.395C307.925 149.144 325.835 124.344 321.584 98.0022C317.334 71.6595 292.533 53.7503 266.192 58.0009Z" fill="white"/>
</g>
</g>
<g id="Group_54">
<path id="Vector_101" d="M298.761 98.4913C298.761 90.6869 292.434 84.3593 284.629 84.3593C280.093 84.3593 276.067 86.5049 273.481 89.8271C270.895 86.5049 266.869 84.3593 262.333 84.3593C254.529 84.3593 248.201 90.686 248.201 98.4913C248.201 98.4913 245.994 111.083 267.598 130.469C270.99 133.513 276.111 133.581 279.556 130.596C287.28 123.905 299.538 111.198 298.761 98.4913Z" fill="#F45B5B"/>
<path id="Vector_102" d="M256.105 109.453H265.801L267.487 102.05L270.438 114.536L273.467 97.5759L276.55 114.536L279.29 101.932L281.187 109.453H290.25" stroke="white" stroke-width="0.875865" stroke-miterlimit="10" stroke-linecap="round" stroke-linejoin="round"/>
</g>
</g>
<g id="Doctor">
<g id="Group_55">
<path id="Vector_103" d="M92.0915 384.869C92.0785 383.332 92.0665 381.794 92.0387 380.257C92.0294 379.741 92.0118 379.225 92.0007 378.709C91.9674 377.168 91.934 375.628 91.8858 374.089C91.8692 373.571 91.8451 373.053 91.8265 372.535C91.7728 370.997 91.7191 369.46 91.6496 367.923C91.6255 367.391 91.5931 366.859 91.5671 366.328C91.493 364.805 91.4198 363.283 91.3309 361.762C91.2994 361.227 91.2596 360.691 91.2262 360.156C91.1326 358.637 91.0391 357.119 90.9297 355.602C90.8955 355.119 90.8528 354.639 90.8167 354.156C90.6991 352.587 90.5805 351.017 90.4471 349.449C90.4081 348.992 90.3618 348.536 90.322 348.079C90.1821 346.489 90.0403 344.897 89.8838 343.308C89.8347 342.81 89.7772 342.312 89.7272 341.814C89.5697 340.266 89.4113 338.719 89.238 337.172C89.1843 336.691 89.1222 336.21 89.0667 335.728C88.8869 334.167 88.7063 332.606 88.5108 331.047C88.4506 330.569 88.3829 330.092 88.3218 329.615C88.1207 328.053 87.9188 326.491 87.702 324.931C87.6344 324.447 87.5593 323.963 87.4908 323.478C87.2703 321.928 87.0498 320.378 86.8135 318.83C86.7366 318.325 86.6514 317.821 86.5727 317.316C86.3346 315.788 86.0965 314.261 85.8435 312.736C85.7676 312.279 85.6842 311.822 85.6064 311.365C85.3414 309.797 85.0746 308.228 84.7929 306.662C84.6947 306.117 84.5882 305.573 84.4881 305.027C84.2176 303.552 83.948 302.077 83.6627 300.604C83.5413 299.978 83.4107 299.355 83.2875 298.729C83.0123 297.339 82.7399 295.948 82.4518 294.559C82.3203 293.927 82.1794 293.296 82.046 292.663C81.7542 291.285 81.4651 289.907 81.1613 288.533C81.0241 287.914 80.8778 287.298 80.7388 286.68C80.4266 285.293 80.1153 283.905 79.7901 282.522C79.653 281.938 79.5066 281.356 79.3667 280.772C79.0286 279.359 78.6923 277.945 78.3411 276.536C78.1698 275.849 77.9882 275.165 77.814 274.479C77.4833 273.174 77.1544 271.869 76.8125 270.568C76.6356 269.894 76.4475 269.224 76.2668 268.55C75.9157 267.24 75.5674 265.928 75.2042 264.621C75.0096 263.921 74.8049 263.223 74.6066 262.524C74.2462 261.248 73.8886 259.971 73.5171 258.699C73.3059 257.976 73.0835 257.255 72.8686 256.532C72.498 255.287 72.1321 254.04 71.7504 252.799C71.5521 252.152 71.3437 251.508 71.1426 250.862C70.7341 249.549 70.3274 248.234 69.9068 246.925C69.6677 246.182 69.4185 245.443 69.1758 244.702C68.7811 243.494 68.3902 242.286 67.9853 241.082C67.6379 240.049 67.2775 239.021 66.9227 237.99C66.6095 237.082 66.3038 236.171 65.986 235.265C65.6062 234.185 65.2134 233.109 64.8261 232.031C64.5195 231.179 64.2193 230.323 63.908 229.473C63.5504 228.498 63.1807 227.528 62.8166 226.556C62.4618 225.607 62.1135 224.657 61.7522 223.711C61.351 222.661 60.9369 221.617 60.5283 220.57C60.1911 219.708 59.8613 218.843 59.5194 217.983C59.0969 216.921 58.6615 215.865 58.2316 214.807C57.8898 213.966 57.5553 213.123 57.2088 212.284C55.6431 208.497 54.0256 204.733 52.357 200.992C42.1411 178.085 29.8378 155.305 27.8006 130.198C27.4902 126.379 27.4263 122.511 28.0776 118.739C28.2879 117.523 28.5927 116.33 28.9558 115.157C24.6747 117.056 20.6697 119.561 17.8894 123.145C9.09092 134.487 7.55023 147.021 10.1721 160.691C14.5255 183.384 26.1024 204.164 35.4651 225.475C51.1295 261.131 60.7488 298.931 66.0833 337.126C67.4202 346.7 68.4874 356.307 69.3185 365.932C69.7826 371.307 68.5458 380.048 71.2964 385.286H92.0961C92.0952 385.147 92.0924 385.008 92.0915 384.869Z" fill="#292B33"/>
<path id="Vector_104" d="M27.7997 130.198C29.837 155.305 42.1412 178.084 52.3562 200.992C54.0247 204.733 55.6423 208.498 57.208 212.284C57.5545 213.123 57.8899 213.967 58.2308 214.807C58.6607 215.865 59.097 216.921 59.5186 217.983C59.8604 218.843 60.1903 219.708 60.5275 220.57C60.936 221.617 61.3502 222.661 61.7513 223.711C62.1126 224.657 62.461 225.608 62.8158 226.556C63.1799 227.528 63.5505 228.498 63.9072 229.473C64.2194 230.323 64.5186 231.178 64.8253 232.031C65.2125 233.109 65.6063 234.185 65.9852 235.265C66.3039 236.171 66.6096 237.082 66.9218 237.99C67.2767 239.021 67.637 240.049 67.9845 241.082C68.3893 242.285 68.7794 243.494 69.175 244.702C69.4177 245.444 69.6669 246.182 69.9059 246.925C70.3265 248.234 70.7332 249.549 71.1418 250.862C71.3428 251.507 71.5513 252.151 71.7496 252.799C72.1303 254.041 72.4972 255.287 72.8678 256.532C73.0827 257.255 73.3051 257.976 73.5163 258.699C73.8878 259.971 74.2445 261.248 74.6058 262.524C74.8031 263.223 75.0088 263.921 75.2034 264.621C75.5665 265.928 75.9149 267.239 76.266 268.55C76.4467 269.223 76.6338 269.894 76.8117 270.568C77.1545 271.87 77.4824 273.174 77.8132 274.479C77.9873 275.165 78.1689 275.849 78.3403 276.536C78.6914 277.945 79.0277 279.359 79.3659 280.772C79.5058 281.356 79.6522 281.937 79.7893 282.522C80.1145 283.906 80.4248 285.293 80.738 286.68C80.8769 287.298 81.0233 287.914 81.1604 288.533C81.4643 289.908 81.7534 291.285 82.0452 292.663C82.1786 293.296 82.3203 293.926 82.451 294.559C82.7391 295.947 83.0115 297.339 83.2866 298.729C83.4098 299.355 83.5414 299.979 83.6618 300.605C83.9463 302.077 84.2168 303.552 84.4873 305.027C84.5874 305.573 84.6939 306.117 84.7921 306.663C85.0737 308.228 85.3396 309.797 85.6055 311.365C85.6824 311.823 85.7667 312.279 85.8427 312.736C86.0956 314.261 86.3337 315.788 86.5718 317.316C86.6506 317.821 86.7358 318.325 86.8127 318.83C87.0489 320.378 87.2694 321.928 87.4899 323.479C87.5585 323.963 87.6335 324.447 87.7012 324.931C87.9179 326.491 88.1199 328.053 88.321 329.615C88.3821 330.092 88.4497 330.569 88.5099 331.047C88.7054 332.606 88.8861 334.167 89.0658 335.728C89.1214 336.21 89.1835 336.691 89.2372 337.172C89.4105 338.719 89.5689 340.267 89.7264 341.814C89.7773 342.312 89.8338 342.81 89.8829 343.308C90.0395 344.898 90.1813 346.489 90.3212 348.079C90.361 348.536 90.4082 348.992 90.4462 349.449C90.5796 351.017 90.6982 352.587 90.8159 354.156C90.852 354.638 90.8946 355.12 90.9289 355.602C91.0382 357.12 91.1318 358.638 91.2254 360.156C91.2587 360.691 91.2986 361.226 91.3301 361.762C91.419 363.283 91.4922 364.806 91.5663 366.328C91.5922 366.86 91.6247 367.391 91.6488 367.923C91.7182 369.46 91.772 370.997 91.8257 372.535C91.8442 373.053 91.8683 373.571 91.885 374.089C91.9332 375.628 91.9675 377.169 91.9999 378.709C92.011 379.225 92.0286 379.741 92.0379 380.257C92.0657 381.794 92.0786 383.332 92.0907 384.869C92.0916 385.008 92.0944 385.147 92.0953 385.286H160.702C169.799 382.555 178.792 379.447 187.748 376.344C192.304 374.765 196.983 373.117 200.573 370.042C207.674 363.96 208.808 353.974 209.042 344.942C209.804 315.535 205.987 286.212 202.178 257.014C199.709 238.093 197.24 219.172 194.771 200.251C191.823 177.663 188.84 154.915 181.425 133.253C176.475 118.787 163.366 109.677 148.106 105.402C134.723 101.652 120.526 101.552 106.564 101.751C89.8765 101.989 72.9484 102.635 56.7587 106.782C49.5945 108.617 42.1643 110.504 35.2039 112.79C33.1259 113.473 31.009 114.246 28.955 115.157C28.5909 116.33 28.2861 117.522 28.0767 118.739C27.4254 122.511 27.4903 126.379 27.7997 130.198Z" fill="#373B4A"/>
<path id="Vector_105" d="M92.1092 386.427C92.1166 387.951 92.1082 389.475 92.1008 391C92.1082 389.476 92.1166 387.951 92.1092 386.427Z" fill="#474A59"/>
<path id="Vector_106" d="M92.0915 384.869C92.0785 383.332 92.0665 381.794 92.0387 380.257C92.0665 381.794 92.0795 383.331 92.0915 384.869Z" fill="#474A59"/>
<path id="Vector_107" d="M91.2263 360.155C91.1327 358.636 91.0382 357.118 90.9298 355.601C91.0382 357.119 91.1318 358.637 91.2263 360.155Z" fill="#474A59"/>
<path id="Vector_108" d="M91.8256 372.534C91.7719 370.996 91.7182 369.459 91.6487 367.922C91.7172 369.459 91.7719 370.996 91.8256 372.534Z" fill="#474A59"/>
<path id="Vector_109" d="M91.9998 378.708C91.9664 377.167 91.9331 375.627 91.8849 374.088C91.9331 375.627 91.9664 377.168 91.9998 378.708Z" fill="#474A59"/>
<path id="Vector_110" d="M90.8158 354.156C90.6982 352.587 90.5796 351.017 90.4462 349.449C90.5805 351.016 90.6982 352.586 90.8158 354.156Z" fill="#474A59"/>
<path id="Vector_111" d="M90.321 348.08C90.1811 346.489 90.0394 344.897 89.8828 343.308C90.0394 344.897 90.1802 346.488 90.321 348.08Z" fill="#474A59"/>
<path id="Vector_112" d="M89.0648 335.727C88.885 334.166 88.7044 332.605 88.5089 331.046C88.7053 332.605 88.885 334.166 89.0648 335.727Z" fill="#474A59"/>
<path id="Vector_113" d="M79.3668 280.772C79.0286 279.359 78.6923 277.945 78.3412 276.536C78.6932 277.946 79.0295 279.359 79.3668 280.772Z" fill="#474A59"/>
<path id="Vector_114" d="M77.815 274.479C77.4842 273.174 77.1553 271.869 76.8135 270.568C77.1553 271.869 77.4833 273.174 77.815 274.479Z" fill="#474A59"/>
<path id="Vector_115" d="M62.8175 226.557C62.4627 225.608 62.1144 224.658 61.7531 223.712C62.1134 224.658 62.4618 225.608 62.8175 226.557Z" fill="#474A59"/>
<path id="Vector_116" d="M84.4872 305.027C84.2167 303.552 83.9471 302.077 83.6617 300.604C83.9471 302.078 84.2167 303.552 84.4872 305.027Z" fill="#474A59"/>
</g>
<path id="Vector_117" d="M326.828 283.173C338.03 281.372 350.373 283.082 361.512 284.961C364.318 285.435 367.174 285.924 369.695 287.161C371.619 288.104 373.275 289.449 374.865 290.827C377.254 292.896 393.051 306.023 386.399 308.237C383.894 309.07 381.784 306.386 379.856 305.277C374.257 302.057 367.52 297.262 360.947 296.149C355.839 295.285 349.77 295.635 344.782 296.781C343.779 297.012 342.597 297.46 342.474 298.409C342.42 298.826 342.6 299.239 342.808 299.613C345.236 303.967 349.958 302.742 354.415 303.77C354.933 303.89 355.467 304.029 355.872 304.35C356.994 305.242 356.49 307.024 355.401 307.942C353.031 309.939 348.747 310.356 345.65 310.14C339.354 309.702 333.404 307.108 327.796 304.599" fill="#FFBD82"/>
<path id="Vector_118" d="M322.719 278.217C322.719 278.217 324.734 277.919 331.714 279.056C331.714 279.056 331.694 300.755 326.709 304.525L320.356 303.21L322.719 278.217Z" fill="#00E3CC"/>
<path id="Vector_119" d="M320.456 275.083C304.928 272.003 289.199 270.104 273.455 268.548C261.277 267.338 249.402 264.941 237.251 264.286C236.032 264.22 234.687 264.099 233.844 263.215C233.242 262.583 233.027 261.687 232.834 260.836C229.392 245.568 226.393 230.172 221.896 215.166C218.204 202.847 213.401 185.462 203.575 176.37C196.196 169.542 186.759 168.882 181.84 179.067C179.558 183.795 179.821 189.311 180.306 194.538C182.147 214.372 186.507 233.965 193.198 252.725C196.469 261.897 200.297 270.869 204.661 279.574C208.267 286.77 211.132 295.405 217.322 300.794C223.088 305.813 229.027 304.638 235.925 305.013C243.261 305.411 250.565 304.85 257.9 305.079C269.357 305.436 280.817 305.882 292.281 305.769C297.477 305.717 302.672 305.665 307.867 305.614C310.55 305.587 313.233 305.561 315.916 305.534C318.383 305.51 320.171 306.113 321.552 304.114C326.142 297.465 326.572 285.913 325.716 278.228C325.651 277.643 325.562 277.028 325.195 276.569C324.734 275.992 323.954 275.802 323.231 275.648C322.309 275.455 321.383 275.267 320.456 275.083Z" fill="#C5D7D9"/>
<path id="Vector_120" d="M174.23 336.198C174.23 336.198 292.345 353.464 326.87 385.252H90.8233L86.7395 366.281L174.23 336.198Z" fill="#525666"/>
<path id="Vector_121" d="M178.238 167.371C177.229 169.334 176.039 171.193 174.548 172.815C169.829 177.946 162.757 178.317 156.18 178.056C153.011 177.93 149.815 177.516 146.868 176.346C143.232 174.903 140.144 172.353 137.681 169.289L136.836 183.131L144.159 243.938L144.623 365.979C152.967 365.435 160.159 364.343 166.806 362.594C169.266 361.946 173.812 353.383 173.812 353.383C173.812 353.383 178.487 358.671 180.701 357.679C184.252 356.088 187.768 354.251 191.363 352.149C191.363 352.151 189.336 210.794 178.238 167.371Z" fill="#00E3CC"/>
<g id="Group_56">
<path id="Vector_122" d="M171.7 183.99L166.69 180.309L160.416 180.273L156.118 184.404L160.25 192.663L168.334 192.188L171.7 183.99Z" fill="#0079A9"/>
<path id="Vector_123" d="M168.334 192.188L160.249 192.663L150.14 281.357L167.875 296.495L184.131 281.006L168.334 192.188Z" fill="#0090C9"/>
</g>
<path id="Vector_124" d="M134.731 154.235C134.731 154.235 134.995 151.326 158.285 150.309C158.285 150.309 175.545 149.764 179.082 154.345L175.192 173.324L163.02 177.927L135.858 161.207L134.731 154.235Z" fill="#05C9B1"/>
<g id="Group_57">
<path id="Vector_125" d="M175.055 151.041C174.38 145.662 173.856 139.68 174.281 136.253L134.621 136.762C134.621 136.762 136.253 141.876 137.348 148.404C142.103 152.427 148.358 154.744 154.626 155.159C161.633 155.623 168.621 153.924 175.055 151.041Z" fill="#E89C58"/>
<path id="Vector_126" d="M176.77 162.407C176.77 162.407 175.817 157.108 175.055 151.041C168.621 153.924 161.633 155.623 154.627 155.159C148.359 154.745 142.104 152.427 137.349 148.404C138.154 153.203 138.668 158.765 138.027 163.629L137.681 169.288C140.144 172.352 143.233 174.902 146.868 176.345C149.815 177.515 153.011 177.93 156.18 178.055C162.757 178.316 169.829 177.945 174.548 172.814C176.039 171.192 177.229 169.332 178.238 167.37C177.771 165.539 177.281 163.877 176.77 162.407Z" fill="#FFBD82"/>
</g>
<g id="Group_58">
<path id="Vector_127" d="M190.942 80.1114L190.75 79.7621C173.941 61.3054 149.459 59.9481 139.304 60.2706C136.97 60.3447 135.342 62.5858 135.952 64.8417C140.504 81.6845 135.101 93.9442 131.571 99.653C130.591 101.238 128.242 101.076 127.438 99.3954C121.647 87.3006 115.176 96.6457 115.176 96.6457C112.543 102.933 112.489 110.255 115.031 116.58C115.959 118.888 117.712 121.718 120.125 122.319C120.125 122.319 125.182 122.91 128.442 120.779C128.442 120.779 128.615 128.562 131.761 134.134C134.324 138.059 137.567 141.538 141.304 144.368C142.462 145.245 143.666 146.06 144.869 146.874C154.478 153.377 167.648 152.396 176.28 144.535C184.159 137.359 186.709 126.823 188.122 116.689C188.972 110.589 189.656 104.464 190.109 98.3207C190.335 95.2514 190.506 92.1775 190.613 89.1017C190.659 87.8296 191.519 81.766 190.942 80.1114Z" fill="#FFBD82"/>
<path id="Vector_128" d="M193.291 60.2493C194.778 60.1715 196.27 60.1872 197.755 60.2938C198.728 60.3632 200.318 60.5152 201.293 60.5059C202.203 60.4976 203.178 60.7755 204.093 60.6421C209.178 59.8982 203.165 52.9164 201.97 51.2238C200.145 48.6381 198.164 46.1617 196.021 43.8335C191.743 39.1855 186.803 35.1082 181.251 32.0686C180.919 31.887 180.584 31.7082 180.248 31.534C169.688 26.0605 157.756 25.1396 146.367 28.8028C139.991 30.854 135.012 33.952 129.673 37.9015C129.192 35.7864 128.712 33.6713 128.231 31.5553C127.992 30.5056 127.674 29.3402 126.745 28.7954C126.536 28.6731 126.292 28.5879 126.054 28.6259C125.6 28.6972 125.33 29.1651 125.166 29.5949C123.994 32.6745 124.958 36.1088 125.928 39.2578C125.143 37.3993 124.031 35.2769 122.032 35.0008C121.756 34.9628 121.446 34.9748 121.24 35.162C120.916 35.4557 121.026 35.98 121.172 36.3914C121.871 38.3545 122.804 39.6136 124.006 41.3164C117.623 42.0881 112.305 47.0557 109.656 52.9146C107.007 58.7734 106.65 65.4087 106.988 71.8299C107.47 80.9777 109.387 89.5455 115.175 96.6458C115.175 96.6458 121.647 87.3016 127.437 99.3955C128.241 101.076 130.591 101.238 131.57 99.653C135.1 93.9442 140.503 81.6845 135.951 64.8417C135.341 62.5867 136.969 60.3447 139.303 60.2706C149.458 59.9482 173.94 61.3064 190.749 79.7622L193.997 82.6703C194.928 83.5069 196.457 83.4819 197.162 82.3562C197.503 81.8124 197.606 81.1565 197.685 80.52C198.495 74.0154 198.217 65.1484 193.291 60.2493Z" fill="#9B5B30"/>
<g id="Group_59">
<path id="Vector_129" d="M120.125 122.319C120.392 123.709 120.66 125.1 120.926 126.49C121.486 129.399 122.603 133.766 125.621 135.015C127.921 135.966 129.717 135.413 131.648 133.96C131.685 134.019 131.723 134.076 131.761 134.134C128.615 128.561 128.442 120.778 128.442 120.778C125.182 122.908 120.125 122.319 120.125 122.319Z" fill="#9B5B30"/>
</g>
<g id="Group_60">
<path id="Vector_130" d="M167.954 96.7727C168.808 99.3195 169.618 101.882 170.376 104.459C171.158 107.03 171.904 109.613 172.625 112.203L173.689 116.091C173.777 116.402 173.867 116.761 173.917 117.201C173.965 117.627 173.947 118.203 173.651 118.743C173.347 119.283 172.913 119.572 172.581 119.775C172.245 119.961 171.939 120.122 171.606 120.271C168.99 121.491 165.963 121.727 163.279 120.932L163.444 120.069C166.032 120.267 168.592 119.758 170.794 118.613C171.33 118.335 171.976 117.938 171.969 117.827C172.052 117.745 172.004 117.224 171.803 116.557L170.781 112.674C170.111 110.083 169.467 107.484 168.859 104.874C168.228 102.271 167.646 99.653 167.111 97.0182L167.954 96.7727Z" fill="#C47149"/>
</g>
<path id="Vector_131" d="M184.645 95.674C184.535 97.3675 183.073 98.6516 181.379 98.5422C179.686 98.432 178.401 96.9701 178.511 95.2765C178.621 93.583 180.083 92.2989 181.777 92.4082C183.47 92.5185 184.754 93.9804 184.645 95.674Z" fill="#623421"/>
<path id="Vector_132" d="M160.986 94.1398C160.876 95.8333 159.414 97.1174 157.72 97.0081C156.027 96.8987 154.743 95.4359 154.852 93.7423C154.962 92.0488 156.424 90.7647 158.118 90.874C159.811 90.9834 161.095 92.4462 160.986 94.1398Z" fill="#623421"/>
<path id="Vector_133" d="M180.07 79.463C181.148 79.3611 182.204 79.6668 183.148 80.1309C184.094 80.6007 184.976 81.1704 185.758 81.8449C187.328 83.1799 188.528 84.9012 189.139 86.7699C189.216 87.0043 189.088 87.2572 188.854 87.3341C188.678 87.3915 188.491 87.3341 188.377 87.2016L188.372 87.1961C187.183 85.8194 185.78 84.7604 184.285 84.0119C183.533 83.6441 182.764 83.3439 181.98 83.1438C181.196 82.9381 180.443 82.7741 179.683 82.4323L179.587 82.3887C178.814 82.0413 178.468 81.1334 178.816 80.3607C179.048 79.841 179.54 79.5139 180.07 79.463Z" fill="#7F3A17"/>
<path id="Vector_134" d="M160.051 80.4357C159.253 80.6765 158.485 80.7423 157.68 80.8442C156.878 80.9415 156.077 81.1398 155.284 81.4075C153.704 81.9569 152.175 82.8259 150.819 84.0368L150.814 84.0414C150.629 84.2063 150.347 84.1896 150.183 84.0053C150.059 83.8672 150.037 83.6727 150.113 83.5143C150.962 81.7401 152.374 80.1883 154.103 79.0673C154.966 78.4994 155.914 78.0482 156.912 77.7045C157.908 77.3654 158.995 77.1996 160.05 77.4395C160.877 77.6276 161.394 78.4494 161.206 79.2758C161.08 79.8325 160.665 80.2495 160.156 80.4042L160.051 80.4357Z" fill="#7F3A17"/>
<path id="Vector_135" d="M171.013 130.287C171.694 129.205 170.992 127.781 169.703 127.673C158.79 126.758 152.824 124.461 149.918 122.903C148.893 122.354 147.676 122.986 147.455 124.052C152.112 127.445 160.444 131.825 171.013 130.287Z" fill="white"/>
<g id="Group_61">
<path id="Vector_136" d="M147.455 124.051C147.428 124.181 147.41 124.314 147.414 124.456C147.482 126.343 147.912 128.6 149.239 130.619C151.432 130.336 153.698 130.546 155.81 131.214C158.525 132.073 160.978 133.661 162.989 135.683C167.117 134.947 169.631 132.345 170.987 130.337C170.998 130.32 171.002 130.302 171.013 130.285C160.444 131.825 152.111 127.445 147.455 124.051Z" fill="#663731"/>
<path id="Vector_137" d="M149.239 130.62C150.704 132.85 153.266 134.789 157.697 135.61C159.704 135.982 161.455 135.958 162.989 135.684C160.978 133.662 158.525 132.075 155.81 131.216C153.698 130.547 151.433 130.336 149.239 130.62Z" fill="#FF737D"/>
</g>
<path id="Vector_138" d="M124.25 116.401C123.336 116.272 122.483 115.846 121.783 115.235C121.07 114.624 120.552 113.854 120.103 112.999C119.216 111.292 118.812 109.35 118.728 107.439C118.72 107.123 118.727 106.804 118.741 106.485C120.054 108.356 121.941 109.749 124.036 110.403C124.229 110.462 124.443 110.373 124.532 110.185C124.629 109.979 124.541 109.733 124.336 109.636C122.928 108.97 121.707 107.876 120.846 106.568C120.408 105.904 120.057 105.183 119.791 104.433C119.654 104.045 119.529 103.645 119.447 103.242C119.353 102.785 119.641 102.336 119.853 101.93C120.692 100.305 122.085 99.3029 124.064 99.1852C124.235 99.175 124.389 99.0601 124.439 98.8869C124.504 98.6664 124.378 98.4339 124.15 98.3672C123.104 98.0586 121.856 98.1161 120.782 98.6701C119.705 99.2121 118.879 100.149 118.375 101.153C117.861 102.162 117.557 103.224 117.368 104.285C117.184 105.346 117.106 106.424 117.161 107.503C117.259 109.654 117.885 111.762 118.951 113.632C119.972 115.499 121.907 117.165 124.194 117.221C124.401 117.227 124.582 117.077 124.612 116.867C124.644 116.643 124.488 116.435 124.25 116.401Z" fill="#C47149"/>
</g>
<path id="Vector_139" d="M150.573 366.798C150.244 380.509 102.142 377.037 86.8107 375.581C84.2315 375.337 82.3295 373.07 82.5277 370.487L96.4263 189.35C107.473 173.898 138.027 163.63 138.027 163.63C138.027 163.63 153.907 227.986 150.573 366.798Z" fill="#D0E1E3"/>
<path id="Vector_140" d="M176.77 162.408C178.015 170.818 189.507 316.904 185.735 357.61C185.528 359.85 187.505 361.683 189.722 361.301C196.099 360.202 207.837 357.386 215.847 350.757C217.749 349.183 218.773 346.792 218.746 344.324C218.475 319.577 213.949 183.724 176.77 162.408Z" fill="#D0E1E3"/>
<path id="Vector_141" d="M201.769 320.861C201.936 320.441 205.453 319.513 206.082 319.216C207.729 318.438 209.588 317.946 211.326 317.402C214.913 316.279 218.587 315.371 222.34 315.047C223.739 314.926 225.262 314.919 226.405 315.733C231.196 319.147 220.464 323.101 218.576 324.211C217.762 324.69 216.926 325.205 216.409 325.996C215.892 326.787 215.795 327.934 216.44 328.624C216.855 329.069 217.478 329.239 218.069 329.382C222.762 331.058 227.197 330.929 232.046 331.226C237.249 331.546 242.116 329.903 247.28 329.409C248.378 329.304 249.607 329.302 250.427 330.04C251.807 331.279 251.047 333.641 249.745 334.549C247.905 335.833 245.485 336.128 243.377 336.744C237.248 338.537 230.924 339.497 224.631 340.508C226.441 340.218 228.742 340.747 230.585 340.821C236.01 341.036 241.442 340.436 246.897 340.228C247.652 340.199 248.442 340.178 249.118 340.511C252.407 342.132 249.402 344.852 247.451 345.831C245.629 346.746 243.627 347.259 241.634 347.644C235.944 348.744 230.081 348.949 224.329 348.25C227.662 349.656 231.257 350.251 234.839 350.589C236.621 350.757 238.41 350.862 240.197 350.975C241.633 351.067 243.846 350.92 244.483 352.589C244.569 352.814 244.616 353.056 244.603 353.297C244.523 354.786 242.316 355.79 241.1 356.305C239.136 357.136 236.797 357.398 234.686 357.47C228.553 357.68 222.376 356.509 216.745 354.069C219.523 356.764 222.893 358.374 226.496 359.647C229.165 360.591 231.937 361.245 234.747 361.594C235.756 361.719 237.551 362.306 236.859 363.676C236.335 364.716 234.263 365.085 233.25 365.25C225.722 366.481 218.443 363.491 212.269 359.488C204.877 354.695 197.581 349.058 193.702 341.148L201.769 320.861Z" fill="#FFBD82"/>
<path id="Vector_142" d="M193.742 315.463C193.742 315.463 195.777 315.574 202.387 318.086C202.387 318.086 198.025 339.341 192.386 342.037L186.424 339.476L193.742 315.463Z" fill="#00E3CC"/>
<path id="Vector_143" d="M192.159 311.924C163.709 299.714 133.8 289.268 103.343 284.098C109.196 265.254 113.372 245.891 115.827 226.313C117.031 216.716 117.82 207.067 118.191 197.402C118.433 191.067 120.746 180.417 112.745 177.718C102.222 174.166 92.8281 188.996 88.9231 196.636C79.6058 214.861 75.9111 235.065 72.1766 254.954C70.7619 262.488 69.6465 270.083 68.1382 277.592C66.6615 284.941 65.7082 292.426 66.1584 299.933C66.2446 301.373 66.3752 302.839 66.9496 304.162C68.8377 308.505 73.6552 312.155 77.6371 314.429C82.5065 317.21 87.7373 318.655 92.9068 320.648C98.8463 322.938 105.113 324.298 111.346 325.684C127.043 329.172 142.691 333.319 158.407 336.366C163.508 337.356 168.608 338.344 173.709 339.334C176.343 339.844 178.977 340.356 181.611 340.866C184.033 341.336 185.664 342.285 187.417 340.603C193.246 335.006 195.978 323.775 196.677 316.073C196.73 315.488 196.766 314.867 196.499 314.344C196.162 313.686 195.436 313.344 194.759 313.049C193.894 312.672 193.027 312.296 192.159 311.924Z" fill="#E3F3F1"/>
<path id="Vector_144" d="M138.027 163.63C138.027 163.63 145.764 165.615 150.17 280.463L126.398 216.841L136.734 208.097L120.108 198.151C120.108 198.151 121.9 177.603 138.027 163.63Z" fill="#E3F3F1"/>
<path id="Vector_145" d="M176.969 162.421C176.969 162.421 180.915 203.987 184.593 279.636L197.357 212.928L185.701 206.041L197.759 192.664C197.759 192.664 192.313 165.813 176.969 162.421Z" fill="#E3F3F1"/>
<g id="Group_62">
<g id="Group_63">
<g id="Group_64">
<path id="Vector_146" d="M147.942 263.238L144.695 263.75C144.894 265.13 145.548 270.292 145.657 271.202C145.807 272.451 145.112 273.577 144.393 273.807L143.333 274.146C142.47 274.423 141.994 275.348 142.27 276.211C142.547 277.075 143.472 277.552 144.335 277.275L145.394 276.936C147.733 276.188 149.248 273.554 148.917 270.809C148.792 269.762 148.133 264.567 147.942 263.238Z" fill="#B8A9A9"/>
<path id="Vector_147" d="M143.679 278.07L140.929 278.691C139.585 278.994 138.321 278.344 138.12 277.246L137.886 275.968C137.685 274.871 138.62 273.724 139.964 273.421L142.714 272.8C144.058 272.497 145.322 273.146 145.523 274.245L145.756 275.523C145.958 276.621 145.023 277.768 143.679 278.07Z" fill="#1D2842"/>
</g>
<g id="Group_65">
<path id="Vector_148" d="M108.469 268.7L111.742 268.39C111.891 269.776 112.539 274.939 112.659 275.847C112.823 277.094 113.776 278.013 114.53 278.057L115.641 278.122C116.547 278.176 117.237 278.953 117.184 279.859C117.13 280.765 116.352 281.456 115.447 281.401L114.337 281.335C111.885 281.192 109.765 279.016 109.403 276.275C109.265 275.231 108.615 270.035 108.469 268.7Z" fill="#B8A9A9"/>
<path id="Vector_149" d="M116.281 282.011L119.099 281.929C120.476 281.889 121.54 280.946 121.462 279.833L121.371 278.537C121.293 277.424 120.103 276.546 118.725 276.585L115.908 276.667C114.53 276.707 113.467 277.65 113.545 278.764L113.636 280.06C113.713 281.172 114.903 282.051 116.281 282.011Z" fill="#1D2842"/>
</g>
<g id="Group_66">
<path id="Vector_150" d="M132.193 225.373C129.275 223.338 126.096 222.707 122.744 223.496C106.807 227.257 106.333 250.649 108.039 268.731C108.149 269.896 109.219 270.722 110.375 270.54C111.436 270.373 112.175 269.408 112.075 268.34C110.07 246.932 112.457 230.091 123.676 227.444C125.887 226.922 127.915 227.332 129.872 228.7C138.288 234.576 142.288 251.108 144.152 263.158C144.325 264.268 145.361 265.024 146.471 264.849H146.474C147.578 264.675 148.334 263.648 148.165 262.544C146.088 249.036 141.747 232.044 132.193 225.373Z" fill="#292B33"/>
</g>
<path id="Vector_151" d="M134.193 164.88C132.119 166.522 130.317 168.541 128.845 170.735C128.425 171.242 128.128 171.849 127.773 172.404C127.442 172.979 127.024 173.492 126.755 174.105C126.192 175.312 125.464 176.423 125.026 177.692C124.543 178.936 123.972 180.139 123.649 181.447L123.081 183.373L122.797 184.335L122.599 185.325L121.805 189.278L121.352 193.303C121.291 193.976 121.164 194.64 121.159 195.319L121.089 197.351L120.938 201.415L121.087 205.493L121.161 207.533L121.198 208.553L121.304 209.572C121.443 210.929 121.602 212.284 121.723 213.644L121.916 215.683L122.012 216.703L122.171 217.717C122.602 220.419 123.032 223.124 123.424 225.839L123.434 225.91C123.532 226.588 123.062 227.217 122.384 227.315C121.731 227.409 121.124 226.973 120.992 226.335C120.438 223.607 119.921 220.869 119.406 218.129C118.933 215.382 118.668 212.594 118.336 209.82L118.218 208.779L118.171 207.729L118.076 205.63L117.888 201.429L118.007 197.212C118.039 195.805 118.087 194.4 118.298 192.999L118.807 188.794L119.687 184.633L119.916 183.595L120.237 182.576L120.88 180.539C121.252 179.166 121.885 177.871 122.431 176.552C123.567 173.933 125.068 171.436 126.936 169.241C128.808 167.059 131.076 165.147 133.854 164.133C134.066 164.056 134.3 164.164 134.377 164.377C134.439 164.546 134.382 164.731 134.248 164.836L134.193 164.88Z" fill="#292B33"/>
</g>
<g id="Group_67">
<path id="Vector_152" d="M181.814 164.626C184.719 165.231 187.256 166.783 189.454 168.661C190.036 169.103 190.527 169.632 191.041 170.143C191.536 170.669 192.072 171.168 192.518 171.734L193.842 173.448L194.496 174.313L195.064 175.229C198.143 180.085 200.336 185.465 201.58 190.999C201.752 191.687 201.964 192.37 202.102 193.064L202.462 195.157L203.162 199.345L203.536 203.56L203.721 205.667C203.792 206.369 203.846 207.071 203.84 207.774C203.87 210.584 203.969 213.401 203.857 216.203C203.694 219.003 203.529 221.802 203.327 224.594C203.277 225.277 202.683 225.79 202 225.74C201.342 225.692 200.841 225.139 200.85 224.487L200.851 224.409C200.896 221.651 200.978 218.899 201.062 216.149C201.099 215.462 201.086 214.775 201.051 214.089L200.977 212.031C200.921 210.66 200.903 209.288 200.864 207.917C200.866 207.229 200.807 206.548 200.732 205.869L200.533 203.827L200.137 199.744L199.426 195.718L199.082 193.704C198.955 193.036 198.755 192.388 198.596 191.728C198.251 190.416 197.94 189.093 197.571 187.79L196.221 183.969C195.22 181.471 194.09 179.017 192.668 176.749L192.157 175.884L191.567 175.077L190.403 173.448C190.019 172.901 189.541 172.439 189.122 171.92C188.695 171.409 188.288 170.875 187.796 170.43C185.991 168.478 183.892 166.746 181.58 165.412L181.524 165.38C181.329 165.267 181.261 165.017 181.374 164.821C181.468 164.665 181.647 164.591 181.814 164.626Z" fill="#292B33"/>
<g id="Group_68">
<path id="Vector_153" d="M211.288 223.029C210.922 228.307 206.346 232.287 201.068 231.92C195.791 231.553 191.81 226.978 192.177 221.7C192.544 216.422 197.119 212.442 202.397 212.809C207.675 213.176 211.655 217.752 211.288 223.029Z" fill="#B0B0B0"/>
<path id="Vector_154" d="M209.137 222.88C208.853 226.969 205.307 230.055 201.218 229.77C197.129 229.486 194.045 225.94 194.329 221.851C194.613 217.761 198.159 214.676 202.248 214.961C206.338 215.244 209.422 218.791 209.137 222.88Z" fill="#E3E3E3"/>
<path id="Vector_155" d="M205.654 222.637C205.504 224.803 203.626 226.437 201.46 226.286C199.295 226.136 197.66 224.258 197.811 222.092C197.962 219.927 199.839 218.292 202.005 218.443C204.172 218.594 205.805 220.472 205.654 222.637Z" fill="black"/>
</g>
</g>
</g>
<path id="Vector_156" d="M134.731 154.235L132.725 165.992L149.666 189.588L163.02 177.928L134.731 154.235Z" fill="#00F5DC"/>
<path id="Vector_157" d="M163.02 177.928L175.238 186.021L183.423 165.321L179.083 154.346L163.02 177.928Z" fill="#00F5DC"/>
</g>
</g>
</svg>
