<svg width="831" height="514" viewBox="0 0 831 514" fill="none" xmlns="http://www.w3.org/2000/svg">
<g clip-path="url(#clip0_810_219)">
<path d="M635.924 508.158C625.29 498.858 618.831 484.166 620.524 469.864C622.218 455.562 632.71 442.414 646.319 439.376C659.928 436.339 675.442 444.747 679.575 458.506C681.85 431.978 684.471 404.339 698.098 381.748C710.437 361.292 731.808 346.655 754.969 344.037C778.13 341.418 802.516 351.308 816.961 370.229C831.406 389.15 834.942 416.657 824.826 438.38C817.373 454.383 803.643 466.292 789.256 475.981C742.77 507.025 687.015 519.649 632.251 511.531L635.924 508.158Z" fill="#B3E5F6"/>
<path d="M794.057 351.856C774.946 367.967 757.414 385.986 741.714 405.653C717.143 436.325 697.261 470.715 682.759 507.623C681.697 510.316 685.921 511.488 686.971 508.825C710.699 448.841 748.579 395.972 797.146 355.053C799.327 353.215 796.22 350.033 794.057 351.856Z" fill="white"/>
<path d="M267.382 505.631C281.988 492.857 290.86 472.679 288.533 453.034C286.206 433.39 271.796 415.331 253.104 411.159C234.412 406.988 213.104 418.535 207.427 437.434C204.302 400.998 200.702 363.035 181.985 332.006C165.038 303.91 135.685 283.807 103.873 280.21C72.0614 276.614 38.5676 290.197 18.7276 316.185C-1.11233 342.173 -5.97005 379.955 7.92532 409.791C18.1616 431.771 37.0203 448.128 56.7796 461.436C119.819 503.891 198.018 521.598 272.426 510.264" fill="#B3E5F6"/>
<path d="M50.1861 290.951C76.4349 313.079 100.515 337.829 122.079 364.84C143.647 391.824 162.634 420.91 178.776 451.689C187.798 468.954 195.903 486.717 203.054 504.897C204.512 508.595 198.71 510.205 197.268 506.548C184.602 474.496 168.93 443.807 150.479 414.92C132.118 386.138 111.102 359.267 87.7274 334.685C74.5066 320.788 60.5575 307.654 45.9434 295.342C42.9479 292.817 47.2154 288.447 50.1861 290.951Z" fill="white"/>
<path d="M596.215 512.845H247.746V142.786C247.746 64.0536 309.632 0 385.701 0H458.259C534.328 0 596.215 64.0536 596.215 142.786V512.845Z" fill="white"/>
<path d="M523.657 512.845H247.747V142.786C247.67 112.618 256.9 83.2116 274.092 58.8493C274.726 57.9553 275.358 57.0728 276.01 56.2C284.326 44.9115 294.222 34.97 305.371 26.7034C306.001 26.2291 306.634 25.763 307.275 25.2969C316.605 18.6146 326.697 13.1518 337.322 9.03312C337.953 8.7856 338.595 8.5376 339.238 8.29972C348.847 4.75039 358.808 2.31912 368.937 1.05079C369.565 0.962006 370.21 0.892531 370.854 0.823055C380.725 -0.269306 390.68 -0.269306 400.551 0.823055C401.194 0.892531 401.839 0.961998 402.474 1.05174C412.6 2.32015 422.559 4.75113 432.166 8.29976C432.808 8.53764 433.451 8.78563 434.084 9.03363C444.578 13.1004 454.551 18.4816 463.781 25.0572C464.422 25.5131 465.064 25.9792 465.697 26.4453C471.946 31.0626 477.817 36.2066 483.248 41.8247C487.603 46.3311 491.661 51.1346 495.396 56.2029C496.046 57.0729 496.678 57.9554 497.31 58.848C514.503 83.2105 523.733 112.617 523.657 142.786V512.845Z" fill="#B3E5F6"/>
<path d="M501.222 347.331C509.658 347.331 516.497 340.253 516.497 331.521C516.497 322.789 509.658 315.711 501.222 315.711C492.785 315.711 485.946 322.789 485.946 331.521C485.946 340.253 492.785 347.331 501.222 347.331Z" fill="#4793C1"/>
<path d="M567.668 501.761H555.963L550.395 455.034L567.67 455.035L567.668 501.761Z" fill="#FFB8B8"/>
<path d="M547.602 498.299H570.175V513.01H533.39C533.39 511.078 533.757 509.165 534.472 507.38C535.186 505.595 536.233 503.974 537.552 502.608C538.872 501.242 540.439 500.158 542.163 499.419C543.888 498.68 545.736 498.299 547.602 498.299Z" fill="#2F2E41"/>
<path d="M625.905 501.761H614.201L608.632 455.034L625.907 455.035L625.905 501.761Z" fill="#FFB8B8"/>
<path d="M605.841 498.299H628.414V513.01H591.628C591.628 511.078 591.996 509.165 592.71 507.38C593.424 505.595 594.471 503.974 595.791 502.608C597.111 501.242 598.677 500.158 600.402 499.419C602.126 498.68 603.974 498.299 605.841 498.299Z" fill="#2F2E41"/>
<path d="M508.952 334.653C508.11 333.369 507.55 331.91 507.312 330.377C507.074 328.845 507.163 327.278 507.574 325.785C507.984 324.292 508.706 322.911 509.688 321.739C510.67 320.566 511.889 319.63 513.258 318.998L553.046 205.493L572.624 216.552L527.195 325.021C528.069 327.472 528.044 330.17 527.125 332.604C526.205 335.037 524.455 337.037 522.207 338.224C519.958 339.411 517.367 339.703 514.924 339.045C512.481 338.387 510.356 336.824 508.952 334.653Z" fill="#FFB8B8"/>
<path d="M619.927 355.981C618.626 355.209 617.505 354.151 616.642 352.882C615.779 351.613 615.195 350.164 614.931 348.636C614.668 347.108 614.732 345.539 615.117 344.04C615.503 342.54 616.202 341.146 617.165 339.957L604.839 219.888L627.12 220.942L632.242 339.045C634.066 340.851 635.187 343.287 635.391 345.891C635.596 348.496 634.871 351.087 633.353 353.175C631.834 355.262 629.629 356.701 627.155 357.218C624.68 357.735 622.109 357.295 619.927 355.981Z" fill="#FFB8B8"/>
<path d="M584.382 184.47C597.332 184.47 607.831 173.604 607.831 160.2C607.831 146.796 597.332 135.93 584.382 135.93C571.432 135.93 560.934 146.796 560.934 160.2C560.934 173.604 571.432 184.47 584.382 184.47Z" fill="#FFB8B8"/>
<path d="M619.777 328.674H549.084L549.169 328.105C549.296 327.254 561.768 242.691 552.57 215.026C551.646 212.307 551.728 209.331 552.797 206.671C553.867 204.011 555.85 201.854 558.364 200.616C571.512 194.207 596.751 186.316 618.053 205.467C621.187 208.331 623.635 211.911 625.202 215.923C626.77 219.936 627.414 224.271 627.084 228.585L619.777 328.674Z" fill="#0075BC"/>
<path d="M562.661 255.188L530.834 248.505L545.752 211.914C546.645 208.37 548.86 205.337 551.91 203.481C554.96 201.625 558.598 201.096 562.024 202.012C565.45 202.927 568.386 205.212 570.187 208.364C571.987 211.517 572.507 215.28 571.631 218.829L562.661 255.188Z" fill="#0075BC"/>
<path d="M603.424 267.596L601.511 222.2C600.06 213.666 604.78 205.599 612.039 204.28C619.3 202.966 626.39 208.885 627.847 217.482L635.039 259.9L603.424 267.596Z" fill="#0075BC"/>
<path d="M617.426 323.24C628.801 368.079 630.042 425.087 626.973 487.271L611.698 485.295L584.011 366.718L568.736 487.271L551.551 486.283C546.417 421.037 541.418 365.023 549.642 328.181L617.426 323.24Z" fill="#2F2E41"/>
<path d="M599.834 178.956C595.46 183.779 587.336 181.19 586.766 174.601C586.721 174.09 586.724 173.575 586.776 173.064C587.07 170.145 588.699 167.496 588.309 164.414C588.22 163.647 587.944 162.916 587.507 162.291C584.021 157.459 575.838 164.452 572.548 160.078C570.531 157.396 572.902 153.174 571.354 150.176C569.311 146.22 563.259 148.172 559.464 146.005C555.242 143.595 555.494 136.889 558.274 132.811C561.664 127.837 567.607 125.183 573.476 124.8C579.345 124.418 585.174 126.06 590.653 128.27C596.879 130.781 603.053 134.252 606.884 139.918C611.543 146.808 611.992 156.072 609.661 164.129C608.244 169.03 603.406 175.018 599.834 178.956Z" fill="#2F2E41"/>
<path d="M801.749 611.477H97.0985C96.7976 611.438 96.5094 606.143 96.297 596.753C96.0846 587.364 95.9653 574.646 95.9653 561.386C95.9653 548.126 96.0846 535.408 96.297 526.018C96.5094 516.628 96.7976 511.333 97.0985 511.295H801.749C802.05 511.333 802.338 516.628 802.55 526.018C802.763 535.408 802.882 548.126 802.882 561.386C802.882 574.646 802.763 587.364 802.55 596.753C802.338 606.143 802.05 611.438 801.749 611.477Z" fill="#3F3D56"/>
<path d="M447.758 405.632H323.646C322.012 405.641 320.44 404.979 319.277 403.791C318.114 402.602 317.453 400.985 317.44 399.293V112.565C317.453 110.873 318.114 109.255 319.277 108.067C320.44 106.878 322.012 106.216 323.646 106.225H447.758C449.393 106.216 450.964 106.878 452.127 108.067C453.291 109.255 453.951 110.873 453.964 112.565V399.293C453.951 400.985 453.291 402.602 452.127 403.791C450.964 404.979 449.393 405.641 447.758 405.632Z" fill="white"/>
<path d="M453.964 199.001H317.44V200.978H453.964V199.001Z" fill="#CCCCCC"/>
<path d="M454.442 311.758H317.919V313.735H454.442V311.758Z" fill="#CCCCCC"/>
<path d="M362.312 106.225H360.402V406.62H362.312V106.225Z" fill="#CCCCCC"/>
<path d="M410.048 106.225H408.139V406.62H410.048V106.225Z" fill="#CCCCCC"/>
</g>
<defs>
<clipPath id="clip0_810_219">
<rect width="830.596" height="513.971" fill="white"/>
</clipPath>
</defs>
</svg>
