<svg width="673" height="737" viewBox="0 0 673 737" fill="none" xmlns="http://www.w3.org/2000/svg">
<path d="M129.217 437.633C93.4297 488.23 53.1077 526.241 68.484 593.783C74.2439 619.087 84.0423 644.44 87.4799 670.169C89.1752 682.859 95.7681 709.606 94.061 725.841H600.032C571.354 695.127 557.298 639.669 559.223 600.956C561.538 554.368 593.384 522.457 613.211 482.987C623.195 463.112 630.142 439.14 628.001 416.687C625.511 390.578 606.069 369.151 595.448 345.568C572.435 294.47 566.141 246.982 566.854 192.332C568.116 95.6296 490.965 62.8552 405.987 55.3237C358.166 51.0853 310.16 52.1033 262.776 45.3515C220.834 39.375 180.159 30.5295 137.698 28.5909C93.5433 26.5754 58.1537 38.9467 47.5346 83.9653C37.4333 126.792 52.1722 162.716 72.3537 200.449C111.847 274.283 188.295 354.107 129.217 437.633Z" fill="#8BC9E7"/>
<path d="M0 725.439C0 731.824 150.579 737 336.327 737C522.076 737 672.655 731.824 672.655 725.439C672.655 719.053 522.076 713.877 336.327 713.877C150.579 713.877 0 719.053 0 725.439Z" fill="#0075BC"/>
<path d="M205.079 718.796C208.616 710.987 206.864 697.925 207.308 687.838C207.623 680.66 208.34 661.759 209.235 656.031L193.351 673.474C192.747 678.326 191.997 698.001 193.163 716.909L205.079 718.796Z" fill="#FF9A72"/>
<path d="M204.494 701.92C208.47 696.179 212.07 707.407 212.968 709.996C214.034 713.074 219.743 714.143 221.77 716.121C225.342 719.608 231.76 720.411 228.778 728.529C215.705 729.814 199.253 729.508 190.951 726.927C187.379 725.816 189.548 716.46 191.89 707.42C193.085 702.805 196.886 712.91 204.494 701.92Z" fill="white"/>
<path d="M248.487 397.579C246.282 401.446 242.349 404.27 241.909 409.805C238.781 449.023 230.036 539.067 223.329 607.071C218.751 653.545 215.118 689.723 214.884 692.357C213.118 693.932 201.886 691.944 199.546 691.869C197.803 691.814 189.194 692.77 187.88 691.499C187.076 682.548 179.505 419.299 179.179 398.395C179.173 398.134 179.173 397.857 179.168 397.58L248.487 397.579Z" fill="#006B6B"/>
<path d="M283.129 719.216C286.459 711.316 284.363 698.304 284.541 688.209C284.667 681.026 284.885 662.113 285.629 656.362L270.209 674.218C269.733 679.085 269.503 698.773 271.167 717.643L283.129 719.216Z" fill="#FF9A72"/>
<path d="M282.1 702.36C285.923 696.517 289.819 707.645 290.784 710.21C291.93 713.258 297.666 714.177 299.744 716.101C303.406 719.492 309.844 720.126 307.077 728.32C294.043 729.949 277.588 730.078 269.221 727.716C265.62 726.699 267.543 717.289 269.645 708.191C270.718 703.546 274.784 713.548 282.1 702.36Z" fill="white"/>
<path d="M291.344 620.431C289.639 658.211 288.34 686.778 288.34 691.661L261.369 693.23C255.139 658.9 244.538 507.821 239.981 441.18C238.786 423.713 238.009 412.052 237.835 409.804C237.662 407.501 238.792 398.252 238.65 395.954C238.227 388.992 232.219 392.603 232.617 385.803C232.893 381.045 235.451 375.566 235.94 370.71C236.07 369.434 236.06 368.201 235.82 367.033L238.373 367.951L245.331 370.455L298.931 390.246C301.087 403.564 295.178 535.357 291.344 620.431Z" fill="#006B6B"/>
<path d="M291.343 620.431C289.638 658.211 288.34 686.778 288.34 691.661L261.369 693.23C255.138 658.9 244.538 507.821 239.98 441.18C244.032 430.676 241.301 415.159 246.612 405.79C249.208 439.86 252.082 473.908 255.801 508.163C258.115 529.534 260.924 550.711 264.758 571.708C267.484 586.606 269.44 604.491 281.008 615.896C284.668 619.503 288.014 620.589 291.343 620.431Z" fill="#00504E"/>
<path d="M223.329 607.07C218.751 653.545 215.118 689.722 214.884 692.356C213.118 693.931 201.886 691.944 199.546 691.868C197.803 691.813 189.194 692.77 187.88 691.499C187.076 682.547 179.505 419.299 179.179 398.394C179.173 398.133 179.173 397.857 179.168 397.579H200.697C194.94 429.444 191.095 461.857 191.095 494.998C191.095 513.181 191.269 531.457 192.181 549.31C193.034 565.918 188.912 588.708 199.513 602.59C204.912 609.65 215.215 610.753 223.329 607.07Z" fill="#00504E"/>
<path d="M262.778 115.942C262.006 109.844 258.385 104.632 257.552 98.6905L241.606 89.8313C240.113 106.431 220.486 115.019 208.927 125.712C192.211 141.178 205.038 157.9 215.937 172.06C213.011 157.866 225.821 147.817 238.062 144.731C246.983 142.483 252.515 140.363 258.093 132.329C261.566 127.326 263.583 122.294 262.778 115.942Z" fill="#1F100D"/>
<path d="M269.389 400.021C272.001 372.174 277.538 328.324 277.579 310.725C277.677 268.375 269.317 256.828 275.524 227.01C275.779 225.786 276.27 225.313 276.848 225.175L313.92 230.824C316.211 262.348 313.323 281.025 312.952 292.49C312.152 317.243 296.051 370.839 284.628 400.022L269.389 400.021Z" fill="#FFA471"/>
<path d="M318.559 231.02C318.194 236.951 314.648 237.625 311.737 243.344C311.634 243.534 311.531 243.719 311.438 243.909C311.346 244.061 311.269 244.213 311.193 244.365C309.559 247.303 306.843 251.529 306.262 254.201C305.876 255.983 305.545 258.356 305.257 261.229C290.126 316.79 304.632 382.372 304.632 404.096C262.269 415.502 224.973 413.883 175.104 408.17C177.548 365.811 194.233 323.725 195.471 299.829C196.111 287.396 194.939 272.732 193.076 257.748C187.845 215.781 177.168 171.284 185.695 166.227C195.862 160.199 228.569 149.358 237.372 146.083C237.372 146.083 299.533 163.061 303.818 169.48C306.68 173.777 310.265 182.955 309.521 187.404C308.652 192.552 319.188 220.805 318.559 231.02Z" fill="#009CA9"/>
<path d="M210.521 402.465C207.909 374.618 202.372 330.768 202.331 313.169C202.232 270.819 210.593 259.272 204.386 229.454C204.131 228.23 203.64 227.757 203.063 227.618L165.991 233.268C163.7 264.792 166.586 283.469 166.958 294.933C167.759 319.686 183.859 373.282 195.281 402.465H210.521Z" fill="#FFA471"/>
<path d="M296.899 258.631C291.542 245.001 286.306 231.43 282.469 217.253C280.742 210.871 279.498 203.769 278.768 197.255C278.072 191.043 279.723 184.304 277.387 178.564L277.994 166.874C284.699 160.154 297.76 164.781 301.516 167.459C309.306 173.012 313.929 184.637 317.793 193.134C325.314 209.679 331.438 227.623 336.502 245.476L296.899 258.631Z" fill="#009CA9"/>
<path d="M270.667 210.964C250.294 171.299 233.497 159.678 228.025 146.859C233.096 142.876 236.215 138.919 239.399 133.596C240.539 131.693 241.644 129.758 242.708 127.797C246.641 120.557 249.925 113.015 252.597 105.226C252.652 105.064 252.705 104.896 252.76 104.733L281.068 127.497C276.204 134.854 270.992 146.412 273.243 154.714C273.549 155.849 280.899 159.522 280.89 159.712C280.736 162.219 272.019 178.359 270.667 210.964Z" fill="#FFA471"/>
<path d="M278.174 158.446C277.297 158.537 274.092 158.653 273.174 158.678C257.526 159.079 245.782 145.038 239.398 133.597C240.539 131.694 241.644 129.759 242.708 127.798C246.641 120.558 249.925 113.015 252.597 105.227C252.652 105.064 252.705 104.897 252.76 104.734L281.068 127.498C276.204 134.855 273.026 143.264 275.277 151.567C275.583 152.702 276.999 157.109 278.174 158.446Z" fill="#E07F4F"/>
<path d="M311.737 243.344C311.634 243.534 311.531 243.719 311.438 243.909C311.346 244.061 311.269 244.213 311.193 244.365C309.993 246.684 309.102 249.069 308.298 251.377C307.175 254.62 306.159 257.906 305.257 261.23C290.126 316.791 304.632 382.372 304.632 404.097C262.269 414.497 224.973 413.379 175.104 408.17C177.548 369.555 195.363 323.123 197.914 301.453C199.544 287.603 194.939 265.623 193.076 251.964C193.858 247.766 194.401 243.437 194.662 238.923C195.558 223.276 192.342 207.575 192.81 192.395C192.788 192.373 192.772 192.351 192.755 192.33C192.94 192.53 193.466 193.128 193.667 193.21C196.432 194.274 200.842 206.847 202.607 209.4C207.62 216.635 213.703 239.69 220.725 245.241C233.939 255.679 250.049 256.646 272.045 256.646C291.115 256.645 298.931 250.942 311.737 243.344Z" fill="#008287"/>
<path d="M196.812 260.162C199.575 245.785 202.242 231.488 203.6 216.87C204.211 210.288 204.298 203.096 204.019 196.579C203.753 190.363 201.363 184.086 202.596 178.016L199.546 163.779C192.74 158.496 179.643 169.392 176.737 172.74C170.71 179.681 168.722 191.283 166.961 200.438C162.889 221.618 162.261 236.48 160.35 254.935L196.812 260.162Z" fill="#009CA9"/>
<path d="M243.729 207.357C242.75 213.519 236.962 217.719 230.8 216.741C224.641 215.763 220.439 209.977 221.417 203.813C221.479 203.417 221.562 203.032 221.663 202.653C223.14 197.135 228.578 193.514 234.342 194.428C240.109 195.345 244.157 200.472 243.852 206.175C243.832 206.568 243.792 206.962 243.729 207.357Z" fill="#006695"/>
<path d="M243.852 206.175C242.375 211.695 236.937 215.316 231.172 214.401C225.408 213.486 221.357 208.359 221.663 202.653C223.139 197.135 228.578 193.514 234.341 194.428C240.109 195.345 244.158 200.472 243.852 206.175Z" fill="white"/>
<path d="M241.326 204.206C240.676 208.3 236.83 211.091 232.736 210.442C228.642 209.791 225.849 205.944 226.501 201.851C227.151 197.757 230.996 194.966 235.09 195.615C239.185 196.265 241.975 200.111 241.326 204.206Z" fill="#584F4F"/>
<path d="M238.151 203.702C237.778 206.042 235.579 207.638 233.239 207.267C230.899 206.895 229.303 204.695 229.675 202.355C230.046 200.015 232.245 198.418 234.585 198.792C236.925 199.162 238.523 201.361 238.151 203.702Z" fill="#393333"/>
<path d="M225.679 147.251C229.656 141.428 233.795 141.143 235.087 139.798C235.553 140.865 231.829 144.143 231.045 145.138C231.024 145.164 231.093 145.181 231.116 145.203C229.826 146.61 228.71 148.131 228.083 149.708C224.761 158.073 226.981 167.836 229.126 176.208C231.522 185.572 234.866 194.917 235.631 204.61C235.794 206.661 232.623 207.016 232.461 204.967C232.026 199.459 230.673 194.068 229.235 188.749C226.703 179.39 223.426 169.796 223.286 160.005C223.225 155.658 223.199 150.88 225.679 147.251Z" fill="#393333"/>
<path d="M287.913 167.917C287.225 165.5 285.929 163.26 284.543 161.183C282.906 158.733 281.463 157.961 279.443 155.821C278.302 154.613 277.016 153.899 275.73 152.834C275.889 154.145 276.817 156.455 277.813 158.083C278.348 158.606 280.889 160.419 282.374 162.618C283.655 164.513 284.821 166.537 285.449 168.75C285.909 170.359 288.372 169.527 287.913 167.917Z" fill="#393333"/>
<path d="M289.505 224.011C286.66 226.1 284.557 225.96 283.225 225.386C280.184 224.084 278.267 219.577 277.681 212.348C277.327 207.975 277.702 201.234 277.976 196.312C278.111 193.907 278.249 191.42 278.172 191.01C278.195 191.129 278.32 191.345 278.565 191.419L278.945 190.016C279.538 190.193 279.515 190.906 279.469 192.326C279.434 193.327 279.357 194.724 279.265 196.34C278.996 201.215 278.622 207.893 278.969 212.156C279.501 218.725 281.193 222.942 283.732 224.032C285.514 224.796 287.778 223.953 290.28 221.588L291.089 222.681C290.538 223.199 290.009 223.641 289.505 224.011Z" fill="white"/>
<path d="M293.865 219.941C294.516 221.102 293.853 222.919 292.382 224.002C290.909 225.081 289.188 225.014 288.535 223.853C287.884 222.693 288.547 220.873 290.02 219.794C291.491 218.713 293.211 218.78 293.865 219.941Z" fill="#171111"/>
<path d="M301.753 219.667C305.057 220.035 306.901 218.788 307.898 217.564C310.176 214.77 310.307 209.691 308.276 202.868C307.047 198.74 304.322 192.866 302.334 188.58C301.363 186.484 300.356 184.316 300.281 183.904C300.302 184.026 300.265 184.288 300.072 184.483L299.233 183.423C298.76 183.896 299.034 184.525 299.577 185.781C299.964 186.664 300.527 187.88 301.181 189.289C303.152 193.537 305.852 199.355 307.047 203.378C308.893 209.58 308.863 214.281 306.962 216.613C305.626 218.251 303.288 218.695 300.196 217.898L299.855 219.309C300.535 219.486 301.168 219.605 301.753 219.667Z" fill="white"/>
<path d="M296.386 218.322C296.209 219.715 297.451 220.999 299.159 221.188C300.868 221.379 302.395 220.403 302.571 219.009C302.747 217.613 301.506 216.333 299.798 216.141C298.09 215.953 296.562 216.928 296.386 218.322Z" fill="#171111"/>
<path d="M303.55 189.188C303.47 189.231 303.371 189.244 303.315 189.317C302.154 190.8 301.562 190.669 300.754 191.544C300.171 190.139 299.545 188.884 298.891 187.772C292.614 177.163 283.369 179.722 280.604 191.61C280.207 193.312 279.946 195.203 279.842 197.276C278.187 197.161 278.512 197.229 276.849 197.176C276.757 189.187 280.578 169.024 285.55 166.774C291.684 163.999 299.863 182.235 303.55 189.188Z" fill="#393333"/>
<g opacity="0.5">
<path d="M298.892 187.773C292.615 177.163 283.37 179.722 280.605 191.611C281.15 184.578 283.551 171.07 286.444 169.761C290.557 167.896 298.383 185.703 298.892 187.773Z" fill="#006695"/>
<path d="M299.461 190.075C299.504 190.126 299.535 190.195 299.557 190.275C299.892 191.737 299.76 191.269 299.461 190.075Z" fill="#FF9800"/>
</g>
<path d="M298.111 56.6556C284.533 40.0824 270.65 52.4569 255.082 49.9659L262.555 63.1318C272.426 62.1243 283.737 61.3869 290.664 69.706C297.045 77.3684 297.471 88.1731 297.268 97.8361C297.449 97.4749 297.723 96.7759 297.85 96.4413C299.448 92.2457 301.848 87.5219 303.603 81.3542C306.063 72.7104 303.998 63.8431 298.111 56.6556Z" fill="#3B211C"/>
<path d="M297.617 99.4286C297.225 91.1206 299.697 81.2198 296.747 73.2985C295.296 69.4028 290.721 64.859 287.532 62.1929C282.522 58.0072 277.303 53.1654 270.006 53.5851C263.618 53.9532 255.402 56.6875 249.689 59.9265C234.005 68.8156 229.489 90.9772 234.128 106.587C236.285 113.85 237.25 122.928 242.7 128.945C247.409 134.143 254.406 139.499 260.431 143.036C267.214 147.017 276.026 151.096 282.388 145.133C288.007 139.864 290.354 132.16 293.662 125.435C297.657 117.31 298.051 108.642 297.617 99.4286Z" fill="#FFA471"/>
<path d="M266.257 103.752C266.047 106.185 262.715 107.885 258.813 107.55C254.911 107.214 251.918 104.969 252.128 102.536C252.337 100.103 255.669 98.403 259.57 98.7382C263.473 99.074 266.467 101.319 266.257 103.752Z" fill="#241917"/>
<path d="M250.334 104.441L250.713 104.474C256.27 106.431 262.753 107.474 268.249 104.357C265.91 95.3316 250.587 94.3142 250.334 104.441Z" fill="#E07F4F"/>
<path d="M296.67 102.836C296.544 105.275 294.164 107.135 291.352 106.991C288.538 106.847 286.36 104.754 286.486 102.315C286.609 99.8765 288.99 98.0162 291.804 98.1602C294.615 98.3036 296.795 100.397 296.67 102.836Z" fill="#241917"/>
<path d="M284.938 104.291L285.219 104.306C289.339 105.992 294.134 106.722 298.146 103.345C296.311 94.4476 285.001 94.1689 284.938 104.291Z" fill="#E07F4F"/>
<path d="M274.051 119.254L273.848 119.614C277.212 123.49 282.485 122.578 283.92 117.378C280.757 119.847 277.863 119.45 274.051 119.254Z" fill="#E07F4F"/>
<path d="M250.633 93.6437C250.64 93.6368 250.647 93.6306 250.655 93.623C250.644 93.6256 250.636 93.6268 250.624 93.6281C250.551 93.6913 250.556 93.6963 250.633 93.6437Z" fill="#241917"/>
<path d="M268.862 91.8455C268.862 91.8455 258.607 85.7846 250.654 93.6227C254.255 92.992 256.738 93.0007 260.44 93.8189C262.964 94.3763 268.766 96.385 268.862 91.8455Z" fill="#241917"/>
<path d="M284.928 65.8018C284.087 66.9464 283.209 67.9912 282.307 68.944C269.894 82.0615 252.275 78.3426 248.734 87.3856C244.221 98.9196 239.073 108.442 227.597 112.86C231.194 105.164 225.648 96.6954 224.553 89.2962C223.381 81.37 224.386 71.3084 228.813 64.4709C228.829 64.4436 228.85 64.4194 228.87 64.3915C233.224 57.703 241.224 50.4596 248.98 49.0406C258.225 47.3503 266.639 48.9984 273.786 53.0723C280.064 56.6477 283.153 61.9079 284.336 64.3952C284.427 64.5938 284.509 64.7714 284.576 64.9315C284.821 65.4827 284.928 65.8018 284.928 65.8018Z" fill="#3B211C"/>
<path d="M299.443 92.2631C299.437 92.2576 299.429 92.252 299.422 92.2458C299.431 92.2458 299.438 92.2465 299.448 92.2465C299.52 92.2964 299.519 92.3026 299.443 92.2631Z" fill="#241917"/>
<path d="M283.645 93.303C283.645 93.303 291.303 85.7535 299.421 92.2459C296.252 92.1801 294.144 92.5718 291.142 93.9467C289.095 94.8853 284.515 97.758 283.645 93.303Z" fill="#241917"/>
<path d="M269.047 130.284C271.635 131.754 274.545 135.325 277.668 135.35C280.742 135.376 283.264 131.543 283.35 129.167L269.047 130.284Z" fill="#FF3C2B"/>
<path d="M285.364 129.324C283.548 127.955 284.215 126.381 281.935 127.013C279.54 127.676 278.781 127.565 276.791 127.165C274.111 126.627 269.136 128.969 266.473 129.968C269.959 130.517 274.661 130.641 276.059 130.644C278.945 130.648 282.914 130.499 285.364 129.324Z" fill="#FF2420"/>
<path d="M279.94 62.358C279.92 62.3487 279.899 62.3394 279.879 62.3301C279.885 62.3555 279.893 62.3803 279.899 62.4064C280.131 62.5827 280.144 62.5672 279.94 62.358Z" fill="#241917"/>
<path d="M294.424 74.4102C292.282 71.607 290.221 66.1773 288.711 62.816C284.633 53.7495 279.971 50.2386 270.261 49.4695L263.336 61.6912C274.71 60.5305 279.095 59.5962 283.467 69.6659C285.061 73.337 290.004 80.4718 294.594 80.4177C299.533 80.3588 301.276 77.1651 301.263 72.9943C300.711 76.3041 296.979 77.7542 294.424 74.4102Z" fill="#3B211C"/>
<path d="M285.185 63.6035C285.181 63.6153 285.176 63.6258 285.17 63.6376C285.18 63.629 285.189 63.6215 285.197 63.6128C285.31 63.4551 285.306 63.4514 285.185 63.6035Z" fill="#1F100D"/>
<path d="M285.168 63.6385C284.975 64.0811 284.782 64.51 284.576 64.9321C283.881 66.3853 283.126 67.718 282.307 68.9446C269.894 82.0621 252.275 78.3433 248.734 87.3862C244.221 98.9202 239.073 108.442 227.597 112.86C231.194 105.164 225.648 96.6961 224.553 89.2968C223.381 81.3706 224.386 71.309 228.813 64.4716C228.829 64.4443 228.85 64.42 228.87 64.3921C226.697 71.5672 227.572 78.3656 228.288 85.9591C228.986 78.0726 235.041 65.8204 243.018 63.0854C237.667 67.718 238.485 76.0291 237.931 82.3557C245.755 63.9017 271.5 75.2563 284.336 64.3958C284.619 64.155 284.898 63.9005 285.168 63.6385Z" fill="#1F100D"/>
<path d="M225.049 112.839C227.173 119.587 231.811 124.141 235.407 123.009C239.004 121.876 240.197 115.487 238.074 108.739C235.95 101.99 231.311 97.4372 227.715 98.5695C224.118 99.7017 222.924 106.091 225.049 112.839Z" fill="#FFA471"/>
<path d="M226.346 108.553C223.866 101.28 233.389 99.251 235.603 107.033C230.77 105.244 232.891 114.736 237.181 114.821L237.947 114.58C235.505 123.568 223.499 108.236 231.479 105.199C229.006 104.115 226.521 105.748 226.346 108.553Z" fill="#E07F4F"/>
<path d="M364.758 133.613C336.683 139.134 342.202 202.611 336.683 231.591C333.665 247.431 342.424 240.417 340.862 256.343C339.952 265.616 335.997 287.132 347.821 290.84C373.784 298.981 380.86 229.687 380.945 215.321L364.758 133.613Z" fill="white"/>
<path d="M334.032 214.634C338.924 224.184 327.448 285.624 334.194 297.171C340.568 308.078 352.915 303.356 359.869 297.296C369.826 288.619 372.283 273.373 378.362 261.584L334.032 214.634Z" fill="white"/>
<path d="M332.938 213.476L334.031 214.634C333.73 214.048 333.37 213.647 332.938 213.476Z" fill="white"/>
<path d="M311.154 197.782C297.644 195.453 314.32 215.649 316.848 213.049L325.303 215.257C327.949 210.542 317.066 198.8 311.154 197.782Z" fill="#FFA471"/>
<path d="M331.832 200.042C327.133 197.373 322.978 208.65 320.785 210.439L328.498 212.712C331.078 212.196 336.006 202.414 331.832 200.042Z" fill="#FFA471"/>
<path d="M332.897 223.569C333.199 224.172 332.954 224.905 332.351 225.207C331.749 225.508 331.016 225.264 330.713 224.662L302.859 168.994C302.558 168.391 302.802 167.658 303.404 167.356C304.008 167.054 304.742 167.299 305.043 167.902L332.897 223.569Z" fill="#171E21"/>
<path d="M355.311 168.321C355.173 180.453 352.473 192.704 353.087 205.525C353.738 219.107 351.991 233.622 353.24 246.771L361.52 248.841C361.521 221.395 355.311 195.89 355.311 168.321Z" fill="#EAE1DF"/>
<path d="M389.734 666.242C390.084 671.979 392.977 681.84 394.428 688.778C395.43 693.562 395.386 710.435 398.263 713.489C408.918 724.796 409.18 677.046 409.011 671.849L389.734 666.242Z" fill="#FF9A72"/>
<path d="M408.485 701.098L398.9 699.89C394.363 693.78 392.269 700.894 390.33 703.85C388.028 707.358 383.54 709.947 380.202 711.98C374.315 715.562 359.759 718.255 361.719 728.481C373.479 729.741 397.915 730.041 410.115 728.332C415.364 727.596 411.212 722.962 409.992 714.846C409.155 709.262 409.55 706.528 408.485 701.098Z" fill="white"/>
<path d="M379.64 573.16C379.9 581.25 381.669 598.901 383.767 617.911C387.039 647.552 391.11 680.506 391.504 685.681L408.969 685.838C413.622 664.139 417.105 641.583 421.061 620.178C423.296 608.076 425.585 595.766 427.284 583.35C430.471 560.096 431.601 536.465 426.477 513.097C422.648 495.63 428.814 445.884 429.126 427.437C429.437 409.218 421.102 416.611 428.447 400.252L379.391 426.944C380.785 440.568 381.025 454.273 382.136 468.104C385.528 510.159 378.241 530.151 379.64 573.16Z" fill="#005B89"/>
<path d="M383.768 617.911C387.039 647.552 391.11 680.506 391.504 685.681L408.969 685.838C413.622 664.139 417.105 641.583 421.061 620.178C423.296 608.076 425.585 595.766 427.284 583.35C426.008 587.183 424.547 590.938 422.885 594.594C415.899 609.961 402.998 621.905 386.635 618.62C385.695 618.43 384.735 618.196 383.768 617.911Z" fill="#004C6F"/>
<path d="M456.121 666.218C456.282 671.966 458.853 681.935 460.076 688.93C460.919 693.75 460.325 710.611 463.102 713.779C473.381 725.511 475.201 677.804 475.201 672.606L456.121 666.218Z" fill="#FF9A72"/>
<path d="M467.398 696.39C460.634 695.636 459.377 701.921 458.176 704.906C456.75 708.456 454.433 709.539 452.221 711.632C448.324 715.321 438.394 718.294 440.23 728.462C448.414 729.495 468.906 730.266 477.257 728.325C480.849 727.49 478.528 724.775 475.348 715.906C473.472 710.671 473.759 697.099 467.398 696.39Z" fill="white"/>
<path d="M437.509 472.303C443.1 514.067 436.881 534.501 440.534 577.342C441.456 588.15 444.429 603.55 447.323 618.712C449.952 632.495 452.517 646.081 453.416 655.845C454.135 663.665 455.066 679.47 456.157 687.909H475.736C479.24 665.942 481.537 643.197 484.357 621.57C486.259 607.001 488.218 592.132 489.167 577.202C490.508 556.142 489.83 534.959 484.136 514.322C479.397 497.134 481.822 453.145 481.164 434.712C480.516 416.507 473.702 418.351 480.172 401.54L432.607 431.395C434.715 444.903 435.673 458.568 437.509 472.303Z" fill="#005B89"/>
<path d="M447.322 618.712C449.951 632.495 452.517 646.081 453.415 655.845C454.135 663.664 455.066 679.47 456.157 687.909H475.736C479.24 665.942 481.536 643.197 484.356 621.57C486.259 607.001 488.218 592.131 489.166 577.201C479.65 600.445 464.334 621.73 447.322 618.712Z" fill="#004C6F"/>
<path d="M496.044 309.779C497.141 384.435 499.873 464.404 497.869 466.809C496.159 468.865 446.118 478.194 408.851 467.844C406.216 454.582 400.905 426.924 399.592 414.384C399.564 414.505 399.537 414.625 399.512 414.746C398.812 417.937 398.17 421.746 397.598 425.889C395.607 440.206 394.411 458.494 394.362 468.878C380.907 474.054 372.41 470.559 365.379 469.913C364.027 454.506 362.519 420.4 361.174 379.712C360.864 370.425 360.563 360.796 360.277 350.967C357.549 257.596 355.91 146.278 358.6 140.496C361.682 133.883 370.682 130.912 376.554 127.231C382.684 123.395 388.674 118.855 394.648 114.984L439.525 102.605L441.363 102.098C447.128 105.669 453.838 108.612 459.755 110.999C464.992 113.11 469.612 114.783 472.41 116.071C481.016 120.027 491.546 123.291 498.284 130.56C511.756 145.088 500.947 171.59 498.18 190.226C495.755 206.561 495.365 243.927 495.755 286.082C495.827 293.851 495.927 301.786 496.044 309.779Z" fill="white"/>
<path d="M448.208 106.688C441.467 116.437 434.805 126.524 428.057 136.591C419.174 149.839 410.128 163.055 400.517 175.427C396.004 164.505 392.885 152.057 390.774 139.51C389.973 134.766 389.318 130.005 388.786 125.307C388.169 119.904 387.721 114.585 387.402 109.465L415.744 79.5779L425.353 69.4456C424.852 70.5635 424.635 71.9949 424.635 73.6027C424.638 76.1626 425.204 79.1744 426.073 82.0969C427.259 86.0988 429.02 89.935 430.7 92.2329C435.119 98.269 442.478 102.582 448.208 106.688Z" fill="#FFA471"/>
<path d="M412.76 127.921C402.528 137.432 394.386 133.41 388.786 125.306C388.169 119.903 387.721 114.584 387.402 109.464L415.744 79.5772L424.635 73.602L424.662 73.5852C425.349 75.1998 425.863 78.2252 426.073 82.0962C426.778 95.0442 424.048 117.43 412.76 127.921Z" fill="#E07F4F"/>
<path d="M428.057 136.591C419.174 149.839 410.128 163.055 400.517 175.427C396.004 164.505 392.885 152.057 390.773 139.51C397.17 141.169 405.595 141.28 410.186 141.021C416.611 140.658 422.354 138.674 428.057 136.591Z" fill="#188AAF"/>
<path d="M459.996 110.378C459.916 110.582 459.834 110.789 459.754 111C456.819 118.52 452.617 129.646 448.994 136.742C447.148 140.361 445.402 145.909 441.352 146.613C438.033 147.192 433.383 143.376 430.057 143.059C429.654 151.028 437.054 153.754 430.496 160.571C425.01 166.273 405.335 176.57 402.583 183.982C393.612 208.131 393.737 334.721 399.511 414.746C398.812 417.937 398.17 421.746 397.598 425.889C385.523 337.792 392.891 193.421 396.863 182.823C402.393 168.082 434.018 113.894 439.524 102.606C440.128 101.378 440.417 100.657 440.331 100.55L459.996 110.378Z" fill="#EAE1DF"/>
<path d="M397.486 164.679C395.968 159.384 394.48 153.871 393.495 148.42C391.93 139.756 388.251 125.04 390.53 116.474L384.852 111.285C379.812 121.884 374.029 134.773 371.996 145.646C374.366 145.286 376.81 145.59 379.157 145.696C376.583 148.989 373.21 151.687 373.259 155.61C373.303 159.266 376.391 164.969 378.808 167.984C383.893 174.321 392.914 178.177 400.42 179.399C402.144 175.716 398.569 168.452 397.486 164.679Z" fill="#EAE1DF"/>
<path d="M369.281 29.3337H353.126C332.166 32.6261 351.492 60.1045 359.311 69.6304C357.099 54.8046 361.151 41.9211 369.281 29.3337Z" fill="#2A0905"/>
<path d="M422.58 61.8101C421.121 47.664 419.272 29.9859 409.465 18.4383C400.398 7.75968 378.469 7.82734 367.621 15.3426C364.046 17.8194 358.023 23.47 357.126 27.8344L353.129 35.8283C353.74 42.744 352.91 52.147 353.655 59.8119C354.405 67.532 357.028 73.4396 359.516 80.4074C364.489 94.3375 369.487 105.224 380.11 116.272C392.601 129.263 406.488 116.905 413.586 107.778C427.576 89.7893 424.16 77.1299 422.58 61.8101Z" fill="#FFA471"/>
<path d="M404.954 65.3765C404.596 67.6398 403.085 69.525 401.119 70.8273C396.831 73.6696 390.409 73.7441 389.186 68.9278C389.186 68.9278 390.714 64.6043 394.515 63.7043C395.086 63.5689 395.653 63.4404 396.21 63.3281C399.187 62.739 401.973 62.7117 404.954 65.3765Z" fill="#EEEEEE"/>
<path d="M396.21 63.3281C395.653 63.4405 395.086 63.569 394.515 63.7043C392.45 64.1928 391.058 65.6907 390.215 66.9588C390.937 68.3338 391.139 70.0309 390.824 71.5424C393.322 73.5517 397.843 72.9993 401.119 70.8273C400.735 69.6901 400.196 68.5157 399.503 67.3598C398.535 65.7453 397.392 64.3722 396.21 63.3281Z" fill="#20181A"/>
<path d="M393.86 61.539C390.057 62.4397 389.188 68.9264 389.188 68.9264C392.187 72.5186 403.528 67.9208 404.956 65.377C401.414 62.2094 397.491 60.6774 393.86 61.539Z" fill="#E07F4F"/>
<path d="M372.982 72.6243C373.018 74.7516 371.994 76.5021 370.487 77.697C367.2 80.3047 361.641 80.2668 359.846 75.7087C359.846 75.7087 360.511 71.659 363.671 70.875C364.147 70.7565 364.619 70.6454 365.084 70.5492C367.578 70.0433 369.991 70.0637 372.982 72.6243Z" fill="#EEEEEE"/>
<path d="M365.084 70.5491C364.619 70.6453 364.147 70.757 363.671 70.875C361.955 71.3014 360.976 72.69 360.438 73.87C361.274 75.1779 361.708 76.7807 361.665 78.1997C364.138 80.1345 367.976 79.6895 370.487 77.6969C369.981 76.6187 369.332 75.5026 368.556 74.402C367.472 72.8657 366.27 71.5522 365.084 70.5491Z" fill="#20181A"/>
<path d="M362.772 68.8232C359.612 69.6091 359.846 75.7072 359.846 75.7072C362.996 79.1418 372.134 74.9977 372.985 72.624C369.429 69.5818 365.79 68.0728 362.772 68.8232Z" fill="#E07F4F"/>
<path d="M386.35 62.7271C389.305 61.4391 392.322 60.3156 395.474 59.6346C398.564 58.9679 401.713 58.5204 404.874 58.4254C404.852 57.0455 404.831 55.6662 404.817 54.2863C400.942 53.5855 391.357 54.3167 388.482 55.4458C384.715 56.9251 385.084 59.0344 386.112 62.8407C386.191 62.8023 386.269 62.7613 386.35 62.7271Z" fill="#1B0C11"/>
<path d="M369.5 65.8731C367.116 65.5453 364.73 65.3932 362.362 65.7042C360.041 66.0084 357.732 66.5404 355.505 67.4107C355.175 66.091 354.842 64.7713 354.506 63.454C357.032 61.608 363.898 59.3901 366.184 59.5906C369.183 59.8537 369.455 61.9736 369.694 65.9085C369.63 65.896 369.564 65.8818 369.5 65.8731Z" fill="#1B0C11"/>
<path d="M381.784 93.9021C383.118 86.92 380.036 73.8826 380.036 73.8826C380.008 78.0018 380.054 82.1055 379.633 86.19C379.267 89.7437 378.055 93.1386 377.365 96.6855C381.451 98.3261 389.921 96.0852 391.797 92.2118C389.788 91.8654 385 92.2211 381.784 93.9021Z" fill="#E07F4F"/>
<path d="M373.945 101.05C373.945 101.05 374.042 101.131 374.222 101.281C374.405 101.424 374.675 101.627 375.037 101.854C375.398 102.08 375.856 102.318 376.39 102.555C376.929 102.786 377.551 103.004 378.24 103.195C379.618 103.576 381.28 103.839 383.038 103.857C383.476 103.856 383.921 103.848 384.363 103.812C384.813 103.776 385.222 103.713 385.718 103.635C386.593 103.475 387.536 103.254 388.435 102.973C389.343 102.701 390.236 102.371 391.102 102.01C391.967 101.645 392.804 101.249 393.596 100.829C395.18 99.9891 396.583 99.0586 397.693 98.1455C398.247 97.6886 398.735 97.2404 399.139 96.814C399.538 96.3851 399.859 95.9834 400.108 95.6364C400.347 95.2845 400.529 94.9959 400.634 94.7891C400.744 94.5812 400.802 94.4707 400.802 94.4707C400.802 94.4707 400.781 94.5948 400.743 94.8276C400.695 95.0585 400.618 95.4012 400.458 95.8202C400.296 96.2348 400.078 96.7414 399.745 97.2727C399.42 97.8078 399.008 98.3882 398.499 98.9698C397.488 100.137 396.112 101.322 394.487 102.355C393.677 102.873 392.805 103.355 391.886 103.781C390.97 104.213 390.004 104.578 389.018 104.885C388.021 105.182 387.031 105.417 385.98 105.558C385.511 105.619 384.96 105.681 384.453 105.683C383.941 105.692 383.439 105.678 382.95 105.633C381.973 105.548 381.046 105.37 380.187 105.14C379.327 104.906 378.537 104.613 377.834 104.285C377.131 103.959 376.52 103.588 376.008 103.224C375.494 102.862 375.091 102.487 374.783 102.163C374.47 101.844 374.274 101.548 374.135 101.357C374.01 101.157 373.945 101.05 373.945 101.05Z" fill="#E07F4F"/>
<path d="M420.909 66.5969C418.381 59.5584 407.388 40.0243 403.777 34.0714C399.12 26.3928 394 33.8355 388.757 36.8299C354.625 56.3144 346.301 38.3458 344.132 31.833C342.77 27.7355 345.981 22.8055 350.042 18.5777C353.123 15.3734 356.691 12.572 359.123 10.8464C374.609 -0.146346 396.108 -2.03837 411.086 1.85244C423.628 5.1107 429.8 13.0953 432.169 22.3853C437.072 41.5966 425.739 66.4008 420.909 66.5969Z" fill="#521A0D"/>
<path d="M420.909 66.597C418.381 59.5584 407.388 40.0243 403.777 34.0714C399.12 26.3929 394 33.8355 388.757 36.83C354.625 56.3144 346.301 38.3458 344.132 31.833C342.77 27.7355 345.981 22.8056 350.042 18.5777C350.585 20.3437 351.668 22.2221 353.516 24.3339C359.632 31.3296 369.019 29.8541 377.111 26.4692C384.106 23.5443 389.706 18.5473 397.597 18.9508C405.169 19.3375 410.373 22.3587 415.605 27.6579C415.969 23.9571 414.013 20.2097 411.761 17.3046C416.029 17.7745 422.358 21.0427 424.076 24.9062C425.495 22.5511 425.235 19.034 424.153 16.4058C427.025 19.0768 428.883 22.0651 430.436 25.6834C431.119 24.6231 431.688 23.5213 432.168 22.3854C437.072 41.5967 425.739 66.4008 420.909 66.597Z" fill="#2A0905"/>
<path d="M419.186 62.0729C418.723 63.6421 418.568 68.5863 418.568 68.5863C416.572 73.4821 419.685 83.1266 426.297 80.687C430.247 79.2295 432.926 71.4045 433.994 67.6546C438.327 52.4483 422.816 49.7413 419.186 62.0729Z" fill="#FFA471"/>
<path d="M421.332 66.9385C423.616 65.021 426.033 67.2426 425.622 69.9695C425.284 72.2141 420.447 72.3923 420.447 72.3923C422.551 74.866 427.701 74.627 429.18 70.2836C430.302 66.9937 427.058 60.255 423.238 63.7566C423.294 60.7112 428.008 56.029 430.794 59.0402C426.272 53.3014 418.711 61.3686 421.332 66.9385Z" fill="#E07F4F"/>
<path d="M409.986 208.198C409.986 210.903 408.438 213.095 406.53 213.095C404.62 213.095 403.072 210.903 403.072 208.198C403.072 205.494 404.62 203.301 406.53 203.301C408.438 203.301 409.986 205.494 409.986 208.198Z" fill="#EAE1DF"/>
<path d="M409.986 300.494C409.986 303.198 408.438 305.39 406.53 305.39C404.62 305.39 403.072 303.198 403.072 300.494C403.072 297.789 404.62 295.597 406.53 295.597C408.438 295.597 409.986 297.789 409.986 300.494Z" fill="#EAE1DF"/>
<path d="M409.986 375.385C409.986 378.089 408.438 380.281 406.53 380.281C404.62 380.281 403.072 378.089 403.072 375.385C403.072 372.68 404.62 370.488 406.53 370.488C408.438 370.488 409.986 372.68 409.986 375.385Z" fill="#EAE1DF"/>
<path d="M325.667 261.155L295.127 208.545L298.216 205.562L392.805 208.258L424.069 296.151L420.278 301.032L325.667 261.155Z" fill="#171E21"/>
<path d="M342.849 299.568L295.127 208.545L390.827 212.151L420.278 301.032L342.849 299.568Z" fill="#3A4950"/>
<path d="M496.044 309.78C470.218 318.339 422.334 300.22 406.723 289.55L495.754 286.083C495.827 293.851 495.927 301.786 496.044 309.78Z" fill="#EAE1DF"/>
<path d="M391.315 264.32C390.397 266.894 391.037 274.78 388.637 276.932C386.942 278.447 353.79 275.514 347.941 273.771C343.162 272.348 338.719 271.718 334.298 270.137C332.848 269.621 331.403 269.002 329.948 268.22C324.945 265.531 322.072 260.844 317.716 257.118C314.707 254.55 312.334 243.09 312.052 241.037C312.03 240.847 312.019 240.738 312.03 240.722C312.111 240.825 312.193 240.923 312.275 241.026C314.909 244.285 317.815 247.642 319.634 249.776C320.063 250.281 320.671 250.704 321.394 251.063C324.055 252.383 328.275 252.823 330.855 253.035C337.318 253.567 341.549 254.066 347.513 255.207C346.79 252.312 330.708 242.237 335.201 238.549C336.167 237.756 338.883 239.038 340.273 239.635C343.391 240.982 348.121 245.615 350.077 246.419C354.856 248.39 360.015 247.342 364.241 250.313C367.635 252.703 371.562 255.848 372.812 258.574L391.315 264.32Z" fill="#FFA471"/>
<path d="M498.484 277.457C492.05 252.732 470.861 254.038 449.384 256.378C438.247 257.592 389.021 264.745 383.833 258.827L376.41 286.471C379.217 286.455 431.578 297.476 453.769 299.805C465.801 301.068 476.763 301.032 488.966 300.974C496.538 300.937 504.28 297.765 505.388 290.239C506.163 284.975 499.724 282.221 498.484 277.457Z" fill="white"/>
<path d="M506.769 139.134C501.926 129.469 490.338 119.176 481.929 128.784C470.811 141.488 474.539 163.456 468.227 175.581L465.384 199.034C463.966 211.031 466.178 225.191 466.097 237.373C466.007 251.181 469.179 265.818 474.089 278.63C477.003 286.237 488.918 301.197 498.802 297.676C507.887 294.44 508.226 274.857 508.577 267.101C509.13 254.867 509.594 242.525 510.194 230.283C511.044 212.956 512.258 195.625 512.289 178.266C512.311 165.034 512.785 151.141 506.769 139.134Z" fill="white"/>
<path d="M492.293 272.781C491.145 264.05 483.714 250.653 475.03 247.46L479.86 160.522C477.791 172.942 474.34 188.811 473.65 207.441C473.139 221.249 467.404 246.047 464.68 249.53C460.273 255.168 413.029 258.852 404.652 261.26C417.608 262.647 467.95 255.554 472.098 257.983C475.98 260.257 479.546 268.242 481.79 272.093C481.104 266.146 478.241 260.549 475.132 255.157C481.341 259.031 490.195 265.198 492.293 272.781Z" fill="#EAE1DF"/>
<path d="M446.115 353.984C446.402 354.045 446.693 354.104 446.982 354.163C447.026 353.744 447.08 353.338 447.151 352.949L446.115 353.984Z" fill="#EAE1DF"/>
<path d="M446.982 354.163C445.836 365.249 453.954 386.007 467.626 388.368C485.967 391.536 485.929 365.366 487.309 353.052C475.695 357.207 459.549 356.715 446.982 354.163Z" fill="#EAE1DF"/>
<path d="M368.272 348.912C367.333 357.302 367.054 372.119 361.172 379.713C360.862 370.425 360.562 360.797 360.275 350.968C363.097 350.478 365.788 349.801 368.272 348.912Z" fill="#EAE1DF"/>
</svg>
