<svg width="686" height="590" viewBox="0 0 686 590" fill="none" xmlns="http://www.w3.org/2000/svg">
<path d="M160.464 25.6191C183.444 -13.1222 248.292 -0.700098 299.35 24.917C349.755 50.6862 386.37 89.6504 419.505 122.542C452.64 155.434 482.044 182.655 533.372 216.814C584.852 251.626 657.852 293.124 678.871 346.393C699.89 399.661 668.926 464.7 622.289 508.266C575.804 552.485 513.797 575.884 457.294 565.304C400.541 555.125 349.695 511.217 291.273 518.981C232.85 526.745 166.601 586.584 117.613 589.052C68.6259 591.519 36.0956 536.115 16.8296 480.029C-2.43644 423.942 -8.68864 367.576 20.5705 327.716C49.5793 288.258 113.849 265.708 136.29 209.884C158.329 153.809 138.136 64.2083 160.464 25.6191Z" fill="#B3E5F6"/>
</svg>
