<svg width="565" height="656" viewBox="0 0 565 656" fill="none" xmlns="http://www.w3.org/2000/svg">
<path d="M460.297 4.27349C503.721 14.6575 543.369 46.2815 558.001 87.3455C572.633 128.409 562.721 178.913 542.897 217.617C522.601 256.321 492.865 283.225 488.145 341.753C483.897 400.281 504.193 490.433 480.593 553.681C456.993 617.401 389.497 654.689 321.529 655.633C253.089 656.577 184.649 621.177 120.457 581.057C56.7372 540.937 -2.73476 495.625 0.0972381 436.153C2.92924 376.681 67.1212 302.577 78.9212 235.553C90.2492 168.529 49.1852 108.113 59.5692 70.8255C69.9532 33.5375 131.313 19.8495 183.705 14.6575C236.097 9.46548 279.049 12.7695 324.361 8.99349C369.201 5.21749 416.873 -6.11051 460.297 4.27349Z" fill="#65AED8"/>
</svg>
