<svg width="174" height="204" viewBox="0 0 174 204" fill="none" xmlns="http://www.w3.org/2000/svg">
<path d="M110.141 83.6952C106.82 83.6952 104.174 83.055 102.047 82.0684C98.866 80.595 96.8051 78.3244 95.5082 76.0574C94.8618 74.9303 94.4143 73.8095 94.1331 72.8229C93.852 71.8395 93.7412 70.9737 93.7444 70.4574C93.7444 69.4709 92.9474 68.6738 91.9642 68.6738C90.9811 68.6738 90.1837 69.4709 90.1837 70.4574C90.1837 71.098 90.2623 71.8038 90.4192 72.581C90.6932 73.9433 91.2026 75.5113 92.0425 77.1349C93.2933 79.556 95.2859 82.1006 98.2648 84.0284C99.0129 84.5217 99.8126 84.9626 100.682 85.355C100.819 85.9459 101.011 86.9817 101.009 88.2395C101.009 89.1506 100.907 90.1638 100.633 91.2059C100.358 92.2481 99.9111 93.3065 99.1924 94.3419C98.6404 95.1553 98.8366 96.2594 99.6463 96.8182C100.453 97.377 101.561 97.1781 102.119 96.3678C103.092 94.9659 103.71 93.5059 104.076 92.1174C104.438 90.7254 104.565 89.3992 104.565 88.2395C104.565 87.6613 104.533 87.1156 104.487 86.6259C106.199 87.021 108.074 87.2562 110.141 87.2562C111.124 87.2562 111.921 86.4595 111.921 85.4757C111.922 84.4927 111.125 83.6952 110.141 83.6952Z" fill="#BCCBE1"/>
<path d="M118.032 60.7795C117.176 60.3025 116.095 60.5964 115.608 61.4559C115.125 62.3086 115.429 63.3933 116.285 63.8798C117.597 64.6312 118.395 65.4609 118.93 66.3203C116.735 67.0908 114.795 67.4113 113.074 67.4113C110.562 67.4082 108.508 66.7449 106.77 65.7258C105.042 64.7098 103.647 63.315 102.586 61.8741C100.838 59.4892 98.5683 57.3691 95.8899 55.8206C93.2116 54.2788 90.1183 53.3117 86.7935 53.3117C83.8833 53.3117 80.8162 54.0631 77.7722 55.7324C76.5309 56.4123 75.45 57.209 74.5125 58.0816C70.8117 59.5058 67.627 60.0221 64.9261 60.0221C61.0819 60.0154 58.2137 58.9895 56.2934 57.9768C55.3365 57.4672 54.6209 56.964 54.1575 56.5982C53.9256 56.4123 53.7525 56.2686 53.6477 56.1705L53.5432 56.0692L53.5234 56.0497C52.8408 55.3507 51.7202 55.3309 51.0114 56.01C50.3062 56.6927 50.2863 57.8167 50.9658 58.5256C51.0702 58.6273 52.2888 59.8748 54.6305 61.1199C55.6557 61.662 56.9101 62.1946 58.3607 62.6291C57.9755 63.1712 57.449 63.9683 56.8748 64.9744C55.7741 66.9185 54.5097 69.6493 53.8696 72.8612C53.6703 73.8311 54.2977 74.7656 55.261 74.9582C56.2247 75.1544 57.1587 74.5237 57.3513 73.5598C57.8905 70.8519 59.0008 68.4408 59.9708 66.7322C60.4577 65.8696 60.9048 65.1936 61.2284 64.7297C61.3916 64.5041 61.5191 64.3246 61.6072 64.2134C61.6497 64.1578 61.6827 64.1189 61.7017 64.0927L61.7279 64.0664L61.7311 64.0601C61.8915 63.8607 61.9992 63.6351 62.0611 63.3936C62.9657 63.5112 63.9163 63.5767 64.9257 63.5767C66.7939 63.5767 68.8453 63.3547 71.0531 62.8547C69.9524 65.2103 69.5049 67.6735 69.5013 69.9278C69.508 72.1948 69.9393 74.2596 70.7136 75.8999C71.1345 76.7851 72.1963 77.1676 73.0814 76.7458C73.9665 76.324 74.3489 75.266 73.9272 74.3772C73.434 73.3509 73.0548 71.7241 73.0615 69.9274C73.0584 67.9868 73.4828 65.8568 74.4859 63.9064C75.4949 61.9595 77.0562 60.1854 79.4832 58.8525C82.0408 57.4474 84.4904 56.8727 86.7931 56.8659C89.4226 56.8727 91.8981 57.63 94.1126 58.9045C96.3208 60.1755 98.2478 61.9722 99.7174 63.9747C101.011 65.7421 102.742 67.48 104.967 68.7935C107.187 70.1069 109.918 70.9727 113.073 70.9659C115.16 70.9659 117.427 70.5938 119.87 69.7641L119.873 69.8884C119.873 70.7606 119.736 71.5541 119.602 72.1165C119.537 72.3909 119.468 72.6161 119.42 72.7567C119.397 72.8286 119.38 72.881 119.367 72.9136L119.358 72.9398V72.943C118.999 73.8541 119.436 74.8835 120.347 75.2493C121.262 75.6119 122.297 75.1679 122.663 74.2596C122.712 74.1321 123.421 72.3516 123.431 69.8888C123.431 68.4773 123.186 66.818 122.359 65.1813C121.543 63.5366 120.135 61.9655 118.032 60.7795Z" fill="#BCCBE1"/>
<path d="M72.364 47.4883C73.5894 46.0442 75.3302 44.9075 77.3125 44.1462C79.2951 43.3749 81.5033 42.9928 83.5741 42.9928C85.5861 42.9928 87.4643 43.3618 88.8363 44.0056C89.7345 44.417 90.7891 44.0254 91.1973 43.1366C91.6091 42.2445 91.2204 41.1829 90.3317 40.7782C88.3459 39.8568 86.007 39.4453 83.5737 39.4418C81.0721 39.4418 78.4656 39.8894 76.0319 40.8239C73.6085 41.758 71.3546 43.1858 69.6563 45.1951C69.0162 45.9429 69.1107 47.0637 69.8588 47.6972C70.6101 48.3374 71.737 48.2397 72.364 47.4883Z" fill="#BCCBE1"/>
<path d="M99.8539 0.181505C56.0078 -2.51721 19.086 25.072 19.9219 70.0212L19.8893 74.0889L0.840386 107.735C-0.185284 109.548 -0.277011 111.747 0.592208 113.641C1.46103 115.536 3.18557 116.899 5.23016 117.304L17.0021 120.551L20.6994 156.225C20.7975 159.665 22.3262 162.907 24.9196 165.164C27.513 167.425 30.9362 168.493 34.3528 168.111L43.7529 168.859C45.5883 168.656 47.4244 169.241 48.7991 170.476C50.1742 171.704 50.9616 173.465 50.9616 175.311V203.347H130.499C130.499 203.347 130.499 189.753 130.499 184.33C130.499 178.904 132.373 166.503 135.92 160.825C148.816 140.204 169.805 129.234 173.346 86.947C176.889 44.6537 151.654 3.37349 99.8539 0.181505ZM152.771 72.7C150.988 75.647 148.104 77.4826 144.955 78.0252C143.988 78.1952 143.335 79.1098 143.498 80.0801C143.671 81.0468 144.589 81.7037 145.556 81.5305C146.278 81.4062 146.99 81.2267 147.692 81.0011C148.45 82.5723 148.829 84.2614 148.829 85.9438C148.829 87.7405 148.401 89.5242 147.581 91.1379C146.764 92.7487 145.556 94.1829 143.968 95.3001C141.973 96.7013 139.703 97.3677 137.449 97.3713C137.27 97.3713 137.093 97.3518 136.917 97.3483C136.877 97.0508 136.841 96.7569 136.789 96.4662V96.4626C136.401 94.4013 135.594 92.5132 134.493 90.873L134.359 90.674L134.176 90.5171C132.831 89.3606 131.044 87.4657 129.665 85.5351C128.97 84.5716 128.379 83.5946 127.98 82.7256C127.578 81.8534 127.392 81.0952 127.399 80.6476C127.399 80.4483 127.428 80.3108 127.468 80.2195C127.5 80.1313 127.533 80.0789 127.601 80.007C128.294 79.3175 128.294 78.1872 127.601 77.4882C126.906 76.7987 125.782 76.7987 125.09 77.4882C124.652 77.9195 124.325 78.4418 124.126 78.9942C123.92 79.5368 123.845 80.1015 123.845 80.6472C123.851 81.8788 124.224 83.0485 124.746 84.205C125.54 85.9335 126.722 87.6484 128.006 89.2164C129.212 90.6867 130.489 92.0096 131.639 93.0224C132.432 94.2345 133.01 95.6067 133.294 97.1191C133.412 97.7566 133.474 98.39 133.487 98.9945V99.0076C133.487 99.0859 133.49 99.1645 133.49 99.2491C133.49 101.935 132.533 104.48 130.89 106.482C129.244 108.482 126.928 109.935 124.181 110.451C123.466 110.588 122.754 110.654 122.055 110.654C118.282 110.657 114.793 108.759 112.697 105.747C113.827 104.6 114.791 103.258 115.522 101.732V101.735C116.433 99.85 116.913 97.8507 116.998 95.8712C117.041 94.891 116.283 94.0614 115.303 94.0189C114.317 93.9732 113.49 94.7373 113.445 95.7175C113.383 97.2267 113.017 98.7391 112.321 100.183L112.318 100.19C111.57 101.735 110.531 103.029 109.29 104.052L109.283 104.055C107.239 105.724 104.661 106.645 102.026 106.645C100.367 106.645 98.6813 106.283 97.0806 105.508C94.1184 104.084 92.0607 101.546 91.1494 98.6414H91.1462C90.8 97.5405 90.6205 96.3808 90.6205 95.2179C90.6205 93.555 90.983 91.869 91.7569 90.2653C92.185 89.38 91.8093 88.3152 90.9242 87.8934C90.0423 87.4657 88.9809 87.8347 88.5529 88.7203C87.547 90.811 87.0602 93.0359 87.0602 95.2183C87.0602 96.2767 87.1845 97.3221 87.4001 98.3444C86.0119 99.1025 84.4474 99.5891 82.7554 99.7098H82.7522C82.4747 99.7297 82.2035 99.7424 81.9291 99.7424C79.2571 99.7424 76.7848 98.8146 74.8248 97.243C73.1102 95.8712 71.7975 94.0252 71.0982 91.8754C72.3458 90.6442 73.3846 89.1969 74.1454 87.5928C74.5636 86.7039 74.1843 85.6455 73.2965 85.2273C72.4114 84.8059 71.3432 85.1848 70.9282 86.0764C70.2258 87.5666 69.2001 88.8895 67.9493 89.9448C66.166 91.4508 63.9185 92.4179 61.4169 92.5978H61.4137C61.1361 92.6173 60.8649 92.6304 60.5941 92.6304C54.9499 92.6304 50.1289 88.4586 49.3121 82.8789L49.309 82.8626V82.8531C49.2633 82.585 49.2339 82.3074 49.2144 82.0198C49.195 81.7486 49.1851 81.4678 49.1851 81.1933C49.1851 80.4776 49.2538 79.7691 49.3812 79.086C49.5544 78.1189 48.9178 77.1911 47.9509 77.0116C46.9908 76.8385 46.06 77.4691 45.877 78.4358C45.7165 79.3306 45.6288 80.2521 45.6288 81.1929L45.6319 81.3006C44.0317 81.121 42.4799 80.6079 41.0917 79.7945C39.3342 78.7691 37.8415 77.2662 36.8095 75.3384C35.8919 73.6167 35.4571 71.7842 35.4571 69.9676C35.4571 67.6219 36.1857 65.3192 37.5282 63.3945C38.0476 64.1261 38.6321 64.8156 39.2885 65.4622C40.7911 66.9356 42.5287 68.0266 44.3676 68.7387C45.2853 69.0986 46.3114 68.6406 46.6672 67.7196C47.0265 66.805 46.5659 65.7759 45.6546 65.4197C44.2469 64.8771 42.927 64.0479 41.7838 62.9239V62.9207C40.7712 61.9342 39.9874 60.8102 39.4287 59.6048C38.7104 58.0757 38.351 56.4132 38.351 54.7634C38.3538 51.8689 39.4319 49.0006 41.6071 46.7793C43.4591 44.8908 45.7912 43.7863 48.2114 43.4503H48.2146H48.2209C48.7372 43.3847 49.253 43.349 49.7692 43.349C52.6568 43.3522 55.5277 44.4404 57.7554 46.6129C58.4578 47.2956 59.5811 47.2888 60.2705 46.5835C60.9566 45.8845 60.9435 44.7605 60.2443 44.071C57.4091 41.2941 53.738 39.873 50.063 39.8079C50.4776 38.1057 51.2749 36.5218 52.3919 35.1885C53.9433 33.3397 56.0634 31.9739 58.598 31.3893C59.4604 31.1966 60.3094 31.0985 61.1552 31.0985C62.6447 31.0985 64.0948 31.3988 65.4342 31.9413C65.0554 33.2678 64.8461 34.6595 64.8461 36.1036C64.8461 37.0834 65.6403 37.8773 66.6231 37.8773C67.6058 37.8773 68.3996 37.0834 68.3996 36.1036C68.3996 34.5483 68.7169 33.0621 69.272 31.713C70.1309 29.6481 71.5846 27.8907 73.4104 26.6491C75.2426 25.4076 77.4345 24.686 79.8154 24.686C83.245 24.686 86.3057 26.1853 88.4024 28.5797C90.1694 30.589 91.2312 33.2154 91.2312 36.1036C91.2312 37.0834 92.0317 37.8773 93.0113 37.8773C93.9945 37.8773 94.7946 37.0834 94.7946 36.1036C94.7946 32.8167 93.73 29.7689 91.9301 27.3025C92.8513 26.0284 94.0239 24.9437 95.3823 24.1403C97.0806 23.1406 99.0569 22.5624 101.177 22.5624C103.62 22.5624 105.864 23.3237 107.716 24.6236C109.575 25.9239 111.025 27.7668 111.845 29.9063H111.841C112.325 31.1772 112.59 32.5426 112.59 33.9835C112.59 34.9637 113.39 35.7604 114.37 35.7604C115.35 35.7604 116.153 34.9637 116.153 33.9835C116.153 32.5132 115.927 31.0989 115.532 29.7561C117.642 27.7961 120.435 26.6853 123.319 26.6853C124.825 26.6853 126.354 26.9828 127.83 27.6131C129.887 28.5051 131.54 29.913 132.719 31.6315C133.899 33.3532 134.591 35.372 134.712 37.4627C134.725 37.6783 134.735 37.8908 134.735 38.1061C134.728 39.6157 134.431 41.138 133.797 42.6178C133.409 43.5198 133.827 44.5651 134.728 44.9504C135.633 45.3392 136.675 44.9241 137.067 44.0226C137.727 42.4872 138.105 40.9025 138.233 39.3119C139.977 39.4358 141.675 39.9652 143.178 40.8536C144.893 41.8664 146.359 43.3494 147.359 45.2506C148.234 46.9135 148.646 48.6809 148.649 50.432C148.649 51.2323 148.551 52.0262 148.378 52.8038C147.313 52.3856 146.203 52.1048 145.096 51.9412C144.129 51.8073 143.224 52.4869 143.094 53.4603C142.953 54.4342 143.632 55.3322 144.599 55.4664C145.72 55.6261 146.82 55.9466 147.872 56.443C148.055 56.7472 148.336 56.9986 148.689 57.1523C148.904 57.2469 149.136 57.2929 149.362 57.2929C150.018 57.7306 150.616 58.2239 151.149 58.7628L151.152 58.766C153.288 60.9186 154.434 63.8231 154.434 66.7926C154.434 68.809 153.901 70.8477 152.771 72.7Z" fill="#F7DECE"/>
<path d="M134.293 56.9747C133.411 56.2134 132.464 55.5894 131.461 55.1517C130.455 54.7073 129.396 54.4428 128.316 54.4428C127.332 54.4428 126.539 55.2399 126.539 56.2233C126.539 57.2067 127.332 58.0006 128.316 58.0006C128.969 58.0006 129.792 58.2262 130.667 58.7294C131.97 59.4772 133.326 60.8232 134.306 62.5024C135.299 64.1848 135.932 66.1809 135.926 68.2489C135.919 70.5195 135.204 72.8914 133.264 75.2465C132.643 76.0011 132.748 77.1251 133.505 77.749C134.263 78.3797 135.387 78.2685 136.011 77.5171C138.451 74.567 139.493 71.3003 139.49 68.2489C139.49 66.3934 139.111 64.6161 138.49 62.9957C137.549 60.5682 136.054 58.4966 134.293 56.9747Z" fill="#C0CDE2"/>
<path d="M121.992 48.9091C117.102 48.9091 113.179 47.1059 110.462 44.7504C109.103 43.574 108.064 42.261 107.381 41C106.689 39.7422 106.375 38.5431 106.382 37.6448C106.382 36.665 105.585 35.8679 104.605 35.8679C103.622 35.8679 102.825 36.665 102.825 37.6448C102.831 39.3144 103.354 41.0325 104.255 42.699C105.206 44.437 106.591 46.1257 108.345 47.6087C107.992 48.0988 107.506 48.7391 106.878 49.4154C105.526 50.8953 103.573 52.532 101.237 53.3652C100.32 53.6917 99.8328 54.7076 100.163 55.6354C100.492 56.5632 101.505 57.0401 102.436 56.7133C105.601 55.5766 107.966 53.5022 109.576 51.7345C110.292 50.9505 110.847 50.2288 111.262 49.6537C114.201 51.3492 117.837 52.47 121.991 52.47C122.974 52.47 123.768 51.6729 123.768 50.6927C123.768 49.7097 122.974 48.9091 121.992 48.9091Z" fill="#BCCBE1"/>
</svg>
