<svg xmlns="http://www.w3.org/2000/svg" fill="none" viewBox="168.87875 100.9632 469.21999999999997 593.806" style="max-height: 500px" width="469.21999999999997" height="593.806">
<path fill="#F5F5F5" d="M404.276 686.503C531.036 686.503 633.796 680.502 633.796 673.1C633.796 665.697 531.036 659.696 404.276 659.696C277.516 659.696 174.756 665.697 174.756 673.1C174.756 680.502 277.516 686.503 404.276 686.503Z"/>
<path fill="#263238" d="M268.117 190.88C287.004 190.88 302.315 175.568 302.315 156.681C302.315 137.794 287.004 122.483 268.117 122.483C249.23 122.483 233.918 137.794 233.918 156.681C233.918 175.568 249.23 190.88 268.117 190.88Z"/>
<path fill="#7F3E3B" d="M307.138 631.535L295.307 639.356L276.343 613.534L288.172 605.712L307.138 631.535Z"/>
<path fill="#263238" d="M294.34 638.084L307.244 629.554C307.728 629.234 308.313 629.318 308.655 629.755L316.248 639.477C317.036 640.484 316.726 642.138 315.602 642.855C310.907 645.848 304.044 650.001 298.194 653.869C291.353 658.392 292.343 661.532 283.154 664.17C277.598 665.764 275.355 660.399 277.618 659.205C287.918 653.772 286.436 651.517 291.956 640.955C292.555 639.805 293.321 638.757 294.34 638.084Z"/>
<path fill="black" d="M276.35 613.539L286.124 626.851L297.959 619.027L288.186 605.715L276.35 613.539Z" opacity="0.2"/>
<path fill="#263238" d="M278.031 214.915C260.203 210.953 242.004 210.574 223.469 212.267C217.185 212.842 211.758 217.426 210.239 223.598C206.014 240.759 198.7 279.447 199.853 338.369C199.853 338.376 274.657 339.582 274.657 339.582C276.185 329.061 274.975 280.326 287.653 231.139C289.561 223.733 285.297 216.528 278.031 214.915Z"/>
<path fill="#339FF7" d="M232.998 225.448L234.956 231.036C235.152 231.595 235.637 231.996 236.226 232.087L239.067 232.522C239.576 232.599 240.1 232.497 240.553 232.232L245.97 229.047L240.455 223.985L232.998 225.448Z"/>
<path fill="#59B1FB" d="M239.378 230.825C237.341 230.099 236.07 230.389 236.07 230.389C232.727 236.129 227.283 252.916 225.75 260.4C230.303 275.734 232.362 277.404 232.362 277.404L238.994 259.818C238.994 259.818 238.07 241.289 239.378 230.825Z"/>
<path fill="#7F3E3B" d="M267.038 177.543C264.013 187.608 260.136 206.171 266.584 213.517C260.489 218.621 252.606 224.457 240.46 223.98C228.312 223.503 231.266 215.32 234.905 211.156C246.545 209.284 247.101 200.812 245.919 192.73L267.038 177.543Z"/>
<path fill="white" d="M269.781 212.927C268.89 212.403 267.903 212.02 267.237 211.794C266.794 211.637 266.296 211.776 266.01 212.161C264.582 214.027 259.889 222.504 240.453 223.985C243.332 226.147 246.737 232.321 248.173 235.251C254.255 232.861 270.232 225.484 270.315 213.87C270.305 213.485 270.117 213.118 269.781 212.927Z"/>
<path fill="white" d="M234.949 211.637C235.208 210.87 234.629 210.12 233.838 210.189C233.031 210.259 232.218 210.434 231.828 210.521C231.669 210.557 231.543 210.626 231.398 210.713C229.768 211.916 220.335 222.599 226.546 232.645C228.527 230.29 234.588 225.088 240.455 223.985C235.429 221.019 233.38 216.258 234.949 211.637Z"/>
<path fill="black" d="M258.428 183.742L245.928 192.723C246.214 194.636 246.392 196.569 246.338 198.43C250.743 198.124 257.189 193.794 258.108 189.272C258.567 187.018 258.692 184.827 258.428 183.742Z" opacity="0.2"/>
<path fill="#7F3E3B" d="M276.934 164.742C272.474 178.143 270.532 186.177 261.903 191.685C248.924 199.971 234.068 190.179 234.506 175.934C234.901 163.112 242.127 143.351 256.678 140.78C271.014 138.246 281.394 151.341 276.934 164.742Z"/>
<path fill="#263238" d="M271.8 174.168L263.822 170.952C263.822 170.952 273.367 160.486 273.919 154.145C259.124 151.872 238.514 152.318 247.06 138.513C252.821 129.207 259.57 129.219 272.08 133.482C292.574 140.463 289.862 158.363 285.245 168.564C280.627 178.763 271.8 174.168 271.8 174.168Z"/>
<path fill="white" d="M275.492 174.11C275.388 174.11 275.285 174.073 275.206 173.995C269.454 168.481 262.348 166.112 262.277 166.088C262.06 166.017 261.941 165.784 262.012 165.567C262.083 165.347 262.316 165.231 262.534 165.302C262.607 165.326 269.884 167.749 275.777 173.399C275.941 173.557 275.946 173.819 275.789 173.982C275.709 174.068 275.602 174.11 275.492 174.11Z"/>
<path fill="#263238" d="M246.314 177.975C250.457 179.081 253.558 177.095 253.701 177.002C253.857 176.898 253.908 176.694 253.812 176.542C253.717 176.392 253.511 176.353 253.354 176.455C253.319 176.478 249.705 178.777 245.227 176.892C245.06 176.822 244.861 176.901 244.782 177.071C244.703 177.239 244.773 177.433 244.939 177.503C245.408 177.7 245.867 177.855 246.314 177.975Z"/>
<path fill="#7F3E3B" d="M277.693 180.504C275.007 183.263 271.362 184.597 268.277 184.681C263.637 184.807 262.685 180.399 265.119 176.62C267.31 173.218 272.363 169.052 276.469 170.727C280.515 172.378 280.764 177.349 277.693 180.504Z"/>
<path fill="#0881E8" d="M239.658 477.325C241.268 406.925 258.938 339.315 258.938 339.315L200.588 338.374C200.588 338.374 204.161 440.052 205.179 482.64C206.234 526.923 279.419 627.473 279.419 627.473L299.452 614.216C299.452 614.216 241.218 532.882 239.658 477.325Z"/>
<path fill="black" d="M245.041 378.051C227.699 400.828 233.857 443.678 239.74 473.955C240.885 436.318 246.461 399.782 251.312 374.283L245.041 378.051Z" opacity="0.2"/>
<path fill="#263238" d="M278.449 628.739L302.269 612.992L297.114 605.616L272.059 621.572L278.449 628.739Z"/>
<path fill="#263238" d="M256.271 163.487C255.975 164.594 255.157 165.365 254.444 165.211C253.731 165.058 253.394 164.036 253.69 162.931C253.986 161.827 254.805 161.054 255.518 161.207C256.229 161.361 256.567 162.381 256.271 163.487Z"/>
<path fill="#263238" d="M243.638 161.139C243.342 162.246 242.524 163.017 241.813 162.862C241.1 162.708 240.763 161.686 241.059 160.582C241.355 159.477 242.173 158.704 242.886 158.859C243.6 159.015 243.934 160.033 243.638 161.139Z"/>
<path fill="#630F0F" d="M247.097 162.438C247.097 162.438 242.887 167.498 239.325 169.665C240.754 171.583 244.257 171.445 244.257 171.445L247.097 162.438Z"/>
<path fill="#263238" d="M261.443 160.436C261.553 160.444 261.668 160.425 261.776 160.375C262.115 160.219 262.28 159.825 262.145 159.492C260.776 156.165 257.778 155.703 257.651 155.685C257.29 155.633 256.942 155.887 256.871 156.249C256.8 156.612 257.033 156.946 257.39 157C257.489 157.014 259.821 157.401 260.912 160.054C261.006 160.281 261.213 160.418 261.443 160.436Z"/>
<path fill="#263238" d="M238.817 154.763C239.015 154.836 239.253 154.812 239.447 154.676C241.917 152.955 244.143 153.738 244.237 153.774C244.575 153.896 244.97 153.723 245.115 153.384C245.261 153.044 245.107 152.667 244.771 152.54C244.648 152.496 241.807 151.459 238.713 153.615C238.404 153.83 238.318 154.242 238.521 154.535C238.595 154.644 238.698 154.72 238.817 154.763Z"/>
<path fill="#0881E8" d="M292.864 640.581C292.941 640.483 292.962 640.347 292.914 640.232C292.86 640.103 292.731 640.027 292.592 640.041C291.889 640.117 285.69 640.842 284.731 642.596C284.547 642.934 284.54 643.3 284.715 643.65C285.006 644.239 285.457 644.583 286.056 644.672C288.04 644.968 291.153 642.258 292.833 640.617C292.844 640.605 292.854 640.594 292.864 640.581ZM285.373 642.793C286.082 641.893 289.248 641.176 291.659 640.833C289.306 642.997 287.289 644.171 286.177 644.005C285.786 643.946 285.498 643.723 285.3 643.322C285.224 643.167 285.223 643.042 285.299 642.905C285.32 642.869 285.344 642.832 285.373 642.793Z"/>
<path fill="#0881E8" d="M292.864 640.581C292.883 640.555 292.901 640.528 292.914 640.497C292.961 640.386 292.946 640.259 292.878 640.166C292.785 640.038 290.561 637.048 288.317 636.802C287.633 636.728 287.013 636.91 286.475 637.347C285.75 637.936 285.762 638.474 285.899 638.823C286.483 640.311 290.841 641.01 292.652 640.709C292.736 640.694 292.812 640.649 292.864 640.581ZM286.612 638.117C286.67 638.044 286.751 637.962 286.864 637.869C287.262 637.546 287.705 637.417 288.22 637.472C289.694 637.633 291.255 639.268 291.962 640.103C289.981 640.187 286.855 639.44 286.505 638.547C286.484 638.492 286.428 638.351 286.612 638.117Z"/>
<path fill="#7F3E3B" d="M282.014 650.141L268.021 649.922L265.481 617.45L279.474 617.668L282.014 650.141Z"/>
<path fill="#263238" d="M267.412 648.303L282.658 648.542C283.229 648.552 283.653 648.956 283.675 649.517L284.206 662.003C284.261 663.297 283.066 664.505 281.751 664.461C276.267 664.282 274.568 663.832 267.655 663.724C259.572 663.596 253.3 663.929 243.82 663.78C238.089 663.69 237.541 657.881 240.031 657.367C247.91 655.738 260.133 652.643 263.851 649.341C264.828 648.476 266.207 648.284 267.412 648.303Z"/>
<path fill="black" d="M265.484 617.458L266.791 634.197L280.79 634.417L279.482 617.678L265.484 617.458Z" opacity="0.2"/>
<path fill="#0881E8" d="M279.696 476.348C278.882 413.218 282.978 364.099 274.657 339.582L225.225 338.785C225.225 338.785 242.596 437.122 247.491 479.388C252.575 523.335 260.94 626.737 260.94 626.737L283.491 627.057C283.491 627.057 288.975 525.612 279.696 476.348Z"/>
<path fill="#263238" d="M257.527 631.386L285.672 631.829L287.849 622.704L256.501 621.729L257.527 631.386Z"/>
<path fill="#0881E8" d="M266.603 648.757C266.719 648.714 266.807 648.609 266.829 648.483C266.854 648.34 266.787 648.204 266.666 648.141C266.047 647.824 260.57 645.079 258.859 646.08C258.529 646.274 258.331 646.586 258.289 646.987C258.22 647.656 258.409 648.2 258.854 648.604C260.33 649.941 264.315 649.283 266.559 648.772C266.575 648.767 266.59 648.762 266.603 648.757ZM259.281 646.6C260.335 646.204 263.317 647.305 265.481 648.321C262.408 648.918 260.133 648.84 259.305 648.088C259.014 647.824 258.894 647.475 258.943 647.019C258.961 646.843 259.027 646.734 259.161 646.657C259.197 646.634 259.237 646.616 259.281 646.6Z"/>
<path fill="#0881E8" d="M266.603 648.757C266.633 648.746 266.662 648.73 266.689 648.71C266.786 648.639 266.841 648.521 266.835 648.403C266.825 648.241 266.568 644.436 264.852 643C264.328 642.562 263.723 642.384 263.051 642.472C262.147 642.588 261.872 643.062 261.801 643.44C261.498 645.049 264.716 648.028 266.364 648.752C266.439 648.786 266.526 648.786 266.603 648.757ZM262.758 643.214C262.844 643.182 262.954 643.154 263.094 643.136C263.592 643.072 264.024 643.201 264.417 643.529C265.544 644.472 265.968 646.741 266.112 647.85C264.438 646.844 262.262 644.495 262.443 643.529C262.456 643.469 262.483 643.317 262.758 643.214Z"/>
<path fill="#407BFF" d="M267.631 212.998C259.463 223.215 238 237.235 232.337 261.783C226.15 237.366 234.497 211.158 234.497 211.158C229.932 210.82 220.475 210.406 213.83 212.254C209.531 213.451 206.209 217.078 205.307 221.423C202.684 234.063 197.396 264.248 197.299 302.477C197.169 353.83 192.958 433.278 192.958 433.278C192.958 433.278 244.96 436.333 285.963 431.914C286.151 392.673 277.978 326.039 280.099 308.626C282.829 286.222 289.06 242.509 292.15 224.313C293.065 218.928 290.032 213.943 284.959 212.343C279.876 210.742 273.497 211.15 270.416 211.488C269.323 211.609 268.32 212.136 267.631 212.998Z"/>
<path fill="white" d="M267.623 213.008C259.449 223.223 237.998 237.244 232.337 261.783C226.15 237.366 234.497 211.158 234.497 211.158C229.932 210.82 220.475 210.406 213.83 212.254C209.531 213.451 206.209 217.078 205.307 221.423C202.684 234.063 197.396 264.248 197.299 302.477C197.169 353.83 192.958 433.278 192.958 433.278C192.958 433.278 244.96 436.333 285.963 431.914C286.151 392.673 277.978 326.039 280.099 308.626C282.829 286.217 289.061 242.489 292.153 224.302C293.036 219.108 290.305 214.109 285.439 212.499C280.232 210.775 273.603 211.165 270.437 211.496C269.331 211.612 268.317 212.14 267.623 213.008Z" opacity="0.7"/>
<path fill="#407BFF" d="M229.69 428.456C227.232 378.51 230.922 273.999 231.52 264.661L232.39 264.718C231.792 274.049 228.105 378.499 230.561 428.413L229.69 428.456Z" opacity="0.5"/>
<path fill="#407BFF" d="M228.216 229.697C223.059 238.725 218.114 248.253 213.688 257.693C211.458 262.419 209.365 267.178 207.572 271.887C206.669 274.235 205.849 276.565 205.164 278.797C204.483 280.988 203.948 283.232 203.784 284.61L203.762 284.746C203.77 284.672 203.799 284.267 203.791 284.041C203.775 283.519 203.713 282.97 203.594 282.366C203.45 281.779 203.275 281.237 203.045 280.719C202.779 280.174 202.562 279.781 202.289 279.393C201.189 277.909 200.46 277.606 200.188 277.433C199.667 277.207 200.304 277.53 201.055 277.665C202.646 278.022 204.968 278.266 207.308 278.384C212.064 278.624 217.226 278.507 222.381 278.232C227.551 277.914 232.779 277.441 238.012 276.879C240.628 276.594 243.243 276.246 245.855 275.899L249.767 275.352L251.709 275.051L252.671 274.898L253.145 274.82L253.376 274.781L253.484 274.762L253.536 274.754C253.606 274.744 253.496 274.759 253.292 274.791L252.813 274.885L257.511 296.447L256.969 296.549L256.664 296.596L256.589 296.606L256.447 296.622L256.177 296.653L255.65 296.712L254.607 296.829L252.538 297.052L248.42 297.495L240.179 298.288C234.679 298.81 229.155 299.243 223.553 299.521C217.939 299.825 212.303 300.049 206.28 299.795C203.238 299.643 200.165 299.436 196.475 298.672C194.598 298.229 192.607 297.819 189.711 296.3C188.27 295.467 186.42 294.356 184.539 291.766C183.642 290.506 182.793 288.773 182.421 286.963C182.207 286.032 182.117 285.149 182.112 284.287C182.104 283.892 182.12 283.318 182.139 283.075L182.173 282.708C182.541 278.714 183.315 275.698 184.119 272.711C184.939 269.763 185.848 266.98 186.806 264.265C188.742 258.851 190.818 253.656 192.947 248.513C195.086 243.38 197.342 238.342 199.614 233.32C201.883 228.269 204.195 223.375 206.632 218.267L228.216 229.697Z"/>
<g opacity="0.7">
<path fill="white" d="M228.216 229.697C223.059 238.725 218.114 248.253 213.688 257.693C211.458 262.419 209.365 267.178 207.572 271.887C206.669 274.235 205.849 276.565 205.164 278.797C204.483 280.988 203.948 283.232 203.784 284.61L203.762 284.746C203.77 284.672 203.799 284.267 203.791 284.041C203.775 283.519 203.713 282.97 203.594 282.366C203.45 281.779 203.275 281.237 203.045 280.719C202.779 280.174 202.562 279.781 202.289 279.393C201.189 277.909 200.46 277.606 200.188 277.433C199.667 277.207 200.304 277.53 201.055 277.665C202.646 278.022 204.968 278.266 207.308 278.384C212.064 278.624 217.226 278.507 222.381 278.232C227.551 277.914 232.779 277.441 238.012 276.879C240.628 276.594 243.243 276.246 245.855 275.899L249.767 275.352L251.709 275.051L252.671 274.898L253.145 274.82L253.376 274.781L253.484 274.762L253.536 274.754C253.606 274.744 253.496 274.759 253.292 274.791L252.813 274.885L257.511 296.447L256.969 296.549L256.664 296.596L256.589 296.606L256.447 296.622L256.177 296.653L255.65 296.712L254.607 296.829L252.538 297.052L248.42 297.495L240.179 298.288C234.679 298.81 229.155 299.243 223.553 299.521C217.939 299.825 212.303 300.049 206.28 299.795C203.238 299.643 200.165 299.436 196.475 298.672C194.598 298.229 192.607 297.819 189.711 296.3C188.27 295.467 186.42 294.356 184.539 291.766C183.642 290.506 182.793 288.773 182.421 286.963C182.207 286.032 182.117 285.149 182.112 284.287C182.104 283.892 182.12 283.318 182.139 283.075L182.173 282.708C182.541 278.714 183.315 275.698 184.119 272.711C184.939 269.763 185.848 266.98 186.806 264.265C188.742 258.851 190.818 253.656 192.947 248.513C195.086 243.38 197.342 238.342 199.614 233.32C201.883 228.269 204.195 223.375 206.632 218.267L228.216 229.697Z"/>
</g>
<path fill="#7F3E3B" d="M213.648 277.081L203.092 266.982L195.912 281.997C195.912 281.997 206.494 290.032 211.269 285.276L213.648 277.081Z"/>
<path fill="#7F3E3B" d="M252.245 282.209L261.915 271.267L270.302 285.668C270.302 285.668 260.434 294.55 255.29 290.194L252.245 282.209Z"/>
<path fill="#7F3E3B" d="M276.44 269.958L278.519 275.564C279.347 277.796 278.443 280.411 276.382 281.741L270.301 285.668L261.915 271.267L270.109 267.448C272.636 266.271 275.491 267.403 276.44 269.958Z"/>
<path fill="#7F3E3B" d="M188.488 266.862L186.874 272.611C186.232 274.899 187.351 277.429 189.518 278.585L195.912 281.997L203.092 266.982L194.597 263.85C191.979 262.883 189.222 264.243 188.488 266.862Z"/>
<path fill="#407BFF" d="M292.154 221.964C292.737 225.099 293.186 227.905 293.655 230.862C294.108 233.786 294.517 236.715 294.884 239.656C295.646 245.538 296.265 251.468 296.574 257.549C296.838 263.651 297.004 269.825 296.175 276.636C295.706 280.069 295.098 283.654 293.314 287.881C292.874 288.924 292.292 290.048 291.614 291.172C291.231 291.759 290.888 292.314 290.421 292.911L290.083 293.347C289.945 293.517 289.921 293.567 289.64 293.883C289.192 294.387 288.668 294.93 288.205 295.331C286.283 296.989 284.776 297.654 283.414 298.254C282.036 298.832 280.938 299.125 279.829 299.418C275.632 300.374 272.371 300.558 269.112 300.684C265.891 300.784 262.82 300.721 259.791 300.595C253.748 300.341 247.894 299.761 242.076 299.174C236.261 298.572 230.504 297.848 224.768 297.041C219 296.286 213.369 295.422 207.509 294.515L211.495 272.81C216.818 273.91 222.409 274.84 227.881 275.734C233.389 276.57 238.898 277.322 244.379 277.948C249.854 278.583 255.328 278.991 260.637 279.201C263.284 279.295 265.899 279.321 268.356 279.225C270.765 279.136 273.204 278.892 274.536 278.509C274.795 278.425 275.071 278.336 274.994 278.344C274.929 278.381 274.712 278.399 273.85 279.102C273.656 279.272 273.362 279.54 273.163 279.793C273.013 279.987 273.084 279.885 273.056 279.916L273.04 279.929C273.021 279.974 273.029 279.908 273.043 279.906C273.077 279.802 273.163 279.667 273.257 279.393C273.671 278.368 274.109 276.305 274.311 274.109C274.733 269.616 274.589 264.382 274.069 259.157C273.564 253.906 272.79 248.55 271.829 243.201C271.331 240.528 270.791 237.855 270.212 235.193C269.648 232.565 268.996 229.797 268.346 227.386L292.154 221.964Z"/>
<g opacity="0.7">
<path fill="white" d="M292.154 221.964C292.737 225.099 293.186 227.905 293.655 230.862C294.108 233.786 294.517 236.715 294.884 239.656C295.646 245.538 296.265 251.468 296.574 257.549C296.838 263.651 297.004 269.825 296.175 276.636C295.706 280.069 295.098 283.654 293.314 287.881C292.874 288.924 292.292 290.048 291.614 291.172C291.231 291.759 290.888 292.314 290.421 292.911L290.083 293.347C289.945 293.517 289.921 293.567 289.64 293.883C289.192 294.387 288.668 294.93 288.205 295.331C286.283 296.989 284.776 297.654 283.414 298.254C282.036 298.832 280.938 299.125 279.829 299.418C275.632 300.374 272.371 300.558 269.112 300.684C265.891 300.784 262.82 300.721 259.791 300.595C253.748 300.341 247.894 299.761 242.076 299.174C236.261 298.572 230.504 297.848 224.768 297.041C219 296.286 213.369 295.422 207.509 294.515L211.495 272.81C216.818 273.91 222.409 274.84 227.881 275.734C233.389 276.57 238.898 277.322 244.379 277.948C249.854 278.583 255.328 278.991 260.637 279.201C263.284 279.295 265.899 279.321 268.356 279.225C270.765 279.136 273.204 278.892 274.536 278.509C274.795 278.425 275.071 278.336 274.994 278.344C274.929 278.381 274.712 278.399 273.85 279.102C273.656 279.272 273.362 279.54 273.163 279.793C273.013 279.987 273.084 279.885 273.056 279.916L273.04 279.929C273.021 279.974 273.029 279.908 273.043 279.906C273.077 279.802 273.163 279.667 273.257 279.393C273.671 278.368 274.109 276.305 274.311 274.109C274.733 269.616 274.589 264.382 274.069 259.157C273.564 253.906 272.79 248.55 271.829 243.201C271.331 240.528 270.791 237.855 270.212 235.193C269.648 232.565 268.996 229.797 268.346 227.386L292.154 221.964Z"/>
</g>
<path fill="#407BFF" d="M255.596 337.408L279.807 355.085C279.807 355.085 282.553 378.827 268.927 381.153C255.3 383.478 252.662 354.511 255.596 337.408Z"/>
<path fill="white" d="M255.596 337.408L279.807 355.085C279.807 355.085 282.553 378.827 268.927 381.153C255.3 383.478 252.662 354.511 255.596 337.408Z" opacity="0.5"/>
<path fill="#407BFF" d="M203.11 337.408L194.229 355.085C194.229 355.085 191.404 378.827 195.375 381.153C199.347 383.478 202.576 354.511 203.11 337.408Z"/>
<path fill="white" d="M203.11 337.408L194.229 355.085C194.229 355.085 191.404 378.827 195.375 381.153C199.347 383.478 202.576 354.511 203.11 337.408Z" opacity="0.5"/>
<path fill="white" d="M237.711 168.942C237.417 168.942 237.127 168.909 236.841 168.845C235.743 168.594 234.828 167.868 234.192 166.752C232.988 164.631 232.9 161.403 233.959 158.115C235.619 152.962 239.602 149.37 242.839 150.116C243.937 150.366 244.852 151.092 245.488 152.208C246.693 154.328 246.78 157.557 245.721 160.845C244.207 165.543 240.761 168.942 237.711 168.942ZM241.951 150.431C239.084 150.431 235.811 153.714 234.352 158.241C233.343 161.374 233.419 164.555 234.551 166.547C235.129 167.561 235.952 168.216 236.932 168.441C239.972 169.146 243.73 165.669 245.326 160.719C246.335 157.585 246.259 154.404 245.127 152.413C244.55 151.398 243.727 150.745 242.747 150.52C242.486 150.46 242.22 150.431 241.951 150.431Z"/>
<path fill="white" d="M254.928 172.658C254.525 172.658 254.122 172.614 253.721 172.524C251.831 172.094 250.283 170.7 249.365 168.597C248.454 166.518 248.268 163.987 248.839 161.476C250.023 156.265 254.139 152.753 258.018 153.626C259.908 154.057 261.454 155.45 262.374 157.553C263.285 159.632 263.471 162.163 262.9 164.674C261.839 169.345 258.417 172.658 254.928 172.658ZM256.807 153.903C253.508 153.903 250.262 157.087 249.244 161.566C248.692 163.994 248.868 166.432 249.743 168.431C250.61 170.41 252.054 171.718 253.814 172.118C257.467 172.957 261.364 169.569 262.499 164.581C263.05 162.153 262.873 159.715 261.998 157.716C261.133 155.737 259.687 154.428 257.929 154.029C257.556 153.943 257.18 153.903 256.807 153.903Z"/>
<path fill="white" d="M248.752 163.914C248.653 163.914 248.556 163.88 248.478 163.811C246.806 162.331 245.124 162.632 245.055 162.648C244.825 162.69 244.615 162.546 244.57 162.323C244.525 162.098 244.668 161.883 244.892 161.836C244.977 161.82 247.034 161.426 249.027 163.192C249.198 163.344 249.214 163.604 249.062 163.775C248.978 163.868 248.865 163.914 248.752 163.914Z"/>
<path fill="#263238" d="M253.283 268.376L252.403 266.384C266.18 260.3 275.232 248.01 273.828 241.495C273.086 238.052 269.454 237.324 266.506 237.383C252.292 237.507 247.528 251.579 243.7 262.888C243.207 264.343 242.735 265.742 242.263 267.037L240.215 266.295C240.681 265.011 241.148 263.63 241.637 262.189C245.473 250.858 250.725 235.342 266.487 235.206C266.545 235.204 266.603 235.204 266.661 235.204C273.651 235.204 275.484 238.849 275.957 241.034C277.566 248.503 268.212 261.783 253.283 268.376Z"/>
<path fill="#263238" d="M249.872 266.023C248.78 268.417 249.225 270.963 250.865 271.712C252.506 272.461 254.722 271.128 255.815 268.735C256.906 266.342 256.462 263.795 254.822 263.046C253.179 262.297 250.963 263.63 249.872 266.023Z"/>
<path fill="#263238" d="M237.569 266.023C236.477 268.417 236.922 270.963 238.562 271.712C240.203 272.461 242.418 271.128 243.51 268.735C244.603 266.342 244.157 263.795 242.517 263.046C240.877 262.297 238.66 263.63 237.569 266.023Z"/>
<path fill="#263238" d="M206.399 241.311C206.114 244.338 208.278 247.017 211.232 247.295C214.187 247.574 216.813 245.345 217.097 242.318C217.382 239.291 215.218 236.611 212.264 236.333C209.309 236.055 206.683 238.283 206.399 241.311Z"/>
<path fill="#263238" d="M267.545 237.415C267.415 237.415 267.284 237.391 267.157 237.342C266.595 237.129 266.314 236.501 266.528 235.939C266.561 235.846 269.974 226.517 264.553 212.531C264.336 211.97 264.614 211.341 265.176 211.123C265.737 210.901 266.366 211.182 266.584 211.745C272.33 226.572 268.717 236.311 268.56 236.718C268.394 237.15 267.981 237.415 267.545 237.415Z"/>
<path fill="#263238" d="M209.659 241.256C209.584 241.256 209.51 241.248 209.436 241.231C208.847 241.108 208.469 240.531 208.593 239.943C208.807 238.919 214.06 214.847 234.247 210.097C234.837 209.953 235.419 210.325 235.555 210.907C235.694 211.493 235.33 212.08 234.745 212.217C215.894 216.653 210.773 240.151 210.724 240.389C210.616 240.903 210.163 241.256 209.659 241.256Z"/>
<path fill="#FF8B7B" d="M396.811 657.847L381.937 657.614L380.432 623.081L395.304 623.314L396.811 657.847Z"/>
<path fill="#263238" d="M381.835 655.892L398.056 656.147C398.664 656.157 399.127 656.587 399.169 657.184L400.131 670.462C400.231 671.838 398.997 673.122 397.599 673.077C391.762 672.886 383.357 672.409 376.002 672.293C367.402 672.157 368.227 672.511 358.143 672.352C352.045 672.257 351.273 666.052 353.909 665.533C365.91 663.169 367.116 663.044 378.082 656.998C379.275 656.338 380.553 655.873 381.835 655.892Z"/>
<path fill="black" d="M380.435 623.091L381.209 640.89L396.088 641.125L395.314 623.323L380.435 623.091Z" opacity="0.2"/>
<path fill="#59B1FB" d="M434.045 194.998C414.958 190.786 395.594 190.383 375.936 192.183C369.272 192.793 363.648 197.67 362.228 204.232C358.281 222.483 351.738 263.625 354.844 326.286C354.844 326.294 434.435 327.576 434.435 327.576C435.725 316.388 432.884 264.561 444.796 212.251C446.589 204.376 441.825 196.714 434.045 194.998Z"/>
<path fill="#263238" d="M386.49 206.202L388.751 212.143C388.977 212.738 389.506 213.165 390.135 213.26L393.17 213.723C393.714 213.805 394.27 213.697 394.741 213.414L400.399 210.026L394.372 204.643L386.49 206.202Z"/>
<path fill="#263238" d="M393.446 211.92C391.257 211.147 389.913 211.456 389.913 211.456C386.543 217.56 381.287 235.413 379.895 243.372C385.228 259.679 387.47 261.456 387.47 261.456L393.961 242.755C393.961 242.755 392.39 223.047 393.446 211.92Z"/>
<path fill="#FF8B7B" d="M421.163 155.256C418.267 165.958 414.737 185.702 421.828 193.514C415.508 198.942 407.311 205.147 394.379 204.641C381.446 204.135 384.326 195.432 388.063 191.003C400.382 189.012 400.702 180.001 399.188 171.406L421.163 155.256Z"/>
<path fill="white" d="M425.209 192.885C424.246 192.329 423.183 191.919 422.468 191.679C421.993 191.512 421.467 191.661 421.176 192.068C419.718 194.052 414.997 203.068 394.375 204.643C397.505 206.942 401.325 213.508 402.944 216.624C409.336 214.083 426.091 206.237 425.808 193.884C425.784 193.478 425.575 193.089 425.209 192.885Z"/>
<path fill="white" d="M388.124 191.512C388.374 190.695 387.734 189.898 386.896 189.972C386.041 190.047 385.181 190.233 384.77 190.325C384.602 190.362 384.471 190.436 384.319 190.529C382.624 191.808 372.933 203.168 379.859 213.852C381.891 211.349 388.169 205.815 394.374 204.643C388.935 201.489 386.604 196.426 388.124 191.512Z"/>
<path fill="black" d="M412.203 161.846L399.196 171.398C399.562 173.433 399.812 175.488 399.814 177.467C404.489 177.142 411.207 172.537 412.039 167.729C412.455 165.331 412.518 163.001 412.203 161.846Z" opacity="0.2"/>
<path fill="#263238" d="M394.686 148.697C387.117 151.154 385.957 145.182 387.503 139.317C388.465 135.667 387.143 133.327 386.609 129.316C385.736 122.732 387.384 116.917 399.649 112.644C415.568 107.101 412.048 116.454 412.683 120.321C413.319 124.185 406.697 126.506 407.03 130.478C407.366 134.449 405.785 145.096 394.686 148.697Z"/>
<path fill="#FF8B7B" d="M431.275 141.642C426.959 155.893 425.151 164.437 416.151 170.294C402.612 179.105 386.501 168.693 386.511 153.544C386.52 139.908 393.577 118.893 408.969 116.158C424.134 113.464 435.591 127.39 431.275 141.642Z"/>
<path fill="#263238" d="M426.946 126.912C419.263 125.552 410.172 128.818 402.515 126.86C396.435 125.306 396.493 121.258 397.382 117.174C398.695 111.145 403.707 109.175 406.713 108.055C409.719 106.934 411.285 110.683 415.431 107.824C418.228 105.894 428.9 105.409 435.229 107.824C441.558 110.238 434.319 114.829 437.703 116.942C448.112 123.445 441.453 129.478 426.946 126.912Z"/>
<path fill="white" d="M402.893 125.261C400.168 119.061 403.034 110.793 414.449 109.994C404.442 113.001 402.893 125.261 402.893 125.261Z" opacity="0.3"/>
<path fill="#263238" d="M424.771 156.068C418.34 155.046 418.671 147.732 421.828 142.677C424.823 137.881 420.392 132.585 420.083 128.922C419.774 125.258 423.175 121.503 429.744 121.812C436.312 122.12 446.824 126.318 447.003 131.141C447.183 135.963 440.412 135.384 441.465 140.059C443.808 150.475 434.199 157.566 424.771 156.068Z"/>
<path fill="white" d="M438.268 130.82C435.539 135.686 429.856 136.723 422.495 130.782C431.265 134.469 438.268 130.82 438.268 130.82Z" opacity="0.3"/>
<path fill="#263238" d="M389.364 153.186C386.414 156.309 386.659 162.588 386.83 165.598C387.001 168.607 389.545 173.546 399 174.977C408.457 176.406 410.677 173.043 411.137 169.88C411.596 166.717 411.096 157.703 408.072 154.697C405.207 151.849 392.708 149.647 389.364 153.186Z"/>
<path fill="#FF8B7B" d="M395.521 157.745C399.963 158.921 403.197 156.81 403.346 156.71C403.509 156.6 403.556 156.382 403.45 156.222C403.343 156.062 403.125 156.021 402.96 156.13C402.922 156.154 399.151 158.599 394.331 156.594C394.151 156.521 393.943 156.605 393.863 156.785C393.784 156.964 393.865 157.169 394.043 157.244C394.551 157.454 395.042 157.619 395.521 157.745Z"/>
<path fill="#FF8B7B" d="M432.59 158.405C429.823 161.34 425.987 162.758 422.709 162.847C417.78 162.981 416.626 158.293 419.093 154.273C421.314 150.656 426.556 146.225 430.976 148.007C435.331 149.761 435.754 155.049 432.59 158.405Z"/>
<path fill="#263238" d="M395.979 474.063C397.926 399.195 416.943 327.295 416.943 327.295L354.894 326.294C354.894 326.294 358.354 434.425 359.295 479.717C360.269 526.808 374.997 637.365 374.997 637.365L400.189 637.748C400.189 637.748 397.456 533.146 395.979 474.063Z"/>
<path fill="black" d="M402.036 368.489C383.517 392.712 389.924 438.282 396.08 470.48C397.424 430.455 403.475 391.599 408.72 364.482L402.036 368.489Z" opacity="0.2"/>
<path fill="#263238" d="M373.415 637.902L403.361 638.372L403.158 628.668L372.015 627.631L373.415 637.902Z"/>
<path fill="#263238" d="M409.264 140.308C408.984 141.483 408.138 142.303 407.377 142.14C406.615 141.977 406.222 140.89 406.502 139.714C406.782 138.539 407.627 137.717 408.389 137.882C409.152 138.045 409.544 139.132 409.264 140.308Z"/>
<path fill="#263238" d="M395.755 137.809C395.475 138.985 394.629 139.805 393.868 139.642C393.104 139.478 392.713 138.392 392.993 137.216C393.272 136.04 394.118 135.219 394.88 135.384C395.643 135.547 396.035 136.634 395.755 137.809Z"/>
<path fill="#FF5652" d="M399.45 139.663C399.45 139.663 395.136 145.043 391.417 147.349C392.998 149.388 396.719 149.242 396.719 149.242L399.45 139.663Z"/>
<path fill="#263238" d="M415.024 135.597C415.14 135.607 415.261 135.586 415.376 135.533C415.732 135.368 415.895 134.947 415.74 134.593C414.178 131.055 410.976 130.563 410.84 130.544C410.455 130.489 410.093 130.759 410.03 131.144C409.967 131.529 410.224 131.884 410.606 131.941C410.711 131.957 413.203 132.366 414.45 135.19C414.555 135.431 414.779 135.578 415.024 135.597Z"/>
<path fill="#263238" d="M391.955 131.372C392.178 131.415 392.421 131.349 392.595 131.173C394.828 128.948 397.314 129.392 397.419 129.412C397.797 129.485 398.174 129.236 398.258 128.854C398.342 128.472 398.106 128.104 397.728 128.028C397.59 128.003 394.413 127.397 391.615 130.185C391.335 130.463 391.329 130.911 391.599 131.183C391.699 131.284 391.824 131.346 391.955 131.372Z"/>
<path fill="#0881E8" d="M379.092 657.219C379.218 657.179 379.315 657.071 379.34 656.94C379.369 656.793 379.301 656.645 379.172 656.574C378.513 656.214 372.685 653.088 370.827 654.066C370.468 654.255 370.252 654.577 370.198 654.996C370.109 655.698 370.303 656.278 370.772 656.721C372.331 658.193 376.625 657.674 379.045 657.232C379.062 657.228 379.078 657.224 379.092 657.219ZM371.27 654.632C372.412 654.262 375.591 655.549 377.894 656.712C374.582 657.206 372.14 657.025 371.266 656.199C370.958 655.908 370.837 655.536 370.898 655.059C370.921 654.875 370.994 654.763 371.139 654.687C371.18 654.664 371.223 654.647 371.27 654.632Z"/>
<path fill="#0881E8" d="M379.093 657.22C379.126 657.208 379.156 657.194 379.186 657.174C379.291 657.103 379.352 656.982 379.347 656.857C379.339 656.688 379.142 652.672 377.328 651.087C376.775 650.604 376.128 650.391 375.405 650.452C374.431 650.534 374.126 651.023 374.043 651.416C373.686 653.094 377.082 656.371 378.836 657.203C378.916 657.242 379.009 657.247 379.093 657.22ZM375.077 651.22C375.169 651.189 375.288 651.165 375.44 651.152C375.976 651.107 376.438 651.261 376.854 651.623C378.046 652.664 378.455 655.07 378.586 656.243C376.808 655.112 374.519 652.544 374.732 651.537C374.745 651.476 374.779 651.317 375.077 651.22Z"/>
<path fill="#FF8B7B" d="M462.785 657.847L447.898 657.614L444.157 623.081L459.046 623.314L462.785 657.847Z"/>
<path fill="#263238" d="M447.199 655.892L463.42 656.147C464.026 656.157 464.491 656.587 464.533 657.184L465.495 670.462C465.595 671.838 464.361 673.122 462.962 673.077C457.126 672.886 455.304 672.409 447.949 672.293C439.349 672.157 443.308 672.511 433.222 672.352C427.124 672.257 426.358 666.08 428.989 665.533C437.315 663.801 439.598 660.51 443.446 656.998C444.455 656.076 445.917 655.872 447.199 655.892Z"/>
<path fill="black" d="M444.164 623.091L446.088 640.89L460.981 641.125L459.057 623.323L444.164 623.091Z" opacity="0.2"/>
<path fill="#263238" d="M447.941 472.188C441.767 405.273 444.068 353.651 434.436 327.578L381.843 326.729C381.843 326.729 405.238 432.522 413.991 477.094C423.087 523.438 439.629 632.957 439.629 632.957L463.622 633.298C463.622 633.298 461.94 523.953 447.941 472.188Z"/>
<path fill="#263238" d="M436.146 637.902L466.091 638.372L468.114 628.668L434.745 627.631L436.146 637.902Z"/>
<path fill="#0881E8" d="M450.1 657.019C450.231 657.024 450.357 656.954 450.427 656.838C450.504 656.707 450.491 656.545 450.396 656.432C449.909 655.863 445.579 650.889 443.52 651.181C443.122 651.238 442.81 651.469 442.616 651.849C442.293 652.486 442.272 653.104 442.555 653.686C443.494 655.62 447.655 656.6 450.053 657.013C450.068 657.018 450.084 657.019 450.1 657.019ZM443.735 651.873C444.921 651.912 447.429 654.23 449.164 656.125C445.921 655.459 443.719 654.448 443.192 653.361C443.006 652.98 443.024 652.583 443.244 652.15C443.329 651.983 443.434 651.903 443.596 651.878C443.638 651.873 443.685 651.872 443.735 651.873Z"/>
<path fill="#0881E8" d="M450.101 657.019C450.134 657.021 450.168 657.017 450.202 657.008C450.325 656.975 450.424 656.882 450.461 656.762C450.513 656.597 451.71 652.711 450.571 650.581C450.223 649.931 449.698 649.506 449.006 649.317C448.074 649.061 447.625 649.42 447.411 649.766C446.502 651.24 448.525 655.52 449.866 656.916C449.927 656.98 450.012 657.016 450.101 657.019ZM448.436 649.936C448.534 649.939 448.652 649.957 448.797 649.998C449.31 650.138 449.685 650.444 449.945 650.931C450.692 652.329 450.244 654.758 449.963 655.919C448.703 654.234 447.461 651.007 448.006 650.122C448.04 650.066 448.128 649.926 448.436 649.936Z"/>
<path fill="#FF8B7B" d="M326.405 333.411L317.781 346.063L334.874 351.282C334.874 351.282 341.327 338.922 335.446 334.642L326.405 333.411Z"/>
<path fill="#FF8B7B" d="M320.382 361.422L326.715 362.228C329.236 362.548 331.679 360.981 332.488 358.526L334.873 351.282L317.78 346.063L316.079 355.471C315.555 358.371 317.497 361.055 320.382 361.422Z"/>
<path fill="#407BFF" d="M382.508 209.719C379.222 220.712 376.07 231.765 373.007 242.821C369.898 253.849 366.961 264.993 364.155 275.944C363.604 278.297 362.501 282.351 361.552 285.064C360.586 287.978 359.618 290.779 358.62 293.549C356.628 299.081 354.58 304.518 352.507 309.934L340.269 342.417L318.488 333.678C322.992 323.207 327.211 312.534 331.307 301.905C333.298 296.568 335.256 291.23 337.114 285.931C338.037 283.284 338.94 280.65 339.739 278.095C340.575 275.342 340.943 273.837 341.655 270.583C344.233 259.184 347.011 248.059 349.596 236.815C352.25 225.603 354.863 214.4 357.386 203.15L382.508 209.719Z"/>
<g opacity="0.6">
<path fill="white" d="M382.508 209.719C379.222 220.712 376.07 231.765 373.007 242.821C369.898 253.849 366.961 264.993 364.155 275.944C363.604 278.297 362.501 282.351 361.552 285.064C360.586 287.978 359.618 290.779 358.62 293.549C356.628 299.081 354.58 304.518 352.507 309.934L340.269 342.417L318.488 333.678C322.992 323.207 327.211 312.534 331.307 301.905C333.298 296.568 335.256 291.23 337.114 285.931C338.037 283.284 338.94 280.65 339.739 278.095C340.575 275.342 340.943 273.837 341.655 270.583C344.233 259.184 347.011 248.059 349.596 236.815C352.25 225.603 354.863 214.4 357.386 203.15L382.508 209.719Z"/>
</g>
<path fill="#263238" d="M395 359.073L304.326 352.779C301.594 352.59 299.379 350.221 299.379 347.489V285.239C299.379 282.508 301.593 280.448 304.326 280.637L395 286.931C397.731 287.12 399.947 289.489 399.947 292.22V354.469C399.947 357.2 397.733 359.262 395 359.073Z"/>
<path fill="#0881E8" d="M396.569 358.148L305.895 351.854C303.164 351.665 300.95 349.296 300.95 346.565V284.314C300.95 281.583 303.164 279.521 305.895 279.712L396.569 286.006C399.3 286.195 401.516 288.564 401.516 291.295V353.546C401.514 356.277 399.3 358.337 396.569 358.148Z"/>
<path fill="#407BFF" d="M425.954 189.966C418.527 200.946 392.404 217.639 386.945 244.841C379.586 218.875 386.672 189.303 386.672 189.303C381.806 188.944 372.692 190.204 365.685 192.17C361.151 193.443 357.734 197.299 356.914 201.921C354.529 215.362 349.867 247.462 350.984 288.119C352.485 342.73 350.542 427.222 350.542 427.222C350.542 427.222 405.943 430.471 449.407 425.77C448.355 384.039 437.536 313.176 439.236 294.657C441.424 270.832 446.655 224.344 449.362 204.994C450.162 199.266 446.778 193.963 441.333 192.265C433.852 189.93 425.954 189.966 425.954 189.966Z"/>
<path fill="white" d="M425.954 189.966C418.527 200.946 392.404 217.639 386.945 244.841C379.586 218.875 386.672 189.303 386.672 189.303C381.806 188.944 372.692 190.204 365.685 192.17C361.151 193.443 357.734 197.299 356.914 201.921C354.529 215.362 349.867 247.462 350.984 288.119C352.485 342.73 350.542 427.222 350.542 427.222C350.542 427.222 405.943 430.471 449.407 425.77C448.355 384.039 437.536 313.176 439.236 294.657C441.424 270.827 446.657 224.324 449.364 204.982C450.137 199.458 447.072 194.143 441.846 192.43C434.218 189.929 425.954 189.966 425.954 189.966Z" opacity="0.7"/>
<path fill="#FF8B7B" d="M430.451 322.791L421.177 334.975L437.974 341.081C437.974 341.081 445.065 329.075 439.416 324.494L430.451 322.791Z"/>
<path fill="#FF8B7B" d="M422.969 350.449L429.25 351.584C431.75 352.035 434.273 350.599 435.209 348.19L437.971 341.081L421.174 334.975L418.983 344.281C418.309 347.148 420.107 349.931 422.969 350.449Z"/>
<path fill="#407BFF" d="M448.279 199.473C450.709 204.798 452.964 209.85 455.173 215.101C457.38 220.314 459.558 225.552 461.588 230.911C463.604 236.28 465.556 241.71 467.293 247.443C468.155 250.311 468.954 253.256 469.608 256.437C469.935 258.03 470.228 259.679 470.449 261.455C470.668 263.251 470.821 265.108 470.753 267.456C470.713 268.14 470.66 268.829 470.588 269.508L470.325 271.114C470.14 272.213 469.914 272.993 469.699 273.945C469.241 275.627 468.761 277.201 468.273 278.693C467.285 281.673 466.219 284.421 465.121 287.128C462.928 292.531 460.577 297.683 458.197 302.799C455.849 307.927 453.428 312.979 450.96 317.998C448.523 323.055 446.06 327.995 443.531 333.101L422.821 322.061C428.078 312.706 433.046 302.922 437.637 293.226C439.902 288.359 442.05 283.452 443.966 278.635C444.919 276.232 445.819 273.832 446.544 271.576L447.05 269.928L447.443 268.399C447.506 268.002 447.653 267.453 447.669 267.191L447.732 266.757C447.713 266.749 447.705 266.751 447.714 266.749L447.66 265.837C447.59 265.392 447.583 265.022 447.488 264.518C447.339 263.564 447.124 262.506 446.867 261.408C446.351 259.207 445.649 256.846 444.859 254.462C443.297 249.684 441.358 244.8 439.247 239.96C437.14 235.111 434.91 230.253 432.544 225.447C430.166 220.684 427.682 215.791 425.153 211.283L448.279 199.473Z"/>
<g opacity="0.7">
<path fill="white" d="M448.279 199.473C450.709 204.798 452.964 209.85 455.173 215.101C457.38 220.314 459.558 225.552 461.588 230.911C463.604 236.28 465.556 241.71 467.293 247.443C468.155 250.311 468.954 253.256 469.608 256.437C469.935 258.03 470.228 259.679 470.449 261.455C470.668 263.251 470.821 265.108 470.753 267.456C470.713 268.14 470.66 268.829 470.588 269.508L470.325 271.114C470.14 272.213 469.914 272.993 469.699 273.945C469.241 275.627 468.761 277.201 468.273 278.693C467.285 281.673 466.219 284.421 465.121 287.128C462.928 292.531 460.577 297.683 458.197 302.799C455.849 307.927 453.428 312.979 450.96 317.998C448.523 323.055 446.06 327.995 443.531 333.101L422.821 322.061C428.078 312.706 433.046 302.922 437.637 293.226C439.902 288.359 442.05 283.452 443.966 278.635C444.919 276.232 445.819 273.832 446.544 271.576L447.05 269.928L447.443 268.399C447.506 268.002 447.653 267.453 447.669 267.191L447.732 266.757C447.713 266.749 447.705 266.751 447.714 266.749L447.66 265.837C447.59 265.392 447.583 265.022 447.488 264.518C447.339 263.564 447.124 262.506 446.867 261.408C446.351 259.207 445.649 256.846 444.859 254.462C443.297 249.684 441.358 244.8 439.247 239.96C437.14 235.111 434.91 230.253 432.544 225.447C430.166 220.684 427.682 215.791 425.153 211.283L448.279 199.473Z"/>
</g>
<path fill="#407BFF" d="M414.095 325.266L440.407 344.064C440.407 344.064 444.084 369.314 429.667 371.786C415.251 374.261 411.522 343.455 414.095 325.266Z"/>
<path fill="white" d="M414.095 325.266L440.407 344.064C440.407 344.064 444.084 369.314 429.667 371.786C415.251 374.261 411.522 343.455 414.095 325.266Z" opacity="0.5"/>
<path fill="#407BFF" d="M358.277 325.266L349.398 344.064C349.398 344.064 347.151 369.314 351.45 371.786C355.748 374.261 358.256 343.455 358.277 325.266Z"/>
<path fill="white" d="M358.277 325.266L349.398 344.064C349.398 344.064 347.151 369.314 351.45 371.786C355.748 374.261 358.256 343.455 358.277 325.266Z" opacity="0.5"/>
<path fill="#407BFF" d="M389.452 422.104C385.246 369.031 385.833 257.853 386.171 247.915L387.098 247.947C386.76 257.879 386.174 368.992 390.375 422.031L389.452 422.104Z" opacity="0.5"/>
<path fill="#263238" d="M513.442 164.823C501.553 173.42 491.674 207.169 520.027 220.796C548.379 234.423 588.346 233.325 576.273 203.693C564.199 174.062 568.509 156.624 539.978 153.245C511.45 149.865 513.442 164.823 513.442 164.823Z"/>
<path fill="#FFB573" d="M589.844 342.397L595.57 344.373L602.847 355.407C603.91 357.017 604.382 358.958 604.176 360.871L603.757 364.784C603.612 366.149 602.527 367.184 601.196 367.229L593.581 367.488C592.187 367.535 590.961 366.487 590.743 365.061L589.779 356.122C589.779 356.122 586.083 347.197 589.844 342.397Z"/>
<path fill="#407BFF" d="M580.807 252.531C580.677 256.634 580.643 261.026 580.663 265.289C580.685 269.581 580.774 273.874 580.926 278.158C581.233 286.72 581.83 295.244 582.88 303.579L582.99 304.601C583.003 304.526 582.944 304.274 582.954 304.355C582.97 304.432 582.949 304.432 582.978 304.576L583.054 304.981L583.176 305.493C583.353 306.205 583.58 307.013 583.822 307.849C584.314 309.52 584.895 311.271 585.501 313.026C586.72 316.541 588.071 320.099 589.463 323.635C590.863 327.174 592.314 330.707 593.819 334.194C595.315 337.651 596.897 341.199 598.473 344.268L586.358 351.317C584.08 347.641 582.23 344.21 580.342 340.677C578.478 337.163 576.685 333.636 574.932 330.073C573.185 326.504 571.479 322.916 569.846 319.206C569.029 317.347 568.229 315.464 567.457 313.462C567.068 312.461 566.697 311.422 566.342 310.265L566.075 309.373L565.813 308.36C565.727 308.032 565.638 307.552 565.561 307.152C565.48 306.756 565.399 306.016 565.354 305.461L565.463 306.483C563.686 297.477 562.44 288.514 561.49 279.557C561.018 275.077 560.612 270.601 560.277 266.118C559.946 261.605 559.668 257.215 559.488 252.535H580.807V252.531Z"/>
<path fill="white" d="M580.807 252.531C580.677 256.634 580.643 261.026 580.663 265.289C580.685 269.581 580.774 273.874 580.926 278.158C581.233 286.72 581.83 295.244 582.88 303.579L582.99 304.601C583.003 304.526 582.944 304.274 582.954 304.355C582.97 304.432 582.949 304.432 582.978 304.576L583.054 304.981L583.176 305.493C583.353 306.205 583.58 307.013 583.822 307.849C584.314 309.52 584.895 311.271 585.501 313.026C586.72 316.541 588.071 320.099 589.463 323.635C590.863 327.174 592.314 330.707 593.819 334.194C595.315 337.651 596.897 341.199 598.473 344.268L586.358 351.317C584.08 347.641 582.23 344.21 580.342 340.677C578.478 337.163 576.685 333.636 574.932 330.073C573.185 326.504 571.479 322.916 569.846 319.206C569.029 317.347 568.229 315.464 567.457 313.462C567.068 312.461 566.697 311.422 566.342 310.265L566.075 309.373L565.813 308.36C565.727 308.032 565.638 307.552 565.561 307.152C565.48 306.756 565.399 306.016 565.354 305.461L565.463 306.483C563.686 297.477 562.44 288.514 561.49 279.557C561.018 275.077 560.612 270.601 560.277 266.118C559.946 261.605 559.668 257.215 559.488 252.535H580.807V252.531Z" opacity="0.5"/>
<path fill="#FFB573" d="M570.695 326.753C570.695 326.753 568.808 437.061 564.31 481.711C558.453 539.862 542.746 589.084 539.038 629.295L525.962 627.392C525.962 627.392 525.13 528.915 536.949 481.833C526.226 431.909 525.962 326.755 525.962 326.755L570.695 326.753Z"/>
<path fill="#263238" d="M562.993 661.579C561.481 660.337 559.077 659.311 556.955 658.568H556.96C556.96 658.568 546.24 652.595 540.323 634.627L532.096 632.581C529.411 631.914 526.563 632.971 525.407 635.376C525.241 635.724 525.126 636.073 525.087 636.412C524.896 638.078 525.155 640.604 525.221 642.252C525.464 648.324 526.452 661.974 526.452 661.974H527.872C527.872 661.974 527.726 653.581 528.342 649.582C528.958 645.583 531.89 650.319 533.577 654.843C535.263 659.367 541.733 664.194 550.987 664.419C561.819 664.684 566.197 664.21 562.993 661.579Z"/>
<path fill="#263238" d="M526.826 635.557C525.587 631.349 525.018 624.033 525.018 624.033L540.381 625.955C540.381 625.955 540.28 635.287 543.083 641.55C533.888 639.216 526.826 635.557 526.826 635.557Z"/>
<path fill="#FFB573" d="M559.392 326.753C559.392 326.753 540.95 438.198 530.569 482.985C517.037 541.356 515.167 633.296 515.167 633.296L502.947 632.108C502.947 632.108 488.907 548.303 504.014 482.985C502.886 432.829 512.656 326.753 512.656 326.753H559.392Z"/>
<path fill="#263238" d="M530.364 661.579C529.06 660.337 526.829 659.311 524.833 658.568H524.838C524.838 658.568 518.826 652.595 515.938 634.627L508.056 632.581C505.485 631.914 502.459 632.971 500.895 635.376C500.671 635.724 500.498 636.073 500.401 636.412C499.928 638.078 499.762 640.604 499.55 642.252C498.769 648.324 499.447 661.974 499.447 661.974H500.866C500.866 661.974 501.232 653.848 501.436 649.582C501.636 645.386 504.859 650.319 505.782 654.843C506.707 659.367 508.662 664.194 517.877 664.419C528.666 664.684 533.124 664.21 530.364 661.579Z"/>
<path fill="#263238" d="M500.661 635.557C500.132 631.349 499.972 624.033 499.972 624.033L517.456 625.955C517.456 625.955 515.338 634.263 517.084 640.526C508.282 638.193 500.661 635.557 500.661 635.557Z"/>
<path fill="white" d="M578.459 247.507C579.103 258.214 579.606 288.47 573.849 334.739H511.154C511.222 312.324 513.059 290.865 502.843 248.72C501.239 242.101 505.534 235.751 512.205 234.9C515.743 234.449 519.791 234.045 524.008 233.841C534.083 233.354 542.34 233.033 551.242 233.843C557.128 234.378 563.423 235.327 568.237 236.141C573.844 237.088 578.12 241.86 578.459 247.507Z"/>
<path fill="#FFB573" d="M528.703 204.217C530.755 212.98 533.084 229.035 527.177 234.882C527.177 234.882 532.649 243.566 549.569 250.884C558.909 245.23 554.41 234.884 554.41 234.884C544.549 232.551 544.525 225.301 545.967 218.491L528.703 204.217Z"/>
<path fill="black" d="M535.741 210.042L545.96 218.485C545.612 220.096 545.358 221.731 545.305 223.319C541.551 222.778 536.267 218.681 535.72 214.772C535.448 212.824 535.458 210.951 535.741 210.042Z" opacity="0.2"/>
<path fill="#FFB573" d="M518.846 188.145C522.801 202.397 524.182 208.501 532.789 214.644C545.733 223.885 561.694 216.638 561.911 201.669C562.107 188.195 555.606 167.152 540.779 163.843C526.168 160.585 514.89 173.894 518.846 188.145Z"/>
<path fill="#263238" d="M521.765 195.643C525.24 192.626 528.699 179.456 526.878 173.877C539.325 174.883 549.686 170.501 554.704 174.749C555.239 168.298 549.477 159.517 539.235 159.609C528.989 159.702 504.388 172.048 521.765 195.643Z"/>
<path fill="#263238" d="M538.619 188.622C538.871 189.794 539.694 190.635 540.454 190.499C541.216 190.364 541.629 189.303 541.376 188.13C541.124 186.958 540.301 186.117 539.541 186.253C538.779 186.387 538.367 187.448 538.619 188.622Z"/>
<path fill="#263238" d="M552.685 186.051C552.937 187.223 553.76 188.064 554.52 187.928C555.282 187.792 555.694 186.732 555.442 185.559C555.19 184.387 554.368 183.546 553.607 183.682C552.845 183.818 552.433 184.878 552.685 186.051Z"/>
<path fill="#263238" d="M553.285 183.806L555.908 182.495C555.908 182.495 554.945 184.951 553.285 183.806Z"/>
<path fill="#ED893E" d="M550.629 188.588C550.629 188.588 553.694 193.284 556.394 195.333C555.167 197.052 552.41 196.858 552.41 196.858L550.629 188.588Z"/>
<path fill="#263238" d="M547.688 202.76C548.316 202.76 548.979 202.705 549.679 202.581C549.868 202.547 549.988 202.366 549.948 202.175C549.907 201.986 549.726 201.86 549.53 201.892C544.422 202.806 541.256 199.634 541.225 199.602C541.087 199.46 540.866 199.453 540.73 199.586C540.594 199.719 540.594 199.94 540.732 200.081C540.853 200.204 543.4 202.76 547.688 202.76Z"/>
<path fill="#FFB573" d="M515.632 198.035C517.282 200.637 519.966 202.286 522.427 202.867C526.13 203.74 527.709 200.459 526.451 197.102C525.317 194.081 522.025 189.987 518.417 190.608C514.864 191.221 513.748 195.06 515.632 198.035Z"/>
<path fill="#263238" d="M535.509 182.563C535.693 182.547 535.866 182.458 535.986 182.301C537.832 179.857 540.405 180.068 540.434 180.071C540.816 180.103 541.149 179.825 541.172 179.439C541.193 179.054 540.897 178.714 540.51 178.677C540.376 178.666 537.147 178.399 534.855 181.431C534.627 181.733 534.695 182.173 535.006 182.414C535.156 182.53 535.337 182.579 535.509 182.563Z"/>
<path fill="#263238" d="M557.313 178.235C557.475 178.175 557.61 178.056 557.686 177.888C557.843 177.54 557.685 177.121 557.331 176.951C553.792 175.245 551.06 176.862 550.945 176.934C550.62 177.131 550.528 177.559 550.738 177.893C550.946 178.224 551.38 178.332 551.705 178.138C551.811 178.074 553.949 176.851 556.761 178.208C556.944 178.295 557.143 178.298 557.313 178.235Z"/>
<path fill="#263238" d="M539.217 186.378L541.84 185.066C541.84 185.066 540.88 187.522 539.217 186.378Z"/>
<path fill="#263238" d="M573.849 334.74L575.089 506.236C545.999 508.618 518.145 507.723 491.891 502.578C490.162 438.191 477.581 367.331 511.154 334.74H573.849Z"/>
<path fill="black" d="M541.426 450.793L534.862 394.363L550.629 378.083L541.426 450.793Z" opacity="0.2"/>
<path fill="#407BFF" d="M581.287 258.149C580.498 243.096 578.055 237.203 568.155 235.317C558.255 233.432 548.95 232.47 548.95 232.47C561.916 240.596 566.79 260.011 554.691 274.472C548.022 262.084 522.75 242.675 528.856 232.57C528.856 232.57 520.974 231.941 511.218 233.828C501.462 235.714 498.66 242.412 501.068 257.355C507.222 295.524 502.508 341.88 502.508 341.88C502.508 341.88 538.62 358.884 550.63 362.135C569.723 357.472 573.92 344.113 573.92 344.113C573.92 344.113 582.076 273.203 581.287 258.149Z"/>
<path fill="white" d="M581.287 258.149C580.498 243.096 578.055 237.203 568.155 235.317C558.255 233.432 548.95 232.47 548.95 232.47C561.916 240.596 566.79 260.011 554.691 274.472C548.022 262.084 522.75 242.675 528.856 232.57C528.856 232.57 520.974 231.941 511.218 233.828C501.462 235.714 498.66 242.412 501.068 257.355C507.222 295.524 502.508 341.88 502.508 341.88C502.508 341.88 538.62 358.884 550.63 362.135C569.723 357.472 573.92 344.113 573.92 344.113C573.92 344.113 582.076 273.203 581.287 258.149Z" opacity="0.6"/>
<path fill="#263238" d="M527.481 287.385C520.753 277.571 515.713 263.175 519.623 255.834C521.075 253.104 523.646 251.718 527.183 251.708C529.947 251.733 532.283 252.763 534.124 254.774C538.495 259.55 540.013 269.453 538.766 285.051L537.125 284.919C538.317 270.012 536.899 260.245 532.909 255.887C531.368 254.202 529.491 253.374 527.168 253.355C524.256 253.4 522.238 254.425 521.075 256.608C517.964 262.452 521.373 275.564 528.839 286.453L527.481 287.385Z"/>
<path fill="#263238" d="M528.853 290.258C530.216 290.258 531.322 288.646 531.322 286.657C531.322 284.668 530.216 283.056 528.853 283.056C527.489 283.056 526.383 284.668 526.383 286.657C526.383 288.646 527.489 290.258 528.853 290.258Z"/>
<path fill="#263238" d="M540.671 285.697C540.671 287.686 539.565 289.298 538.202 289.298C536.839 289.298 535.732 287.686 535.732 285.697C535.732 283.708 536.839 282.095 538.202 282.095C539.567 282.095 540.671 283.708 540.671 285.697Z"/>
<path fill="#263238" d="M572.611 256.324C572.826 258.612 571.19 260.638 568.957 260.848C566.723 261.059 564.737 259.374 564.522 257.085C564.307 254.797 565.944 252.771 568.177 252.561C570.412 252.35 572.396 254.035 572.611 256.324Z"/>
<path fill="#263238" d="M526.383 253.377C526.053 253.377 525.742 253.18 525.616 252.855C525.483 252.515 522.379 244.406 523.724 232.386C523.776 231.936 524.175 231.619 524.634 231.66C525.086 231.71 525.411 232.117 525.361 232.57C524.064 244.16 527.12 252.177 527.151 252.257C527.316 252.68 527.107 253.159 526.683 253.322C526.585 253.361 526.483 253.377 526.383 253.377Z"/>
<path fill="#263238" d="M570.146 256.28C569.711 256.28 569.348 255.94 569.324 255.502C569.315 255.321 568.166 237.234 554.025 233.906C553.583 233.802 553.308 233.359 553.412 232.918C553.515 232.476 553.963 232.19 554.402 232.305C569.751 235.917 570.957 255.221 570.967 255.415C570.991 255.869 570.644 256.257 570.189 256.28C570.175 256.28 570.16 256.28 570.146 256.28Z"/>
<path fill="#263238" d="M529.202 318.154L543.413 264.243C543.842 262.619 545.559 261.353 547.249 261.416L585.771 262.855C587.461 262.918 588.485 264.286 588.056 265.91L573.845 319.821C573.417 321.444 571.7 322.711 570.01 322.648L531.487 321.208C529.797 321.145 528.773 319.779 529.202 318.154Z"/>
<path fill="#0881E8" d="M529.596 319.109L543.807 265.198C544.236 263.575 545.953 262.309 547.643 262.372L586.165 263.811C587.855 263.874 588.879 265.242 588.45 266.866L574.239 320.777C573.811 322.4 572.093 323.666 570.403 323.603L531.881 322.164C530.193 322.101 529.169 320.734 529.596 319.109Z"/>
<path fill="#FFB573" d="M524.543 300.918L525.224 294.9L534.407 285.394C535.748 284.007 537.538 283.122 539.451 282.906L543.361 282.461C544.726 282.306 545.971 283.138 546.306 284.429L548.217 291.804C548.567 293.155 547.811 294.578 546.466 295.103L537.952 297.991C537.952 297.991 530.046 303.543 524.543 300.918Z"/>
<path fill="#407BFF" d="M520.026 251.272C519.447 252.017 518.693 253.056 518.032 253.987L516.009 256.907C514.678 258.877 513.384 260.881 512.139 262.907C509.645 266.958 507.346 271.099 505.329 275.287C503.327 279.471 501.599 283.717 500.415 287.878C499.215 292.024 498.631 296.112 498.913 299.473L495.273 293.477C494.244 292.818 494.281 293.053 494.517 293.095C494.763 293.181 495.203 293.304 495.748 293.396C496.82 293.593 498.154 293.714 499.527 293.769C502.299 293.879 505.276 293.756 508.239 293.499C511.208 293.237 514.189 292.822 517.105 292.267C520.011 291.703 522.88 290.996 525.474 290.094L530.846 303.04C527.44 304.61 524.08 305.775 520.697 306.784C517.314 307.777 513.919 308.588 510.465 309.235C507.005 309.874 503.513 310.375 499.797 310.598C497.93 310.702 496.015 310.746 493.861 310.594C492.794 310.524 491.629 310.379 490.298 310.088C488.964 309.748 487.435 309.457 485.061 307.885H485.059L482.014 305.872L481.419 301.889C480.418 295.189 481.163 289.072 482.383 283.428C483.629 277.77 485.442 272.504 487.494 267.432C489.566 262.37 491.898 257.509 494.425 252.784C495.688 250.42 496.998 248.089 498.363 245.782L500.454 242.333C501.19 241.158 501.854 240.103 502.742 238.789L520.026 251.272Z"/>
<path fill="white" d="M520.026 251.272C519.447 252.017 518.693 253.056 518.032 253.987L516.009 256.907C514.678 258.877 513.384 260.881 512.139 262.907C509.645 266.958 507.346 271.099 505.329 275.287C503.327 279.471 501.599 283.717 500.415 287.878C499.215 292.024 498.631 296.112 498.913 299.473L495.273 293.477C494.244 292.818 494.281 293.053 494.517 293.095C494.763 293.181 495.203 293.304 495.748 293.396C496.82 293.593 498.154 293.714 499.527 293.769C502.299 293.879 505.276 293.756 508.239 293.499C511.208 293.237 514.189 292.822 517.105 292.267C520.011 291.703 522.88 290.996 525.474 290.094L530.846 303.04C527.44 304.61 524.08 305.775 520.697 306.784C517.314 307.777 513.919 308.588 510.465 309.235C507.005 309.874 503.513 310.375 499.797 310.598C497.93 310.702 496.015 310.746 493.861 310.594C492.794 310.524 491.629 310.379 490.298 310.088C488.964 309.748 487.435 309.457 485.061 307.885H485.059L482.014 305.872L481.419 301.889C480.418 295.189 481.163 289.072 482.383 283.428C483.629 277.77 485.442 272.504 487.494 267.432C489.566 262.37 491.898 257.509 494.425 252.784C495.688 250.42 496.998 248.089 498.363 245.782L500.454 242.333C501.19 241.158 501.854 240.103 502.742 238.789L520.026 251.272Z" opacity="0.6"/>
</svg>