<svg width="598" height="563" viewBox="0 0 598 563" fill="none" xmlns="http://www.w3.org/2000/svg">
<path d="M54.3712 481.991C11.9745 438.742 -7.688 376.279 3.01256 323.279C13.7131 270.28 54.9039 226.414 87.8042 181.993C120.832 137.243 145.072 92.1239 186.551 56.3155C228.157 20.1778 286.748 -5.99076 343.012 1.37362C398.906 8.59502 452.843 49.4923 488.903 94.8328C524.963 140.173 543.274 189.628 560.984 237.336C578.566 285.374 595.051 331.852 597.012 381.799C598.973 431.746 586.283 485.49 549.58 514.442C513.247 543.536 452.53 547.694 394.519 553.655C336.635 559.286 280.96 566.905 220.996 558.111C160.905 549.646 96.2708 525.426 54.3712 481.991Z" fill="#B3E5F6"/>
</svg>
