<svg width="178" height="202" viewBox="0 0 178 202" fill="none" xmlns="http://www.w3.org/2000/svg">
<path d="M152.631 109.305H25.0114C11.2586 109.305 0 120.139 0 133.399C0 146.642 11.2586 157.492 25.0114 157.492H152.631C166.384 157.492 177.643 146.659 177.643 133.399C177.66 120.139 166.401 109.305 152.631 109.305Z" fill="#EDC391"/>
<path d="M156.752 48.0503C140.334 23.0682 119.166 14.5244 88.4144 14.5244C57.6627 14.5244 36.4952 23.0511 20.0772 48.0503C8.04986 66.3682 5.14553 95.1608 8.85282 124.825C12.4234 153.344 15.379 168.996 33.0784 184.973C48.4542 198.848 69.3313 201.839 87.2356 201.839H89.5932C107.498 201.839 128.392 198.848 143.75 184.973C161.45 168.996 164.405 153.344 167.976 124.825C171.683 95.1608 168.779 66.3511 156.752 48.0503Z" fill="#F7DECE"/>
<path d="M113.864 50.7796C114.104 50.5233 114.343 50.2841 114.582 50.0277C114.753 49.8398 114.924 49.6347 115.094 49.4468C115.487 48.9854 115.863 48.524 116.222 48.0456L116.376 47.8405C116.717 47.3792 117.025 46.9007 117.333 46.4052C117.418 46.2685 117.503 46.1147 117.589 45.978C117.879 45.4824 118.17 44.9869 118.443 44.4572C118.494 44.3717 118.528 44.3034 118.563 44.218C119.212 42.9364 119.776 41.5523 120.237 40.0998L120.288 39.9461C121.228 36.9216 121.774 33.5553 121.774 29.7618C121.774 22.1749 119.041 16.1772 114.872 11.649C114.821 11.5977 114.787 11.5635 114.753 11.5123C114.428 11.1705 114.087 10.8288 113.745 10.487L113.54 10.282C113.142 9.90375 112.732 9.53901 112.31 9.18837C111.968 8.89788 111.626 8.62448 111.285 8.35108C111.199 8.28273 111.114 8.23146 111.045 8.16311L109.918 7.34291C109.85 7.30873 109.798 7.25747 109.73 7.2233C108.363 6.30057 106.945 5.48036 105.476 4.77977C105.425 4.74559 105.356 4.72851 105.305 4.69433C104.878 4.48928 104.451 4.30132 104.024 4.11335L103.631 3.94248C103.255 3.78869 102.879 3.6349 102.503 3.4982C102.367 3.44694 102.213 3.39567 102.076 3.34441C101.717 3.20771 101.359 3.0881 101.017 2.96848L100.556 2.81469C100.197 2.69508 99.8553 2.59256 99.4965 2.49003C99.3427 2.43877 99.189 2.40459 99.0181 2.35333C98.6594 2.2508 98.3006 2.16537 97.9418 2.07993L97.4976 1.9774C97.1047 1.89196 96.7118 1.80653 96.3359 1.72109C96.2163 1.704 96.0967 1.66983 95.9771 1.65274C94.9692 1.4306 93.9612 1.27681 92.9532 1.1572C92.8166 1.14011 92.6799 1.14011 92.5432 1.12302C92.1844 1.08885 91.8427 1.05467 91.484 1.03758C91.279 1.0205 91.091 1.0205 90.886 1.00341C90.5956 0.986321 90.3222 0.969234 90.0489 0.969234C89.8268 0.969234 89.6047 0.952146 89.3655 0.952146C89.2118 0.952146 89.058 0.935059 88.9213 0.935059H88.7505C88.0159 0.935059 87.2812 0.969234 86.5637 1.0205C86.427 1.03758 86.2903 1.03758 86.1537 1.05467C85.419 1.12302 84.7015 1.19137 84.0181 1.31099C75.6297 2.67799 68.8473 7.08659 64.6104 11.3927C62.0648 13.9729 60.4418 16.519 59.9464 18.3473H59.9634C65.3962 16.9632 72.4179 15.75 80.2425 15.3399C90.8348 14.6051 99.6844 20.6371 99.2573 29.8985C99.2061 31.0092 99.0694 32.0516 98.8815 33.0256L98.8302 33.3161C98.7448 33.692 98.6423 34.0679 98.5398 34.4268C98.4885 34.5976 98.4373 34.7685 98.4031 34.9223C98.3006 35.2299 98.1981 35.5375 98.0785 35.845C98.0102 36.033 97.9247 36.221 97.8393 36.4089C97.7197 36.6823 97.6001 36.9386 97.4806 37.1779C97.3781 37.3829 97.2756 37.5709 97.156 37.7588C97.0364 37.981 96.8997 38.2031 96.763 38.4082C96.6263 38.6132 96.4726 38.8183 96.3359 39.0233C96.2163 39.1942 96.0967 39.3651 95.9601 39.536C95.738 39.8094 95.4988 40.0657 95.2596 40.3049C95.1913 40.3732 95.1229 40.4587 95.0546 40.527C94.73 40.8517 94.3883 41.1422 94.0295 41.4327C93.9612 41.4839 93.8758 41.5352 93.8074 41.5865C93.5166 41.8126 93.2144 42.0236 92.902 42.2187C92.7995 42.27 92.714 42.3383 92.6115 42.3896C92.304 42.5775 91.9965 42.7484 91.689 42.9022C91.5865 42.9535 91.5011 43.0047 91.3985 43.0389C91.0739 43.1927 90.7323 43.3465 90.3735 43.4832C90.3052 43.5174 90.2197 43.5515 90.1343 43.5686C89.7414 43.7224 89.3484 43.8591 88.9384 43.9787C88.9042 43.9958 88.8701 43.9958 88.8359 44.0129C86.9908 44.5597 85.009 44.7989 82.9931 44.7989C76.9111 44.7989 70.607 42.5434 66.9851 39.3138C66.6858 39.0414 66.2964 38.8892 65.8917 38.8866C65.8063 38.8866 65.7208 38.9208 65.6525 38.9379C65.5842 38.955 65.4987 38.955 65.4304 38.9891C65.3279 39.0233 65.2254 39.0575 65.1229 39.1088C64.952 39.1942 64.8154 39.2967 64.6787 39.4163C64.6445 39.4505 64.6275 39.4847 64.5933 39.5189C64.4737 39.6556 64.3712 39.8264 64.2858 39.9973C64.2687 40.0315 64.2687 40.0486 64.2516 40.0828C64.1662 40.3049 64.1149 40.5612 64.1491 40.8346C64.6616 45.9951 67.9076 52.4542 75.6297 57.3071C82.976 61.9378 98.4373 61.9891 109.44 54.4534L109.747 54.2484C110.072 54.0091 110.413 53.7699 110.738 53.5307C110.875 53.4282 111.028 53.3086 111.165 53.1889C111.643 52.813 112.105 52.42 112.549 52.0099L113.215 51.3948C113.454 51.2068 113.659 50.9846 113.864 50.7796Z" fill="#312D2D"/>
<path d="M113.864 50.7796C114.104 50.5233 114.343 50.284 114.582 50.0277C114.753 49.8398 114.924 49.6347 115.094 49.4468C115.487 48.9854 115.863 48.524 116.222 48.0456L116.376 47.8405C116.717 47.3792 117.025 46.9007 117.333 46.4052C117.418 46.2685 117.503 46.1147 117.589 45.978C117.879 45.4824 118.17 44.9869 118.443 44.4572C118.494 44.3717 118.528 44.3034 118.563 44.218C119.212 42.9364 119.776 41.5523 120.237 40.0998L120.288 39.9461C121.228 36.9215 121.774 33.5553 121.774 29.7618C121.774 22.1749 119.041 16.1772 114.872 11.649C114.821 11.5977 114.787 11.5635 114.753 11.5123C114.428 11.1705 114.087 10.8288 113.745 10.487L113.54 10.282C113.142 9.90375 112.732 9.53901 112.31 9.18837C111.968 8.89788 111.626 8.62448 111.285 8.35108C111.199 8.28273 111.114 8.23146 111.045 8.16311L109.918 7.34291C109.85 7.30873 109.798 7.25747 109.73 7.2233C108.363 6.30057 106.945 5.48036 105.476 4.77977C105.425 4.74559 105.356 4.72851 105.305 4.69433C104.878 4.48928 104.451 4.30132 104.024 4.11335L103.631 3.94248C103.255 3.78869 102.879 3.6349 102.503 3.4982C102.367 3.44694 102.213 3.39567 102.076 3.34441C101.717 3.20771 101.359 3.0881 101.017 2.96848L100.556 2.81469C100.197 2.69508 99.8553 2.59256 99.4965 2.49003C99.3427 2.43877 99.189 2.40459 99.0181 2.35333C98.6594 2.2508 98.3006 2.16537 97.9418 2.07993L97.4976 1.9774C97.1047 1.89196 96.7118 1.80653 96.3359 1.72109C96.2163 1.704 96.0967 1.66983 95.9771 1.65274C94.9692 1.4306 93.9612 1.27681 92.9532 1.1572C92.8166 1.14011 92.6799 1.14011 92.5432 1.12302C92.1844 1.08885 91.8427 1.05467 91.484 1.03758C91.279 1.0205 91.091 1.0205 90.886 1.00341C90.5956 0.986321 90.3222 0.969234 90.0489 0.969234C89.8268 0.969234 89.6047 0.952146 89.3655 0.952146C89.2118 0.952146 89.058 0.935059 88.9213 0.935059H88.7505C88.0159 0.935059 87.2812 0.969234 86.5637 1.0205C86.427 1.03758 86.2903 1.03758 86.1537 1.05467C85.419 1.12302 84.7015 1.19137 84.0181 1.31099C75.6297 2.67799 68.8473 7.08659 64.6104 11.3927C62.0648 13.9729 60.4418 16.5189 59.9464 18.3473H59.9634C65.3962 16.9632 72.4179 15.75 80.2425 15.3399C90.8348 14.6051 99.6844 20.6371 99.2573 29.8985C99.2061 31.0092 99.0694 32.0516 98.8815 33.0256L98.8302 33.3161C98.7448 33.692 98.6423 34.0679 98.5398 34.4268C98.4885 34.5976 98.4373 34.7685 98.4031 34.9223C98.3006 35.2299 98.1981 35.5374 98.0785 35.845C98.0102 36.033 97.9247 36.2209 97.8393 36.4089C97.7197 36.6823 97.6001 36.9386 97.4806 37.1779C97.3781 37.3829 97.2756 37.5709 97.156 37.7588C97.0364 37.981 96.8997 38.2031 96.763 38.4082C96.6263 38.6132 96.4726 38.8183 96.3359 39.0233C96.2163 39.1942 96.0967 39.3651 95.9601 39.5359C95.738 39.8093 95.4988 40.0657 95.2596 40.3049C95.1913 40.3732 95.1229 40.4587 95.0546 40.527C94.73 40.8517 94.3883 41.1422 94.0295 41.4327C93.9612 41.4839 93.8758 41.5352 93.8074 41.5865C93.5166 41.8126 93.2144 42.0236 92.902 42.2187C92.7995 42.27 92.714 42.3383 92.6115 42.3896C92.304 42.5775 91.9965 42.7484 91.689 42.9022C91.5865 42.9535 91.5011 43.0047 91.3986 43.0389C91.0739 43.1927 90.7323 43.3465 90.3735 43.4832C90.3052 43.5174 90.2197 43.5515 90.1343 43.5686C89.7414 43.7224 89.3484 43.8591 88.9384 43.9787C88.9042 43.9958 88.8701 43.9958 88.8359 44.0129C86.9908 44.5597 85.009 44.7989 82.9931 44.7989C76.9111 44.7989 70.607 42.5434 66.9851 39.3138C66.6858 39.0414 66.2964 38.8892 65.8917 38.8866C65.8063 38.8866 65.7208 38.9208 65.6525 38.9379C65.5842 38.955 65.4987 38.955 65.4304 38.9891C65.3279 39.0233 65.2254 39.0575 65.1229 39.1088C64.952 39.1942 64.8154 39.2967 64.6787 39.4163C64.6445 39.4505 64.6275 39.4847 64.5933 39.5189C64.4737 39.6556 64.3712 39.8264 64.2858 39.9973C64.2687 40.0315 64.2687 40.0486 64.2516 40.0828C64.1662 40.3049 64.1149 40.5612 64.1491 40.8346C64.6616 45.9951 67.9076 52.4542 75.6297 57.3071C82.976 61.9378 98.4373 61.9891 109.44 54.4534L109.747 54.2484C110.072 54.0091 110.413 53.7699 110.738 53.5307C110.875 53.4282 111.028 53.3086 111.165 53.1889C111.643 52.813 112.105 52.42 112.549 52.0099L113.215 51.3947C113.454 51.2068 113.659 50.9846 113.864 50.7796Z" fill="#577CFF"/>
<path d="M97.728 133.361C97.4983 133.266 97.257 133.203 97.0105 133.173H81.1221C80.8829 133.207 80.6437 133.258 80.4045 133.361C78.9695 133.942 78.1665 135.446 78.8499 137.018C79.5332 138.607 82.6938 143.067 89.0663 143.067C95.4387 143.067 98.5993 138.607 99.2827 137.018C99.949 135.428 99.1631 133.942 97.728 133.361Z" fill="#DBA689"/>
<path d="M51.6813 134.924C57.7954 134.924 62.7519 129.791 62.7519 123.458C62.7519 117.126 57.7954 111.992 51.6813 111.992C45.5671 111.992 40.6107 117.126 40.6107 123.458C40.6107 129.791 45.5671 134.924 51.6813 134.924Z" fill="#312D2D"/>
<path d="M126.372 134.924C132.486 134.924 137.442 129.791 137.442 123.458C137.442 117.126 132.486 111.992 126.372 111.992C120.257 111.992 115.301 117.126 115.301 123.458C115.301 129.791 120.257 134.924 126.372 134.924Z" fill="#312D2D"/>
<path d="M104.978 157.169C98.828 160.826 78.6685 160.826 72.5352 157.169C68.9988 155.067 65.394 158.28 66.8633 161.492C68.2983 164.653 79.3006 171.967 88.8166 171.967C98.3154 171.967 109.181 164.653 110.616 161.492C112.068 158.28 108.498 155.067 104.978 157.169Z" fill="#444444"/>
</svg>
