<svg width="213" height="235" viewBox="0 0 213 235" fill="none" xmlns="http://www.w3.org/2000/svg">
<path d="M64.9324 78.946L66.3247 78.8289C66.8518 78.7704 67.3291 78.585 67.7269 78.3118L67.717 78.3216C69.0495 82.8289 70.6805 87.5703 72.7191 92.5362C75.3346 99.0337 77.9103 104.37 80.7942 109.521L80.3965 108.741C80.1578 112.292 79.8694 115.941 79.4915 119.473C79.3125 121.648 78.8749 123.677 78.2086 125.59L78.2583 125.414C78.139 125.463 77.9699 145.707 77.9699 145.707C77.9799 158.907 87.2981 169.96 99.8284 172.897L100.027 172.936C100.594 171.521 101.967 170.536 103.578 170.536H109.286C110.887 170.555 112.259 171.531 112.826 172.907L112.836 172.936C125.595 169.989 134.953 158.936 135.003 145.726C135.003 145.726 134.655 125.56 134.476 125.424C133.929 123.717 133.491 121.707 133.262 119.638L133.253 119.492C132.904 115.941 132.676 112.38 132.348 108.76C134.804 104.409 137.38 99.0825 139.647 93.5898L140.025 92.5557C142.064 87.5898 143.645 82.8582 145.027 78.3411C145.415 78.6143 145.892 78.7996 146.409 78.8582H146.419L147.822 78.9752C149.512 79.1509 151.004 77.785 151.143 75.6679L152.655 56.829C152.655 56.8192 152.655 56.8095 152.655 56.8095C152.655 55.2193 151.441 53.9119 149.88 53.7168H149.86H149.691C150.079 50.9754 150.298 47.8144 150.298 44.6047C150.298 37.5998 149.244 30.8291 147.285 24.4584L147.414 24.956C141.676 12.6048 130.299 3.63901 116.595 1.1317L116.337 1.09268C113.393 0.497559 109.962 0.0975605 106.462 0H106.372H106.253C102.683 0.0682924 99.2516 0.458534 95.9301 1.15121L96.2881 1.09268C82.3456 3.66828 70.9888 12.6341 65.3203 24.6926L65.2109 24.956C63.3612 30.8096 62.2971 37.5413 62.2971 44.5071C62.2971 47.7559 62.5258 50.9559 62.9733 54.0778L62.9336 53.7168C61.3523 53.8924 60.1292 55.19 60.1292 56.7705V56.8388L61.6407 75.6777C61.78 77.8435 63.2916 79.1509 64.9225 78.9752L64.9324 78.946Z" fill="#F7DECE"/>
<path d="M212.984 203.63C212.288 173.972 209.265 167.26 207.634 162.713C206.987 160.889 206.46 148.557 185.696 140.557C172.966 135.64 156.538 135.543 142.635 129.777V145.816C142.605 163.065 130.015 177.416 113.358 180.547L113.129 180.586C112.821 182.362 111.269 183.689 109.41 183.708H109.231V195.806C109.231 207.63 118.997 217.211 131.05 217.211C143.102 217.211 152.868 207.63 152.868 195.806V187.357C146.822 186.469 142.237 181.416 142.237 175.308C142.237 168.587 147.796 163.133 154.648 163.133C161.5 163.133 167.059 168.587 167.059 175.308C167.059 180.635 163.569 185.162 158.716 186.821L158.626 186.85V195.806V196.264C158.626 211.211 146.275 223.328 131.04 223.328C115.804 223.328 103.453 211.211 103.453 196.264C103.453 196.099 103.453 195.942 103.453 195.777V195.796V183.591C101.683 183.474 100.251 182.167 99.9723 180.489V180.469C83.1658 177.26 70.6354 162.957 70.5957 145.777V129.611C56.6333 135.494 40.1052 135.611 27.3064 140.538C6.48218 148.528 6.00484 160.83 5.36838 162.684C3.77723 167.25 0.714258 173.933 0.0181293 203.611C-0.101207 207.513 0.0181299 213.494 12.0114 218.723C38.1262 228.772 71.7691 231.894 104.935 234.137H108.117C141.352 231.913 174.945 228.801 201.04 218.723C212.984 213.523 213.093 207.572 212.984 203.63ZM66.9857 191.533H54.5946V203.738H45.7439V191.572H33.3528V182.889H45.7439V170.733H54.5946V182.889H66.9857V191.533Z" fill="#577CFF"/>
<path d="M161.36 175.209C161.36 171.58 158.366 168.634 154.667 168.634C150.967 168.634 147.974 171.57 147.974 175.2C147.974 178.829 150.967 181.765 154.667 181.765C158.356 181.765 161.35 178.829 161.36 175.209Z" fill="black"/>
</svg>
