<svg width="735" height="520" viewBox="0 0 735 520" fill="none" xmlns="http://www.w3.org/2000/svg">
<path opacity="0.1" d="M244.623 519.454C280.356 519.454 309.324 514.802 309.324 509.063C309.324 503.323 280.356 498.671 244.623 498.671C208.89 498.671 179.923 503.323 179.923 509.063C179.923 514.802 208.89 519.454 244.623 519.454Z" fill="#B3E5F6"/>
<path opacity="0.1" d="M596.326 519.746C640.915 519.746 677.062 515.094 677.062 509.355C677.062 503.616 640.915 498.963 596.326 498.963C551.737 498.963 515.59 503.616 515.59 509.355C515.59 515.094 551.737 519.746 596.326 519.746Z" fill="#B3E5F6"/>
<path opacity="0.1" d="M9.87136 224.57H77.2611V316.422H14.8049C14.6389 317.365 14.4795 318.314 14.3069 319.264H77.2611V393.34C77.1482 393.307 77.0486 393.267 76.9424 393.227C75.1628 392.523 73.3966 391.78 71.6303 390.983L70.5015 390.472C68.7308 389.635 66.9602 388.75 65.1895 387.816C64.572 387.49 63.9545 387.152 63.3436 386.806C53.5135 381.3 44.5835 374.322 36.8631 366.116C36.6373 365.897 36.4249 365.664 36.1991 365.452C35.1234 364.283 34.0677 363.101 33.0451 361.893L31.9163 360.565C30.7078 359.084 29.5391 357.564 28.4037 356.023C28.2377 355.797 28.0783 355.572 27.9057 355.359C23.2879 348.956 19.4536 342.023 16.4848 334.709C16.3919 334.489 16.3122 334.25 16.2259 334.045C15.314 331.698 14.5061 329.33 13.8023 326.94C13.4968 325.937 13.2047 324.948 12.9523 323.905C12.8594 323.6 12.7797 323.301 12.7067 323.002C8.93512 308.281 8.49023 292.989 8.49023 277.803C8.49023 276.031 8.49023 274.251 8.49023 272.491C8.49023 266.349 8.56328 260.168 8.66952 253.992C8.66952 252.392 8.73591 250.798 8.76911 249.192C8.86208 245.115 8.99488 241.038 9.16752 236.961C9.20736 235.825 9.26048 234.696 9.32024 233.568C9.32024 232.917 9.35344 232.266 9.41984 231.615C9.5792 229.252 9.712 226.908 9.87136 224.57Z" fill="#B3E5F6"/>
<path opacity="0.1" d="M77.261 122.3H40.2959C46.3048 112.895 52.8702 103.857 59.957 95.2354C65.4483 88.4892 71.2451 81.9155 77.261 75.5809V122.3Z" fill="#B3E5F6"/>
<path opacity="0.1" d="M77.2612 125.142V221.728H10.084C10.084 221.449 10.1305 221.164 10.1504 220.885C10.2101 220.121 10.2699 219.358 10.3363 218.601C10.4093 217.711 10.489 216.815 10.5753 215.945C10.6617 215.075 10.7546 214.013 10.8542 213.05C10.9538 212.087 11.0468 211.111 11.1597 210.148C11.2725 209.185 11.3722 208.222 11.4917 207.266C11.6112 206.31 11.7174 205.341 11.8436 204.385C11.9432 203.588 12.0494 202.798 12.1557 202.001C12.3084 200.879 12.4678 199.75 12.6404 198.634C12.6404 198.468 12.6869 198.296 12.7134 198.136C13.9254 189.97 15.5767 181.875 17.6603 173.887C19.8412 165.507 22.6263 157.296 25.9935 149.319C29.5723 140.973 33.7624 132.904 38.5299 125.176L77.2612 125.142Z" fill="#B3E5F6"/>
<path opacity="0.1" d="M93.3496 224.564V316.422H237.286V224.564H93.3496ZM93.3496 319.257V398.141C94.173 398.313 94.9897 398.479 95.7998 398.619C96.902 398.831 97.9976 399.024 99.1198 399.19C99.3323 399.223 99.5514 399.256 99.7838 399.276C100.222 399.349 100.674 399.409 101.112 399.469C102.221 399.621 103.323 399.748 104.432 399.847C104.956 399.9 105.488 399.947 106.019 399.987L107.3 400.086C107.998 400.139 108.688 400.179 109.372 400.199C109.797 400.199 110.222 400.239 110.66 400.252C110.992 400.252 111.324 400.252 111.669 400.252C112.015 400.252 112.506 400.252 112.924 400.252C113.495 400.252 114.067 400.252 114.631 400.252H115.395C115.966 400.252 116.537 400.252 117.101 400.199H117.141C117.533 400.199 117.931 400.199 118.329 400.146C118.44 400.153 118.551 400.153 118.661 400.146C118.993 400.146 119.325 400.146 119.644 400.1H119.877L122.101 399.927C122.831 399.86 123.568 399.774 124.312 399.695L125.826 399.515C131.985 398.652 138.076 397.356 144.053 395.637C157.479 391.892 170.613 386.653 184.033 382.816C201.383 377.869 220.553 375.438 237.319 381.488V319.257H93.3496ZM237.286 122.3V0.010859C221.527 -0.159872 205.811 1.68327 190.52 5.49553C154.073 14.6521 121.371 34.5125 93.3496 59.8774V122.294H100.574V125.129H93.3496V221.728H237.286V125.136H130.235V122.3H237.286ZM422.164 80.9927C413.147 80.674 404.183 77.8188 396.075 73.4098C380.571 64.977 368.187 51.9559 354.349 40.9666C325.598 18.0784 289.941 4.26712 253.361 0.840863V122.3H458.837L459.348 121.763L422.164 80.9927ZM440.882 77.6727L460.729 99.452V71.9623C454.083 72.7857 448.259 74.7445 440.909 77.6462L440.882 77.6727ZM460.729 417.729V319.257H418.439C418.326 318.839 418.213 318.414 418.081 317.989C418.207 318.414 418.313 318.839 418.432 319.257H253.388V390.471C254.955 391.634 256.502 392.855 258.036 394.097C259.689 395.425 261.323 396.826 262.963 398.201L264.616 399.568C265.406 400.232 266.203 400.896 267.006 401.521C268.6 402.813 270.209 404.088 271.834 405.345C272.637 406.009 273.461 406.607 274.277 407.231C287.243 417.144 300.921 426.09 315.2 433.997C318.4 435.768 321.63 437.496 324.888 439.183C327.059 440.292 329.243 441.394 331.435 442.463C334.728 444.07 338.048 445.619 341.395 447.111C372.249 460.961 404.874 470.465 438.339 475.351C445.772 476.449 453.233 477.312 460.723 477.941V417.722H461.387L460.729 417.729ZM253.388 125.136V221.728H460.756V125.136H253.388ZM253.388 224.564V316.422H460.756V224.564H253.388ZM476.851 71.8428V102.506L502.183 74.7113C493.79 73.3567 485.346 72.3895 476.851 71.8096V71.8428ZM476.851 224.597V316.422H678.543V224.564L476.851 224.597ZM677.805 425.02L678.516 319.257H476.851V478.996C489.843 479.542 502.854 479.387 515.828 478.532H516.054C522.252 478.142 528.42 477.575 534.56 476.832H534.699C567.455 473.02 599.484 464.473 629.785 451.46M717.433 239.69C716.676 237.903 715.886 236.131 715.083 234.378C713.582 231.058 711.995 227.83 710.362 224.603H694.625V316.422H734.412C734.392 290.419 727.812 263.859 717.453 239.656L717.433 239.69ZM694.625 319.29V410.259C705.833 399.515 715.302 387.225 722.121 373.174C730.322 356.255 734.073 337.936 734.379 319.277L694.625 319.29ZM694.625 197.831V221.735H708.888C704.573 213.506 699.818 205.515 694.645 197.798L694.625 197.831ZM557.84 89.8638C556.791 89.4654 555.742 89.0604 554.686 88.6686C543.551 84.5566 532.173 81.1371 520.616 78.4297L481.851 120.972L481.108 121.763L481.606 122.307H619.572C600.358 109.08 579.642 98.1788 557.86 89.8306L557.84 89.8638ZM623.616 125.169H479.68L476.851 127.759V221.728H501.645H501.685H678.569V176.211C662.568 156.859 644.1 139.688 623.636 125.136L623.616 125.169Z" fill="#B3E5F6"/>
<path opacity="0.1" d="M77.2612 173.86V221.728H10.084C10.084 221.449 10.1305 221.164 10.1504 220.885C10.2101 220.121 10.2699 219.358 10.3363 218.601C10.4093 217.711 10.489 216.815 10.5753 215.945C10.6617 215.075 10.7546 214.013 10.8542 213.05C10.9538 212.087 11.0468 211.111 11.1597 210.148C11.2725 209.185 11.3722 208.223 11.4917 207.266C11.6112 206.31 11.7174 205.341 11.8436 204.385C11.9432 203.588 12.0494 202.798 12.1557 202.001C12.3084 200.879 12.4678 199.75 12.6404 198.634C12.6404 198.468 12.6869 198.296 12.7134 198.136C13.9254 189.97 15.5767 181.875 17.6603 173.887L77.2612 173.86Z" fill="#B3E5F6"/>
<path opacity="0.1" d="M9.87136 224.57H77.2611V316.422H14.8049C14.6389 317.365 14.4795 318.314 14.3069 319.264H77.2611V393.34C77.1482 393.307 77.0486 393.267 76.9424 393.227C75.1628 392.523 73.3966 391.78 71.6303 390.983L70.5015 390.472C68.7308 389.635 66.9602 388.75 65.1895 387.816C64.572 387.49 63.9545 387.152 63.3436 386.806C53.5135 381.3 44.5835 374.322 36.8631 366.116C36.6373 365.897 36.4249 365.664 36.1991 365.452C35.1234 364.283 34.0677 363.101 33.0451 361.893L31.9163 360.565C30.7078 359.084 29.5391 357.564 28.4037 356.023C28.2377 355.797 28.0783 355.572 27.9057 355.359C23.2879 348.956 19.4536 342.023 16.4848 334.709C16.3919 334.489 16.3122 334.25 16.2259 334.045C15.314 331.698 14.5061 329.33 13.8023 326.94C13.4968 325.937 13.2047 324.948 12.9523 323.905C12.8594 323.6 12.7797 323.301 12.7067 323.002C8.93512 308.281 8.49023 292.989 8.49023 277.803C8.49023 276.031 8.49023 274.251 8.49023 272.491C8.49023 266.349 8.56328 260.168 8.66952 253.992C8.66952 252.392 8.73591 250.798 8.76911 249.192C8.86208 245.115 8.99488 241.038 9.16752 236.961C9.20736 235.825 9.26048 234.696 9.32024 233.568C9.32024 232.917 9.35344 232.266 9.41984 231.615C9.5792 229.252 9.712 226.908 9.87136 224.57Z" fill="#B3E5F6"/>
<path opacity="0.1" d="M144.02 138.967V221.728H93.3496V138.967H100.574V110.946H130.228V138.967H144.02Z" fill="#B3E5F6"/>
<path opacity="0.1" d="M144.02 224.563H93.3564V316.415H144.02V224.563Z" fill="#B3E5F6"/>
<path opacity="0.1" d="M93.3496 319.264H144.02V395.624C138.043 397.342 131.952 398.635 125.793 399.495L124.279 399.681C123.535 399.768 122.798 399.841 122.068 399.914C121.337 399.987 120.58 400.04 119.843 400.086H119.611C119.292 400.086 118.947 400.126 118.635 400.133H118.296C117.898 400.133 117.499 400.173 117.101 400.186C116.537 400.219 115.972 400.226 115.395 400.232C115.149 400.232 114.916 400.232 114.671 400.232C114.1 400.232 113.535 400.232 112.964 400.232H111.709C111.371 400.232 111.045 400.232 110.693 400.232L109.412 400.186C108.748 400.186 108.031 400.113 107.34 400.066L106.065 399.973L104.478 399.827C103.363 399.728 102.254 399.602 101.158 399.449L99.8303 399.263L99.1663 399.17C98.0574 398.997 96.9618 398.811 95.8463 398.599C95.0295 398.459 94.2194 398.287 93.3961 398.121L93.3496 319.264Z" fill="#B3E5F6"/>
<path opacity="0.1" d="M460.756 129.193H418.977V221.722H460.756V129.193Z" fill="#B3E5F6"/>
<path opacity="0.1" d="M460.763 224.563V316.422H253.388V276.801H363.845V300.174H418.977V224.563H460.763Z" fill="#B3E5F6"/>
<path opacity="0.1" d="M461.42 417.749H460.756V478.007C453.275 477.374 445.816 476.513 438.379 475.424C404.898 470.522 372.258 460.998 341.395 447.124C332.484 443.114 323.754 438.736 315.206 433.99C300.928 426.08 287.248 417.134 274.277 407.224C271.019 404.727 267.803 402.173 264.629 399.562C262.431 397.749 260.247 395.89 258.036 394.083C256.502 392.842 254.955 391.62 253.388 390.451V319.264H418.426C418.313 318.839 418.2 318.414 418.08 317.995C418.207 318.414 418.326 318.839 418.439 319.264H460.756V417.709C460.982 417.715 461.201 417.735 461.42 417.749Z" fill="#B3E5F6"/>
<path opacity="0.1" d="M569.719 122.301H542.495V113.841H554.7V88.6422C555.757 89.0273 556.811 89.4235 557.86 89.8308V113.841H569.719V122.301Z" fill="#B3E5F6"/>
<path opacity="0.1" d="M635.309 221.728H501.659C501.659 221.728 501.659 221.728 501.705 221.761L501.645 221.728H476.852V129.199H483.877V197.592H515.981V157.088H542.502V125.142H569.726V157.114H596.246V197.618H635.309V221.728Z" fill="#B3E5F6"/>
<path opacity="0.1" d="M476.852 224.563V316.422H635.309V224.563H476.852ZM678.324 424.548L678.543 351.84H635.309V319.303H476.852V478.996C489.843 479.542 502.854 479.387 515.829 478.532H516.054C522.252 478.142 528.42 477.575 534.56 476.832H534.7C567.455 473.02 599.484 464.473 629.785 451.46" fill="#B3E5F6"/>
<path opacity="0.1" d="M460.762 154.916H438.379V183.926H460.762V154.916Z" fill="#B3E5F6"/>
<path opacity="0.1" d="M460.762 215.048H438.379V221.728H460.762V215.048Z" fill="#B3E5F6"/>
<path opacity="0.1" d="M460.762 224.563H438.379V244.052H460.762V224.563Z" fill="#B3E5F6"/>
<path opacity="0.1" d="M460.762 275.181H438.379V304.191H460.762V275.181Z" fill="#B3E5F6"/>
<path opacity="0.1" d="M460.762 335.313H438.379V364.323H460.762V335.313Z" fill="#B3E5F6"/>
<path opacity="0.1" d="M460.756 417.709C460.982 417.709 461.201 417.709 461.42 417.749H460.756V424.488H438.379V395.445H460.756V417.709Z" fill="#B3E5F6"/>
<path opacity="0.1" d="M460.756 455.564V477.974C453.275 477.341 445.816 476.48 438.379 475.391V455.564H460.756Z" fill="#B3E5F6"/>
<path opacity="0.1" d="M349.316 314.29H253.388V316.422H349.316V314.29Z" fill="#B3E5F6"/>
<path opacity="0.1" d="M349.316 319.257H253.388V327.424H349.316V319.257Z" fill="#B3E5F6"/>
<path opacity="0.1" d="M349.316 354.197H253.388V367.331H349.316V354.197Z" fill="#B3E5F6"/>
<path opacity="0.1" d="M349.31 394.104V407.238H274.277C271.019 404.75 267.801 402.196 264.623 399.575C262.425 397.762 260.247 395.903 258.029 394.104H349.31Z" fill="#B3E5F6"/>
<path opacity="0.1" d="M349.309 434.004V447.124H341.388C332.486 443.109 323.758 438.729 315.206 433.984L349.309 434.004Z" fill="#B3E5F6"/>
<path opacity="0.1" d="M534.719 233.468H515.835V252.352H534.719V233.468Z" fill="#B3E5F6"/>
<path opacity="0.1" d="M125.839 145.481H106.955V164.365H125.839V145.481Z" fill="#B3E5F6"/>
<path opacity="0.1" d="M125.839 189.345H106.955V208.229H125.839V189.345Z" fill="#B3E5F6"/>
<path opacity="0.1" d="M125.839 233.209H106.955V252.093H125.839V233.209Z" fill="#B3E5F6"/>
<path opacity="0.1" d="M125.839 277.066H106.955V295.95H125.839V277.066Z" fill="#B3E5F6"/>
<path opacity="0.1" d="M125.839 320.93H106.955V339.815H125.839V320.93Z" fill="#B3E5F6"/>
<path opacity="0.1" d="M125.839 364.794H106.955V383.679H125.839V364.794Z" fill="#B3E5F6"/>
<path opacity="0.1" d="M606.81 233.468H587.926V252.352H606.81V233.468Z" fill="#B3E5F6"/>
<path opacity="0.1" d="M534.719 280.048H515.835V298.932H534.719V280.048Z" fill="#B3E5F6"/>
<path opacity="0.1" d="M606.81 280.048H587.926V298.932H606.81V280.048Z" fill="#B3E5F6"/>
<path opacity="0.1" d="M534.719 326.621H515.835V345.505H534.719V326.621Z" fill="#B3E5F6"/>
<path opacity="0.1" d="M606.81 326.621H587.926V345.505H606.81V326.621Z" fill="#B3E5F6"/>
<path opacity="0.1" d="M534.719 373.201H515.835V392.085H534.719V373.201Z" fill="#B3E5F6"/>
<path opacity="0.1" d="M606.81 373.201H587.926V392.085H606.81V373.201Z" fill="#B3E5F6"/>
<path opacity="0.1" d="M534.719 419.781H515.835V438.665H534.719V419.781Z" fill="#B3E5F6"/>
<path opacity="0.1" d="M606.81 419.781H587.926V438.665H606.81V419.781Z" fill="#B3E5F6"/>
<path opacity="0.1" d="M515.835 478.532V466.354H534.713V476.799L515.835 478.532Z" fill="#B3E5F6"/>
<path opacity="0.1" d="M12.6338 198.123V208.926H77.2613V198.123H12.6338ZM19.0746 208.249H13.8024V198.787H19.1145L19.0746 208.249ZM25.5088 208.249H20.1968V198.787H25.5088V208.249ZM31.9297 208.249H26.6177V198.787H31.9297V208.249ZM38.3639 208.249H33.0585V198.787H38.3706L38.3639 208.249ZM44.7915 208.249H39.4795V198.787H44.7915V208.249ZM51.2257 208.249H45.9136V198.787H51.2257V208.249ZM57.6599 208.249H52.3478V198.787H57.6599V208.249ZM64.0874 208.249H58.7754V198.787H64.0874V208.249ZM70.515 208.249H65.2029V198.787H70.515V208.249ZM76.9425 208.249H71.6305V198.787H76.9425V208.249Z" fill="#B3E5F6"/>
<path opacity="0.1" d="M12.6338 229.557V240.36H77.2613V229.557H12.6338ZM19.0746 239.676H13.8024V230.241H19.1145L19.0746 239.676ZM25.5088 239.676H20.1968V230.241H25.5088V239.676ZM31.9297 239.676H26.6177V230.241H31.9297V239.676ZM38.3639 239.676H33.0585V230.241H38.3706L38.3639 239.676ZM44.7915 239.676H39.4795V230.241H44.7915V239.676ZM51.2257 239.676H45.9136V230.241H51.2257V239.676ZM57.6599 239.676H52.3478V230.241H57.6599V239.676ZM64.0874 239.676H58.7754V230.241H64.0874V239.676ZM70.515 239.676H65.2029V230.241H70.515V239.676ZM76.9425 239.676H71.6305V230.241H76.9425V239.676Z" fill="#B3E5F6"/>
<path opacity="0.1" d="M12.6338 261.004V271.827H77.2613V261.004H12.6338ZM19.0746 271.123H13.8024V261.681H19.1145L19.0746 271.123ZM25.5088 271.123H20.1968V261.681H25.5088V271.123ZM31.9297 271.123H26.6177V261.681H31.9297V271.123ZM38.3639 271.123H33.0585V261.681H38.3706L38.3639 271.123ZM44.7915 271.123H39.4795V261.681H44.7915V271.123ZM51.2257 271.123H45.9136V261.681H51.2257V271.123ZM57.6599 271.123H52.3478V261.681H57.6599V271.123ZM64.0874 271.123H58.7754V261.681H64.0874V271.123ZM70.515 271.123H65.2029V261.681H70.515V271.123ZM76.9425 271.123H71.6305V261.681H76.9425V271.123Z" fill="#B3E5F6"/>
<path opacity="0.1" d="M12.6338 292.451V303.241H77.2613V292.451H12.6338ZM19.0746 302.571H13.8024V293.122H19.1145L19.0746 302.571ZM25.5088 302.571H20.1968V293.122H25.5088V302.571ZM31.9297 302.571H26.6177V293.122H31.9297V302.571ZM38.3639 302.571H33.0585V293.122H38.3706L38.3639 302.571ZM44.7915 302.571H39.4795V293.122H44.7915V302.571ZM51.2257 302.571H45.9136V293.122H51.2257V302.571ZM57.6599 302.571H52.3478V293.122H57.6599V302.571ZM64.0874 302.571H58.7754V293.122H64.0874V302.571ZM70.515 302.571H65.2029V293.122H70.515V302.571ZM76.9425 302.571H71.6305V293.122H76.9425V302.571Z" fill="#B3E5F6"/>
<path opacity="0.1" d="M12.9121 323.892C13.1711 324.908 13.4632 325.924 13.7687 326.926V324.569H19.0807V334.011H16.2388C16.3251 334.23 16.4114 334.469 16.4977 334.675H77.2607V323.892H12.9121ZM25.5282 334.011H20.2161V324.569H25.5282V334.011ZM31.9491 334.011H26.6371V324.569H31.9491V334.011ZM38.3833 334.011H33.058V324.569H38.37L38.3833 334.011ZM44.8108 334.011H39.4988V324.569H44.8108V334.011ZM51.245 334.011H45.933V324.569H51.245V334.011ZM57.6792 334.011H52.3672V324.569H57.6792V334.011ZM64.1068 334.011H58.7947V324.569H64.1068V334.011ZM70.5343 334.011H65.2223V324.569H70.5343V334.011ZM76.9619 334.011H71.6499V324.569H76.9619V334.011Z" fill="#B3E5F6"/>
<path opacity="0.1" d="M27.9189 355.339C28.0849 355.552 28.2443 355.791 28.4169 356.003H31.9295V360.538C32.308 360.99 32.6799 361.441 33.065 361.866V355.977H38.377V365.452H36.2256C36.4381 365.671 36.6439 365.903 36.8896 366.116H77.281V355.339H27.9189ZM44.7913 365.452H39.4792V356.016H44.7913V365.452ZM51.2255 365.452H45.9134V356.016H51.2255V365.452ZM57.6597 365.452H52.3476V356.016H57.6597V365.452ZM64.0872 365.452H58.7752V356.016H64.0872V365.452ZM70.5148 365.452H65.2027V356.016H70.5148V365.452ZM76.9423 365.452H71.6303V356.016H76.9423V365.452Z" fill="#B3E5F6"/>
<path opacity="0.1" d="M63.3701 386.78C63.9744 387.125 64.5919 387.444 65.216 387.789V387.457H70.5281V390.445L71.6569 390.97V387.457H76.9689V393.201C77.0708 393.251 77.1776 393.291 77.2876 393.32V386.78H63.3701Z" fill="#B3E5F6"/>
<path opacity="0.1" d="M418.081 317.989C418.207 318.414 418.313 318.839 418.432 319.257C418.326 318.839 418.213 318.414 418.081 317.989ZM100.601 122.28V125.116H130.262V122.28H100.601ZM418.081 317.989C418.207 318.414 418.313 318.839 418.432 319.257C418.326 318.839 418.213 318.414 418.081 317.989ZM418.081 317.989C418.207 318.414 418.313 318.839 418.432 319.257C418.326 318.839 418.213 318.414 418.081 317.989Z" fill="#B3E5F6"/>
<path d="M307.185 252.106C307.185 252.106 304.569 251.741 304.569 247.93C304.569 244.118 302.697 237 302.697 237C302.697 236.967 301.076 224.603 298.839 222.638C296.601 220.672 293.726 209.132 293.726 209.132C293.726 209.132 293.235 202.87 292.232 201.523C291.229 200.175 289.875 196.875 287.876 192.167C285.877 187.459 277.544 184.199 277.544 184.199C277.544 184.199 262.478 175.46 258.208 172.612C257.82 172.378 257.458 172.104 257.126 171.795C256.382 170.819 253.142 170.799 253.142 170.799C252.803 168.661 252.478 166.204 252.372 163.98C252.372 163.741 252.372 163.502 252.339 163.263C257.099 160.449 260.685 156.011 262.438 150.766C262.518 150.514 262.584 150.248 262.657 149.996C262.942 149.902 263.205 149.749 263.428 149.548C263.651 149.347 263.829 149.101 263.952 148.827C264.337 147.971 264.344 146.968 264.822 146.171C265.38 145.228 266.442 144.724 267.279 144.013C269.39 142.22 269.935 139.199 269.835 136.45C269.769 134.226 269.41 131.981 269.55 129.77L269.589 129.213C269.629 128.881 269.676 128.549 269.735 128.23C270.061 126.583 270.771 125.029 271.17 123.396C271.568 121.762 271.608 119.923 270.678 118.515C269.317 116.45 266.482 116.039 263.992 115.826C261.17 115.587 258.647 115.899 256.841 113.555C255.995 112.33 255.044 111.182 253.999 110.122C253.627 109.777 250.015 107.573 250.015 107.427C246.489 105.794 242.493 105.487 238.76 106.563C236.887 107.108 235.121 107.998 233.222 108.443C229.125 109.412 224.411 108.363 220.931 110.707C218.992 112.035 217.83 114.146 216.741 116.205C215.856 117.9 214.957 119.593 214.046 121.284C212.578 124.067 211.084 126.895 210.467 129.976C210.337 130.647 210.257 131.326 210.227 132.008V132.041C210.227 132.287 210.227 132.533 210.227 132.778V133.09C210.227 133.323 210.227 133.549 210.267 133.754C210.307 133.96 210.301 134.027 210.32 134.166C210.34 134.305 210.374 134.618 210.413 134.83C210.453 135.043 210.533 135.414 210.613 135.707C210.646 135.833 210.692 135.952 210.732 136.072C210.799 136.297 210.878 136.517 210.965 136.736C211.011 136.849 211.057 136.968 211.111 137.081C211.21 137.313 211.33 137.539 211.449 137.745C211.502 137.838 211.542 137.924 211.595 138.011C211.781 138.319 211.985 138.617 212.206 138.9C213.627 140.673 215.719 141.802 217.266 143.462C217.266 143.528 217.266 143.595 217.266 143.655C217.266 143.841 217.266 144.02 217.266 144.206C217.348 147.908 218.333 151.534 220.136 154.768C221.939 158.003 224.505 160.748 227.611 162.765C227.611 163.017 227.644 163.276 227.658 163.528C227.787 165.499 227.763 167.477 227.585 169.445C227.314 169.126 226.976 168.872 226.594 168.702C226.213 168.532 225.798 168.45 225.38 168.462C225.095 168.448 224.809 168.472 224.53 168.535L224.47 168.488V168.548C223.01 168.907 221.21 170.427 219.49 174.75C219.49 174.75 214.258 180.646 210.274 180.401C206.29 180.155 196.204 186.536 196.204 186.536C196.204 186.536 186.363 192.924 184.252 199.431C183.071 203.121 181.656 206.732 180.015 210.241L167.851 235.307L165.606 255.194C165.606 255.194 166.848 264.038 166.602 265.386C166.357 266.734 171.709 278.892 171.709 278.892C171.709 278.892 189.391 309.961 196.615 311.555L197.133 311.189C197.442 311.351 197.77 311.473 198.109 311.555L199.597 310.505C199.686 311.675 199.648 312.85 199.484 314.011C198.488 317.079 199.856 337.099 201.595 341.023C203.335 344.947 202.718 396.401 202.718 396.401L202.472 400.943C202.472 400.943 202.472 401.089 202.532 401.341L202.472 402.417L202.651 402.51C202.837 403.95 202.777 405.412 202.472 406.832C201.848 408.824 201.595 414.455 201.595 414.455C201.595 414.455 196.622 446.248 198.979 452.635C201.336 459.023 203.342 466.022 203.342 466.022C203.342 466.022 205.832 473.99 203.461 475.351C201.091 476.712 194.351 478.996 195.739 482.316C197.001 485.384 201.788 493.604 202.498 494.806L202.439 495.437L201.463 506.015C201.621 507.411 201.999 508.774 202.585 510.052C203.654 512.356 205.732 514.746 209.683 514.487C210.347 514.441 211.117 514.361 211.861 514.262C219.092 513.292 227.996 510.065 227.996 510.065C227.534 509.771 227.11 509.421 226.735 509.023C226.379 508.678 226.098 508.265 225.907 507.809C225.716 507.352 225.621 506.861 225.626 506.367C225.732 504.441 222.126 495.264 221.23 493.007C221.091 492.681 221.018 492.496 221.018 492.496C221.018 492.496 229.238 483.903 227.87 476.287C227.87 476.287 218.773 470.975 221.768 468.06C224.763 465.145 230.114 456.772 230.114 456.772C230.114 456.772 230.36 425.464 230.114 420.79C229.858 417.545 230.012 414.281 230.573 411.075C230.672 410.591 230.792 410.119 230.918 409.654C235.059 410.273 239.24 410.59 243.428 410.604C244.955 410.604 246.509 410.604 248.076 410.511C248.076 410.954 248.096 411.432 248.135 411.945C248.481 419.701 249.125 433.3 249.649 438.353C250.393 445.597 254.503 465.119 254.503 465.119C254.503 465.119 246.661 470.152 255.871 482.555C255.871 482.555 255.871 487.051 255.26 487.701C254.608 489.829 254.083 491.993 253.687 494.182C253.301 496.519 253.142 498.883 253.766 500.112C255.26 503.047 264.224 502.808 264.224 502.808L264.443 502.768C266.136 502.593 267.846 502.756 269.475 503.247C271.104 503.738 272.619 504.548 273.932 505.63C277.338 508.365 290.266 507.163 297.265 506.294C300.007 505.948 301.84 505.63 301.84 505.63C301.929 505.319 301.96 504.995 301.933 504.673C301.86 502.954 300.512 499.182 291.375 495.816C291.375 495.816 282.783 490.039 282.903 485.006H282.723H281.727C282.451 484.966 282.916 485.006 282.916 485.006C282.916 485.006 279.549 472.722 280.924 471.726C282.298 470.73 278.182 457.117 278.182 457.117C278.182 457.117 275.824 434.276 275.698 432.675C275.704 431.302 275.912 429.937 276.316 428.625L275.698 416.102C275.698 416.102 275.579 411.939 275.698 410.584C275.678 409.408 275.583 408.235 275.413 407.071C275.353 406.607 275.293 406.122 275.227 405.644C278.447 404.827 280.539 404.07 280.539 404.07L280.167 360.478C282.903 355.166 283.407 343.513 283.394 335.246C283.394 329.934 283.155 326.003 283.155 326.003L286.893 319.901C286.893 319.901 287.757 312.597 286.389 310.997C285.784 310.273 286.057 309.523 286.555 308.905C286.813 308.7 287.086 308.514 287.371 308.347C287.371 308.347 287.332 308.288 287.285 308.201C287.546 307.983 287.824 307.786 288.115 307.61C288.115 307.61 286.787 305.552 287.976 304.682C289.091 305.439 290.087 306.01 290.844 306.475C290.791 306.96 290.738 307.239 290.738 307.239L291.057 306.575C291.787 306.986 292.232 307.239 292.232 307.239C292.232 307.239 298.088 295.572 297.962 293.852C297.836 292.132 301.946 284.888 301.946 284.888C301.946 284.888 302.444 281.083 304.689 279.49C306.933 277.896 306.428 266.349 306.428 266.349C306.428 266.349 307.052 260.333 308.546 257.877C310.04 255.42 307.185 252.106 307.185 252.106ZM195.128 246.987L195.241 249.769C194.577 248.7 194.099 247.93 194.099 247.93L195.128 246.987Z" fill="url(#paint0_linear_806_55)"/>
<path d="M292.551 302.199L291.117 308.307C291.117 308.307 279.629 302.444 277.558 294.994C275.486 287.544 281.024 284.715 281.024 284.715L291.728 289.251L292.551 302.199Z" fill="white"/>
<path opacity="0.1" d="M292.551 302.199L291.117 308.307C291.117 308.307 279.629 302.444 277.558 294.994C275.486 287.544 281.024 284.715 281.024 284.715L291.728 289.251L292.551 302.199Z" fill="black"/>
<path d="M228.083 510.105C228.083 510.105 217.459 514.009 210.155 514.501C206.277 514.76 204.238 512.383 203.189 510.092C202.616 508.818 202.247 507.463 202.094 506.075L203.043 495.55L203.548 489.946L219.066 485.915L221.264 492.635L221.469 493.146C222.352 495.391 225.892 504.521 225.785 506.426C225.781 506.914 225.875 507.398 226.062 507.849C226.249 508.3 226.526 508.708 226.874 509.049C227.231 509.451 227.637 509.806 228.083 510.105Z" fill="white"/>
<path d="M300.652 504.753C300.678 505.073 300.647 505.394 300.559 505.703C300.559 505.703 277.837 509.494 273.189 505.703C271.878 504.595 270.351 503.774 268.704 503.291C267.057 502.809 265.328 502.676 263.627 502.901C263.627 502.901 254.836 503.14 253.368 500.245C252.757 499.03 252.917 496.672 253.295 494.348C253.681 492.171 254.196 490.018 254.836 487.901L255.188 487.622L257.279 485.942L281.768 485.218H281.954C281.834 490.225 290.267 495.968 290.267 495.968C299.224 499.288 300.546 503.04 300.652 504.753Z" fill="white"/>
<path opacity="0.1" d="M300.651 504.753C300.675 505.073 300.641 505.395 300.552 505.703C300.552 505.703 277.836 509.494 273.188 505.703C271.878 504.596 270.352 503.775 268.707 503.293C267.061 502.81 265.333 502.677 263.633 502.901C263.633 502.901 254.835 503.14 253.374 500.245C252.763 499.023 252.916 496.672 253.295 494.348C256.681 494.687 262.026 495.53 264.124 497.542C267.298 500.603 272.677 503.658 275.977 503.897C278.56 504.063 294.011 504.554 300.651 504.753Z" fill="black"/>
<path opacity="0.1" d="M228.082 510.105C228.082 510.105 217.458 514.009 210.154 514.501C206.276 514.76 204.238 512.383 203.195 510.085C205.898 510.995 209.649 511.951 211.622 511.075C213.959 510.039 222.246 509.368 226.894 509.083C227.247 509.47 227.646 509.813 228.082 510.105Z" fill="black"/>
<path d="M243.846 195.467C235.081 192.061 223.806 180.806 226.622 175.547C227.247 174.22 227.619 172.788 227.717 171.324C227.898 169.337 227.925 167.339 227.797 165.348C227.6 162.087 227.207 158.841 226.622 155.627C226.622 155.627 253.985 156.244 252.392 160.275C251.927 161.457 251.854 163.509 251.98 165.806C252.106 168.103 252.438 170.7 252.783 172.898C253.262 175.912 253.74 178.21 253.74 178.21C253.74 178.21 252.066 180.554 251.084 180.68C250.101 180.806 256.422 200.321 243.846 195.467Z" fill="#CF6F80"/>
<path opacity="0.1" d="M221.45 493.146L221.244 493.372C213.063 483.479 203.17 495.809 203.17 495.809L203.023 495.55L203.528 489.946L219.046 485.915L221.244 492.635L221.45 493.146Z" fill="black"/>
<path opacity="0.1" d="M281.96 485.915C281.96 485.915 275.984 485.789 272.797 488.605C269.609 491.42 254.204 489.216 254.868 488.605C255.065 488.302 255.184 487.955 255.214 487.595L257.305 485.915L281.794 485.192C281.887 485.637 281.96 485.915 281.96 485.915Z" fill="black"/>
<path d="M231.628 408.22C231.183 409.321 230.845 410.461 230.619 411.626C230.065 414.818 229.912 418.065 230.161 421.294C230.407 425.942 230.161 457.091 230.161 457.091C230.161 457.091 224.909 465.398 221.98 468.326C219.052 471.254 227.956 476.513 227.956 476.513C229.285 484.083 221.237 492.635 221.237 492.635C213.056 482.741 203.163 495.078 203.163 495.078C203.163 495.078 197.784 485.782 196.443 482.462C195.102 479.142 201.695 476.845 204.013 475.497C206.33 474.149 203.9 466.201 203.9 466.201C203.9 466.201 201.941 459.236 199.617 452.881C197.293 446.527 202.18 414.893 202.18 414.893C202.18 414.893 202.432 409.276 203.036 407.317C203.341 405.904 203.402 404.448 203.216 403.014C203.176 402.53 203.129 402.125 203.096 401.852C203.063 401.58 203.036 401.454 203.036 401.454L203.129 401.295L206.449 395.106C206.449 395.106 233.222 404.322 231.628 408.22Z" fill="#B3E5F6"/>
<path d="M281.96 485.185C281.96 485.185 275.984 485.059 272.797 487.841C269.61 490.623 254.205 488.452 254.869 487.841C255.533 487.23 255.48 482.708 255.48 482.708C246.442 470.371 254.152 465.364 254.152 465.364C254.152 465.364 250.114 445.942 249.384 438.738C248.873 433.705 248.242 420.179 247.903 412.457C247.757 409.137 247.671 406.852 247.671 406.852L255.055 405.365L256.004 405.173L273.813 401.6C273.813 401.6 274.304 404.92 274.636 407.636C274.802 408.796 274.895 409.964 274.915 411.135C274.795 412.463 274.915 416.62 274.915 416.62L275.519 429.083C275.124 430.391 274.921 431.748 274.915 433.114C275.034 434.701 277.352 457.423 277.352 457.423C277.352 457.423 281.382 470.982 280.008 471.958C278.633 472.934 281.96 485.185 281.96 485.185Z" fill="#B3E5F6"/>
<path opacity="0.1" d="M252.392 160.275C251.927 161.457 251.854 163.509 251.98 165.806C248.315 168.013 244.102 169.142 239.824 169.062C235.546 168.982 231.378 167.697 227.797 165.354C227.6 162.091 227.208 158.843 226.622 155.627C226.622 155.627 253.986 156.231 252.392 160.275Z" fill="black"/>
<path d="M262.97 145.6C262.975 147.993 262.598 150.371 261.854 152.645C260.19 157.741 256.779 162.084 252.223 164.907C247.667 167.731 242.259 168.852 236.956 168.075C231.653 167.297 226.795 164.669 223.242 160.656C219.689 156.643 217.669 151.503 217.538 146.145C217.538 145.959 217.538 145.786 217.538 145.6C217.487 142.584 218.036 139.588 219.155 136.786C220.274 133.985 221.939 131.434 224.054 129.283C226.168 127.131 228.69 125.423 231.472 124.256C234.254 123.09 237.241 122.49 240.257 122.49C243.274 122.49 246.26 123.09 249.042 124.256C251.824 125.423 254.346 127.131 256.461 129.283C258.576 131.434 260.241 133.985 261.36 136.786C262.478 139.588 263.028 142.584 262.976 145.6H262.97Z" fill="#CF6F80"/>
<path opacity="0.1" d="M243.846 195.467C235.081 192.06 223.806 180.806 226.622 175.547C227.247 174.22 227.619 172.787 227.717 171.324L239.716 181.184L247.139 187.273L252.783 172.904C253.262 175.918 253.74 178.216 253.74 178.216C253.74 178.216 252.066 180.56 251.084 180.686C250.101 180.812 256.422 200.321 243.846 195.467Z" fill="black"/>
<path d="M274.875 239.045L264.855 407.37L251.788 408.227L217.95 310.625L223.501 194.75L224.67 170.268L239.716 182.625L247.146 188.714L252.956 173.927L263.76 183.342L274.875 239.045Z" fill="#B3E5F6"/>
<path opacity="0.1" d="M231.628 408.22C231.183 409.321 230.845 410.461 230.619 411.626C221.11 410.158 211.876 407.273 203.222 403.067L203.043 402.975L203.103 401.905L203.136 401.348L206.456 395.159C206.456 395.159 233.222 404.322 231.628 408.22Z" fill="black"/>
<path opacity="0.1" d="M255.207 411.653C252.776 412.066 250.325 412.346 247.863 412.49C247.717 409.17 247.631 406.886 247.631 406.886L255.015 405.398L255.207 411.653Z" fill="black"/>
<path opacity="0.1" d="M274.596 407.669C269.875 408.898 262.584 410.279 256.057 409.415L255.964 405.206L273.772 401.633C273.772 401.633 274.264 404.92 274.596 407.669Z" fill="black"/>
<path opacity="0.1" d="M255.937 410.186C228.713 414.834 203.78 401.507 203.78 401.507L204.019 396.992C204.019 396.992 204.637 345.804 202.923 341.88C201.21 337.955 199.876 318.055 200.845 315.001C201.815 311.946 197.306 266.143 197.306 266.143L196.576 247.551L169.843 236.721L181.795 211.808C183.409 208.315 184.798 204.722 185.952 201.051C188.03 194.584 197.678 188.229 197.678 188.229C197.678 188.229 207.571 181.881 211.482 182.12C215.393 182.359 220.52 176.503 220.52 176.503C224.304 166.855 227.731 171.224 227.731 171.224C227.731 171.682 227.731 171.224 227.545 172.652C226.217 183.243 249.019 216.708 249.344 217.299L251.515 270.194L253.713 337.132L255.937 410.186Z" fill="black"/>
<path d="M255.207 410.186C227.983 414.834 203.043 401.507 203.043 401.507L203.289 396.992C203.289 396.992 203.906 345.804 202.187 341.88C200.467 337.956 199.139 318.055 200.115 315.001C201.091 311.947 196.576 266.144 196.576 266.144L195.839 247.552L169.093 236.682L181.045 211.768C182.656 208.274 184.044 204.681 185.202 201.012C187.273 194.544 196.928 188.19 196.928 188.19C196.928 188.19 206.821 181.842 210.726 182.081C214.63 182.32 219.763 176.463 219.763 176.463C223.554 166.815 227.731 171.185 227.731 171.185C227.731 171.643 227.333 171.849 227.545 172.612C230.467 182.884 248.288 216.669 248.614 217.26L250.812 270.154L253.01 337.092L255.207 410.186Z" fill="white"/>
<path opacity="0.1" d="M247.869 218.767C244.941 217.545 229.43 199.836 229.43 199.836V195.805C228.866 194.477 225.512 195.288 222.79 196.217L223.959 171.735L225.287 172.838C228.195 183.103 247.531 218.176 247.869 218.767Z" fill="black"/>
<path d="M248.607 217.299C245.672 216.078 230.161 198.369 230.161 198.369V194.338C229.596 193.01 226.243 193.82 223.521 194.75L224.696 170.268L226.024 171.37C228.939 181.636 248.281 216.715 248.607 217.299Z" fill="white"/>
<path opacity="0.1" d="M203.78 305.618C204.145 305.618 222.711 303.666 222.711 303.666C222.711 303.666 233.952 325.771 233.215 331.149C232.478 336.528 231.144 341.289 226.622 340.445C222.1 339.602 202.286 341.109 202.286 341.109L203.78 305.618Z" fill="black"/>
<path d="M203.043 304.151C203.408 304.151 221.974 302.199 221.974 302.199C221.974 302.199 233.209 324.31 232.478 329.682C231.748 335.054 230.4 339.821 225.885 338.978C221.369 338.135 201.549 339.642 201.549 339.642L203.043 304.151Z" fill="white"/>
<path d="M217.033 293.773C217.033 293.773 234.072 302.929 234.437 305.725C234.802 308.52 225.765 304.503 223.813 304.018C222.528 303.709 221.22 303.504 219.902 303.407L206.881 303.759L217.033 293.773Z" fill="#CF6F80"/>
<path opacity="0.1" d="M243.116 219.909C244.106 219.909 244.909 219.106 244.909 218.116C244.909 217.126 244.106 216.323 243.116 216.323C242.126 216.323 241.323 217.126 241.323 218.116C241.323 219.106 242.126 219.909 243.116 219.909Z" fill="black"/>
<path d="M243.116 219.179C244.106 219.179 244.909 218.376 244.909 217.386C244.909 216.396 244.106 215.593 243.116 215.593C242.126 215.593 241.323 216.396 241.323 217.386C241.323 218.376 242.126 219.179 243.116 219.179Z" fill="#3F3D56"/>
<path opacity="0.1" d="M246.416 297.518C247.406 297.518 248.209 296.715 248.209 295.725C248.209 294.735 247.406 293.932 246.416 293.932C245.426 293.932 244.623 294.735 244.623 295.725C244.623 296.715 245.426 297.518 246.416 297.518Z" fill="black"/>
<path d="M246.416 296.78C247.406 296.78 248.209 295.978 248.209 294.988C248.209 293.998 247.406 293.195 246.416 293.195C245.426 293.195 244.623 293.998 244.623 294.988C244.623 295.978 245.426 296.78 246.416 296.78Z" fill="#3F3D56"/>
<path opacity="0.1" d="M244.902 258.713C245.892 258.713 246.695 257.911 246.695 256.921C246.695 255.93 245.892 255.128 244.902 255.128C243.912 255.128 243.109 255.93 243.109 256.921C243.109 257.911 243.912 258.713 244.902 258.713Z" fill="black"/>
<path d="M244.902 257.983C245.892 257.983 246.695 257.18 246.695 256.19C246.695 255.2 245.892 254.397 244.902 254.397C243.912 254.397 243.109 255.2 243.109 256.19C243.109 257.18 243.912 257.983 244.902 257.983Z" fill="#3F3D56"/>
<path d="M286.23 303.036C286.23 303.036 287.452 304.868 286.23 305.725C285.008 306.581 286.349 308.653 286.349 308.653C286.349 308.653 283.302 310.439 284.643 312.046C285.984 313.653 285.134 320.91 285.134 320.91L281.469 326.979C281.469 326.979 281.688 330.89 281.701 336.176C281.701 344.423 281.217 356.016 278.534 361.302L278.906 404.668C278.906 404.668 266.071 409.356 255.327 407.928L253.734 338.341C253.734 338.341 256.058 298.879 256.914 291.309C257.415 287.379 257.62 283.417 257.525 279.457C257.525 279.457 257.16 267.611 255.931 262.113C255.931 262.113 254.603 238.295 254.471 231.702C254.411 228.548 254.577 219.345 254.763 210.593C254.969 201.025 255.201 192.001 255.201 192.001L252.777 172.824C252.777 172.824 255.201 172.579 255.931 173.555C256.259 173.86 256.614 174.134 256.994 174.372C261.177 177.2 275.958 185.899 275.958 185.899C275.958 185.899 284.138 189.152 286.097 193.814C288.056 198.475 289.417 201.782 290.367 203.11C291.316 204.438 291.834 210.679 291.834 210.679C291.834 210.679 294.649 222.167 296.847 224.112C299.045 226.058 300.652 238.435 300.652 238.435L281.23 253.707C281.23 253.707 279.523 279.111 279.158 280.094C278.793 281.077 286.23 303.036 286.23 303.036Z" fill="white"/>
<path d="M286.967 303.036C286.967 303.036 288.182 304.868 286.967 305.725C285.751 306.581 287.079 308.653 287.079 308.653C287.079 308.653 284.052 310.459 285.38 312.066C286.708 313.673 285.871 320.93 285.871 320.93L282.206 326.999C282.206 326.999 282.425 330.91 282.445 336.196C282.445 344.443 281.96 356.036 279.277 361.322L279.643 404.688C279.643 404.688 266.787 409.376 256.057 407.948L254.47 338.361C254.47 338.361 256.794 298.899 257.651 291.329C258.153 287.399 258.355 283.437 258.255 279.477C258.255 279.477 257.89 267.631 256.668 262.133C256.668 262.133 255.34 238.315 255.201 231.722C255.141 228.568 255.313 219.364 255.493 210.613C255.699 201.045 255.931 192.021 255.931 192.021L252.73 172.585C252.73 172.585 255.931 172.585 256.668 173.575C256.992 173.884 257.348 174.158 257.73 174.392C261.914 177.22 276.701 185.919 276.701 185.919C276.701 185.919 284.875 189.172 286.834 193.834C288.793 198.495 290.154 201.802 291.11 203.13C292.066 204.458 292.571 210.699 292.571 210.699C292.571 210.699 295.386 222.187 297.584 224.132C299.782 226.078 301.369 238.428 301.369 238.428L281.947 253.7C281.947 253.7 280.24 279.105 279.868 280.088C279.496 281.07 286.967 303.036 286.967 303.036Z" fill="white"/>
<path opacity="0.1" d="M263.707 197.658L265.46 202.771L256.23 212.067C256.436 202.505 256.668 193.475 256.668 193.475L253.468 174.04C253.468 174.04 256.668 174.04 257.405 175.029C257.728 175.337 258.085 175.609 258.468 175.839L266.316 198.482L263.707 197.658Z" fill="black"/>
<path d="M262.969 196.191L264.729 201.304L255.499 210.6C255.705 201.031 255.938 192.008 255.938 192.008L252.73 172.572C252.73 172.572 255.938 172.572 256.668 173.562C256.994 173.869 257.35 174.143 257.73 174.378L265.586 197.014L262.969 196.191Z" fill="white"/>
<path opacity="0.1" d="M262.97 145.6C262.975 147.993 262.598 150.371 261.854 152.645C261.729 152.665 261.601 152.659 261.477 152.628C261.354 152.597 261.238 152.542 261.137 152.466C260.964 146.49 258.023 140.879 254.404 136.105C253.388 134.663 252.156 133.387 250.752 132.32C249.332 131.254 247.566 130.754 245.798 130.919C243.806 131.191 242.047 132.546 240.035 132.718C237.379 132.938 235.002 131.098 232.366 131.005C231.294 131.015 230.237 131.254 229.265 131.705C228.293 132.156 227.428 132.81 226.728 133.621C225.343 135.26 224.315 137.168 223.707 139.226C222.663 142.345 222.094 145.605 222.02 148.894C221.987 150.753 221.808 153.083 220.082 153.761C220.212 152.393 220.056 151.014 219.625 149.71C219.194 148.406 218.497 147.205 217.578 146.184L217.538 146.145C217.538 145.959 217.538 145.786 217.538 145.6C217.487 142.584 218.036 139.588 219.155 136.786C220.274 133.985 221.939 131.434 224.054 129.283C226.168 127.131 228.69 125.423 231.472 124.256C234.254 123.09 237.241 122.49 240.257 122.49C243.274 122.49 246.26 123.09 249.042 124.256C251.824 125.423 254.346 127.131 256.461 129.283C258.576 131.434 260.241 133.985 261.36 136.786C262.478 139.588 263.028 142.584 262.976 145.6H262.97Z" fill="black"/>
<path d="M249.663 109.525C246.212 107.902 242.288 107.595 238.627 108.662C236.788 109.206 235.055 110.089 233.189 110.534C229.205 111.497 224.557 110.455 221.137 112.785C219.238 114.113 218.096 116.212 217.034 118.25L214.378 123.31C212.93 126.079 211.469 128.894 210.865 131.942C210.261 134.99 210.626 138.403 212.558 140.853C213.966 142.639 216.044 143.761 217.572 145.441C218.487 146.463 219.181 147.663 219.61 148.965C220.04 150.268 220.196 151.645 220.068 153.011C221.801 152.347 221.967 150.009 222.007 148.15C222.081 144.861 222.65 141.602 223.694 138.482C224.3 136.424 225.329 134.515 226.715 132.878C227.415 132.067 228.28 131.414 229.252 130.963C230.224 130.512 231.281 130.273 232.352 130.262C235.008 130.355 237.392 132.188 240.022 131.968C242.014 131.802 243.78 130.441 245.785 130.176C247.553 130.008 249.32 130.508 250.739 131.577C252.142 132.642 253.372 133.919 254.384 135.361C258.009 140.136 260.951 145.733 261.124 151.722C261.874 152.274 262.956 151.556 263.328 150.707C263.7 149.857 263.713 148.861 264.185 148.051C264.729 147.114 265.772 146.616 266.588 145.912C268.66 144.126 269.178 141.118 269.098 138.389C269.019 135.66 268.487 132.891 269.005 130.209C269.317 128.562 270.021 127.022 270.406 125.395C270.792 123.768 270.838 121.942 269.928 120.541C268.6 118.482 265.805 118.077 263.368 117.885C260.599 117.646 258.122 117.951 256.356 115.621C255.527 114.404 254.594 113.262 253.567 112.208C253.215 111.862 249.663 109.671 249.663 109.525Z" fill="#512E4E"/>
<path opacity="0.1" d="M177.492 249.55L170.553 236.721L168.355 256.515C168.355 256.515 169.577 265.307 169.332 266.655C169.086 268.003 174.338 280.088 174.338 280.088C174.338 280.088 191.689 310.99 198.773 312.584L222.711 295.479L216.363 287.418C216.363 287.418 214.165 286.562 213.614 287.418C213.614 287.418 201.828 267.139 200.606 265.672C199.384 264.205 199.623 261.276 199.623 261.276C199.623 261.276 197.791 259.324 198.402 257.491C199.013 255.659 194.862 249.304 194.862 249.304L198.647 245.765L177.492 249.55Z" fill="black"/>
<path d="M170.918 235.26L169.086 236.721L166.888 256.515C166.888 256.515 168.109 265.307 167.864 266.655C167.618 268.003 172.877 280.087 172.877 280.087C172.877 280.087 190.221 310.99 197.306 312.584L221.25 295.479L214.895 287.418C214.895 287.418 212.697 286.561 212.146 287.418C212.146 287.418 200.36 267.139 199.138 265.672C197.917 264.204 198.162 261.276 198.162 261.276C198.162 261.276 196.33 259.324 196.94 257.491C197.551 255.659 193.395 249.304 193.395 249.304L197.18 245.765L170.918 235.26Z" fill="white"/>
<path opacity="0.1" d="M284.643 312.803C285.971 314.417 285.134 321.661 285.134 321.661L281.469 327.73C281.469 327.73 281.688 331.647 281.701 336.926L275.539 338.852C274.983 339.026 274.392 339.064 273.817 338.963C273.243 338.863 272.701 338.626 272.236 338.273C271.771 337.92 271.398 337.461 271.147 336.935C270.895 336.408 270.774 335.829 270.792 335.246L271.854 300.977L286.23 306.475C285.008 307.325 286.349 309.41 286.349 309.41C286.349 309.41 283.302 311.189 284.643 312.803Z" fill="black"/>
<path d="M285.38 312.066C286.708 313.679 285.871 320.93 285.871 320.93L282.206 326.999C282.206 326.999 282.425 330.91 282.445 336.196L276.17 338.155C275.625 338.324 275.047 338.361 274.484 338.262C273.922 338.163 273.391 337.931 272.937 337.585C272.482 337.24 272.116 336.79 271.87 336.275C271.624 335.76 271.505 335.193 271.522 334.622L272.591 300.247L286.974 305.745C285.745 306.594 287.086 308.673 287.086 308.673C287.086 308.673 284.052 310.459 285.38 312.066Z" fill="white"/>
<path d="M290.14 295.731C290.14 295.731 289.164 301.966 286.721 302.332C284.277 302.697 283.181 312.418 280.745 312.073C278.308 311.727 279.921 303.036 280.007 301.349C280.094 299.662 277.351 292.677 279.403 291.09C281.455 289.503 287.949 291.09 287.949 291.09L290.14 295.731Z" fill="#CF6F80"/>
<path opacity="0.1" d="M295.339 247.717L299.948 238.421C299.948 238.421 301.78 245.506 301.78 249.291C301.78 253.076 304.343 253.448 304.343 253.448C304.343 253.448 307.152 256.768 305.671 259.185C304.191 261.602 303.593 267.618 303.593 267.618C303.593 267.618 304.078 279.098 301.88 280.685C299.682 282.272 299.224 286.064 299.224 286.064C299.224 286.064 295.187 293.268 295.313 294.981C295.439 296.694 289.695 308.294 289.695 308.294C289.695 308.294 292.504 293.879 276.137 287.651C276.137 287.651 276.01 282.757 277.232 281.416C278.454 280.074 280.36 279.463 279.164 272.684C277.969 265.904 278.819 257.804 278.819 256.177C278.819 254.55 282.484 244.404 282.484 244.404L295.339 247.717Z" fill="black"/>
<path d="M297.332 237.093L301.356 238.421C301.356 238.421 303.195 245.506 303.195 249.291C303.195 253.076 305.758 253.448 305.758 253.448C305.758 253.448 308.567 256.768 307.086 259.185C305.605 261.602 305.014 267.618 305.014 267.618C305.014 267.618 305.499 279.098 303.301 280.685C301.103 282.272 300.612 286.064 300.612 286.064C300.612 286.064 296.582 293.268 296.708 294.981C296.834 296.694 291.084 308.294 291.084 308.294C291.084 308.294 293.899 293.879 277.525 287.651C277.525 287.651 277.405 282.757 278.627 281.416C279.849 280.074 281.754 279.463 280.559 272.684C279.364 265.904 280.214 257.804 280.214 256.177C280.214 254.55 283.879 244.404 283.879 244.404L297.332 237.093Z" fill="white"/>
<path opacity="0.1" d="M208.455 478.04C208.455 478.04 214.869 474.01 219.079 476.938C223.289 479.866 208.455 478.04 208.455 478.04Z" fill="black"/>
<path opacity="0.1" d="M258.295 465.577C258.295 465.577 263.972 464.846 268.74 469.979C273.507 475.112 258.295 465.577 258.295 465.577Z" fill="black"/>
<g opacity="0.1">
<path d="M266.602 144.458C265.785 145.162 264.736 145.667 264.191 146.603C263.726 147.407 263.713 148.396 263.341 149.259C262.969 150.122 261.887 150.826 261.137 150.282C260.964 144.306 258.016 138.695 254.397 133.914C253.385 132.471 252.156 131.194 250.752 130.129C249.331 129.061 247.562 128.561 245.792 128.728C243.8 129 242.047 130.355 240.035 130.521C237.379 130.747 234.995 128.908 232.359 128.815C231.288 128.825 230.231 129.065 229.26 129.517C228.289 129.969 227.426 130.624 226.728 131.437C225.342 133.072 224.313 134.979 223.707 137.035C222.663 140.155 222.095 143.414 222.02 146.703C221.98 148.555 221.808 150.866 220.095 151.557C220.135 152.047 220.135 152.54 220.095 153.031C221.821 152.367 221.994 150.029 222.034 148.17C222.108 144.881 222.676 141.622 223.72 138.502C224.326 136.444 225.355 134.536 226.741 132.898C227.44 132.087 228.304 131.434 229.275 130.983C230.246 130.532 231.302 130.293 232.372 130.282C235.028 130.375 237.419 132.208 240.048 131.988C242.04 131.822 243.806 130.461 245.805 130.196C247.575 130.029 249.344 130.528 250.765 131.597C252.169 132.662 253.399 133.939 254.41 135.382C258.029 140.156 260.977 145.753 261.15 151.743C261.9 152.294 262.983 151.577 263.355 150.727C263.726 149.877 263.74 148.881 264.204 148.071C264.749 147.134 265.798 146.636 266.615 145.933C268.687 144.146 269.204 141.138 269.125 138.409C269.125 138.323 269.125 138.237 269.125 138.157C268.999 140.521 268.368 142.931 266.602 144.458Z" fill="black"/>
<path d="M217.585 143.987C216.058 142.307 213.973 141.185 212.572 139.405C211.392 137.83 210.718 135.934 210.639 133.967C210.43 136.425 211.117 138.875 212.572 140.866C213.973 142.652 216.058 143.774 217.585 145.454C219.051 147.098 219.931 149.181 220.088 151.377C220.19 150.04 220.02 148.697 219.59 147.427C219.16 146.157 218.478 144.987 217.585 143.987Z" fill="black"/>
<path d="M270.419 123.941C270.028 125.568 269.33 127.115 269.012 128.755C268.823 129.851 268.754 130.964 268.806 132.075C268.828 131.442 268.897 130.812 269.012 130.189C269.33 128.542 270.028 127.002 270.419 125.375C270.648 124.478 270.722 123.548 270.638 122.626C270.597 123.069 270.524 123.508 270.419 123.941Z" fill="black"/>
</g>
<path opacity="0.1" d="M88.8148 505.039C124.548 505.039 153.515 500.386 153.515 494.647C153.515 488.908 124.548 484.255 88.8148 484.255C53.0817 484.255 24.1143 488.908 24.1143 494.647C24.1143 500.386 53.0817 505.039 88.8148 505.039Z" fill="#B3E5F6"/>
<path d="M90.8996 295.579H86.7363V389.316H90.8996V295.579Z" fill="#535461"/>
<path d="M117.061 389.03L116.802 393.254L116.43 399.23L116.278 401.713L115.913 407.689L115.753 410.172L115.381 416.148L111.185 483.923C111.002 486.839 109.716 489.576 107.587 491.577C105.457 493.578 102.646 494.692 99.7241 494.693H77.9049C74.9839 494.692 72.1731 493.578 70.045 491.577C67.9169 489.576 66.6316 486.839 66.4509 483.923L62.2743 416.102L61.9025 410.126L61.7497 407.642L61.3779 401.666L61.2252 399.183L60.8533 393.207L60.5877 388.984C60.5416 388.171 60.662 387.358 60.9416 386.593C61.2212 385.828 61.6541 385.129 62.2137 384.538C62.7733 383.946 63.4478 383.476 64.1958 383.154C64.9439 382.833 65.7496 382.668 66.5638 382.669H111.191C112.002 382.676 112.803 382.849 113.545 383.178C114.287 383.507 114.953 383.984 115.503 384.58C116.053 385.176 116.475 385.878 116.743 386.644C117.011 387.409 117.119 388.222 117.061 389.03Z" fill="#3F3D56"/>
<path d="M116.803 393.254L116.431 399.21H61.199L60.8271 393.254H116.803Z" fill="#9D9CB5"/>
<path d="M116.278 401.693L115.913 407.656H61.7234L61.3516 401.693H116.278Z" fill="#9D9CB5"/>
<path d="M115.753 410.146L115.388 416.102H62.2478L61.876 410.146H115.753Z" fill="#9D9CB5"/>
<path d="M54.4718 330.711C78.7146 348.254 88.834 375.691 88.834 375.691C88.834 375.691 59.6178 374.688 35.3684 357.145C11.119 339.602 1.01953 312.172 1.01953 312.172C1.01953 312.172 30.2224 313.168 54.4718 330.711Z" fill="#B3F6B3"/>
<path d="M1 312.172C1 312.172 31.3317 329.005 41.0593 342.942C50.787 356.879 88.8344 375.691 88.8344 375.691" stroke="#535461" stroke-width="1.32801" stroke-miterlimit="10"/>
<path d="M70.123 295.373C83.3168 304.915 88.8346 319.848 88.8346 319.848C88.8346 319.848 72.9317 319.304 59.7313 309.762C46.531 300.22 41.0264 285.28 41.0264 285.28C41.0264 285.28 56.9226 285.824 70.123 295.373Z" fill="#B3F6B3"/>
<path d="M41.0264 285.28C41.0264 285.28 57.5335 294.443 62.8256 302.026C68.1177 309.609 88.8346 319.848 88.8346 319.848" stroke="#535461" stroke-width="1.32801" stroke-miterlimit="10"/>
<path d="M107.991 319.091C92.8321 335.751 89.625 357.523 89.625 357.523C89.625 357.523 110.999 352.278 126.145 335.611C141.291 318.945 144.512 297.179 144.512 297.179C144.512 297.179 123.151 302.431 107.991 319.091Z" fill="#B3F6B3"/>
<path d="M144.525 297.186C144.525 297.186 124.777 314.264 119.757 326.03C114.738 337.796 89.625 357.524 89.625 357.524" stroke="#535461" stroke-width="1.32801" stroke-miterlimit="10"/>
<path d="M664.466 313.228C664.466 313.228 653.503 258.687 657.699 251.901C657.699 251.901 657.852 245.593 657.6 237.552C657.6 237.246 657.6 236.941 657.6 236.629C658.338 237.121 659.108 237.565 659.904 237.957C663.77 239.943 668.209 240.516 672.453 239.577L669.133 235.878C668.337 234.995 667.507 234.039 667.334 232.87C667.161 231.702 667.639 230.659 668.051 229.617C671.205 221.649 671.371 211.629 665.296 205.547C660.163 200.434 658.914 193.834 653.343 189.166C649.273 185.746 647.035 180.733 644.924 175.886C643.138 171.789 641.338 167.659 640.316 163.316C639.519 159.923 639.2 156.41 638.105 153.097C637.009 149.784 634.957 146.563 631.75 145.082C630.608 144.558 629.34 144.259 628.297 143.562C626.929 142.639 626.106 141.138 625.117 139.824C620.09 133.184 603.258 137.095 595.29 139.79C593.123 140.469 591.117 141.581 589.393 143.057L589.466 142.938C589.526 142.838 589.599 142.739 589.665 142.639C588.793 143.344 588.04 144.185 587.434 145.129C586.272 146.968 585.788 149.113 584.818 151.105C583.65 153.462 577.149 160.043 579.944 162.692C580.14 162.87 580.365 163.013 580.608 163.117C581.658 163.554 582.813 163.669 583.928 163.449L583.809 163.734C582.854 166.072 582.365 168.573 582.368 171.098C582.368 182.008 591.365 190.852 602.474 190.852C604.563 190.854 606.639 190.534 608.629 189.903C608.676 190.155 608.716 190.407 608.762 190.66C608.762 190.759 608.795 190.859 608.809 190.958L608.457 191.45C608.439 191.42 608.419 191.391 608.397 191.364L597.972 205.932C596.379 207.054 587.202 213.694 586.684 218.674C586.14 224.125 585.595 230.507 585.595 230.507L585.522 231.874C585.067 232.255 584.534 232.532 583.961 232.687C583.387 232.842 582.787 232.87 582.202 232.771C578.948 232.24 578.948 244.723 578.948 244.723C578.948 244.723 576.784 246.715 575.296 244.988C573.809 243.262 569.878 249.112 569.878 249.112L545.244 250.174L544.679 250.208L543.351 246.097C543.208 245.664 542.9 245.304 542.494 245.097C542.087 244.889 541.615 244.85 541.18 244.988C541.077 245.022 540.977 245.065 540.881 245.115L540.788 245.168L540.616 245.287L540.529 245.367C540.482 245.41 540.437 245.457 540.396 245.506L540.317 245.599L540.277 245.639C540.124 245.851 540.022 246.096 539.981 246.354C539.939 246.613 539.959 246.877 540.038 247.127L541.18 250.652C536.426 251.609 531.565 254.304 535.529 261.728L515.437 258.016L521.937 263.474L555.496 270.4C555.051 271.197 555.343 272.352 556.731 273.979C562.707 280.997 573.597 282.903 577.979 283.394C579.136 285.983 580.582 288.434 582.288 290.698L581.91 297.69C581.91 297.69 570.814 350.983 568.783 353.686C569.808 352.524 570.747 351.287 571.591 349.987C568.371 360.937 563.869 375.923 562.687 378.168C560.788 381.753 559.028 396.262 561.193 397.191C561.857 397.477 563.756 397.337 566.465 397.132V398.333L566.346 443.877C566.346 443.877 566.89 471.812 565.396 474.475C563.902 477.137 563.504 482.722 563.504 482.722C563.504 482.722 557.528 493.737 552.793 498.166C552.761 498.201 552.726 498.232 552.687 498.259L552.541 497.223C552.541 497.223 546.851 504.408 534.261 504.003C534.261 504.003 526.685 508.93 537.92 509.195C549.155 509.461 563.504 508.797 563.504 508.797C563.504 508.797 573.524 493.525 581.917 495.517V507.091H584.486V495.331C585.678 494.546 586.698 493.528 587.484 492.338C588.271 491.147 588.807 489.809 589.061 488.405C589.281 486.958 589.12 485.479 588.594 484.113C588.067 482.747 587.194 481.542 586.06 480.617C585.55 480.156 585.142 479.595 584.859 478.969C584.577 478.343 584.428 477.665 584.42 476.978L584.327 477.058C584.327 476.825 584.267 476.586 584.241 476.341C583.504 470.365 582.581 458.034 585.841 448.911C590.31 436.401 591.664 418.977 588.411 408.606C587.361 405.29 586.498 401.918 585.828 398.506C585.748 398.074 585.675 397.663 585.608 397.278C587.832 397.579 590.035 398.022 592.202 398.606C599.738 400.684 616.226 401.069 630.303 400.956C630.336 401.341 630.376 401.746 630.422 402.151C630.673 404.967 631.198 407.751 631.989 410.465C633.755 415.777 634.565 439.196 634.565 439.196C634.565 439.196 636.843 458.452 635.601 466.288C634.937 470.643 634.273 475.019 633.895 479.415V479.501C633.895 479.501 630.163 490.125 627.434 495.895C627.368 496.042 627.295 496.188 627.228 496.327C626.501 496.393 625.784 496.552 625.097 496.798C625.097 496.798 621.438 504.103 617.793 505.311C614.147 506.52 615.356 510.497 623.609 509.036C631.863 507.575 644.326 506.38 644.326 506.38L644.864 498.93L647.401 495.756L646.737 503.186L649.439 502.655L649.081 493.618L653.231 488.425C653.231 488.425 658.244 483.963 650.794 475.185V475.378C650.714 475.252 650.641 475.119 650.555 474.993V474.953C649.32 473.04 648.337 469.475 650.136 463.147C653.39 451.713 655.282 441.334 655.282 441.334C655.282 441.334 662.547 413.532 653.815 400.379H654.2C653.305 398.528 652.673 396.561 652.321 394.535C652.277 394.296 652.237 394.051 652.201 393.798C658.662 393.426 665.003 392.258 670.176 389.735C670.156 389.708 667.042 323.733 664.466 313.228ZM582.441 267.213V267.345L581.113 267.412L582.441 267.213ZM577.886 267.843C577.668 267.892 577.463 267.989 577.288 268.129C576.718 268.937 576.359 269.875 576.246 270.858L574.174 270.393C574.174 270.393 572.72 270.081 570.629 269.729L569.639 268.733C572.362 268.507 575.19 268.175 577.886 267.843Z" fill="url(#paint1_linear_806_55)"/>
<path d="M646.431 493.711L645.641 503.12L648.29 502.589L647.892 492.383L646.431 493.711Z" fill="#1D2366"/>
<path d="M585.988 449.037C582.794 458.133 583.697 470.411 584.414 476.374C584.679 478.578 584.925 479.919 584.925 479.919C584.925 479.919 580.151 490.796 579.753 491.207C579.354 491.619 565.702 499.952 565.702 499.952L556.161 505.523C556.161 505.523 546.479 501.28 551.121 499.82C552.069 499.439 552.923 498.857 553.624 498.113C558.272 493.697 564.109 482.721 564.109 482.721C564.109 482.721 564.507 477.15 565.968 474.501C567.429 471.852 566.897 444.01 566.897 444.01L567.01 398.625V392.709L585.171 392.842C585.285 394.85 585.547 396.848 585.954 398.818C586.606 402.219 587.451 405.579 588.484 408.884C591.685 419.236 590.357 436.573 585.988 449.037Z" fill="#FFB0B1"/>
<path opacity="0.1" d="M584.925 479.919C584.925 479.919 580.151 490.796 579.753 491.207C579.354 491.619 565.702 499.952 565.702 499.952L556.161 505.523C556.161 505.523 546.479 501.28 551.121 499.82C552.069 499.439 552.923 498.857 553.624 498.113L554.036 501.015L557.216 500.882L584.44 476.387C584.679 478.578 584.925 479.919 584.925 479.919Z" fill="black"/>
<path d="M584.593 477.005L557.216 501.666L554.035 501.798L553.371 497.15C553.371 497.15 547.807 504.308 535.443 503.91C535.443 503.91 528.02 508.817 539.022 509.083C550.025 509.348 564.075 508.684 564.075 508.684C564.075 508.684 573.889 493.412 582.103 495.404V506.938H584.626V495.298C585.799 494.508 586.8 493.489 587.569 492.302C588.339 491.116 588.86 489.786 589.101 488.392C589.32 486.957 589.165 485.489 588.652 484.131C588.139 482.773 587.286 481.569 586.173 480.637C585.676 480.171 585.28 479.608 585.008 478.984C584.736 478.359 584.595 477.686 584.593 477.005Z" fill="#1D2366"/>
<path d="M648.955 463.22C647.188 469.528 648.151 473.08 649.36 474.986V475.026C650.91 477.379 651.987 480.011 652.533 482.775L652.64 483.372L640.183 501.533L633.423 504.189C633.423 504.189 622.554 500.477 624.539 499.415C625.037 499.156 625.814 497.775 626.704 495.869C629.36 490.125 633.025 479.528 633.025 479.528V479.441C633.41 475.066 634.021 470.703 634.698 466.361C635.914 458.545 633.682 439.362 633.682 439.362C633.682 439.362 632.886 416.036 631.159 410.73C630.38 408.033 629.862 405.267 629.612 402.47C629.254 399.15 629.174 396.414 629.174 396.414C629.174 396.414 636.332 386.454 649.453 397.211C650.502 398.069 651.425 399.071 652.195 400.186C661.259 413.081 653.961 441.487 653.961 441.487C653.961 441.487 652.135 451.819 648.955 463.22Z" fill="#FFB0B1"/>
<path opacity="0.1" d="M652.659 483.372L640.203 501.533L633.443 504.189C633.443 504.189 622.573 500.477 624.559 499.414C625.057 499.156 625.834 497.774 626.723 495.869C631.325 495.829 633.709 500.211 633.709 500.211L639.539 499.282C639.539 499.282 647.228 484.169 648.954 483.246C650.681 482.323 649.22 476.347 649.22 476.347V474.826C649.266 474.88 649.306 474.939 649.359 474.992V475.032C650.909 477.385 651.987 480.017 652.533 482.781L652.659 483.372Z" fill="black"/>
<path d="M634.107 500.603C634.107 500.603 630.787 494.507 624.426 496.758C624.426 496.758 620.847 504.063 617.268 505.244C613.689 506.426 614.884 510.41 622.972 508.956C631.059 507.502 643.251 506.3 643.251 506.3L643.782 498.87L652.002 488.399C652.002 488.399 656.903 483.956 649.612 475.212V476.732C649.612 476.732 651.073 482.708 649.346 483.631C647.62 484.554 639.957 499.673 639.957 499.673L634.107 500.603Z" fill="#1D2366"/>
<path opacity="0.1" d="M585.19 392.829C585.305 394.837 585.567 396.834 585.974 398.805C578.497 397.709 571.558 398.253 567.01 398.612V392.696L585.19 392.829Z" fill="black"/>
<path opacity="0.1" d="M652.932 401.839C652.932 401.839 642.308 402.357 629.638 402.463C629.28 399.143 629.2 396.408 629.2 396.408C629.2 396.408 636.358 386.448 649.479 397.204C650.528 398.062 651.451 399.064 652.221 400.179C652.427 400.745 652.664 401.299 652.932 401.839Z" fill="black"/>
<path d="M652.932 400.644C652.932 400.644 606.398 402.895 592.215 398.918C578.032 394.94 563.975 398.386 561.857 397.463C559.739 396.541 561.459 382.085 563.318 378.506C565.177 374.927 575.376 338.732 575.376 338.732L585.19 287.564L595.529 284.716L596.259 284.51L614.273 279.543L627.474 275.898C627.474 275.898 653.722 378.373 651.471 385.93C650.653 388.823 650.522 391.867 651.086 394.821C651.43 396.838 652.051 398.797 652.932 400.644Z" fill="#1D2366"/>
<path d="M550.98 252.571C550.98 252.571 541.684 262.531 548.723 268.082C555.761 273.633 560.389 268.614 560.389 268.614L550.98 252.571Z" fill="#C7DAF5"/>
<path opacity="0.1" d="M550.98 252.571C550.98 252.571 541.684 262.531 548.723 268.082C555.761 273.633 560.389 268.614 560.389 268.614L550.98 252.571Z" fill="black"/>
<path d="M626.086 187.087C626.086 187.087 624.997 188.123 623.357 189.65C621.02 191.835 617.56 195.029 614.493 197.705C610.243 201.403 606.737 204.119 607.992 201.802C609.247 199.484 609.008 195.447 608.384 191.669C608.337 191.417 608.297 191.164 608.251 190.919C607.734 188.144 607.049 185.403 606.199 182.711C606.199 182.711 613.065 173.84 616.863 170.341C618.277 169.013 619.267 168.469 619.327 169.392C619.393 170.633 620.323 173.376 621.478 176.284C621.511 176.377 621.544 176.463 621.584 176.556C622.354 178.548 623.224 180.593 623.988 182.36C625.157 185.069 626.086 187.087 626.086 187.087Z" fill="#FFB0B1"/>
<path opacity="0.1" d="M621.584 176.556C620.939 180.026 619.374 183.26 617.051 185.918C614.729 188.577 611.736 190.563 608.384 191.669C607.856 188.638 607.126 185.645 606.199 182.711C606.199 182.711 619.127 166.012 619.327 169.392C619.373 170.673 620.382 173.515 621.584 176.556Z" fill="black"/>
<path opacity="0.1" d="M607.096 196.131L608.769 193.774C608.769 193.774 609.878 200.533 613.955 197.552C618.032 194.57 618.231 219.988 618.231 219.988L613.855 285.413L582.235 283.52L583.132 251.907L586.711 235.971L595.562 212.804L600.827 205.148L607.096 196.131Z" fill="black"/>
<path d="M618.232 220.394L614.248 279.55L613.829 285.818L596.2 284.762L595.536 284.722L582.256 283.925L583.152 252.306L586.731 236.369L595.582 213.202L600.848 205.546L607.116 196.496L608.789 194.146C608.789 194.146 609.898 200.905 613.975 197.924L614.062 197.864C618.046 195.341 618.232 220.394 618.232 220.394Z" fill="#1D2366"/>
<path d="M587.176 230.832C587.176 230.832 585.589 234.152 582.402 233.614C579.214 233.076 579.221 245.566 579.221 245.566C579.221 245.566 577.103 247.558 575.642 245.832C574.181 244.105 570.33 249.942 570.33 249.942L546.2 251.004C546.2 251.004 556.937 255.911 554.832 270.758C554.832 270.758 591.286 268.501 592.481 265.054C593.676 261.608 587.176 230.832 587.176 230.832Z" fill="white"/>
<path opacity="0.03" d="M587.176 230.832C587.176 230.832 585.589 234.152 582.402 233.614C579.214 233.076 579.221 245.566 579.221 245.566C579.221 245.566 577.103 247.558 575.642 245.832C574.181 244.105 570.33 249.942 570.33 249.942L546.2 251.004C546.2 251.004 556.937 255.911 554.832 270.758C554.832 270.758 591.286 268.501 592.481 265.054C593.676 261.608 587.176 230.832 587.176 230.832Z" fill="black"/>
<path d="M517.05 258.806L523.411 264.238L575.774 275.24L569.28 268.613L517.05 258.806Z" fill="white"/>
<path d="M607.195 198.222C606.325 199.55 603.835 206.35 601.757 212.286C600.024 217.233 598.576 221.582 598.576 221.582C598.576 221.582 595.197 243.587 593.47 247.565C591.744 251.542 592.68 267.053 592.68 267.053L586.246 305.359C586.246 305.359 583.331 325.114 578.829 336.913C574.387 348.526 569.44 353.971 569.287 354.144C571.279 351.448 582.136 298.367 582.136 298.367L585.721 231.423C585.721 231.423 586.246 225.062 586.777 219.623C587.308 214.185 598.065 206.762 598.065 206.762L608.437 192.014C609.479 193.408 608.782 195.839 607.195 198.222Z" fill="white"/>
<path d="M580.151 284.257C580.151 284.257 564.879 283.593 557.482 274.709C550.085 265.825 574.58 271.163 574.58 271.163L580.948 272.624L580.151 284.257Z" fill="#FFB0B1"/>
<path opacity="0.1" d="M651.472 385.936C650.654 388.83 650.522 391.874 651.086 394.827C634.427 396.009 616.605 391.507 616.605 391.507C613.285 394.562 604.54 399.064 604.54 399.064L599.772 339.967C596.724 331.999 595.529 290.253 595.529 290.253C595.529 290.253 595.802 288.069 596.193 284.795C596.193 284.716 596.193 284.629 596.226 284.55C597.415 275.406 599.772 258.242 600.928 255.925C602.521 252.737 596.027 244.258 596.027 244.258L598.982 219.059L599.341 216.018C605.569 213.236 610.343 204.351 610.343 204.351L614.008 197.93C617.993 195.374 618.198 220.427 618.198 220.427L614.214 279.583L627.415 275.938C627.415 275.938 653.723 378.38 651.472 385.936Z" fill="black"/>
<path d="M668.57 390.02C650.409 399.037 617.402 390.684 617.402 390.684C614.082 393.738 605.337 398.24 605.337 398.24L600.563 339.144C597.521 331.176 596.326 289.43 596.326 289.43C596.326 289.43 600.164 258.282 601.758 255.101C602.223 254.172 601.997 252.79 601.446 251.303C598.736 244.224 597.74 236.604 598.537 229.066L599.812 218.236L600.164 215.201C606.399 212.412 611.173 203.528 611.173 203.528L614.493 197.711L620.602 186.994L623.497 181.921L623.989 182.366L627.74 185.766C627.74 185.766 629.334 187.094 631.724 189.086C636.923 193.468 645.907 201.184 650.542 205.905C654.619 210.062 655.907 226.23 656.279 238.402C656.525 246.416 656.379 252.698 656.379 252.698C652.268 259.464 663.019 313.786 663.019 313.786C665.522 324.284 668.57 390.02 668.57 390.02Z" fill="white"/>
<path opacity="0.03" d="M633.709 203.395C633.709 203.395 621.246 227.12 622.693 236.137C624.141 245.154 628.257 255.36 626.272 257.744C625.59 258.647 624.708 259.38 623.696 259.886C622.683 260.391 621.567 260.656 620.435 260.659C618.443 260.792 613.131 264.503 613.131 264.902C613.131 265.3 608.224 265.3 603.835 267.159C599.446 269.019 592.966 270.074 592.966 270.074C592.966 270.074 580.35 269.676 579.174 270.871C577.999 272.066 576.79 279.218 579.307 284.921C581.824 290.625 584.619 294.881 586.731 295.658C588.842 296.435 602.242 291.947 613.111 290.884C623.981 289.822 635.781 281.21 635.781 281.21C635.781 281.21 648.775 276.562 651.053 268.746C653.33 260.931 648.27 217.977 648.27 217.977C648.27 217.977 644.446 197.957 633.709 203.395Z" fill="black"/>
<path opacity="0.03" d="M632.115 201.403C632.115 201.403 619.652 225.135 621.113 234.145C622.574 243.156 626.677 253.368 624.685 255.758C624.005 256.663 623.125 257.396 622.113 257.902C621.102 258.408 619.986 258.672 618.855 258.673C616.863 258.806 611.551 262.518 611.551 262.916C611.551 263.315 606.644 263.315 602.255 265.167C597.866 267.02 591.385 268.082 591.385 268.082C591.385 268.082 578.769 267.684 577.601 268.879C576.432 270.074 575.21 277.232 577.733 282.929C580.257 288.627 583.046 292.89 585.157 293.666C587.269 294.443 600.668 289.955 611.538 288.899C622.408 287.843 634.207 279.218 634.207 279.218C634.207 279.218 647.195 274.57 649.446 266.761C651.697 258.952 646.664 215.985 646.664 215.985C646.664 215.985 642.852 195.972 632.115 201.403Z" fill="black"/>
<path d="M633.318 202.2C633.318 202.2 620.854 225.931 622.315 234.942C623.776 243.952 627.879 254.165 625.894 256.548C625.214 257.455 624.333 258.19 623.32 258.698C622.307 259.205 621.19 259.469 620.057 259.47C618.065 259.603 612.753 263.315 612.753 263.706C612.753 264.098 607.853 264.105 603.457 265.964C599.062 267.823 592.588 268.879 592.588 268.879C592.588 268.879 579.972 268.481 578.796 269.676C577.621 270.871 576.413 278.029 578.929 283.726C581.446 289.423 584.241 293.686 586.353 294.463C588.464 295.24 601.864 290.751 612.734 289.689C623.603 288.626 635.403 280.014 635.403 280.014C635.403 280.014 648.397 275.366 650.675 267.551C652.952 259.736 647.926 216.781 647.926 216.781C647.926 216.781 644.048 196.795 633.318 202.2Z" fill="white"/>
<path opacity="0.1" d="M633.045 265.851C633.045 265.851 623.085 263.859 626.551 267.179C630.017 270.499 629.997 273.408 634.24 273.275C638.483 273.142 633.045 265.851 633.045 265.851Z" fill="black"/>
<path opacity="0.1" d="M649.877 337.285C649.877 337.285 645.375 340.333 653.987 347.358C662.6 354.383 649.877 337.285 649.877 337.285Z" fill="black"/>
<path opacity="0.1" d="M641.285 362.338C641.285 362.736 639.692 376.946 645.654 380.498C651.617 384.051 641.285 362.338 641.285 362.338Z" fill="black"/>
<path d="M546.612 250.971C541.805 251.137 531.42 252.604 536.805 262.651C541.566 271.542 549.567 265.599 554.069 261.09C552.971 256.887 550.302 253.265 546.612 250.971Z" fill="#FFB0B1"/>
<path opacity="0.1" d="M631.724 189.491C626.624 192.977 622.348 195.919 621.511 196.529C619.227 198.223 614.871 208.163 612.062 213.236C609.825 217.319 602.554 218.369 599.812 218.627L600.163 215.593C606.398 212.804 611.173 203.92 611.173 203.92L623.497 182.313L627.74 186.171C627.74 186.171 629.333 187.499 631.724 189.491Z" fill="black"/>
<path d="M631.724 189.092C626.624 192.578 622.348 195.52 621.511 196.138C619.227 197.824 614.871 207.764 612.062 212.837C609.825 216.921 602.554 217.97 599.812 218.229L600.163 215.194C606.398 212.406 611.173 203.521 611.173 203.521L623.497 181.915L627.74 185.759C627.74 185.759 629.333 187.074 631.724 189.092Z" fill="#DCE7FF"/>
<path d="M621.91 172.174C621.913 176.16 620.704 180.052 618.444 183.336C615.775 187.218 611.802 190.014 607.248 191.218C602.693 192.422 597.858 191.953 593.619 189.896C589.38 187.84 586.019 184.332 584.146 180.009C582.272 175.687 582.01 170.836 583.407 166.337C584.805 161.837 587.768 157.988 591.761 155.487C595.753 152.986 600.51 151.999 605.168 152.705C609.826 153.411 614.076 155.764 617.148 159.336C620.22 162.908 621.909 167.463 621.91 172.174Z" fill="#FFB0B1"/>
<path opacity="0.1" d="M656.279 238.408C653.583 236.749 651.386 234.39 649.925 231.582C648.816 229.391 648.079 226.861 646.186 225.307C644.48 223.913 642.202 223.574 640.077 222.95C633.092 220.885 627.236 214.51 627.016 207.233C626.91 203.807 627.979 200.387 627.495 196.994C627.219 195.074 626.455 193.256 625.277 191.715C624.692 190.978 624.05 190.288 623.358 189.65C622.428 188.774 621.452 187.924 620.602 186.994C620.067 186.419 619.599 185.784 619.208 185.102C618.892 184.544 618.636 183.954 618.444 183.342C617.116 179.278 618.325 174.458 616.864 170.348L616.784 170.122C616.233 168.661 615.111 167.2 613.55 167.087C611.99 166.974 610.655 168.269 609.168 168.847C606.054 170.055 602.694 167.997 600.098 165.899C597.501 163.8 594.573 161.403 591.273 161.868C589.089 162.18 587.362 163.668 585.35 164.438C584.896 164.614 584.427 164.749 583.949 164.843C585.652 160.597 588.78 157.076 592.797 154.886C596.813 152.695 601.467 151.972 605.959 152.84C610.45 153.709 614.5 156.114 617.411 159.643C620.322 163.172 621.913 167.605 621.91 172.18C621.913 173.562 621.768 174.94 621.479 176.29C621.512 176.383 621.545 176.47 621.585 176.563C622.355 178.555 623.225 180.6 623.989 182.366L627.74 185.766C627.74 185.766 629.334 187.094 631.724 189.086C636.923 193.468 645.907 201.184 650.542 205.905C654.619 210.075 655.894 226.237 656.279 238.408Z" fill="black"/>
<path d="M585.117 152.307C586.066 150.375 586.538 148.21 587.673 146.377C589.34 143.721 592.248 142.021 595.236 140.992C603.038 138.303 619.526 134.399 624.453 140.992C625.422 142.32 626.225 143.794 627.567 144.711C628.589 145.408 629.824 145.707 630.947 146.231C634.087 147.705 636.093 150.919 637.162 154.199C638.231 157.479 638.549 160.999 639.333 164.378C640.336 168.714 642.095 172.825 643.848 176.908C645.913 181.729 648.104 186.729 652.088 190.135C657.527 194.783 658.728 201.363 663.775 206.463C669.751 212.519 669.558 222.512 666.477 230.447C666.072 231.489 665.614 232.578 665.774 233.687C665.933 234.796 666.756 235.805 667.533 236.688L670.8 240.374C663.071 242.239 654.326 238.202 650.727 231.117C649.618 228.926 648.881 226.403 646.982 224.843C645.282 223.448 642.998 223.116 640.88 222.492C633.895 220.42 628.038 214.039 627.819 206.762C627.713 203.342 628.782 199.922 628.297 196.536C628.027 194.603 627.261 192.773 626.073 191.224C624.247 188.84 621.491 187.24 620.004 184.584C617.487 180.142 619.399 174.372 617.587 169.604C617.029 168.143 615.913 166.682 614.353 166.57C612.793 166.457 611.458 167.752 609.964 168.329C606.856 169.538 603.497 167.486 600.9 165.381C598.304 163.276 595.376 160.886 592.069 161.357C589.885 161.663 588.165 163.15 586.153 163.927C584.665 164.498 581.651 165.009 580.349 163.754C577.6 161.224 583.968 154.671 585.117 152.307Z" fill="#591D4B"/>
<path opacity="0.1" d="M652.574 228.926C651.458 226.735 650.728 224.212 648.829 222.658C647.129 221.263 644.845 220.925 642.72 220.301C635.741 218.236 629.885 211.855 629.659 204.577C629.553 201.157 630.622 197.731 630.144 194.345C629.866 192.424 629.1 190.607 627.919 189.066C626.087 186.682 623.331 185.082 621.85 182.426C619.334 177.99 621.246 172.22 619.427 167.446C618.876 165.992 617.753 164.531 616.2 164.412C614.646 164.292 613.298 165.6 611.81 166.178C608.703 167.386 605.336 165.328 602.747 163.23C600.157 161.131 597.216 158.734 593.916 159.199C591.731 159.511 590.005 160.999 587.999 161.769C586.512 162.34 583.491 162.858 582.189 161.603C579.454 158.947 585.821 152.406 586.963 150.056C587.913 148.117 588.384 145.959 589.527 144.126C589.586 144.027 589.653 143.927 589.719 143.827C588.865 144.535 588.128 145.373 587.535 146.311C586.399 148.143 585.928 150.295 584.978 152.24C583.829 154.591 577.462 161.151 580.204 163.787C581.532 165.049 584.52 164.531 586.007 163.96C587.999 163.183 589.739 161.696 591.924 161.39C595.244 160.919 598.165 163.316 600.755 165.414C603.344 167.512 606.731 169.571 609.825 168.362C611.313 167.785 612.614 166.483 614.208 166.603C615.801 166.722 616.864 168.176 617.441 169.637C619.254 174.405 617.342 180.175 619.858 184.617C621.346 187.227 624.101 188.86 625.927 191.257C627.116 192.806 627.882 194.636 628.152 196.569C628.636 199.956 627.567 203.375 627.674 206.795C627.893 214.099 633.749 220.453 640.734 222.525C642.839 223.149 645.137 223.481 646.837 224.876C648.742 226.436 649.493 228.959 650.582 231.15C654.181 238.235 662.925 242.273 670.654 240.407L669.114 238.667C662.414 238.767 655.635 234.955 652.574 228.926Z" fill="black"/>
<path opacity="0.1" d="M606.797 198.621C605.928 199.949 603.438 206.748 601.359 212.684C599.414 211.928 597.647 207.1 597.647 207.1L608.019 192.346C609.082 193.807 608.384 196.23 606.797 198.621Z" fill="black"/>
<path d="M607.196 198.223C606.326 199.551 603.836 206.35 601.758 212.286C599.812 211.536 598.046 206.702 598.046 206.702L608.418 191.954C609.48 193.409 608.783 195.839 607.196 198.223Z" fill="#DCE7FF"/>
<path d="M546.891 266.057L541.14 247.923C541.072 247.711 541.047 247.487 541.065 247.265C541.084 247.043 541.146 246.826 541.249 246.628C541.351 246.43 541.492 246.254 541.662 246.111C541.833 245.967 542.03 245.859 542.243 245.792C542.671 245.658 543.134 245.699 543.532 245.905C543.93 246.112 544.23 246.467 544.367 246.894L550.118 265.008L549.547 268.799L546.891 266.057Z" fill="#BE8B87"/>
<path opacity="0.1" d="M541.685 246.329C542.114 246.194 542.579 246.234 542.978 246.44C543.378 246.647 543.679 247.003 543.816 247.432L549.567 265.546L549.135 268.388L549.553 268.826L550.124 265.034L544.341 246.92C544.204 246.494 543.903 246.138 543.505 245.932C543.107 245.725 542.644 245.685 542.216 245.818C541.856 245.935 541.545 246.169 541.333 246.482C541.446 246.422 541.564 246.371 541.685 246.329Z" fill="white"/>
<path d="M546.891 266.057L550.118 265.035L549.646 268.142L549.547 268.826L548.604 267.843L546.891 266.057Z" fill="#EFC8C4"/>
<path d="M548.604 267.843C548.66 267.772 548.73 267.714 548.809 267.671C548.856 267.641 548.91 267.625 548.965 267.625C549.021 267.625 549.075 267.641 549.121 267.671C549.167 267.725 549.205 267.786 549.234 267.85C549.278 267.923 549.338 267.986 549.409 268.033C549.48 268.08 549.561 268.11 549.646 268.122L549.546 268.786L548.604 267.843Z" fill="#727A9C"/>
<path d="M541.107 254.364C541.107 254.364 552.641 254.298 549.925 259.205C547.21 264.111 542.967 264.702 542.967 264.702L541.107 254.364Z" fill="#FFB0B1"/>
<path d="M469.375 34.1472H468.877C449.063 34.1472 431.54 44.6318 421.46 60.1031C411.381 44.6318 393.858 34.1472 374.044 34.1472H373.546C358.676 34.2889 344.463 40.2932 333.996 50.8554C323.528 61.4175 317.652 75.6839 317.644 90.5543C317.644 109.02 325.731 135.222 341.501 156.782C371.547 197.864 421.46 233.806 421.46 233.806C421.46 233.806 471.374 197.871 501.413 156.782C517.19 135.222 525.271 109.02 525.271 90.5543C525.263 75.685 519.387 61.4196 508.921 50.8577C498.455 40.2957 484.244 34.2907 469.375 34.1472ZM462.25 159.943C459.994 159.934 457.792 159.243 455.936 157.961C454.079 156.679 452.653 154.865 451.845 152.758H439.999C439.219 152.753 438.46 152.505 437.828 152.048C437.196 151.591 436.723 150.948 436.474 150.208L432.835 139.246L421.321 179.478C421.097 180.252 420.627 180.933 419.983 181.418C419.339 181.903 418.555 182.166 417.749 182.167H417.516C416.675 182.126 415.873 181.798 415.245 181.237C414.616 180.677 414.199 179.917 414.063 179.086L402.198 107.719L393.526 149.949C393.327 150.752 392.865 151.464 392.214 151.973C391.563 152.482 390.76 152.759 389.934 152.758H373.247C372.747 152.779 372.248 152.699 371.779 152.522C371.311 152.345 370.883 152.076 370.522 151.729C370.16 151.383 369.873 150.967 369.676 150.506C369.48 150.046 369.378 149.55 369.378 149.05C369.378 148.549 369.48 148.054 369.676 147.593C369.873 147.133 370.16 146.717 370.522 146.37C370.883 146.024 371.311 145.754 371.779 145.577C372.248 145.4 372.747 145.32 373.247 145.341H387.012L399.296 88.5623C399.498 87.7228 399.985 86.9795 400.674 86.4593C401.363 85.9392 402.211 85.6745 403.074 85.7106C403.936 85.7466 404.76 86.0812 405.403 86.6571C406.046 87.233 406.469 88.0144 406.6 88.8677L418.718 161.669L429.037 125.673C429.252 124.915 429.706 124.247 430.332 123.768C430.958 123.29 431.722 123.026 432.51 123.017H432.583C433.363 123.018 434.123 123.264 434.755 123.722C435.387 124.18 435.858 124.826 436.102 125.567L442.682 145.361H451.699C452.34 143.413 453.507 141.681 455.071 140.354C456.635 139.028 458.534 138.159 460.561 137.844C462.587 137.529 464.661 137.78 466.553 138.569C468.446 139.358 470.084 140.655 471.286 142.316C472.488 143.978 473.208 145.939 473.366 147.983C473.524 150.028 473.114 152.076 472.181 153.902C471.248 155.728 469.829 157.261 468.08 158.332C466.331 159.403 464.321 159.969 462.27 159.969L462.25 159.943Z" fill="#65AED8"/>
<defs>
<linearGradient id="paint0_linear_806_55" x1="237.286" y1="514.521" x2="237.286" y2="105.933" gradientUnits="userSpaceOnUse">
<stop stop-color="#808080" stop-opacity="0.25"/>
<stop offset="0.54" stop-color="#808080" stop-opacity="0.12"/>
<stop offset="1" stop-color="#808080" stop-opacity="0.1"/>
</linearGradient>
<linearGradient id="paint1_linear_806_55" x1="593.922" y1="509.355" x2="593.922" y2="136.185" gradientUnits="userSpaceOnUse">
<stop stop-color="#808080" stop-opacity="0.25"/>
<stop offset="0.54" stop-color="#808080" stop-opacity="0.12"/>
<stop offset="1" stop-color="#808080" stop-opacity="0.1"/>
</linearGradient>
</defs>
</svg>
